<svg width="21" height="26" viewBox="0 0 21 26" fill="none" xmlns="http://www.w3.org/2000/svg">
<path d="M16.892 12.7878C19.004 14.0358 20.06 15.9198 20.06 18.4398C20.06 20.6958 19.292 22.4838 17.756 23.8038C16.196 25.1478 14.144 25.8198 11.6 25.8198H0.98V0.619823H10.916C13.46 0.619823 15.476 1.26782 16.964 2.56382C18.476 3.83582 19.232 5.57582 19.232 7.78382C19.232 9.89582 18.452 11.5638 16.892 12.7878ZM10.736 6.37982H7.424V10.3398H10.736C11.336 10.3398 11.828 10.1718 12.212 9.83582C12.596 9.47582 12.788 8.98382 12.788 8.35982C12.788 7.75982 12.596 7.27982 12.212 6.91982C11.828 6.55982 11.336 6.37982 10.736 6.37982ZM7.424 20.0598H11.42C12.068 20.0598 12.596 19.8678 13.004 19.4838C13.412 19.0758 13.616 18.5598 13.616 17.9358C13.616 17.2878 13.412 16.7718 13.004 16.3878C12.596 16.0038 12.068 15.8118 11.42 15.8118H7.424V20.0598Z" fill="black"/>
</svg>
