<svg width="50" height="50" viewBox="0 0 50 50" fill="none" xmlns="http://www.w3.org/2000/svg">
<path fill-rule="evenodd" clip-rule="evenodd" d="M25.0013 2.60431C25.4157 2.60431 25.8131 2.76893 26.1062 3.06195C26.3992 3.35498 26.5638 3.75241 26.5638 4.16681V27.0272L30.0638 22.9418C30.1973 22.7859 30.3602 22.6577 30.5433 22.5648C30.7263 22.4718 30.9258 22.4158 31.1305 22.3999C31.3352 22.384 31.541 22.4086 31.7361 22.4723C31.9313 22.536 32.112 22.6375 32.268 22.771C32.4239 22.9045 32.552 23.0674 32.645 23.2504C32.738 23.4335 32.794 23.633 32.8099 23.8377C32.8257 24.0424 32.8011 24.2481 32.7375 24.4433C32.6738 24.6385 32.5723 24.8192 32.4388 24.9751L26.1888 32.2668C26.0421 32.4383 25.86 32.5761 25.655 32.6705C25.45 32.7649 25.227 32.8138 25.0013 32.8138C24.7756 32.8138 24.5526 32.7649 24.3476 32.6705C24.1426 32.5761 23.9605 32.4383 23.8138 32.2668L17.5638 24.9751C17.4303 24.8192 17.3288 24.6385 17.2651 24.4433C17.2015 24.2481 17.1769 24.0424 17.1927 23.8377C17.2086 23.633 17.2646 23.4335 17.3576 23.2504C17.4506 23.0674 17.5787 22.9045 17.7346 22.771C17.8906 22.6375 18.0713 22.536 18.2665 22.4723C18.4616 22.4086 18.6674 22.384 18.8721 22.3999C19.0768 22.4158 19.2763 22.4718 19.4593 22.5648C19.6424 22.6577 19.8053 22.7859 19.9388 22.9418L23.4388 27.0251V4.16681C23.4388 3.75241 23.6034 3.35498 23.8964 3.06195C24.1895 2.76893 24.5869 2.60431 25.0013 2.60431ZM14.5763 17.1918C14.9907 17.1896 15.389 17.3521 15.6836 17.6436C15.9782 17.935 16.1449 18.3316 16.1471 18.746C16.1493 19.1604 15.9868 19.5587 15.6954 19.8533C15.4039 20.1479 15.0074 20.3146 14.593 20.3168C12.3159 20.3293 10.7013 20.3876 9.47422 20.6126C8.29505 20.8314 7.60963 21.1793 7.10338 21.6856C6.5263 22.2626 6.1513 23.0731 5.94505 24.6022C5.73464 26.1751 5.73047 28.2606 5.73047 31.2501V33.3335C5.73047 36.3251 5.73464 38.4106 5.94505 39.9835C6.1513 41.5126 6.52839 42.321 7.10338 42.9001C7.68047 43.4751 8.4888 43.8501 10.0201 44.0564C11.5909 44.2689 13.6784 44.271 16.668 44.271H33.3346C36.3242 44.271 38.4096 44.2689 39.9846 44.0564C41.5138 43.8501 42.3221 43.4751 42.8992 42.8981C43.4763 42.321 43.8513 41.5126 44.0575 39.9835C44.268 38.4106 44.2721 36.3251 44.2721 33.3335V31.2501C44.2721 28.2606 44.268 26.1751 44.0575 24.6001C43.8513 23.0731 43.4742 22.2626 42.8992 21.6856C42.3909 21.1793 41.7076 20.8314 40.5284 20.6126C39.3013 20.3876 37.6867 20.3293 35.4096 20.3168C35.2044 20.3157 35.0015 20.2742 34.8123 20.1947C34.6232 20.1151 34.4515 19.9991 34.3072 19.8533C34.1629 19.7074 34.0487 19.5345 33.9712 19.3446C33.8937 19.1546 33.8544 18.9512 33.8555 18.746C33.8566 18.5408 33.8981 18.3378 33.9776 18.1487C34.0571 17.9595 34.1731 17.7879 34.319 17.6436C34.4649 17.4992 34.6377 17.3851 34.8277 17.3076C35.0177 17.23 35.2211 17.1907 35.4263 17.1918C37.6805 17.2043 39.5576 17.2585 41.093 17.5397C42.6721 17.8314 44.0159 18.3835 45.1096 19.4772C46.3638 20.7293 46.9013 22.3106 47.1555 24.1856C47.3971 25.9897 47.3971 28.2876 47.3971 31.1356V33.4481C47.3971 36.2981 47.3971 38.5939 47.1555 40.4001C46.9013 42.2751 46.3638 43.8543 45.1096 45.1085C43.8555 46.3626 42.2763 46.9001 40.4013 47.1543C38.5951 47.396 36.2971 47.396 33.4492 47.396H16.5534C13.7055 47.396 11.4076 47.396 9.6013 47.1543C7.7263 46.9022 6.14714 46.3626 4.89297 45.1085C3.6388 43.8543 3.1013 42.2751 2.84922 40.4001C2.60547 38.5939 2.60547 36.296 2.60547 33.4481V31.1356C2.60547 28.2876 2.60547 25.9897 2.84922 24.1835C3.09922 22.3085 3.64089 20.7293 4.89297 19.4751C5.98672 18.3835 7.33047 17.8293 8.90964 17.5397C10.4451 17.2585 12.3221 17.2043 14.5763 17.1918Z" fill="#2D2323"/>
</svg>
