<svg width="130" height="116" viewBox="0 0 130 116" fill="none" xmlns="http://www.w3.org/2000/svg">
<g clip-path="url(#clip0_3004_793)">
<path d="M58.8613 7.93804C55.57 9.21724 49.094 11.6957 44.4836 13.4546C39.8731 15.2135 36.0755 16.6792 36.0489 16.7059C36.0222 16.7325 36.6485 18.3982 37.4347 20.3969L38.8871 24.048L64.6576 24.0879L90.4415 24.1146L91.8939 20.4369C92.6801 18.4248 93.3064 16.7459 93.2797 16.7192C93.2531 16.6926 90.2017 15.5066 86.5106 14.0809C82.8063 12.6551 78.1692 10.8429 76.1838 10.0567C72.5061 8.59097 67.0828 6.47229 65.657 5.92597L64.8575 5.61949L58.8613 7.93804ZM67.5358 9.84352C70.2941 10.9895 74.225 12.6551 80.581 15.3867C91.4409 20.0505 92.1471 20.3703 91.5075 20.3836C91.1744 20.3969 38.434 20.3969 38.0876 20.3836C37.5146 20.3836 38.0343 20.1304 42.9379 18.0517C44.4436 17.4121 47.7749 15.9997 50.3333 14.907C61.0199 10.3632 64.7376 8.80417 64.8708 8.79084C64.9641 8.79084 66.1633 9.25722 67.5358 9.84352Z" fill="#134283"/>
<path d="M61.7928 11.0028C60.1804 11.6957 56.5294 13.2547 53.6645 14.4806C45.4163 17.9851 42.1251 19.3975 41.2723 19.8106L40.4728 20.1837L41.139 20.2237C41.7386 20.2503 42.205 20.0904 45.6029 18.638C47.6949 17.7452 51.0262 16.3328 52.9983 15.4933C61.6195 11.8156 64.7243 10.5231 64.9375 10.5231C65.1507 10.5231 65.4172 10.643 65.737 10.7763C66.0568 10.9095 68.3353 11.8822 70.7871 12.9216C73.2389 13.9609 78.1159 16.0396 81.607 17.5454C87.3501 19.9972 88.0297 20.2637 88.6027 20.2237L89.2423 20.1837L88.4428 19.7973C86.1375 18.7046 65.0041 9.71027 64.8042 9.73692C64.7642 9.73692 63.4051 10.3099 61.7928 11.0028Z" fill="#134283"/>
<path d="M39.0734 43.1027V59.0128L40.0595 59.679C44.3501 62.5705 51.026 66.3282 56.1294 68.6867C60.007 70.4856 64.4176 72.3511 64.8173 72.3511C65.2171 72.3511 66.0566 71.9647 67.2425 71.4983C74.2381 68.74 82.0865 64.6759 87.9762 60.7717L89.5086 59.759L85.4844 59.719L81.4469 59.6923V57.1606H89.5752V58.3598C89.5752 59.0128 89.6152 59.5591 89.6818 59.5591C89.7484 59.5591 89.9616 59.4125 90.1748 59.2393L90.5746 58.9195L90.6012 43.8089C90.6145 35.5075 90.5879 28.3653 90.5479 27.9389L90.468 27.1793H39.0734V43.1027ZM47.6014 27.4059C47.6014 27.4725 47.3882 27.6724 47.1484 27.8722L46.682 28.2453H44.1902C41.7251 28.2453 41.6985 28.2453 41.2454 27.8989C41.0056 27.7123 40.8057 27.5125 40.8057 27.4325C40.8057 27.3526 42.1515 27.3126 44.2036 27.3126C46.2556 27.3126 47.6014 27.3526 47.6014 27.4059ZM59.5939 27.4059C59.5806 27.4725 59.3408 27.6724 59.0476 27.8722L58.5279 28.2453H56.1028C53.7043 28.2453 53.6776 28.2453 53.1713 27.8989C52.8915 27.699 52.6649 27.4858 52.6649 27.4325C52.6649 27.3792 54.224 27.3126 56.1294 27.3126C58.0349 27.3126 59.5939 27.3526 59.5939 27.4059ZM76.7565 27.779L76.2502 28.2453H71.3199L70.7869 27.8589C70.4938 27.659 70.3072 27.4458 70.3472 27.3925C70.3872 27.3526 71.9595 27.3126 73.8384 27.3126H77.2496C77.2496 27.3259 76.7565 27.779 76.7565 27.779ZM89.0422 27.4325C89.0422 27.4858 88.8157 27.699 88.5358 27.8989C88.0295 28.2453 88.0028 28.2453 85.6043 28.2453C83.2058 28.2453 83.1659 28.2453 82.6462 27.8989C82.353 27.699 82.1132 27.4858 82.1132 27.4325C82.1132 27.3792 83.6722 27.3126 85.5777 27.3126C87.4832 27.3126 89.0422 27.3659 89.0422 27.4325ZM46.2689 42.7163V56.6276H42.2714V28.7917L44.1769 28.7517C45.2163 28.725 46.109 28.725 46.1757 28.7517C46.229 28.7783 46.2689 35.0544 46.2689 42.7163ZM57.9949 42.6363V56.6276H54.1307V28.7917L55.9695 28.7384C56.9689 28.725 57.835 28.6851 57.9017 28.6717C57.955 28.6584 57.9949 34.9345 57.9949 42.6363ZM75.7172 42.703V56.6276H71.8529V28.7783H75.7172V42.703ZM87.5764 42.703V56.6276H83.7122V28.7783H87.5764V42.703ZM67.3491 38.7854C67.9087 38.852 68.6816 39.0253 69.0813 39.1452L69.7876 39.3717V56.6942H60.0603L60.0203 47.993C60.007 43.2226 60.007 39.3051 60.0337 39.3051C60.0603 39.3051 60.5533 39.1852 61.1396 39.0253C62.8985 38.5589 65.0172 38.4789 67.3491 38.7854ZM48.3743 58.4664L48.4143 59.6923L44.3102 59.6657L40.2061 59.6257L40.1661 58.3865L40.1261 57.1606L44.2302 57.1872L48.3343 57.2272L48.3743 58.4664ZM60.1536 58.3732C60.1802 59.0394 60.1669 59.6124 60.1403 59.639C60.1136 59.6657 58.2614 59.6923 56.0362 59.6923H51.9987V57.1606H60.1136L60.1536 58.3732ZM77.7826 58.4265V59.6257H69.7876L69.7476 58.573C69.7209 57.9867 69.7343 57.4404 69.7742 57.3338C69.8409 57.1872 70.5737 57.1606 73.8117 57.1872L77.7826 57.2272V58.4265Z" fill="#134283"/>
<path d="M62.259 39.305C61.9259 39.3716 61.4329 39.4915 61.1664 39.5715L60.66 39.718V55.6814L64.8974 55.6547L69.1214 55.6281L69.1614 47.6864L69.188 39.7314L68.2953 39.5048C67.2559 39.225 63.2851 39.1051 62.259 39.305ZM67.9488 39.6381C69.0415 39.8913 69.4812 40.2111 68.5085 40.0512C66.8295 39.7713 66.1899 39.7047 64.7908 39.7047C63.3917 39.7047 62.1258 39.8246 61.273 40.0378C60.9798 40.1178 60.8999 40.1045 60.9532 39.9579C61.1531 39.3583 65.7768 39.1451 67.9488 39.6381ZM67.2426 40.1045C68.9615 40.3177 68.9349 40.291 68.8949 41.6768L68.8549 42.8361L67.1227 42.9027L65.3904 42.9827L67.1626 43.0093L68.9349 43.036L68.8949 44.4617L68.8549 45.9008L67.1227 45.9675L65.3904 46.0474L67.1493 46.0741L68.9082 46.1007V52.097H67.1893C66.1233 52.097 65.457 52.1503 65.457 52.2302C65.457 52.3102 66.1233 52.3635 67.1893 52.3635H68.9215V55.4282H64.7775L64.8041 47.7264C64.8308 43.5023 64.8574 39.9979 64.8841 39.9446C64.9374 39.838 65.1372 39.8513 67.2426 40.1045ZM64.6309 41.397L64.5909 42.8228L62.7654 42.8761L60.9265 42.916V40.3843L61.6328 40.251C62.0059 40.1844 62.4456 40.0911 62.5922 40.0645C62.7387 40.0245 63.2717 39.9979 63.7648 39.9845H64.6709C64.6709 39.9712 64.6309 41.397 64.6309 41.397ZM64.6575 44.0886C64.6575 44.6616 64.6176 45.3279 64.5776 45.5544L64.4976 45.9675H60.9265V43.036H64.6575V44.0886ZM64.6042 48.859C64.5643 50.3914 64.5376 51.7505 64.5243 51.8971C64.5243 52.1503 64.4443 52.1636 62.7254 52.1236L60.9265 52.0836V46.1007H64.6842L64.6042 48.859ZM64.6309 53.8958L64.5909 55.4282H60.9265V52.3635H64.6575L64.6309 53.8958Z" fill="#134283"/>
<path d="M65.4571 41.4237V42.503H68.5219V41.6369C68.5219 40.8108 68.5085 40.7575 68.1621 40.6242C67.9489 40.5443 67.2693 40.451 66.6297 40.411L65.4571 40.3311V41.4237Z" fill="#134283"/>
<path d="M65.4571 44.4484V45.5677H68.5618L68.4686 45.1547C68.4286 44.9281 68.3886 44.4218 68.3886 44.0487V43.3691H66.9229C66.9229 43.3558 65.4571 43.3291 65.4571 43.3291V44.4484Z" fill="#134283"/>
<path d="M65.4571 47.6998V48.8991H68.5085L68.4552 47.7265L68.4019 46.5672L66.9229 46.5272L65.4571 46.4872V47.6998Z" fill="#134283"/>
<path d="M65.5107 49.2589C65.644 49.4054 68.5222 49.4188 68.6021 49.2722C68.6421 49.2189 67.9359 49.1656 67.0431 49.1656C66.1503 49.1656 65.4574 49.2056 65.5107 49.2589Z" fill="#134283"/>
<path d="M65.4571 50.6978V51.6972H66.8562C67.6291 51.6972 68.2953 51.6839 68.362 51.6572C68.4419 51.6306 68.4686 51.0709 68.4153 50.0582L68.3886 49.6984H65.4571V50.6978Z" fill="#134283"/>
<path d="M65.4571 53.9625V55.1618H68.5219V52.7633H65.4571V53.9625Z" fill="#134283"/>
<path d="M63.3253 40.3311C62.9922 40.3577 62.4059 40.4376 62.0328 40.5176L61.3266 40.6508V42.503H64.4047L64.3647 41.4104C64.3247 40.1978 64.3647 40.2511 63.3253 40.3311Z" fill="#134283"/>
<path d="M61.3266 44.5017V45.5677H64.2581V43.4357H61.3266V44.5017Z" fill="#134283"/>
<path d="M61.3266 47.6997V48.899H64.2581V46.5005H61.3266V47.6997Z" fill="#134283"/>
<path d="M61.2595 49.2988C61.3128 49.3788 61.9658 49.4321 62.7919 49.4321C63.6181 49.4321 64.271 49.3788 64.3243 49.2988C64.3776 49.2189 63.8313 49.1656 62.7919 49.1656C61.7526 49.1656 61.2062 49.2189 61.2595 49.2988Z" fill="#134283"/>
<path d="M61.3266 50.6978V51.6972H64.2581V49.6984H61.3266V50.6978Z" fill="#134283"/>
<path d="M61.3266 53.9625V55.1618H64.2581V52.7633H61.3266V53.9625Z" fill="#134283"/>
<path d="M22.964 10.8373C22.1492 9.41494 21.4173 7.95115 20.5611 6.5564C23.4611 7.46782 26.4439 9.8016 25.4773 13.392C24.5382 12.743 23.544 11.8592 22.964 10.8373C23.1849 11.224 22.743 10.4506 22.964 10.8373Z" fill="url(#paint0_linear_3004_793)"/>
<path d="M25.491 14.9941C26.3058 16.1679 26.5543 17.7008 26.4991 19.1231C24.0548 18.6674 23.171 16.0298 22.7568 13.7927C22.9363 13.6132 23.7096 13.8203 23.8891 13.8756C24.5105 14.0551 25.1182 14.428 25.491 14.9941C25.7534 15.3808 25.2286 14.6075 25.491 14.9941Z" fill="url(#paint1_linear_3004_793)"/>
<path d="M27.0103 19.0541C26.6236 17.7837 26.3612 16.3475 26.4027 15.008C26.4303 14.3175 26.5822 13.5994 26.8584 12.978C26.9688 12.7294 27.466 11.6385 27.7698 11.6385C28.0736 11.6385 28.4741 13.2542 28.5431 13.4337C28.7779 14.1794 28.9298 15.0494 28.9022 15.8365C28.8469 17.1622 28.2117 18.4879 26.9965 19.0541H27.0103Z" fill="url(#paint2_linear_3004_793)"/>
<path d="M26.4438 21.7883C27.0514 23.114 27.0928 24.7711 26.8581 26.1935C24.2757 25.3925 23.8476 22.2716 23.9305 19.855C25.0076 19.9931 25.9604 20.794 26.4438 21.7883C26.8581 22.6859 25.5738 20.0069 26.4438 21.7883Z" fill="url(#paint3_linear_3004_793)"/>
<path d="M27.3418 26.1936C27.259 26.1936 27.2314 24.3155 27.2314 24.1498C27.2452 23.1555 27.3556 22.1474 27.7561 21.236C28.1428 20.3522 28.8609 19.5512 29.7309 19.1646C30.1727 20.7665 30.2418 22.8655 29.4685 24.3569C29.1232 25.0336 28.1842 26.1797 27.328 26.1797L27.3418 26.1936Z" fill="url(#paint4_linear_3004_793)"/>
<path d="M26.4158 28.7342C26.7749 29.6457 26.8301 30.6537 26.8025 31.6204C26.8025 31.7309 26.7058 33.3051 26.623 33.3051C23.9163 32.4075 23.6816 28.9414 24.013 26.4695C25.1039 26.7595 26.0015 27.6433 26.4158 28.7342C27.1615 30.6399 26.0568 27.7814 26.4158 28.7342Z" fill="url(#paint5_linear_3004_793)"/>
<path d="M27.0518 33.3192C26.8999 30.7783 27.4385 27.2569 30.2418 26.5526C30.4213 28.1545 30.3108 30.0464 29.5237 31.4549C29.0818 32.2559 28.0323 33.3192 27.0518 33.3192Z" fill="url(#paint6_linear_3004_793)"/>
<path d="M25.9744 35.6942C26.5129 37.158 26.4577 38.898 26.1953 40.417C23.323 39.5747 23.1158 35.8323 23.5301 33.2914C24.6487 33.609 25.5463 34.5895 25.9606 35.6942C25.2287 33.7195 26.6925 37.669 25.9606 35.6942H25.9744Z" fill="url(#paint7_linear_3004_793)"/>
<path d="M26.5819 40.4308C26.5267 39.0222 26.6786 37.5032 27.2172 36.2051C27.6729 35.128 28.8743 33.7195 30.1448 33.7195C31.4152 33.7195 30.0619 35.708 30.0343 35.8461C29.91 36.7989 29.6614 37.7794 29.1643 38.608C28.5981 39.5332 27.6315 40.2513 26.5819 40.417V40.4308Z" fill="url(#paint8_linear_3004_793)"/>
<path d="M25.4775 42.6817C26.0851 44.1593 26.1265 45.9545 25.9746 47.5426C22.8675 46.9212 22.5223 42.9165 22.8952 40.2789C24.0551 40.5965 25.008 41.5632 25.4637 42.6955C24.6489 40.6932 25.878 43.7036 25.4637 42.6955L25.4775 42.6817Z" fill="url(#paint9_linear_3004_793)"/>
<path d="M26.3059 47.529C26.085 44.8776 26.8445 41.0938 29.8963 40.7209C29.9792 43.3723 29.2473 46.949 26.3059 47.529Z" fill="url(#paint10_linear_3004_793)"/>
<path d="M25.2976 49.7522C26.0572 51.2575 26.2919 52.9836 26.4852 54.6546C26.4852 54.7789 25.0353 54.3093 24.8972 54.2403C24.2067 53.8674 23.6405 53.2322 23.2815 52.5141C22.522 51.0227 22.3424 49.1584 22.4529 47.5013C23.6681 47.7223 24.7176 48.6613 25.2976 49.766C24.7729 48.7718 25.5462 50.2632 25.2976 49.766V49.7522Z" fill="url(#paint11_linear_3004_793)"/>
<path d="M26.761 54.5993C26.83 54.5165 26.54 53.0665 26.54 52.9008C26.4848 52.0032 26.5814 51.0503 26.8576 50.1941C27.3133 48.827 28.4595 47.7085 29.8543 47.5013C30.1305 47.5013 29.5781 51.2713 29.4814 51.5889C29.0671 52.9422 28.059 54.116 26.761 54.5993Z" fill="url(#paint12_linear_3004_793)"/>
<path d="M26.126 56.8916C26.4022 57.2092 29.0536 61.2001 28.9017 61.3105C27.3965 62.1667 25.6979 61.3106 24.6622 60.0953C23.5437 58.7696 22.9775 56.8639 22.7703 55.1378C22.7703 55.0273 24.1927 55.4554 24.3032 55.5106C24.9936 55.8282 25.6289 56.3116 26.126 56.9054C25.7532 56.4635 26.8717 57.7892 26.126 56.9054V56.8916Z" fill="url(#paint13_linear_3004_793)"/>
<path d="M29.0813 61.1725C27.3551 58.8663 27.2584 54.7373 30.4484 53.8121C31.0422 56.3668 31.0146 59.2392 29.0813 61.1725Z" fill="url(#paint14_linear_3004_793)"/>
<path d="M29.4404 63.4649C31.0561 64.0034 32.5199 65.1358 33.8041 66.2682C31.1942 69.0024 26.8857 66.1301 25.4495 63.3958C26.6371 62.8296 28.239 63.0506 29.4404 63.4649C30.5313 63.8377 29.1642 63.3682 29.4404 63.4649Z" fill="url(#paint15_linear_3004_793)"/>
<path d="M33.9286 66.1163C32.7962 65.274 31.7467 64.0725 31.1943 62.7192C30.5453 61.1588 30.9872 59.6535 32.2576 58.6178C32.4095 58.6178 32.7824 59.3774 32.8929 59.5431C33.3762 60.2197 33.8319 60.9516 34.1495 61.7388C34.7019 63.1197 34.7157 64.8044 33.9424 66.1025L33.9286 66.1163Z" fill="url(#paint16_linear_3004_793)"/>
<path d="M34.5777 68.2292C36.2901 68.4501 37.9886 69.3339 39.411 70.3144C37.2015 73.3939 33.0863 71.3639 30.863 69.4168C31.8158 68.4363 33.2658 68.0773 34.5639 68.2292C33.4039 68.0911 35.7239 68.3811 34.5639 68.2292H34.5777Z" fill="url(#paint17_linear_3004_793)"/>
<path d="M39.4937 70.1902C37.0356 68.6988 34.2876 65.5088 36.2761 62.4569C38.458 64.1693 40.9023 67.1659 39.4937 70.1902Z" fill="url(#paint18_linear_3004_793)"/>
<path d="M40.2395 72.1926C42.0209 72.1926 43.8161 72.9245 45.3766 73.7807C43.4433 77.0535 39.1624 75.5897 36.6767 73.9464C37.4914 72.8002 38.9138 72.2064 40.2395 72.1926C41.4271 72.1926 39.0519 72.2064 40.2395 72.1926Z" fill="url(#paint19_linear_3004_793)"/>
<path d="M45.4042 73.6978C42.7942 72.3445 39.7285 69.3064 41.4133 66.006C43.8437 67.5388 46.7437 70.4388 45.4042 73.6978Z" fill="url(#paint20_linear_3004_793)"/>
<path d="M46.1363 75.6447C47.9315 75.479 49.851 76.1142 51.4667 76.9289C49.7129 80.3122 45.2939 79.2489 42.6701 77.7851C43.3882 76.5423 44.7692 75.7828 46.1363 75.6585C44.9211 75.7689 48.5529 75.4375 46.1363 75.6585V75.6447Z" fill="url(#paint21_linear_3004_793)"/>
<path d="M51.4943 76.8876C51.2043 76.8876 50.6934 76.4457 50.4586 76.2938C49.6577 75.7967 48.8981 75.2028 48.2353 74.5124C46.8958 73.1038 46.2053 71.0324 47.0339 69.1267C47.0339 69.2786 48.622 70.1624 48.7739 70.2729C49.5886 70.9081 50.3757 71.6262 50.9557 72.51C51.5357 73.3938 51.8257 74.4433 51.7705 75.5067C51.7705 75.6171 51.6462 76.8876 51.4943 76.8876Z" fill="url(#paint22_linear_3004_793)"/>
<path d="M52.1569 78.8073C53.8416 78.5725 55.623 79.0835 57.1835 79.7601C57.1835 79.7463 57.1835 79.7325 57.1973 79.7187C54.6426 78.2273 51.5216 75.4102 52.9578 71.9855C54.5183 72.8002 56.1202 73.9464 57.1282 75.4792C57.7082 76.3769 58.0259 77.4402 57.9568 78.5173C57.943 78.8625 57.8739 79.2078 57.7911 79.5392C57.9706 79.6082 58.1363 79.7049 58.3159 79.7878C62.2653 81.7487 66.6429 83.6958 69.7638 86.9963C70.0952 87.3415 70.5924 88.0181 69.8743 88.322C69.2391 88.5981 68.8662 87.8386 68.4795 87.452C66.781 85.7396 64.6958 84.4277 62.652 83.2125C60.9534 82.2044 59.2135 81.293 57.4735 80.3816C57.4182 80.3539 56.5068 81.362 56.3549 81.4725C55.5125 82.1077 54.4907 82.3977 53.455 82.3977C51.8531 82.3977 50.1959 81.8868 48.746 81.1825C49.4088 79.8706 50.7759 79.0006 52.1569 78.8073C54.0349 78.5449 49.6988 79.1525 52.1569 78.8073Z" fill="url(#paint23_linear_3004_793)"/>
<path d="M104.783 9.35981C105.708 7.75793 107.531 6.94317 109.16 6.43223C107.655 8.8903 106.661 11.5831 104.244 13.2679C103.885 11.9422 104.12 10.5336 104.783 9.35981C105.045 8.89029 104.52 9.82933 104.783 9.35981Z" fill="url(#paint24_linear_3004_793)"/>
<path d="M103.319 14.5934C103.47 16.0019 103.111 17.59 102.711 18.9295C99.9905 17.6176 100.695 13.6405 101.993 11.5001C102.214 11.5001 102.656 12.3563 102.739 12.522C103.084 13.1572 103.249 13.8615 103.332 14.5934C103.277 14.0963 103.388 15.0905 103.332 14.5934H103.319Z" fill="url(#paint25_linear_3004_793)"/>
<path d="M103.235 18.9986C103.152 16.6787 104.188 13.2401 107.019 13.7097C106.619 15.933 105.666 18.5706 103.235 18.9986Z" fill="url(#paint26_linear_3004_793)"/>
<path d="M102.172 21.5949C102.642 22.9897 102.573 24.633 102.393 26.083C99.59 25.3235 99.369 21.4292 100.046 19.0402C101.068 19.5097 101.841 20.5178 102.172 21.5949C102.49 22.5616 101.579 19.6754 102.172 21.5949Z" fill="url(#paint27_linear_3004_793)"/>
<path d="M102.863 26.0691C102.476 23.6801 103.015 20.1034 105.832 19.7582C105.901 22.1748 105.445 25.2958 102.863 26.0691Z" fill="url(#paint28_linear_3004_793)"/>
<path d="M102.048 28.6513C102.669 30.0322 102.78 31.7032 102.683 33.2084C101.703 33.2084 100.667 32.1175 100.225 31.3303C99.4379 29.908 99.3413 28.0161 99.5346 26.4142C100.639 26.7042 101.551 27.6018 102.048 28.6513C102.89 30.5156 101.62 27.7123 102.048 28.6513Z" fill="url(#paint29_linear_3004_793)"/>
<path d="M103.111 33.167C103.111 31.9379 102.835 30.8056 103.069 29.5489C103.359 28.0575 104.299 26.718 105.762 26.3451C105.969 27.9332 105.997 29.8113 105.251 31.2613C104.948 31.8551 104.492 32.366 103.953 32.7251C103.843 32.7941 103.263 33.2222 103.111 33.1532V33.167Z" fill="url(#paint30_linear_3004_793)"/>
<path d="M102.324 35.6666C103.043 37.0337 103.208 38.7737 103.139 40.3066C100.198 39.837 99.4935 36.1914 99.604 33.5814C100.75 33.7747 101.758 34.6171 102.311 35.6528C101.33 33.8023 103.291 37.5033 102.311 35.6528L102.324 35.6666Z" fill="url(#paint31_linear_3004_793)"/>
<path d="M103.526 40.2789C103.111 37.7241 103.346 33.9818 106.219 33.167C106.633 35.708 106.398 39.4503 103.526 40.2789Z" fill="url(#paint32_linear_3004_793)"/>
<path d="M102.669 42.6404C103.415 44.0351 103.567 45.8442 103.415 47.4184C100.474 46.8246 99.7693 43.248 99.8521 40.5966C101.026 40.7485 102.089 41.5771 102.655 42.6542C101.647 40.7623 103.153 43.5932 102.655 42.6542L102.669 42.6404Z" fill="url(#paint33_linear_3004_793)"/>
<path d="M103.747 47.4044C103.512 44.753 103.885 40.9416 106.854 40.1545C107.213 42.8059 106.854 46.8106 103.747 47.4044Z" fill="url(#paint34_linear_3004_793)"/>
<path d="M102.683 49.5588C103.374 50.995 103.36 52.9559 102.96 54.475C100.142 53.4254 99.7419 50.056 99.9077 47.3631C101.109 47.5565 102.159 48.4265 102.683 49.5588C102.918 50.056 102.228 48.5645 102.683 49.5588Z" fill="url(#paint35_linear_3004_793)"/>
<path d="M103.236 54.5302C103.553 51.8374 104.175 47.9293 107.296 47.3769C107.517 50.1112 106.605 54.5992 103.236 54.5302Z" fill="url(#paint36_linear_3004_793)"/>
<path d="M101.758 56.2564C101.993 57.154 101.883 58.1483 101.634 59.0321C101.593 59.184 100.736 61.1311 100.64 61.0482C98.7065 59.1011 98.6927 56.2288 99.3003 53.674C100.488 54.0193 101.441 55.0135 101.772 56.2564C101.634 55.7178 102.062 57.3197 101.772 56.2564H101.758Z" fill="url(#paint37_linear_3004_793)"/>
<path d="M100.833 61.1863C102.242 58.8249 103.802 54.9997 106.978 55.0273C106.771 56.7259 106.219 58.3968 105.238 59.7778C104.603 60.5787 103.83 61.2416 102.835 61.4625C102.311 61.573 101.247 61.642 100.833 61.2001V61.1863Z" fill="url(#paint38_linear_3004_793)"/>
<path d="M98.7891 61.8353C98.4162 63.5063 97.1181 65.0115 95.8063 65.9781C95.0882 64.7767 95.0467 63.1887 95.5025 61.8906C95.7924 61.0758 96.2343 60.3301 96.7177 59.6258C96.842 59.4325 97.3391 58.4935 97.491 58.4935C98.4853 59.3082 99.0791 60.5096 98.7891 61.8353C98.8443 61.5592 98.5405 62.9539 98.7891 61.8353Z" fill="url(#paint39_linear_3004_793)"/>
<path d="M95.9167 66.1438C98.0019 64.3072 101.413 61.9182 104.271 63.2853C102.821 66.0195 98.5128 68.8781 95.9167 66.1438Z" fill="url(#paint40_linear_3004_793)"/>
<path d="M93.8177 66.2267C93.1687 67.87 91.6635 69.1819 90.2273 70.0657C88.8187 67.0553 91.263 64.0586 93.4587 62.3463C94.1906 63.4648 94.3287 64.9839 93.8177 66.2405C93.3896 67.3453 94.2596 65.1496 93.8177 66.2405V66.2267Z" fill="url(#paint41_linear_3004_793)"/>
<path d="M90.3099 70.19C92.6437 68.5882 96.4827 66.8344 98.8579 69.3062C96.6346 71.2396 92.5194 73.2695 90.3099 70.19Z" fill="url(#paint42_linear_3004_793)"/>
<path d="M88.28 69.9139C87.4652 71.5296 85.8495 72.7725 84.3167 73.5734C82.9772 70.3144 85.8909 67.4144 88.3076 65.8816C88.9428 67.1244 88.9014 68.6849 88.28 69.9139C88.8323 68.8368 87.7414 70.9911 88.28 69.9139Z" fill="url(#paint43_linear_3004_793)"/>
<path d="M84.3586 73.6563C84.3586 73.4768 85.8914 72.9244 86.0433 72.8554C86.9685 72.4825 87.949 72.1787 88.9433 72.0959C90.4623 71.9578 92.1194 72.5102 93.0585 73.8359C90.5728 75.4792 86.2919 76.943 84.3586 73.6563Z" fill="url(#paint44_linear_3004_793)"/>
<path d="M82.4384 73.1451C81.527 74.7608 79.8285 75.9622 78.2404 76.7631C77.7294 75.4236 77.9228 73.8217 78.6409 72.6203C79.1794 71.7089 79.9666 70.9632 80.7675 70.3141C80.9608 70.1622 82.7008 69.1818 82.7008 69.0161C83.2808 70.3279 83.1427 71.9298 82.4384 73.1589C81.2094 75.3269 83.0599 72.0817 82.4384 73.1589V73.1451Z" fill="url(#paint45_linear_3004_793)"/>
<path d="M78.2546 76.8046C78.5584 76.8046 79.0832 76.4317 79.3732 76.3213C80.2708 75.976 81.2098 75.6998 82.1627 75.5756C84.0131 75.3408 86.0431 75.907 87.065 77.6608C85.3527 78.6136 83.1155 79.4008 81.1546 78.9727C80.3399 78.7932 79.5803 78.3789 78.9865 77.7713C78.9037 77.6884 78.3237 76.8046 78.2684 76.8046H78.2546Z" fill="url(#paint46_linear_3004_793)"/>
<path d="M76.4181 76.1281C75.5204 77.6471 74.0014 78.7381 72.5376 79.5942C72.5376 79.5942 72.5514 79.6219 72.5514 79.6357C75.2581 78.4619 79.3318 77.799 80.989 81.058C79.3318 81.859 77.3157 82.4804 75.479 82.218C74.5952 82.0937 73.7667 81.7209 73.09 81.1133C72.731 80.7957 72.4962 80.1328 72.0543 80.3676C68.2015 82.4113 63.8515 84.4275 60.8411 87.7694C60.5373 88.1146 60.0125 88.6532 59.6121 88.018C59.2116 87.3827 60.054 86.7889 60.4268 86.4299C62.153 84.7727 64.2106 83.5161 66.2682 82.3561C68.0772 81.348 69.9277 80.4228 71.7781 79.5114C72.0819 79.3595 71.7643 78.3514 71.7781 77.9647C71.8195 76.7495 72.3167 75.6448 73.0762 74.7471C74.0843 73.5457 75.4238 72.5929 76.7771 71.8886C77.3433 73.2419 77.15 74.8991 76.4181 76.1419C75.4238 77.8266 77.7161 73.9462 76.4181 76.1419V76.1281Z" fill="url(#paint47_linear_3004_793)"/>
<path d="M26.3695 92.7537L29.5259 99.9665C29.6871 100.316 29.817 100.584 29.9155 100.772C30.0229 100.96 30.1259 101.09 30.2244 101.162C30.3318 101.233 30.4527 101.283 30.587 101.31C30.6229 101.426 30.6452 101.533 30.6542 101.632C30.6632 101.722 30.6676 101.829 30.6676 101.954C30.5691 101.945 30.4169 101.936 30.211 101.927C30.014 101.927 29.808 101.923 29.5931 101.914C29.3782 101.914 29.1991 101.914 29.0558 101.914C28.9484 101.914 28.8141 101.914 28.6529 101.914C28.5007 101.923 28.3395 101.927 28.1694 101.927C28.0082 101.936 27.8604 101.941 27.7261 101.941C27.5918 101.95 27.4843 101.954 27.4038 101.954C27.4038 101.829 27.4082 101.713 27.4172 101.605C27.4351 101.489 27.462 101.39 27.4978 101.31C27.856 101.256 28.0664 101.166 28.1291 101.041C28.1917 100.916 28.138 100.656 27.9679 100.262L26.2486 96.2325C26.1054 95.9101 25.9845 95.6236 25.886 95.3728C25.7875 95.1132 25.68 94.8132 25.5636 94.4729H25.6979C25.5905 94.8221 25.4875 95.1356 25.389 95.4131C25.2995 95.6818 25.2054 95.9504 25.107 96.219L23.6832 99.9262C23.5041 100.401 23.4504 100.741 23.522 100.947C23.5937 101.153 23.8086 101.274 24.1667 101.31C24.2026 101.399 24.2249 101.498 24.2339 101.605C24.2518 101.713 24.2608 101.829 24.2608 101.954C24.1623 101.945 24.0369 101.936 23.8847 101.927C23.7325 101.927 23.5757 101.923 23.4146 101.914C23.2534 101.914 23.0967 101.914 22.9445 101.914C22.7206 101.914 22.5057 101.919 22.2997 101.927C22.0938 101.936 21.9281 101.945 21.8028 101.954C21.8028 101.847 21.8073 101.739 21.8162 101.632C21.8341 101.516 21.861 101.408 21.8968 101.31C22.058 101.283 22.1923 101.225 22.2997 101.135C22.4072 101.045 22.5102 100.902 22.6087 100.705C22.7161 100.499 22.837 100.222 22.9713 99.8724L25.7651 92.8074C25.8636 92.7895 25.9576 92.7761 26.0472 92.7671C26.1367 92.7582 26.2442 92.7537 26.3695 92.7537ZM27.4306 98.4218L27.5784 99.0665C26.9784 99.0665 26.3382 99.0755 25.6576 99.0934C24.9861 99.1024 24.3637 99.1203 23.7907 99.1471L24.0056 98.4218H27.4306ZM38.0826 102.035C37.814 101.838 37.5812 101.556 37.3842 101.189C37.1872 100.822 36.9902 100.428 36.7932 100.007C36.5962 99.5859 36.3813 99.1874 36.1485 98.8113C35.9246 98.4352 35.6515 98.1263 35.3291 97.8846C35.0068 97.6338 34.6128 97.5085 34.1472 97.5085V96.8369C34.4874 96.8369 34.7695 96.7787 34.9933 96.6623C35.2262 96.5459 35.4411 96.3533 35.6381 96.0847C35.844 95.8161 36.0813 95.4579 36.3499 95.0102C36.6186 94.5714 36.8469 94.2088 37.0349 93.9222C37.223 93.6267 37.3976 93.3939 37.5588 93.2238C37.72 93.0447 37.8901 92.9238 38.0692 92.8611C38.2572 92.7895 38.4856 92.7537 38.7542 92.7537C38.8706 92.7537 39.0049 92.7626 39.1571 92.7805C39.3183 92.7895 39.4482 92.8074 39.5467 92.8343C39.5377 93.0402 39.5287 93.2596 39.5198 93.4924C39.5198 93.7163 39.5243 93.9446 39.5332 94.1774C39.5511 94.4102 39.5735 94.6386 39.6004 94.8624C39.484 94.8983 39.3541 94.9296 39.2109 94.9565C39.0676 94.9744 38.9422 94.9833 38.8348 94.9833C38.7721 94.6162 38.6915 94.3655 38.593 94.2312C38.5035 94.0879 38.3915 94.0163 38.2572 94.0163C38.0334 94.0163 37.8408 94.1282 37.6797 94.352C37.5185 94.5759 37.3125 94.8938 37.0618 95.3057C36.8111 95.7445 36.5962 96.0847 36.4171 96.3265C36.247 96.5593 36.0858 96.7339 35.9336 96.8503C35.7903 96.9578 35.6246 97.0518 35.4366 97.1324L35.3426 96.9309C35.656 96.9399 35.9291 96.9802 36.1619 97.0518C36.3947 97.1145 36.6051 97.2264 36.7932 97.3876C36.9902 97.5398 37.1782 97.7502 37.3573 98.0189C37.5453 98.2875 37.7513 98.6322 37.9752 99.0531C38.2259 99.5456 38.4363 99.9351 38.6064 100.222C38.7766 100.508 38.9288 100.723 39.0631 100.866C39.1974 101.01 39.3362 101.108 39.4795 101.162C39.6317 101.207 39.8108 101.238 40.0168 101.256C40.0168 101.301 40.0123 101.363 40.0033 101.444C40.0033 101.525 39.9989 101.61 39.9899 101.699C39.9809 101.78 39.963 101.851 39.9362 101.914C39.6944 101.914 39.475 101.914 39.278 101.914C39.09 101.923 38.8975 101.936 38.7005 101.954C38.5124 101.972 38.3065 101.999 38.0826 102.035ZM31.6757 101.954C31.6757 101.82 31.6802 101.699 31.6892 101.592C31.7071 101.475 31.7295 101.381 31.7563 101.31C31.9981 101.292 32.1817 101.247 32.307 101.175C32.4413 101.104 32.5354 100.983 32.5891 100.813C32.6428 100.643 32.6697 100.401 32.6697 100.087V94.661C32.6697 94.3386 32.6428 94.0968 32.5891 93.9357C32.5354 93.7655 32.4413 93.6446 32.307 93.573C32.1817 93.5014 31.9981 93.4566 31.7563 93.4387C31.7205 93.3581 31.6981 93.2641 31.6892 93.1566C31.6802 93.0402 31.6757 92.9193 31.6757 92.794C31.8459 92.8029 32.025 92.8119 32.213 92.8208C32.41 92.8208 32.6115 92.8253 32.8174 92.8343C33.0323 92.8343 33.2338 92.8343 33.4218 92.8343C33.6188 92.8343 33.8114 92.8343 33.9994 92.8343C34.1964 92.8253 34.3889 92.8208 34.577 92.8208C34.774 92.8119 34.962 92.8029 35.1411 92.794C35.1411 92.9193 35.1366 93.0402 35.1277 93.1566C35.1187 93.2641 35.0963 93.3581 35.0605 93.4387C34.8277 93.4566 34.6441 93.5014 34.5098 93.573C34.3755 93.6446 34.2815 93.7655 34.2277 93.9357C34.174 94.0968 34.1472 94.3386 34.1472 94.661V100.087C34.1472 100.401 34.174 100.643 34.2277 100.813C34.2815 100.983 34.3755 101.104 34.5098 101.175C34.6441 101.247 34.8277 101.292 35.0605 101.31C35.0874 101.381 35.1053 101.475 35.1142 101.592C35.1321 101.699 35.1411 101.82 35.1411 101.954C34.8814 101.936 34.6038 101.923 34.3083 101.914C34.0218 101.914 33.7308 101.914 33.4353 101.914C33.1487 101.914 32.8443 101.914 32.5219 101.914C32.1996 101.923 31.9175 101.936 31.6757 101.954ZM45.1659 92.7537L48.3223 99.9665C48.4835 100.316 48.6133 100.584 48.7118 100.772C48.8193 100.96 48.9223 101.09 49.0208 101.162C49.1282 101.233 49.2491 101.283 49.3834 101.31C49.4192 101.426 49.4416 101.533 49.4506 101.632C49.4595 101.722 49.464 101.829 49.464 101.954C49.3655 101.945 49.2133 101.936 49.0073 101.927C48.8103 101.927 48.6044 101.923 48.3895 101.914C48.1746 101.914 47.9955 101.914 47.8522 101.914C47.7448 101.914 47.6104 101.914 47.4493 101.914C47.297 101.923 47.1359 101.927 46.9657 101.927C46.8045 101.936 46.6568 101.941 46.5225 101.941C46.3882 101.95 46.2807 101.954 46.2001 101.954C46.2001 101.829 46.2046 101.713 46.2136 101.605C46.2315 101.489 46.2583 101.39 46.2941 101.31C46.6523 101.256 46.8627 101.166 46.9254 101.041C46.9881 100.916 46.9344 100.656 46.7642 100.262L45.045 96.2325C44.9017 95.9101 44.7808 95.6236 44.6824 95.3728C44.5839 95.1132 44.4764 94.8132 44.36 94.4729H44.4943C44.3869 94.8221 44.2839 95.1356 44.1854 95.4131C44.0958 95.6818 44.0018 95.9504 43.9033 96.219L42.4796 99.9262C42.3005 100.401 42.2468 100.741 42.3184 100.947C42.39 101.153 42.6049 101.274 42.9631 101.31C42.9989 101.399 43.0213 101.498 43.0303 101.605C43.0482 101.713 43.0571 101.829 43.0571 101.954C42.9586 101.945 42.8333 101.936 42.681 101.927C42.5288 101.927 42.3721 101.923 42.2109 101.914C42.0498 101.914 41.8931 101.914 41.7408 101.914C41.517 101.914 41.3021 101.919 41.0961 101.927C40.8902 101.936 40.7245 101.945 40.5991 101.954C40.5991 101.847 40.6036 101.739 40.6126 101.632C40.6305 101.516 40.6573 101.408 40.6932 101.31C40.8543 101.283 40.9887 101.225 41.0961 101.135C41.2036 101.045 41.3065 100.902 41.405 100.705C41.5125 100.499 41.6334 100.222 41.7677 99.8724L44.5615 92.8074C44.66 92.7895 44.754 92.7761 44.8435 92.7671C44.9331 92.7582 45.0405 92.7537 45.1659 92.7537ZM46.227 98.4218L46.3747 99.0665C45.7748 99.0665 45.1345 99.0755 44.454 99.0934C43.7824 99.1024 43.1601 99.1203 42.587 99.1471L42.8019 98.4218H46.227ZM50.4855 101.914V101.31C50.8079 101.31 51.09 101.175 51.3317 100.907C51.5825 100.638 51.7974 100.275 51.9764 99.8187C52.1645 99.362 52.3167 98.8472 52.4331 98.2741C52.5585 97.701 52.6525 97.1055 52.7152 96.4877C52.7868 95.8609 52.8405 95.2609 52.8764 94.6878C52.8943 94.3476 52.8853 94.0968 52.8495 93.9357C52.8226 93.7655 52.7376 93.6491 52.5943 93.5864C52.451 93.5238 52.2227 93.4745 51.9093 93.4387C51.8735 93.3581 51.8511 93.2641 51.8421 93.1566C51.8332 93.0402 51.8287 92.9193 51.8287 92.794C52.1242 92.8029 52.5406 92.8119 53.0778 92.8208C53.6151 92.8298 54.3404 92.8343 55.2538 92.8343C55.8716 92.8343 56.3731 92.8343 56.7581 92.8343C57.1431 92.8253 57.4565 92.8208 57.6983 92.8208C57.9401 92.8119 58.146 92.8029 58.3162 92.794C58.3162 92.9193 58.3117 93.0402 58.3027 93.1566C58.2938 93.2641 58.2714 93.3581 58.2356 93.4387C58.0028 93.4566 57.8147 93.5014 57.6714 93.573C57.5371 93.6446 57.4431 93.7655 57.3894 93.9357C57.3446 94.0968 57.3222 94.3386 57.3222 94.661V100.087C57.3222 100.419 57.3446 100.674 57.3894 100.853C57.4431 101.032 57.5371 101.153 57.6714 101.216C57.8147 101.278 58.0028 101.31 58.2356 101.31V101.914H50.4855ZM52.1779 101.269H54.6493C54.9717 101.269 55.2179 101.242 55.3881 101.189C55.5582 101.126 55.6746 101.01 55.7373 100.84C55.8 100.66 55.8313 100.396 55.8313 100.047V94.661C55.8313 94.3655 55.8134 94.1416 55.7776 93.9894C55.7507 93.8282 55.6746 93.7073 55.5493 93.6267C55.4866 93.582 55.3836 93.5461 55.2403 93.5193C55.106 93.4924 54.9404 93.479 54.7434 93.479C54.4926 93.479 54.2956 93.4969 54.1524 93.5327C54.018 93.5596 53.924 93.5954 53.8703 93.6402C53.7539 93.7297 53.6823 93.864 53.6554 94.0431C53.6375 94.2222 53.6196 94.4282 53.6017 94.661C53.5569 95.4669 53.4942 96.219 53.4136 96.9175C53.342 97.607 53.2524 98.2338 53.145 98.7979C53.0375 99.362 52.9032 99.8545 52.742 100.275C52.5898 100.687 52.4018 101.019 52.1779 101.269ZM50.2438 104.171C50.2438 103.687 50.2259 103.248 50.19 102.854C50.1632 102.469 50.1229 102.142 50.0692 101.874C50.0692 101.632 50.1363 101.444 50.2706 101.31H51.2243L51.4929 101.551C51.4034 101.919 51.3362 102.33 51.2914 102.787C51.2467 103.253 51.2288 103.714 51.2377 104.171C51.0855 104.215 50.9153 104.238 50.7273 104.238C50.5482 104.238 50.387 104.215 50.2438 104.171ZM57.8461 104.171C57.855 103.714 57.8371 103.253 57.7923 102.787C57.7476 102.33 57.6804 101.919 57.5909 101.551L57.8595 101.31H58.8131C58.9474 101.444 59.0146 101.632 59.0146 101.874C58.9609 102.142 58.9161 102.469 58.8803 102.854C58.8534 103.248 58.84 103.687 58.84 104.171C58.7057 104.215 58.5445 104.238 58.3565 104.238C58.1774 104.238 58.0072 104.215 57.8461 104.171ZM60.3359 92.794C60.4792 92.8029 60.6583 92.8119 60.8732 92.8208C61.0971 92.8208 61.3299 92.8253 61.5716 92.8343C61.8224 92.8343 62.0552 92.8343 62.2701 92.8343C62.4939 92.8343 62.673 92.8343 62.8074 92.8343V99.953C62.8074 100.293 62.8387 100.557 62.9014 100.745C62.9641 100.934 63.0849 101.063 63.264 101.135C63.4431 101.207 63.6894 101.242 64.0028 101.242L63.9222 101.914C63.6715 101.914 63.376 101.914 63.0357 101.914C62.7044 101.914 62.3596 101.914 62.0015 101.914C61.6522 101.923 61.3299 101.927 61.0344 101.927C60.7389 101.936 60.5061 101.945 60.3359 101.954C60.3359 101.82 60.3404 101.699 60.3494 101.592C60.3583 101.475 60.3762 101.381 60.4031 101.31C60.6449 101.292 60.8329 101.247 60.9672 101.175C61.1015 101.095 61.1956 100.96 61.2493 100.772C61.303 100.584 61.3299 100.311 61.3299 99.953V94.661C61.3299 94.3386 61.303 94.0968 61.2493 93.9357C61.1956 93.7655 61.1015 93.6446 60.9672 93.573C60.8329 93.5014 60.6449 93.4566 60.4031 93.4387C60.3762 93.3581 60.3583 93.2596 60.3494 93.1432C60.3404 93.0268 60.3359 92.9104 60.3359 92.794ZM66.5951 99.5366C66.7562 99.5725 66.8906 99.6172 66.998 99.671C67.1144 99.7247 67.2174 99.7918 67.3069 99.8724C67.2084 100.177 67.1234 100.517 67.0517 100.893C66.9891 101.26 66.9353 101.61 66.8906 101.941C66.7025 101.932 66.4518 101.927 66.1384 101.927C65.8339 101.927 65.4892 101.923 65.1042 101.914C64.7281 101.914 64.3341 101.914 63.9222 101.914L64.0028 101.242H64.1102C64.7012 101.242 65.1489 101.18 65.4534 101.054C65.7668 100.92 66.0041 100.728 66.1653 100.477C66.3264 100.226 66.4697 99.9127 66.5951 99.5366ZM65.6817 95.8564C65.6728 96.0802 65.6638 96.322 65.6548 96.5817C65.6548 96.8324 65.6548 97.0831 65.6548 97.3339C65.6548 97.5935 65.6548 97.8622 65.6548 98.1398C65.6638 98.4173 65.6728 98.6725 65.6817 98.9054C65.5474 98.9054 65.422 98.9009 65.3056 98.8919C65.1982 98.874 65.0907 98.8516 64.9833 98.8248C64.9475 98.377 64.8266 98.0726 64.6206 97.9114C64.4236 97.7502 64.061 97.6696 63.5327 97.6696H62.5924V97.0249H63.5327C64.0699 97.0249 64.4371 96.9533 64.634 96.81C64.84 96.6668 64.9475 96.3847 64.9564 95.9638C65.0818 95.9191 65.2027 95.8922 65.3191 95.8832C65.4355 95.8653 65.5564 95.8564 65.6817 95.8564ZM66.5548 92.794C66.5727 92.991 66.5951 93.2238 66.6219 93.4924C66.6488 93.7611 66.6801 94.0252 66.7159 94.2849C66.7518 94.5356 66.7921 94.7595 66.8368 94.9565C66.7562 95.0191 66.6533 95.0639 66.5279 95.0908C66.4115 95.1176 66.2772 95.1311 66.125 95.1311C66.0981 94.8445 66.022 94.5759 65.8966 94.3252C65.7713 94.0655 65.5564 93.8551 65.2519 93.6939C64.9564 93.5238 64.5311 93.4387 63.9759 93.4387H62.485L62.7939 92.8343C63.4924 92.8343 64.0923 92.8343 64.5938 92.8343C65.0952 92.8253 65.5071 92.8164 65.8295 92.8074C66.1518 92.7985 66.3936 92.794 66.5548 92.794ZM73.6251 102.035L70.415 94.9833H70.5762L70.1329 99.4023C70.0882 99.9038 70.0837 100.289 70.1195 100.557C70.1553 100.817 70.2449 101.001 70.3881 101.108C70.5314 101.216 70.7329 101.283 70.9925 101.31C71.0194 101.408 71.0373 101.52 71.0463 101.645C71.0642 101.771 71.0731 101.874 71.0731 101.954C70.8672 101.936 70.6254 101.923 70.3478 101.914C70.0792 101.914 69.8374 101.914 69.6225 101.914C69.4882 101.914 69.3315 101.914 69.1524 101.914C68.9823 101.923 68.8122 101.927 68.642 101.927C68.4808 101.936 68.342 101.945 68.2256 101.954C68.2256 101.874 68.2301 101.771 68.2391 101.645C68.248 101.52 68.2704 101.408 68.3062 101.31C68.539 101.283 68.7271 101.22 68.8704 101.122C69.0136 101.014 69.1256 100.826 69.2061 100.557C69.2867 100.28 69.3494 99.8635 69.3942 99.3083L69.8106 94.7684C69.8374 94.4282 69.8285 94.164 69.7837 93.976C69.7389 93.779 69.6449 93.6402 69.5016 93.5596C69.3673 93.479 69.1748 93.4387 68.9241 93.4387C68.8883 93.3402 68.8659 93.2327 68.8569 93.1163C68.848 92.9999 68.8435 92.8925 68.8435 92.794C68.942 92.8029 69.0584 92.8119 69.1927 92.8208C69.327 92.8208 69.4658 92.8253 69.6091 92.8343C69.7524 92.8343 69.8822 92.8343 69.9986 92.8343C70.124 92.8343 70.2538 92.8343 70.3881 92.8343C70.5224 92.8253 70.6523 92.8208 70.7776 92.8208C70.912 92.8119 71.0328 92.8029 71.1403 92.794L74.5385 100.356H74.2161L77.1577 92.794C77.2741 92.8029 77.3994 92.8119 77.5337 92.8208C77.677 92.8208 77.8158 92.8253 77.9501 92.8343C78.0934 92.8343 78.2232 92.8343 78.3396 92.8343C78.465 92.8343 78.5904 92.8343 78.7157 92.8343C78.85 92.8253 78.9799 92.8208 79.1052 92.8208C79.2395 92.8119 79.3649 92.8029 79.4813 92.794C79.4813 92.9014 79.4768 93.0134 79.4679 93.1298C79.4589 93.2372 79.441 93.3402 79.4142 93.4387C79.0828 93.4387 78.8321 93.5372 78.662 93.7342C78.5008 93.9222 78.4516 94.2894 78.5142 94.8356L78.9709 99.5635C79.0246 100.02 79.0828 100.369 79.1455 100.611C79.2172 100.853 79.3157 101.023 79.441 101.122C79.5753 101.211 79.7499 101.269 79.9649 101.296C79.9917 101.395 80.0096 101.502 80.0186 101.619C80.0275 101.735 80.032 101.847 80.032 101.954C79.9335 101.945 79.8082 101.936 79.6559 101.927C79.5127 101.927 79.356 101.923 79.1858 101.914C79.0157 101.914 78.85 101.914 78.6889 101.914C78.5366 101.914 78.3978 101.914 78.2725 101.914C78.1023 101.914 77.9098 101.914 77.6949 101.914C77.489 101.923 77.283 101.927 77.0771 101.927C76.8801 101.936 76.7099 101.945 76.5667 101.954C76.5667 101.856 76.5711 101.748 76.5801 101.632C76.598 101.516 76.6204 101.408 76.6473 101.31C76.9338 101.274 77.1397 101.216 77.2651 101.135C77.3994 101.045 77.4755 100.893 77.4934 100.678C77.5203 100.454 77.5113 100.141 77.4666 99.7381L76.9562 94.943H77.1308L74.2564 101.941C74.1669 101.977 74.0684 101.999 73.9609 102.008C73.8535 102.026 73.7415 102.035 73.6251 102.035ZM81.1523 101.954C81.1523 101.82 81.1568 101.699 81.1657 101.592C81.1836 101.475 81.206 101.381 81.2329 101.31C81.4746 101.292 81.6582 101.247 81.7836 101.175C81.9179 101.104 82.0119 100.983 82.0656 100.813C82.1194 100.643 82.1462 100.401 82.1462 100.087V94.661C82.1462 94.3297 82.1194 94.0789 82.0656 93.9088C82.0119 93.7387 81.9179 93.6223 81.7836 93.5596C81.6582 93.4879 81.4746 93.4476 81.2329 93.4387C81.1971 93.3581 81.1747 93.2641 81.1657 93.1566C81.1568 93.0402 81.1523 92.9193 81.1523 92.794C81.2777 92.8029 81.4209 92.8119 81.5821 92.8208C81.7433 92.8208 81.9492 92.8253 82.2 92.8343C82.4596 92.8343 82.7909 92.8343 83.1939 92.8343C83.5968 92.8343 84.0983 92.8343 84.6982 92.8343H86.31C86.91 92.8343 87.4069 92.8343 87.8009 92.8343C88.1949 92.8343 88.5128 92.8343 88.7546 92.8343C89.0053 92.8253 89.2112 92.8208 89.3724 92.8208C89.5426 92.8119 89.6948 92.8029 89.8291 92.794C89.8291 92.9193 89.8246 93.0402 89.8157 93.1566C89.8067 93.2641 89.7888 93.3581 89.7619 93.4387C89.5202 93.4476 89.3321 93.4835 89.1978 93.5461C89.0635 93.6088 88.9695 93.7297 88.9158 93.9088C88.862 94.0789 88.8352 94.3297 88.8352 94.661V100.087C88.8352 100.401 88.862 100.643 88.9158 100.813C88.9695 100.983 89.0635 101.104 89.1978 101.175C89.3411 101.247 89.5291 101.292 89.7619 101.31C89.7888 101.381 89.8067 101.475 89.8157 101.592C89.8246 101.699 89.8291 101.82 89.8291 101.954C89.5694 101.936 89.2918 101.923 88.9963 101.914C88.7098 101.914 88.4188 101.914 88.1233 101.914C87.8367 101.914 87.5323 101.914 87.2099 101.914C86.8876 101.923 86.6055 101.936 86.3637 101.954C86.3637 101.82 86.3682 101.699 86.3772 101.592C86.3861 101.475 86.404 101.381 86.4309 101.31C86.6727 101.292 86.8607 101.247 86.995 101.175C87.1294 101.104 87.2234 100.983 87.2771 100.813C87.3308 100.643 87.3577 100.401 87.3577 100.087V94.7013C87.3577 94.4237 87.3353 94.1953 87.2905 94.0163C87.2458 93.8282 87.1517 93.6939 87.0085 93.6133C86.901 93.5417 86.7354 93.5014 86.5115 93.4924C86.2966 93.4745 85.9563 93.4656 85.4907 93.4656C85.0251 93.4656 84.6803 93.4745 84.4565 93.4924C84.2416 93.5014 84.0804 93.5417 83.9729 93.6133C83.8386 93.6939 83.7446 93.8282 83.6909 94.0163C83.6461 94.1953 83.6237 94.4237 83.6237 94.7013V100.087C83.6237 100.401 83.6506 100.643 83.7043 100.813C83.758 100.983 83.852 101.104 83.9864 101.175C84.1296 101.247 84.3177 101.292 84.5505 101.31C84.5773 101.381 84.5953 101.475 84.6042 101.592C84.6132 101.699 84.6176 101.82 84.6176 101.954C84.3669 101.936 84.0938 101.923 83.7983 101.914C83.5028 101.914 83.2118 101.914 82.9253 101.914C82.6298 101.914 82.3208 101.914 81.9985 101.914C81.6761 101.923 81.3941 101.936 81.1523 101.954ZM91.226 101.954C91.226 101.811 91.2305 101.686 91.2394 101.578C91.2484 101.471 91.2663 101.381 91.2931 101.31C91.5349 101.292 91.723 101.247 91.8573 101.175C91.9916 101.104 92.0856 100.983 92.1393 100.813C92.1931 100.643 92.2199 100.401 92.2199 100.087V94.661C92.2199 94.3386 92.1931 94.0968 92.1393 93.9357C92.0856 93.7655 91.9916 93.6446 91.8573 93.573C91.7319 93.5014 91.5483 93.4566 91.3066 93.4387C91.2708 93.3581 91.2484 93.2641 91.2394 93.1566C91.2305 93.0492 91.226 92.9283 91.226 92.794C91.5842 92.8119 91.9289 92.8253 92.2602 92.8343C92.6005 92.8343 92.8825 92.8343 93.1064 92.8343C93.2586 92.8343 93.4556 92.8343 93.6974 92.8343C93.9481 92.8253 94.1899 92.8208 94.4227 92.8208C94.6645 92.8119 94.8436 92.8074 94.96 92.8074C95.73 92.8074 96.3434 92.9283 96.8001 93.1701C97.2657 93.4118 97.597 93.7342 97.794 94.1371C97.991 94.5311 98.0895 94.9654 98.0895 95.44C98.0895 95.9773 97.9731 96.4877 97.7403 96.9712C97.5075 97.4547 97.1628 97.8487 96.7061 98.1532C96.2494 98.4487 95.6763 98.5964 94.9868 98.5964C94.6107 98.5964 94.3018 98.5472 94.0601 98.4487C94.0332 98.3323 94.0198 98.2248 94.0198 98.1263C94.0287 98.0278 94.0511 97.9293 94.0869 97.8308C94.1944 97.8577 94.3018 97.8801 94.4093 97.898C94.5167 97.9069 94.6242 97.9114 94.7316 97.9114C95.045 97.9114 95.3361 97.8532 95.6047 97.7368C95.8733 97.6114 96.0882 97.401 96.2494 97.1055C96.4195 96.81 96.5046 96.3847 96.5046 95.8295C96.5046 95.1311 96.3345 94.5625 95.9942 94.1237C95.6629 93.6849 95.1211 93.4656 94.369 93.4656C94.2615 93.4656 94.1451 93.4745 94.0198 93.4924C93.8944 93.5103 93.7243 93.5461 93.5094 93.5999L93.6974 93.385V99.8321C93.6974 100.217 93.7377 100.513 93.8183 100.719C93.9078 100.925 94.0421 101.068 94.2212 101.148C94.4093 101.229 94.651 101.283 94.9465 101.31C94.9734 101.39 94.9913 101.484 95.0003 101.592C95.0092 101.699 95.0137 101.82 95.0137 101.954C94.8794 101.945 94.7092 101.936 94.5033 101.927C94.3063 101.927 94.0914 101.923 93.8586 101.914C93.6347 101.914 93.4109 101.914 93.187 101.914C92.9631 101.914 92.7214 101.914 92.4617 101.914C92.211 101.923 91.9737 101.927 91.7498 101.927C91.5349 101.936 91.3603 101.945 91.226 101.954ZM103.484 102.035C102.589 102.035 101.805 101.833 101.134 101.43C100.471 101.019 99.9519 100.459 99.5758 99.7515C99.2087 99.0441 99.0251 98.2427 99.0251 97.3473C99.0251 96.6488 99.1371 96.0176 99.3609 95.4534C99.5937 94.8893 99.9116 94.4058 100.315 94.0028C100.718 93.5909 101.188 93.273 101.725 93.0492C102.271 92.8253 102.858 92.7134 103.484 92.7134C104.362 92.7134 105.137 92.9059 105.808 93.2909C106.48 93.676 107.008 94.2132 107.393 94.9027C107.778 95.5922 107.971 96.3981 107.971 97.3204C107.971 97.992 107.863 98.6143 107.648 99.1874C107.433 99.7605 107.124 100.262 106.721 100.692C106.318 101.113 105.844 101.444 105.298 101.686C104.751 101.919 104.147 102.035 103.484 102.035ZM103.74 101.31C104.295 101.31 104.765 101.153 105.15 100.84C105.544 100.517 105.844 100.078 106.05 99.5232C106.265 98.968 106.372 98.3457 106.372 97.6562C106.372 96.8682 106.233 96.1519 105.956 95.5072C105.687 94.8624 105.316 94.352 104.841 93.976C104.375 93.5999 103.838 93.4118 103.229 93.4118C102.728 93.4118 102.28 93.5596 101.886 93.8551C101.492 94.1506 101.183 94.5669 100.959 95.1042C100.735 95.6415 100.623 96.2683 100.623 96.9846C100.623 97.5488 100.691 98.0905 100.825 98.6099C100.959 99.1292 101.156 99.5948 101.416 100.007C101.685 100.41 102.011 100.728 102.396 100.96C102.781 101.193 103.229 101.31 103.74 101.31Z" fill="#1B4298"/>
<path d="M17.5091 106.637H4.43732V106.97H17.5091V106.637Z" fill="#FF662C"/>
<path d="M125.589 106.37H112.517V106.703H125.589V106.37Z" fill="#FF662C"/>
<path d="M23.8547 109.097C23.4302 109.097 23.0594 108.998 22.7421 108.801C22.4248 108.603 22.1761 108.336 21.996 107.997C21.8202 107.658 21.7323 107.276 21.7323 106.852C21.7323 106.522 21.7859 106.222 21.8931 105.952C22.0046 105.681 22.1568 105.448 22.3497 105.251C22.5427 105.053 22.7678 104.901 23.0251 104.794C23.2823 104.687 23.5589 104.633 23.8547 104.633C24.2663 104.633 24.6308 104.727 24.9481 104.916C25.2697 105.1 25.5226 105.36 25.707 105.694C25.8914 106.024 25.9836 106.41 25.9836 106.852C25.9836 107.169 25.9321 107.465 25.8292 107.74C25.7263 108.01 25.5784 108.248 25.3854 108.453C25.1968 108.655 24.9717 108.814 24.7101 108.929C24.4529 109.041 24.1677 109.097 23.8547 109.097ZM23.9834 108.781C24.2621 108.781 24.5 108.704 24.6973 108.55C24.8988 108.391 25.0531 108.179 25.1603 107.913C25.2675 107.643 25.3211 107.345 25.3211 107.019C25.3211 106.633 25.2504 106.284 25.1089 105.971C24.9717 105.654 24.783 105.403 24.5429 105.218C24.3028 105.034 24.0284 104.942 23.7197 104.942C23.4667 104.942 23.2394 105.015 23.0379 105.16C22.8407 105.302 22.6842 105.503 22.5684 105.765C22.4527 106.027 22.3948 106.331 22.3948 106.678C22.3948 106.948 22.4291 107.21 22.4977 107.463C22.5663 107.716 22.667 107.941 22.8 108.138C22.9372 108.336 23.1044 108.492 23.3016 108.608C23.4989 108.724 23.7261 108.781 23.9834 108.781ZM26.5717 109.058C26.5717 108.998 26.5738 108.947 26.5781 108.904C26.5824 108.856 26.591 108.816 26.6039 108.781C26.7196 108.773 26.8097 108.751 26.874 108.717C26.9383 108.683 26.9833 108.623 27.009 108.537C27.0391 108.447 27.0541 108.318 27.0541 108.151V105.508C27.0541 105.362 27.0412 105.251 27.0155 105.173C26.9898 105.096 26.9447 105.04 26.8804 105.006C26.8161 104.972 26.7261 104.953 26.6103 104.948C26.5974 104.914 26.5889 104.873 26.5846 104.826C26.5803 104.775 26.5781 104.723 26.5781 104.672C26.621 104.676 26.6703 104.68 26.7261 104.685C26.7861 104.685 26.8568 104.687 26.9383 104.691C27.0241 104.691 27.1248 104.691 27.2406 104.691C27.3606 104.691 27.5 104.691 27.6586 104.691V108.151C27.6586 108.327 27.6736 108.46 27.7037 108.55C27.738 108.636 27.798 108.694 27.8837 108.724C27.9738 108.749 28.0981 108.762 28.2568 108.762C28.5569 108.762 28.7777 108.681 28.9192 108.518C29.0607 108.355 29.1315 108.143 29.1315 107.881C29.1315 107.675 29.095 107.508 29.0221 107.379C28.9492 107.251 28.857 107.152 28.7456 107.084C28.6384 107.011 28.5247 106.961 28.4047 106.936C28.2846 106.906 28.1774 106.891 28.0831 106.891C28.0445 106.891 27.9716 106.893 27.8644 106.897C27.7572 106.901 27.6629 106.908 27.5815 106.916V106.64C27.6801 106.627 27.7765 106.618 27.8709 106.614C27.9652 106.605 28.066 106.601 28.1732 106.601C28.5119 106.601 28.8034 106.638 29.0478 106.71C29.2922 106.783 29.4809 106.903 29.6138 107.071C29.751 107.238 29.8196 107.467 29.8196 107.759C29.8196 107.999 29.7682 108.215 29.6653 108.408C29.5624 108.601 29.4016 108.756 29.1829 108.871C28.9642 108.983 28.677 109.039 28.3211 109.039C28.201 109.039 28.0574 109.039 27.8902 109.039C27.7272 109.039 27.56 109.039 27.3885 109.039C27.217 109.043 27.0584 109.045 26.9126 109.045C26.7668 109.049 26.6532 109.054 26.5717 109.058ZM29.2922 105.765C29.2837 105.632 29.2494 105.503 29.1893 105.379C29.1293 105.255 29.0243 105.152 28.8742 105.07C28.7284 104.989 28.5162 104.948 28.2375 104.948H27.4914L27.6329 104.691C27.9588 104.691 28.2418 104.691 28.4819 104.691C28.7263 104.687 28.9299 104.682 29.0929 104.678C29.2558 104.674 29.3737 104.672 29.4466 104.672C29.4552 104.766 29.4659 104.875 29.4788 105C29.4916 105.124 29.5066 105.246 29.5238 105.366C29.5409 105.486 29.5602 105.594 29.5817 105.688C29.5474 105.718 29.5045 105.739 29.453 105.752C29.4059 105.761 29.3523 105.765 29.2922 105.765ZM30.5349 109.058C30.5349 108.998 30.537 108.947 30.5413 108.904C30.5456 108.856 30.5542 108.816 30.567 108.781C30.6828 108.773 30.7729 108.754 30.8372 108.724C30.9015 108.689 30.9465 108.634 30.9722 108.556C30.998 108.475 31.0108 108.363 31.0108 108.222V105.508C31.0108 105.362 30.998 105.251 30.9722 105.173C30.9465 105.096 30.9015 105.04 30.8372 105.006C30.7729 104.972 30.6828 104.953 30.567 104.948C30.5542 104.914 30.5456 104.873 30.5413 104.826C30.537 104.779 30.5349 104.727 30.5349 104.672C30.7021 104.68 30.8629 104.687 31.0173 104.691C31.1759 104.691 31.3067 104.691 31.4096 104.691C31.4696 104.691 31.5532 104.691 31.6604 104.691C31.7719 104.687 31.8812 104.685 31.9884 104.685C32.0956 104.68 32.1749 104.678 32.2264 104.678C32.5823 104.678 32.8674 104.736 33.0818 104.852C33.2962 104.968 33.4505 105.12 33.5448 105.308C33.6392 105.497 33.6863 105.703 33.6863 105.926C33.6863 106.17 33.6306 106.406 33.5191 106.633C33.4119 106.861 33.2511 107.047 33.0368 107.193C32.8224 107.339 32.5522 107.412 32.2264 107.412C32.0463 107.412 31.8962 107.388 31.7762 107.341C31.7676 107.294 31.7633 107.249 31.7633 107.206C31.7633 107.163 31.7697 107.12 31.7826 107.077C31.8383 107.09 31.8941 107.101 31.9498 107.109C32.0056 107.114 32.0634 107.116 32.1235 107.116C32.2821 107.116 32.43 107.088 32.5673 107.032C32.7045 106.976 32.8159 106.878 32.9017 106.736C32.9874 106.59 33.0303 106.382 33.0303 106.112C33.0303 105.769 32.9446 105.493 32.7731 105.283C32.6058 105.068 32.3293 104.961 31.9434 104.961C31.8962 104.961 31.8405 104.965 31.7762 104.974C31.7161 104.978 31.6304 104.993 31.5189 105.019L31.6154 104.923V108.093C31.6154 108.278 31.6347 108.419 31.6733 108.518C31.7119 108.612 31.774 108.679 31.8598 108.717C31.9455 108.751 32.0549 108.773 32.1878 108.781C32.2007 108.816 32.2092 108.856 32.2135 108.904C32.2178 108.947 32.2199 108.998 32.2199 109.058C32.1556 109.054 32.0785 109.049 31.9884 109.045C31.9027 109.045 31.8105 109.043 31.7119 109.039C31.6132 109.039 31.5125 109.039 31.4096 109.039C31.311 109.039 31.2038 109.039 31.088 109.039C30.9722 109.043 30.865 109.045 30.7664 109.045C30.6678 109.049 30.5906 109.054 30.5349 109.058ZM35.894 104.652L37.4247 108.164C37.4976 108.323 37.5576 108.445 37.6048 108.531C37.6519 108.616 37.6991 108.676 37.7462 108.711C37.7977 108.745 37.8556 108.769 37.9199 108.781C37.937 108.837 37.9478 108.884 37.9521 108.923C37.9563 108.962 37.9585 109.007 37.9585 109.058C37.9156 109.054 37.8492 109.049 37.7591 109.045C37.6691 109.045 37.5747 109.043 37.4761 109.039C37.3775 109.039 37.2939 109.039 37.2253 109.039C37.1738 109.039 37.1138 109.039 37.0452 109.039C36.9766 109.043 36.9059 109.045 36.833 109.045C36.7601 109.049 36.6936 109.052 36.6336 109.052C36.5778 109.056 36.5328 109.058 36.4985 109.058C36.4985 109.007 36.5007 108.957 36.505 108.91C36.5135 108.863 36.5264 108.82 36.5435 108.781C36.7193 108.76 36.8222 108.721 36.8523 108.666C36.8866 108.606 36.8608 108.477 36.7751 108.28L35.8811 106.19C35.8254 106.057 35.7761 105.939 35.7332 105.836C35.6903 105.733 35.6388 105.602 35.5788 105.443H35.611C35.5595 105.606 35.5124 105.746 35.4695 105.862C35.4309 105.973 35.3923 106.08 35.3537 106.183L34.6205 108.093C34.5262 108.346 34.4962 108.522 34.5305 108.621C34.5691 108.715 34.6763 108.769 34.8521 108.781C34.8692 108.82 34.8799 108.863 34.8842 108.91C34.8928 108.957 34.8971 109.007 34.8971 109.058C34.8499 109.054 34.792 109.049 34.7234 109.045C34.6548 109.045 34.5819 109.043 34.5048 109.039C34.4319 109.039 34.359 109.039 34.2861 109.039C34.1789 109.039 34.0781 109.041 33.9838 109.045C33.8895 109.049 33.8123 109.054 33.7523 109.058C33.7523 109.015 33.7544 108.97 33.7587 108.923C33.7673 108.871 33.7801 108.826 33.7973 108.788C33.8745 108.771 33.9388 108.741 33.9902 108.698C34.0417 108.655 34.091 108.586 34.1382 108.492C34.1896 108.393 34.2475 108.26 34.3118 108.093L35.6431 104.678C35.686 104.67 35.7246 104.663 35.7589 104.659C35.7975 104.655 35.8425 104.652 35.894 104.652ZM36.4792 107.334L36.5371 107.624C36.2498 107.624 35.9411 107.626 35.611 107.63C35.2851 107.634 34.9893 107.641 34.7234 107.649L34.8263 107.334H36.4792ZM39.7308 109.097C39.4564 109.097 39.2077 109.062 38.9848 108.994C38.7661 108.921 38.5817 108.818 38.4317 108.685C38.4574 108.535 38.4745 108.389 38.4831 108.248C38.4917 108.102 38.4917 107.962 38.4831 107.83C38.5388 107.808 38.5946 107.793 38.6503 107.785C38.7104 107.776 38.7725 107.774 38.8368 107.778C38.8669 108.13 38.959 108.387 39.1134 108.55C39.2678 108.709 39.4864 108.788 39.7694 108.788C40.061 108.788 40.2797 108.711 40.4254 108.556C40.5712 108.398 40.6441 108.179 40.6441 107.9C40.6441 107.544 40.5326 107.283 40.3097 107.116C40.0867 106.948 39.7673 106.865 39.3514 106.865C39.3428 106.805 39.3385 106.747 39.3385 106.691C39.3428 106.631 39.3535 106.586 39.3707 106.556C39.6451 106.556 39.8616 106.522 40.0202 106.453C40.1789 106.38 40.2925 106.282 40.3611 106.157C40.4297 106.029 40.464 105.885 40.464 105.726C40.464 105.482 40.3997 105.291 40.2711 105.154C40.1424 105.013 39.9645 104.942 39.7373 104.942C39.5314 104.942 39.3471 105.008 39.1841 105.141C39.0255 105.274 38.9226 105.497 38.8754 105.81C38.8068 105.814 38.7447 105.814 38.6889 105.81C38.6332 105.801 38.5753 105.786 38.5153 105.765C38.5367 105.628 38.5496 105.491 38.5539 105.353C38.5581 105.216 38.5539 105.077 38.541 104.935C38.7511 104.832 38.959 104.757 39.1649 104.71C39.3749 104.659 39.5872 104.633 39.8016 104.633C40.2432 104.633 40.5755 104.725 40.7985 104.91C41.0214 105.094 41.1329 105.336 41.1329 105.636C41.1329 105.851 41.0772 106.037 40.9657 106.196C40.8585 106.355 40.7084 106.479 40.5155 106.569C40.3225 106.655 40.0974 106.698 39.8402 106.698V106.653C40.1274 106.653 40.3804 106.691 40.5991 106.768C40.8178 106.846 40.9893 106.97 41.1136 107.141C41.2422 107.309 41.3066 107.532 41.3066 107.81C41.3066 108.226 41.1651 108.546 40.8821 108.769C40.6034 108.987 40.2196 109.097 39.7308 109.097ZM44.0098 109.097C43.5853 109.097 43.2144 108.998 42.8972 108.801C42.5799 108.603 42.3312 108.336 42.1511 107.997C41.9753 107.658 41.8874 107.276 41.8874 106.852C41.8874 106.522 41.941 106.222 42.0482 105.952C42.1597 105.681 42.3119 105.448 42.5048 105.251C42.6978 105.053 42.9229 104.901 43.1801 104.794C43.4374 104.687 43.714 104.633 44.0098 104.633C44.4214 104.633 44.7859 104.727 45.1032 104.916C45.4247 105.1 45.6777 105.36 45.8621 105.694C46.0465 106.024 46.1386 106.41 46.1386 106.852C46.1386 107.169 46.0872 107.465 45.9843 107.74C45.8814 108.01 45.7335 108.248 45.5405 108.453C45.3519 108.655 45.1268 108.814 44.8652 108.929C44.6079 109.041 44.3228 109.097 44.0098 109.097ZM44.1384 108.781C44.4171 108.781 44.6551 108.704 44.8523 108.55C45.0539 108.391 45.2082 108.179 45.3154 107.913C45.4226 107.643 45.4762 107.345 45.4762 107.019C45.4762 106.633 45.4055 106.284 45.264 105.971C45.1268 105.654 44.9381 105.403 44.698 105.218C44.4579 105.034 44.1835 104.942 43.8747 104.942C43.6218 104.942 43.3945 105.015 43.193 105.16C42.9958 105.302 42.8393 105.503 42.7235 105.765C42.6077 106.027 42.5499 106.331 42.5499 106.678C42.5499 106.948 42.5842 107.21 42.6528 107.463C42.7214 107.716 42.8221 107.941 42.955 108.138C43.0922 108.336 43.2595 108.492 43.4567 108.608C43.6539 108.724 43.8812 108.781 44.1384 108.781ZM46.7332 104.672C46.819 104.676 46.9219 104.68 47.0419 104.685C47.1663 104.689 47.2863 104.691 47.4021 104.691C47.505 104.691 47.6079 104.691 47.7108 104.691C47.8137 104.687 47.9166 104.685 48.0195 104.685C48.1224 104.68 48.2232 104.678 48.3218 104.678C48.5705 104.678 48.7977 104.704 49.0035 104.755C49.2094 104.807 49.3744 104.901 49.4988 105.038C49.6274 105.171 49.6917 105.364 49.6917 105.617C49.6917 105.892 49.6081 106.127 49.4409 106.325C49.2737 106.518 49.0464 106.635 48.7591 106.678C48.9864 106.691 49.1943 106.734 49.383 106.807C49.576 106.876 49.7303 106.987 49.8461 107.141C49.9618 107.296 50.0197 107.506 50.0197 107.772C50.0197 108.003 49.9661 108.215 49.8589 108.408C49.756 108.601 49.591 108.756 49.3637 108.871C49.1365 108.983 48.8406 109.039 48.4762 109.039C48.3561 109.039 48.2125 109.039 48.0452 109.039C47.8823 109.039 47.7151 109.039 47.5436 109.039C47.3721 109.043 47.2134 109.045 47.0677 109.045C46.9219 109.049 46.8082 109.054 46.7268 109.058C46.7268 108.998 46.7289 108.947 46.7332 108.904C46.7375 108.856 46.7461 108.816 46.7589 108.781C46.8747 108.773 46.9647 108.751 47.0291 108.717C47.0934 108.683 47.1384 108.623 47.1641 108.537C47.1941 108.447 47.2091 108.318 47.2091 108.151V105.508C47.2091 105.362 47.1963 105.251 47.1706 105.173C47.1448 105.096 47.0998 105.04 47.0355 105.006C46.9712 104.972 46.8811 104.953 46.7654 104.948C46.7525 104.914 46.7439 104.873 46.7396 104.826C46.7354 104.775 46.7332 104.723 46.7332 104.672ZM47.8137 104.916V108.151C47.8137 108.327 47.8287 108.46 47.8587 108.55C47.893 108.636 47.9531 108.694 48.0388 108.724C48.1289 108.749 48.2532 108.762 48.4118 108.762C48.7291 108.762 48.9607 108.683 49.1065 108.524C49.2565 108.361 49.3316 108.14 49.3316 107.862C49.3316 107.66 49.2908 107.497 49.2094 107.373C49.1279 107.244 49.0186 107.148 48.8813 107.084C48.7484 107.015 48.6005 106.968 48.4376 106.942C48.2789 106.916 48.1203 106.903 47.9616 106.903H47.7365V106.627H48.0131C48.2918 106.627 48.504 106.588 48.6498 106.511C48.7956 106.434 48.8964 106.333 48.9521 106.209C49.0078 106.08 49.0357 105.947 49.0357 105.81C49.0357 105.587 48.9843 105.416 48.8813 105.296C48.7827 105.171 48.6584 105.085 48.5083 105.038C48.3625 104.987 48.2189 104.961 48.0774 104.961C48.0217 104.961 47.9659 104.965 47.9102 104.974C47.8587 104.978 47.7966 104.991 47.7237 105.013L47.8137 104.916ZM52.4816 104.652L54.0123 108.164C54.0851 108.323 54.1452 108.445 54.1923 108.531C54.2395 108.616 54.2867 108.676 54.3338 108.711C54.3853 108.745 54.4432 108.769 54.5075 108.781C54.5246 108.837 54.5354 108.884 54.5396 108.923C54.5439 108.962 54.5461 109.007 54.5461 109.058C54.5032 109.054 54.4367 109.049 54.3467 109.045C54.2567 109.045 54.1623 109.043 54.0637 109.039C53.9651 109.039 53.8815 109.039 53.8129 109.039C53.7614 109.039 53.7014 109.039 53.6328 109.039C53.5642 109.043 53.4934 109.045 53.4206 109.045C53.3477 109.049 53.2812 109.052 53.2212 109.052C53.1654 109.056 53.1204 109.058 53.0861 109.058C53.0861 109.007 53.0883 108.957 53.0925 108.91C53.1011 108.863 53.114 108.82 53.1311 108.781C53.3069 108.76 53.4098 108.721 53.4398 108.666C53.4742 108.606 53.4484 108.477 53.3627 108.28L52.4687 106.19C52.4129 106.057 52.3636 105.939 52.3208 105.836C52.2779 105.733 52.2264 105.602 52.1664 105.443H52.1986C52.1471 105.606 52.0999 105.746 52.0571 105.862C52.0185 105.973 51.9799 106.08 51.9413 106.183L51.2081 108.093C51.1138 108.346 51.0838 108.522 51.1181 108.621C51.1567 108.715 51.2638 108.769 51.4396 108.781C51.4568 108.82 51.4675 108.863 51.4718 108.91C51.4804 108.957 51.4847 109.007 51.4847 109.058C51.4375 109.054 51.3796 109.049 51.311 109.045C51.2424 109.045 51.1695 109.043 51.0923 109.039C51.0194 109.039 50.9466 109.039 50.8737 109.039C50.7665 109.039 50.6657 109.041 50.5714 109.045C50.4771 109.049 50.3999 109.054 50.3398 109.058C50.3398 109.015 50.342 108.97 50.3463 108.923C50.3549 108.871 50.3677 108.826 50.3849 108.788C50.462 108.771 50.5264 108.741 50.5778 108.698C50.6293 108.655 50.6786 108.586 50.7257 108.492C50.7772 108.393 50.8351 108.26 50.8994 108.093L52.2307 104.678C52.2736 104.67 52.3122 104.663 52.3465 104.659C52.3851 104.655 52.4301 104.652 52.4816 104.652ZM53.0668 107.334L53.1247 107.624C52.8374 107.624 52.5287 107.626 52.1986 107.63C51.8727 107.634 51.5768 107.641 51.311 107.649L51.4139 107.334H53.0668ZM57.6339 109.058C57.6339 108.998 57.636 108.947 57.6403 108.904C57.6446 108.856 57.6532 108.816 57.666 108.781C57.7818 108.773 57.8718 108.754 57.9361 108.724C58.0005 108.689 58.0455 108.634 58.0712 108.556C58.0969 108.475 58.1098 108.363 58.1098 108.222V105.508C58.1098 105.362 58.0969 105.251 58.0712 105.173C58.0455 105.096 58.0005 105.04 57.9361 105.006C57.8718 104.972 57.7818 104.953 57.666 104.948C57.6532 104.914 57.6446 104.873 57.6403 104.826C57.636 104.779 57.6339 104.727 57.6339 104.672C57.7153 104.676 57.7968 104.68 57.8783 104.685C57.964 104.685 58.0519 104.687 58.142 104.691C58.232 104.691 58.322 104.691 58.4121 104.691C58.5064 104.691 58.5965 104.691 58.6822 104.691C58.768 104.687 58.8516 104.685 58.933 104.685C59.0188 104.68 59.1045 104.676 59.1903 104.672C59.1903 104.727 59.1882 104.779 59.1839 104.826C59.1796 104.873 59.171 104.914 59.1581 104.948C59.0467 104.953 58.9566 104.972 58.888 105.006C58.8237 105.04 58.7787 105.096 58.753 105.173C58.7272 105.251 58.7144 105.362 58.7144 105.508V108.222C58.7144 108.363 58.7272 108.475 58.753 108.556C58.7787 108.634 58.8237 108.689 58.888 108.724C58.9566 108.754 59.0467 108.773 59.1581 108.781C59.171 108.816 59.1796 108.856 59.1839 108.904C59.1882 108.947 59.1903 108.998 59.1903 109.058C59.0617 109.049 58.9309 109.043 58.798 109.039C58.6651 109.039 58.5364 109.039 58.4121 109.039C58.2877 109.039 58.1548 109.039 58.0133 109.039C57.8718 109.043 57.7453 109.049 57.6339 109.058ZM55.0677 109.058C55.0677 108.998 55.0698 108.947 55.0741 108.904C55.0784 108.856 55.087 108.816 55.0998 108.781C55.2156 108.773 55.3056 108.754 55.37 108.724C55.4343 108.689 55.4793 108.634 55.505 108.556C55.5308 108.475 55.5436 108.363 55.5436 108.222V105.508C55.5436 105.362 55.5308 105.251 55.505 105.173C55.4793 105.096 55.4343 105.04 55.37 105.006C55.3056 104.972 55.2156 104.953 55.0998 104.948C55.087 104.914 55.0784 104.873 55.0741 104.826C55.0698 104.779 55.0677 104.727 55.0677 104.672C55.1491 104.676 55.2306 104.68 55.3121 104.685C55.3978 104.685 55.4857 104.687 55.5758 104.691C55.6658 104.691 55.7559 104.691 55.8459 104.691C55.9402 104.691 56.0303 104.691 56.116 104.691C56.2018 104.687 56.2854 104.685 56.3669 104.685C56.4526 104.68 56.5384 104.676 56.6241 104.672C56.6241 104.727 56.622 104.779 56.6177 104.826C56.6134 104.873 56.6048 104.914 56.592 104.948C56.4805 104.953 56.3904 104.972 56.3218 105.006C56.2575 105.04 56.2125 105.096 56.1868 105.173C56.161 105.251 56.1482 105.362 56.1482 105.508V108.222C56.1482 108.363 56.161 108.475 56.1868 108.556C56.2125 108.634 56.2575 108.689 56.3218 108.724C56.3904 108.754 56.4805 108.773 56.592 108.781C56.6048 108.816 56.6134 108.856 56.6177 108.904C56.622 108.947 56.6241 108.998 56.6241 109.058C56.4955 109.049 56.3647 109.043 56.2318 109.039C56.0989 109.039 55.9702 109.039 55.8459 109.039C55.7216 109.039 55.5886 109.039 55.4471 109.039C55.3056 109.043 55.1792 109.049 55.0677 109.058ZM56.116 106.987V106.672H58.142V106.948C58.0219 106.948 57.8718 106.948 57.6917 106.948C57.5117 106.948 57.323 106.951 57.1258 106.955C56.9328 106.955 56.7463 106.959 56.5662 106.968C56.3904 106.972 56.2404 106.978 56.116 106.987ZM60.7398 108.588L60.6498 108.222L63.1131 105.244L63.2224 105.591L60.7398 108.588ZM59.9102 109.058C59.9102 108.998 59.9123 108.947 59.9166 108.904C59.9209 108.856 59.9295 108.816 59.9423 108.781C60.0581 108.773 60.1481 108.754 60.2125 108.724C60.2768 108.689 60.3218 108.634 60.3475 108.556C60.3732 108.475 60.3861 108.363 60.3861 108.222V105.508C60.3861 105.362 60.3732 105.251 60.3475 105.173C60.3218 105.096 60.2768 105.04 60.2125 105.006C60.1481 104.972 60.0581 104.953 59.9423 104.948C59.9295 104.914 59.9209 104.873 59.9166 104.826C59.9123 104.779 59.9102 104.727 59.9102 104.672C59.9916 104.676 60.0731 104.68 60.1546 104.685C60.2403 104.685 60.3282 104.687 60.4183 104.691C60.5083 104.691 60.5984 104.691 60.6884 104.691C60.7827 104.691 60.8728 104.691 60.9585 104.691C61.0443 104.687 61.1279 104.685 61.2093 104.685C61.2951 104.68 61.3809 104.676 61.4666 104.672C61.4666 104.727 61.4645 104.779 61.4602 104.826C61.4559 104.873 61.4473 104.914 61.4345 104.948C61.323 104.953 61.2329 104.972 61.1643 105.006C61.1 105.04 61.055 105.096 61.0293 105.173C61.0035 105.251 60.9907 105.362 60.9907 105.508V108.222C60.9907 108.363 61.0035 108.475 61.0293 108.556C61.055 108.634 61.1 108.689 61.1643 108.724C61.2329 108.754 61.323 108.773 61.4345 108.781C61.4473 108.816 61.4559 108.856 61.4602 108.904C61.4645 108.947 61.4666 108.998 61.4666 109.058C61.338 109.049 61.2072 109.043 61.0743 109.039C60.9414 109.039 60.8127 109.039 60.6884 109.039C60.564 109.039 60.4311 109.039 60.2896 109.039C60.1481 109.043 60.0217 109.049 59.9102 109.058ZM62.4764 109.058C62.4764 108.998 62.4785 108.947 62.4828 108.904C62.4871 108.856 62.4957 108.816 62.5085 108.781C62.6243 108.773 62.7143 108.754 62.7786 108.724C62.843 108.689 62.888 108.634 62.9137 108.556C62.9394 108.475 62.9523 108.363 62.9523 108.222V105.508C62.9523 105.362 62.9394 105.251 62.9137 105.173C62.888 105.096 62.843 105.04 62.7786 105.006C62.7143 104.972 62.6243 104.953 62.5085 104.948C62.4957 104.914 62.4871 104.873 62.4828 104.826C62.4785 104.779 62.4764 104.727 62.4764 104.672C62.5578 104.676 62.6393 104.68 62.7208 104.685C62.8065 104.685 62.8944 104.687 62.9845 104.691C63.0745 104.691 63.1645 104.691 63.2546 104.691C63.3489 104.691 63.4389 104.691 63.5247 104.691C63.6105 104.687 63.6941 104.685 63.7755 104.685C63.8613 104.68 63.947 104.676 64.0328 104.672C64.0328 104.727 64.0306 104.779 64.0264 104.826C64.0221 104.873 64.0135 104.914 64.0006 104.948C63.8892 104.953 63.7991 104.972 63.7305 105.006C63.6662 105.04 63.6212 105.096 63.5954 105.173C63.5697 105.251 63.5569 105.362 63.5569 105.508V108.222C63.5569 108.363 63.5697 108.475 63.5954 108.556C63.6212 108.634 63.6662 108.689 63.7305 108.724C63.7991 108.754 63.8892 108.773 64.0006 108.781C64.0135 108.816 64.0221 108.856 64.0264 108.904C64.0306 108.947 64.0328 108.998 64.0328 109.058C63.9042 109.049 63.7734 109.043 63.6405 109.039C63.5076 109.039 63.3789 109.039 63.2546 109.039C63.1302 109.039 62.9973 109.039 62.8558 109.039C62.7143 109.043 62.5878 109.049 62.4764 109.058ZM64.7527 104.672C64.817 104.676 64.8963 104.68 64.9906 104.685C65.0893 104.685 65.1922 104.687 65.2994 104.691C65.4065 104.691 65.5073 104.691 65.6016 104.691C65.7003 104.691 65.7774 104.691 65.8332 104.691V108.151C65.8332 108.31 65.8482 108.432 65.8782 108.518C65.9082 108.603 65.9661 108.664 66.0518 108.698C66.1376 108.732 66.2598 108.749 66.4184 108.749V109.039C66.2984 109.039 66.159 109.039 66.0004 109.039C65.846 109.039 65.6874 109.039 65.5245 109.039C65.3658 109.043 65.2179 109.045 65.0807 109.045C64.9435 109.049 64.8341 109.054 64.7527 109.058C64.7527 108.998 64.7548 108.947 64.7591 108.904C64.7634 108.856 64.772 108.816 64.7848 108.781C64.9006 108.773 64.9906 108.751 65.055 108.717C65.1193 108.683 65.1643 108.623 65.19 108.537C65.2157 108.447 65.2286 108.318 65.2286 108.151V105.508C65.2286 105.362 65.2157 105.251 65.19 105.173C65.1643 105.096 65.1193 105.04 65.055 105.006C64.9906 104.972 64.9006 104.953 64.7848 104.948C64.772 104.914 64.7634 104.873 64.7591 104.826C64.7548 104.775 64.7527 104.723 64.7527 104.672ZM67.7112 107.939C67.7755 107.956 67.8291 107.977 67.872 108.003C67.9148 108.025 67.9556 108.055 67.9942 108.093C67.947 108.239 67.9063 108.398 67.872 108.569C67.842 108.741 67.8162 108.901 67.7948 109.052C67.7133 109.047 67.6018 109.045 67.4603 109.045C67.3231 109.045 67.1645 109.043 66.9844 109.039C66.8086 109.039 66.62 109.039 66.4184 109.039V108.749H66.457C66.7657 108.749 66.9973 108.719 67.1516 108.659C67.3103 108.595 67.4282 108.503 67.5054 108.383C67.5825 108.263 67.6512 108.115 67.7112 107.939ZM67.261 106.145C67.2567 106.252 67.2524 106.367 67.2481 106.492C67.2481 106.616 67.2481 106.734 67.2481 106.846C67.2481 106.957 67.2481 107.081 67.2481 107.219C67.2524 107.356 67.2567 107.48 67.261 107.592C67.2052 107.592 67.1538 107.589 67.1066 107.585C67.0594 107.581 67.0123 107.572 66.9651 107.559C66.948 107.336 66.8879 107.186 66.785 107.109C66.6864 107.028 66.5042 106.987 66.2384 106.987H65.7753V106.71H66.2384C66.5042 106.71 66.6886 106.676 66.7915 106.608C66.8944 106.539 66.948 106.4 66.9523 106.19C67.008 106.172 67.0594 106.162 67.1066 106.157C67.1538 106.149 67.2052 106.145 67.261 106.145ZM67.6404 104.672C67.649 104.766 67.6597 104.875 67.6726 105C67.6855 105.124 67.7005 105.246 67.7176 105.366C67.7348 105.486 67.7541 105.594 67.7755 105.688C67.7412 105.718 67.6983 105.739 67.6469 105.752C67.5997 105.761 67.5461 105.765 67.4861 105.765C67.4775 105.632 67.4432 105.503 67.3832 105.379C67.3231 105.255 67.2181 105.152 67.068 105.07C66.9222 104.989 66.71 104.948 66.4313 104.948H65.6981L65.8332 104.691C66.1719 104.691 66.4613 104.691 66.7014 104.691C66.9458 104.687 67.1452 104.682 67.2996 104.678C67.4582 104.674 67.5718 104.672 67.6404 104.672ZM69.9029 109.058C69.9029 108.998 69.9051 108.947 69.9094 108.904C69.9136 108.856 69.9222 108.816 69.9351 108.781C70.0509 108.773 70.1409 108.751 70.2052 108.717C70.2695 108.683 70.3145 108.623 70.3403 108.537C70.3703 108.447 70.3853 108.318 70.3853 108.151V105.508C70.3853 105.362 70.3724 105.251 70.3467 105.173C70.321 105.096 70.276 105.04 70.2116 105.006C70.1473 104.972 70.0573 104.953 69.9415 104.948C69.9287 104.914 69.9201 104.873 69.9158 104.826C69.9115 104.775 69.9094 104.723 69.9094 104.672C69.9522 104.676 70.0015 104.68 70.0573 104.685C70.1173 104.685 70.1881 104.687 70.2695 104.691C70.3553 104.691 70.456 104.691 70.5718 104.691C70.6919 104.691 70.8312 104.691 70.9899 104.691V108.151C70.9899 108.327 71.0049 108.46 71.0349 108.55C71.0692 108.636 71.1292 108.694 71.215 108.724C71.305 108.749 71.4293 108.762 71.588 108.762C71.8881 108.762 72.1089 108.681 72.2504 108.518C72.3919 108.355 72.4627 108.143 72.4627 107.881C72.4627 107.675 72.4262 107.508 72.3533 107.379C72.2805 107.251 72.1883 107.152 72.0768 107.084C71.9696 107.011 71.856 106.961 71.7359 106.936C71.6159 106.906 71.5087 106.891 71.4143 106.891C71.3757 106.891 71.3029 106.893 71.1957 106.897C71.0885 106.901 70.9941 106.908 70.9127 106.916V106.64C71.0113 106.627 71.1078 106.618 71.2021 106.614C71.2964 106.605 71.3972 106.601 71.5044 106.601C71.8431 106.601 72.1347 106.638 72.3791 106.71C72.6235 106.783 72.8121 106.903 72.945 107.071C73.0822 107.238 73.1509 107.467 73.1509 107.759C73.1509 107.999 73.0994 108.215 72.9965 108.408C72.8936 108.601 72.7328 108.756 72.5141 108.871C72.2955 108.983 72.0082 109.039 71.6523 109.039C71.5322 109.039 71.3886 109.039 71.2214 109.039C71.0585 109.039 70.8912 109.039 70.7197 109.039C70.5482 109.043 70.3896 109.045 70.2438 109.045C70.098 109.049 69.9844 109.054 69.9029 109.058ZM72.6235 105.765C72.6149 105.632 72.5806 105.503 72.5206 105.379C72.4605 105.255 72.3555 105.152 72.2054 105.07C72.0596 104.989 71.8474 104.948 71.5687 104.948H70.8226L70.9641 104.691C71.29 104.691 71.573 104.691 71.8131 104.691C72.0575 104.687 72.2612 104.682 72.4241 104.678C72.587 104.674 72.7049 104.672 72.7778 104.672C72.7864 104.766 72.7971 104.875 72.81 105C72.8228 105.124 72.8379 105.246 72.855 105.366C72.8722 105.486 72.8914 105.594 72.9129 105.688C72.8786 105.718 72.8357 105.739 72.7843 105.752C72.7371 105.761 72.6835 105.765 72.6235 105.765ZM73.8661 104.672C73.9304 104.676 74.0097 104.68 74.1041 104.685C74.2027 104.685 74.3056 104.687 74.4128 104.691C74.52 104.691 74.6207 104.691 74.7151 104.691C74.8137 104.691 74.8909 104.691 74.9466 104.691V108.151C74.9466 108.31 74.9616 108.432 74.9916 108.518C75.0216 108.603 75.0795 108.664 75.1653 108.698C75.251 108.732 75.3732 108.749 75.5319 108.749V109.039C75.4118 109.039 75.2725 109.039 75.1138 109.039C74.9595 109.039 74.8008 109.039 74.6379 109.039C74.4792 109.043 74.3313 109.045 74.1941 109.045C74.0569 109.049 73.9476 109.054 73.8661 109.058C73.8661 108.998 73.8683 108.947 73.8725 108.904C73.8768 108.856 73.8854 108.816 73.8983 108.781C74.014 108.773 74.1041 108.751 74.1684 108.717C74.2327 108.683 74.2777 108.623 74.3035 108.537C74.3292 108.447 74.342 108.318 74.342 108.151V105.508C74.342 105.362 74.3292 105.251 74.3035 105.173C74.2777 105.096 74.2327 105.04 74.1684 105.006C74.1041 104.972 74.014 104.953 73.8983 104.948C73.8854 104.914 73.8768 104.873 73.8725 104.826C73.8683 104.775 73.8661 104.723 73.8661 104.672ZM76.8246 107.939C76.8889 107.956 76.9425 107.977 76.9854 108.003C77.0283 108.025 77.069 108.055 77.1076 108.093C77.0604 108.239 77.0197 108.398 76.9854 108.569C76.9554 108.741 76.9297 108.901 76.9082 109.052C76.8268 109.047 76.7153 109.045 76.5738 109.045C76.4366 109.045 76.2779 109.043 76.0979 109.039C75.9221 109.039 75.7334 109.039 75.5319 109.039V108.749H75.5705C75.8792 108.749 76.1107 108.719 76.2651 108.659C76.4237 108.595 76.5416 108.503 76.6188 108.383C76.696 108.263 76.7646 108.115 76.8246 107.939ZM76.3744 106.145C76.3701 106.252 76.3658 106.367 76.3615 106.492C76.3615 106.616 76.3615 106.734 76.3615 106.846C76.3615 106.957 76.3615 107.081 76.3615 107.219C76.3658 107.356 76.3701 107.48 76.3744 107.592C76.3187 107.592 76.2672 107.589 76.2201 107.585C76.1729 107.581 76.1257 107.572 76.0786 107.559C76.0614 107.336 76.0014 107.186 75.8985 107.109C75.7999 107.028 75.6176 106.987 75.3518 106.987H74.8887V106.71H75.3518C75.6176 106.71 75.802 106.676 75.9049 106.608C76.0078 106.539 76.0614 106.4 76.0657 106.19C76.1214 106.172 76.1729 106.162 76.2201 106.157C76.2672 106.149 76.3187 106.145 76.3744 106.145ZM76.7539 104.672C76.7624 104.766 76.7732 104.875 76.786 105C76.7989 105.124 76.8139 105.246 76.831 105.366C76.8482 105.486 76.8675 105.594 76.8889 105.688C76.8546 105.718 76.8118 105.739 76.7603 105.752C76.7131 105.761 76.6595 105.765 76.5995 105.765C76.5909 105.632 76.5566 105.503 76.4966 105.379C76.4366 105.255 76.3315 105.152 76.1815 105.07C76.0357 104.989 75.8234 104.948 75.5447 104.948H74.8115L74.9466 104.691C75.2853 104.691 75.5748 104.691 75.8149 104.691C76.0593 104.687 76.2586 104.682 76.413 104.678C76.5716 104.674 76.6853 104.672 76.7539 104.672ZM79.1051 109.097C78.8307 109.097 78.5821 109.062 78.3591 108.994C78.1404 108.921 77.956 108.818 77.806 108.685C77.8317 108.535 77.8489 108.389 77.8574 108.248C77.866 108.102 77.866 107.962 77.8574 107.83C77.9132 107.808 77.9689 107.793 78.0247 107.785C78.0847 107.776 78.1468 107.774 78.2112 107.778C78.2412 108.13 78.3334 108.387 78.4877 108.55C78.6421 108.709 78.8607 108.788 79.1437 108.788C79.4353 108.788 79.654 108.711 79.7998 108.556C79.9455 108.398 80.0184 108.179 80.0184 107.9C80.0184 107.544 79.9069 107.283 79.684 107.116C79.461 106.948 79.1416 106.865 78.7257 106.865C78.7171 106.805 78.7128 106.747 78.7128 106.691C78.7171 106.631 78.7278 106.586 78.745 106.556C79.0194 106.556 79.2359 106.522 79.3946 106.453C79.5532 106.38 79.6668 106.282 79.7354 106.157C79.804 106.029 79.8383 105.885 79.8383 105.726C79.8383 105.482 79.774 105.291 79.6454 105.154C79.5168 105.013 79.3388 104.942 79.1116 104.942C78.9058 104.942 78.7214 105.008 78.5585 105.141C78.3998 105.274 78.2969 105.497 78.2498 105.81C78.1812 105.814 78.119 105.814 78.0632 105.81C78.0075 105.801 77.9496 105.786 77.8896 105.765C77.911 105.628 77.9239 105.491 77.9282 105.353C77.9325 105.216 77.9282 105.077 77.9153 104.935C78.1254 104.832 78.3334 104.757 78.5392 104.71C78.7493 104.659 78.9615 104.633 79.1759 104.633C79.6175 104.633 79.9498 104.725 80.1728 104.91C80.3957 105.094 80.5072 105.336 80.5072 105.636C80.5072 105.851 80.4515 106.037 80.34 106.196C80.2328 106.355 80.0827 106.479 79.8898 106.569C79.6968 106.655 79.4717 106.698 79.2145 106.698V106.653C79.5018 106.653 79.7547 106.691 79.9734 106.768C80.1921 106.846 80.3636 106.97 80.4879 107.141C80.6166 107.309 80.6809 107.532 80.6809 107.81C80.6809 108.226 80.5394 108.546 80.2564 108.769C79.9777 108.987 79.5939 109.097 79.1051 109.097ZM82.6844 109.058C82.6844 108.998 82.6865 108.947 82.6908 108.904C82.6951 108.856 82.7036 108.816 82.7165 108.781C82.8323 108.773 82.9223 108.754 82.9866 108.724C83.0509 108.689 83.096 108.634 83.1217 108.556C83.1474 108.475 83.1603 108.363 83.1603 108.222V105.508C83.1603 105.362 83.1474 105.251 83.1217 105.173C83.096 105.096 83.0509 105.04 82.9866 105.006C82.9223 104.972 82.8323 104.953 82.7165 104.948C82.7036 104.914 82.6951 104.873 82.6908 104.826C82.6865 104.779 82.6844 104.727 82.6844 104.672C82.7572 104.676 82.8387 104.68 82.9287 104.685C83.0188 104.685 83.1131 104.687 83.2117 104.691C83.3146 104.691 83.4133 104.691 83.5076 104.691C83.6019 104.691 83.6877 104.691 83.7648 104.691V108.093C83.7648 108.278 83.7841 108.419 83.8227 108.518C83.8613 108.612 83.9235 108.679 84.0092 108.717C84.095 108.751 84.2043 108.773 84.3373 108.781C84.3501 108.816 84.3587 108.856 84.363 108.904C84.3673 108.947 84.3694 108.998 84.3694 109.058C84.3051 109.054 84.2279 109.049 84.1379 109.045C84.0521 109.045 83.9599 109.043 83.8613 109.039C83.7627 109.039 83.6619 109.039 83.559 109.039C83.409 109.039 83.246 109.039 83.0702 109.039C82.8987 109.043 82.7701 109.049 82.6844 109.058ZM85.392 105.765C85.3835 105.632 85.3492 105.503 85.2891 105.379C85.2291 105.255 85.124 105.152 84.974 105.07C84.8282 104.989 84.616 104.948 84.3373 104.948H83.6041L83.7456 104.691C84.0843 104.691 84.3737 104.691 84.6138 104.691C84.8582 104.687 85.0576 104.682 85.2119 104.678C85.3663 104.674 85.4778 104.672 85.5464 104.672C85.555 104.766 85.5657 104.875 85.5785 105C85.5914 105.124 85.6064 105.246 85.6236 105.366C85.6407 105.486 85.66 105.594 85.6814 105.688C85.6471 105.718 85.6043 105.739 85.5528 105.752C85.5057 105.761 85.4521 105.765 85.392 105.765ZM86.1199 109.058C86.1199 108.998 86.1221 108.947 86.1264 108.904C86.1307 108.856 86.1392 108.816 86.1521 108.781C86.2679 108.773 86.3579 108.754 86.4222 108.724C86.4865 108.689 86.5316 108.634 86.5573 108.556C86.583 108.475 86.5959 108.363 86.5959 108.222V105.508C86.5959 105.362 86.583 105.251 86.5573 105.173C86.5316 105.096 86.4865 105.04 86.4222 105.006C86.3579 104.972 86.2679 104.953 86.1521 104.948C86.1392 104.914 86.1307 104.873 86.1264 104.826C86.1221 104.779 86.1199 104.727 86.1199 104.672C86.2872 104.68 86.448 104.687 86.6023 104.691C86.761 104.691 86.8917 104.691 86.9946 104.691C87.0547 104.691 87.1383 104.691 87.2455 104.691C87.3569 104.687 87.4663 104.685 87.5735 104.685C87.6807 104.68 87.76 104.678 87.8114 104.678C88.1673 104.678 88.4525 104.736 88.6668 104.852C88.8812 104.968 89.0356 105.12 89.1299 105.308C89.2242 105.497 89.2714 105.703 89.2714 105.926C89.2714 106.17 89.2157 106.406 89.1042 106.633C88.997 106.861 88.8362 107.047 88.6218 107.193C88.4074 107.339 88.1373 107.412 87.8114 107.412C87.6314 107.412 87.4813 107.388 87.3612 107.341C87.3527 107.294 87.3484 107.249 87.3484 107.206C87.3484 107.163 87.3548 107.12 87.3677 107.077C87.4234 107.09 87.4791 107.101 87.5349 107.109C87.5906 107.114 87.6485 107.116 87.7085 107.116C87.8672 107.116 88.0151 107.088 88.1523 107.032C88.2895 106.976 88.401 106.878 88.4868 106.736C88.5725 106.59 88.6154 106.382 88.6154 106.112C88.6154 105.769 88.5296 105.493 88.3581 105.283C88.1909 105.068 87.9143 104.961 87.5285 104.961C87.4813 104.961 87.4255 104.965 87.3612 104.974C87.3012 104.978 87.2155 104.993 87.104 105.019L87.2004 104.923V108.093C87.2004 108.278 87.2197 108.419 87.2583 108.518C87.2969 108.612 87.3591 108.679 87.4448 108.717C87.5306 108.751 87.6399 108.773 87.7729 108.781C87.7857 108.816 87.7943 108.856 87.7986 108.904C87.8029 108.947 87.805 108.998 87.805 109.058C87.7407 109.054 87.6635 109.049 87.5735 109.045C87.4877 109.045 87.3955 109.043 87.2969 109.039C87.1983 109.039 87.0975 109.039 86.9946 109.039C86.896 109.039 86.7888 109.039 86.6731 109.039C86.5573 109.043 86.4501 109.045 86.3515 109.045C86.2529 109.049 86.1757 109.054 86.1199 109.058ZM91.479 104.652L93.0097 108.164C93.0826 108.323 93.1427 108.445 93.1898 108.531C93.237 108.616 93.2841 108.676 93.3313 108.711C93.3828 108.745 93.4406 108.769 93.505 108.781C93.5221 108.837 93.5328 108.884 93.5371 108.923C93.5414 108.962 93.5436 109.007 93.5436 109.058C93.5007 109.054 93.4342 109.049 93.3442 109.045C93.2541 109.045 93.1598 109.043 93.0612 109.039C92.9626 109.039 92.879 109.039 92.8104 109.039C92.7589 109.039 92.6989 109.039 92.6303 109.039C92.5617 109.043 92.4909 109.045 92.418 109.045C92.3451 109.049 92.2787 109.052 92.2187 109.052C92.1629 109.056 92.1179 109.058 92.0836 109.058C92.0836 109.007 92.0857 108.957 92.09 108.91C92.0986 108.863 92.1115 108.82 92.1286 108.781C92.3044 108.76 92.4073 108.721 92.4373 108.666C92.4716 108.606 92.4459 108.477 92.3601 108.28L91.4662 106.19C91.4104 106.057 91.3611 105.939 91.3182 105.836C91.2754 105.733 91.2239 105.602 91.1639 105.443H91.196C91.1446 105.606 91.0974 105.746 91.0545 105.862C91.016 105.973 90.9774 106.08 90.9388 106.183L90.2056 108.093C90.1113 108.346 90.0812 108.522 90.1155 108.621C90.1541 108.715 90.2613 108.769 90.4371 108.781C90.4543 108.82 90.465 108.863 90.4693 108.91C90.4779 108.957 90.4821 109.007 90.4821 109.058C90.435 109.054 90.3771 109.049 90.3085 109.045C90.2399 109.045 90.167 109.043 90.0898 109.039C90.0169 109.039 89.944 109.039 89.8711 109.039C89.764 109.039 89.6632 109.041 89.5689 109.045C89.4745 109.049 89.3974 109.054 89.3373 109.058C89.3373 109.015 89.3395 108.97 89.3438 108.923C89.3523 108.871 89.3652 108.826 89.3823 108.788C89.4595 108.771 89.5238 108.741 89.5753 108.698C89.6267 108.655 89.6761 108.586 89.7232 108.492C89.7747 108.393 89.8326 108.26 89.8969 108.093L91.2282 104.678C91.2711 104.67 91.3097 104.663 91.344 104.659C91.3826 104.655 91.4276 104.652 91.479 104.652ZM92.0643 107.334L92.1222 107.624C91.8349 107.624 91.5262 107.626 91.196 107.63C90.8702 107.634 90.5743 107.641 90.3085 107.649L90.4114 107.334H92.0643ZM96.6313 109.058C96.6313 108.998 96.6335 108.947 96.6378 108.904C96.6421 108.856 96.6506 108.816 96.6635 108.781C96.7793 108.773 96.8693 108.754 96.9336 108.724C96.9979 108.689 97.043 108.634 97.0687 108.556C97.0944 108.475 97.1073 108.363 97.1073 108.222V105.508C97.1073 105.362 97.0944 105.251 97.0687 105.173C97.043 105.096 96.9979 105.04 96.9336 105.006C96.8693 104.972 96.7793 104.953 96.6635 104.948C96.6506 104.914 96.6421 104.873 96.6378 104.826C96.6335 104.779 96.6313 104.727 96.6313 104.672C96.7128 104.676 96.7943 104.68 96.8757 104.685C96.9615 104.685 97.0494 104.687 97.1394 104.691C97.2295 104.691 97.3195 104.691 97.4096 104.691C97.5039 104.691 97.5939 104.691 97.6797 104.691C97.7654 104.687 97.849 104.685 97.9305 104.685C98.0163 104.68 98.102 104.676 98.1878 104.672C98.1878 104.727 98.1856 104.779 98.1813 104.826C98.177 104.873 98.1685 104.914 98.1556 104.948C98.0441 104.953 97.9541 104.972 97.8855 105.006C97.8212 105.04 97.7761 105.096 97.7504 105.173C97.7247 105.251 97.7118 105.362 97.7118 105.508V108.222C97.7118 108.363 97.7247 108.475 97.7504 108.556C97.7761 108.634 97.8212 108.689 97.8855 108.724C97.9541 108.754 98.0441 108.773 98.1556 108.781C98.1685 108.816 98.177 108.856 98.1813 108.904C98.1856 108.947 98.1878 108.998 98.1878 109.058C98.0591 109.049 97.9284 109.043 97.7954 109.039C97.6625 109.039 97.5339 109.039 97.4096 109.039C97.2852 109.039 97.1523 109.039 97.0108 109.039C96.8693 109.043 96.7428 109.049 96.6313 109.058ZM94.0652 109.058C94.0652 108.998 94.0673 108.947 94.0716 108.904C94.0759 108.856 94.0844 108.816 94.0973 108.781C94.2131 108.773 94.3031 108.754 94.3674 108.724C94.4318 108.689 94.4768 108.634 94.5025 108.556C94.5282 108.475 94.5411 108.363 94.5411 108.222V105.508C94.5411 105.362 94.5282 105.251 94.5025 105.173C94.4768 105.096 94.4318 105.04 94.3674 105.006C94.3031 104.972 94.2131 104.953 94.0973 104.948C94.0844 104.914 94.0759 104.873 94.0716 104.826C94.0673 104.779 94.0652 104.727 94.0652 104.672C94.1466 104.676 94.2281 104.68 94.3096 104.685C94.3953 104.685 94.4832 104.687 94.5732 104.691C94.6633 104.691 94.7533 104.691 94.8434 104.691C94.9377 104.691 95.0277 104.691 95.1135 104.691C95.1992 104.687 95.2829 104.685 95.3643 104.685C95.4501 104.68 95.5358 104.676 95.6216 104.672C95.6216 104.727 95.6194 104.779 95.6152 104.826C95.6109 104.873 95.6023 104.914 95.5894 104.948C95.4779 104.953 95.3879 104.972 95.3193 105.006C95.255 105.04 95.21 105.096 95.1842 105.173C95.1585 105.251 95.1457 105.362 95.1457 105.508V108.222C95.1457 108.363 95.1585 108.475 95.1842 108.556C95.21 108.634 95.255 108.689 95.3193 108.724C95.3879 108.754 95.4779 108.773 95.5894 108.781C95.6023 108.816 95.6109 108.856 95.6152 108.904C95.6194 108.947 95.6216 108.998 95.6216 109.058C95.493 109.049 95.3622 109.043 95.2293 109.039C95.0963 109.039 94.9677 109.039 94.8434 109.039C94.719 109.039 94.5861 109.039 94.4446 109.039C94.3031 109.043 94.1766 109.049 94.0652 109.058ZM95.1135 106.987V106.672H97.1394V106.948C97.0194 106.948 96.8693 106.948 96.6892 106.948C96.5091 106.948 96.3205 106.951 96.1232 106.955C95.9303 106.955 95.7438 106.959 95.5637 106.968C95.3879 106.972 95.2378 106.978 95.1135 106.987ZM99.7373 108.588L99.6473 108.222L102.111 105.244L102.22 105.591L99.7373 108.588ZM98.9077 109.058C98.9077 108.998 98.9098 108.947 98.9141 108.904C98.9184 108.856 98.9269 108.816 98.9398 108.781C99.0556 108.773 99.1456 108.754 99.2099 108.724C99.2742 108.689 99.3193 108.634 99.345 108.556C99.3707 108.475 99.3836 108.363 99.3836 108.222V105.508C99.3836 105.362 99.3707 105.251 99.345 105.173C99.3193 105.096 99.2742 105.04 99.2099 105.006C99.1456 104.972 99.0556 104.953 98.9398 104.948C98.9269 104.914 98.9184 104.873 98.9141 104.826C98.9098 104.779 98.9077 104.727 98.9077 104.672C98.9891 104.676 99.0706 104.68 99.152 104.685C99.2378 104.685 99.3257 104.687 99.4157 104.691C99.5058 104.691 99.5958 104.691 99.6859 104.691C99.7802 104.691 99.8702 104.691 99.956 104.691C100.042 104.687 100.125 104.685 100.207 104.685C100.293 104.68 100.378 104.676 100.464 104.672C100.464 104.727 100.462 104.779 100.458 104.826C100.453 104.873 100.445 104.914 100.432 104.948C100.32 104.953 100.23 104.972 100.162 105.006C100.097 105.04 100.052 105.096 100.027 105.173C100.001 105.251 99.9881 105.362 99.9881 105.508V108.222C99.9881 108.363 100.001 108.475 100.027 108.556C100.052 108.634 100.097 108.689 100.162 108.724C100.23 108.754 100.32 108.773 100.432 108.781C100.445 108.816 100.453 108.856 100.458 108.904C100.462 108.947 100.464 108.998 100.464 109.058C100.335 109.049 100.205 109.043 100.072 109.039C99.9388 109.039 99.8102 109.039 99.6859 109.039C99.5615 109.039 99.4286 109.039 99.2871 109.039C99.1456 109.043 99.0191 109.049 98.9077 109.058ZM101.474 109.058C101.474 108.998 101.476 108.947 101.48 108.904C101.485 108.856 101.493 108.816 101.506 108.781C101.622 108.773 101.712 108.754 101.776 108.724C101.84 108.689 101.885 108.634 101.911 108.556C101.937 108.475 101.95 108.363 101.95 108.222V105.508C101.95 105.362 101.937 105.251 101.911 105.173C101.885 105.096 101.84 105.04 101.776 105.006C101.712 104.972 101.622 104.953 101.506 104.948C101.493 104.914 101.485 104.873 101.48 104.826C101.476 104.779 101.474 104.727 101.474 104.672C101.555 104.676 101.637 104.68 101.718 104.685C101.804 104.685 101.892 104.687 101.982 104.691C102.072 104.691 102.162 104.691 102.252 104.691C102.346 104.691 102.436 104.691 102.522 104.691C102.608 104.687 102.692 104.685 102.773 104.685C102.859 104.68 102.945 104.676 103.03 104.672C103.03 104.727 103.028 104.779 103.024 104.826C103.02 104.873 103.011 104.914 102.998 104.948C102.887 104.953 102.797 104.972 102.728 105.006C102.664 105.04 102.619 105.096 102.593 105.173C102.567 105.251 102.554 105.362 102.554 105.508V108.222C102.554 108.363 102.567 108.475 102.593 108.556C102.619 108.634 102.664 108.689 102.728 108.724C102.797 108.754 102.887 108.773 102.998 108.781C103.011 108.816 103.02 108.856 103.024 108.904C103.028 108.947 103.03 108.998 103.03 109.058C102.902 109.049 102.771 109.043 102.638 109.039C102.505 109.039 102.376 109.039 102.252 109.039C102.128 109.039 101.995 109.039 101.853 109.039C101.712 109.043 101.585 109.049 101.474 109.058ZM107.802 104.672C107.802 104.727 107.8 104.779 107.796 104.826C107.791 104.873 107.783 104.914 107.77 104.948C107.658 104.953 107.568 104.972 107.5 105.006C107.435 105.04 107.39 105.096 107.365 105.173C107.339 105.251 107.326 105.362 107.326 105.508V108.222C107.326 108.372 107.339 108.488 107.365 108.569C107.39 108.651 107.435 108.706 107.5 108.736C107.568 108.766 107.658 108.781 107.77 108.781C107.783 108.816 107.791 108.856 107.796 108.904C107.8 108.947 107.802 108.998 107.802 109.058C107.742 109.054 107.676 109.049 107.603 109.045C107.53 109.045 107.433 109.043 107.313 109.039C107.197 109.039 107.043 109.039 106.85 109.039C106.661 109.039 106.419 109.039 106.123 109.039H105.429C105.133 109.039 104.891 109.039 104.702 109.039C104.513 109.039 104.361 109.039 104.245 109.039C104.13 109.043 104.033 109.045 103.956 109.045C103.883 109.049 103.814 109.054 103.75 109.058C103.75 108.998 103.752 108.947 103.757 108.904C103.761 108.856 103.769 108.816 103.782 108.781C103.898 108.781 103.988 108.766 104.052 108.736C104.117 108.706 104.162 108.651 104.187 108.569C104.213 108.488 104.226 108.372 104.226 108.222V105.508C104.226 105.362 104.213 105.251 104.187 105.173C104.162 105.096 104.117 105.04 104.052 105.006C103.988 104.972 103.898 104.953 103.782 104.948C103.769 104.914 103.761 104.873 103.757 104.826C103.752 104.779 103.75 104.727 103.75 104.672C103.879 104.676 104.01 104.68 104.142 104.685C104.275 104.689 104.404 104.691 104.528 104.691C104.653 104.691 104.786 104.689 104.927 104.685C105.073 104.68 105.199 104.676 105.307 104.672C105.307 104.727 105.304 104.779 105.3 104.826C105.296 104.873 105.287 104.914 105.274 104.948C105.163 104.953 105.073 104.972 105.004 105.006C104.94 105.04 104.895 105.096 104.869 105.173C104.844 105.251 104.831 105.362 104.831 105.508V108.203C104.831 108.318 104.841 108.421 104.863 108.511C104.884 108.597 104.927 108.659 104.991 108.698C105.047 108.728 105.131 108.747 105.242 108.756C105.358 108.764 105.536 108.769 105.776 108.769C106.016 108.769 106.192 108.764 106.303 108.756C106.419 108.747 106.505 108.728 106.561 108.698C106.625 108.659 106.668 108.597 106.689 108.511C106.711 108.421 106.722 108.318 106.722 108.203V105.508C106.722 105.362 106.709 105.251 106.683 105.173C106.657 105.096 106.612 105.04 106.548 105.006C106.484 104.972 106.394 104.953 106.278 104.948C106.265 104.914 106.256 104.873 106.252 104.826C106.248 104.779 106.246 104.727 106.246 104.672C106.374 104.676 106.505 104.68 106.638 104.685C106.771 104.689 106.899 104.691 107.024 104.691C107.148 104.691 107.281 104.689 107.423 104.685C107.568 104.68 107.695 104.676 107.802 104.672ZM107.648 110.119C107.652 109.892 107.641 109.667 107.616 109.444C107.594 109.225 107.562 109.034 107.519 108.871L107.616 108.781H108.053C108.117 108.837 108.149 108.914 108.149 109.013C108.119 109.137 108.096 109.292 108.079 109.476C108.066 109.665 108.059 109.879 108.059 110.119C108.004 110.136 107.937 110.145 107.86 110.145C107.783 110.145 107.712 110.136 107.648 110.119Z" fill="#1B4298"/>
</g>
<defs>
<linearGradient id="paint0_linear_3004_793" x1="20.5611" y1="9.96732" x2="25.6706" y2="9.96732" gradientUnits="userSpaceOnUse">
<stop stop-color="#2649AD"/>
<stop offset="1" stop-color="#1691D0"/>
</linearGradient>
<linearGradient id="paint1_linear_3004_793" x1="22.7568" y1="16.4303" x2="26.4991" y2="16.4303" gradientUnits="userSpaceOnUse">
<stop stop-color="#2649AD"/>
<stop offset="1" stop-color="#1691D0"/>
</linearGradient>
<linearGradient id="paint2_linear_3004_793" x1="26.4027" y1="15.3394" x2="28.916" y2="15.3394" gradientUnits="userSpaceOnUse">
<stop stop-color="#2649AD"/>
<stop offset="1" stop-color="#1691D0"/>
</linearGradient>
<linearGradient id="paint3_linear_3004_793" x1="23.9305" y1="23.0311" x2="26.9961" y2="23.0311" gradientUnits="userSpaceOnUse">
<stop stop-color="#2649AD"/>
<stop offset="1" stop-color="#1691D0"/>
</linearGradient>
<linearGradient id="paint4_linear_3004_793" x1="27.2314" y1="22.686" x2="30.0623" y2="22.686" gradientUnits="userSpaceOnUse">
<stop stop-color="#2649AD"/>
<stop offset="1" stop-color="#1691D0"/>
</linearGradient>
<linearGradient id="paint5_linear_3004_793" x1="23.8887" y1="29.8804" x2="26.8025" y2="29.8804" gradientUnits="userSpaceOnUse">
<stop stop-color="#2649AD"/>
<stop offset="1" stop-color="#1691D0"/>
</linearGradient>
<linearGradient id="paint6_linear_3004_793" x1="27.0242" y1="29.9359" x2="30.3108" y2="29.9359" gradientUnits="userSpaceOnUse">
<stop stop-color="#2649AD"/>
<stop offset="1" stop-color="#1691D0"/>
</linearGradient>
<linearGradient id="paint7_linear_3004_793" x1="23.3644" y1="36.8542" x2="26.3887" y2="36.8542" gradientUnits="userSpaceOnUse">
<stop stop-color="#2649AD"/>
<stop offset="1" stop-color="#1691D0"/>
</linearGradient>
<linearGradient id="paint8_linear_3004_793" x1="26.5681" y1="37.0751" x2="30.1586" y2="37.0751" gradientUnits="userSpaceOnUse">
<stop stop-color="#2649AD"/>
<stop offset="1" stop-color="#1691D0"/>
</linearGradient>
<linearGradient id="paint9_linear_3004_793" x1="22.7847" y1="43.8969" x2="26.0437" y2="43.8969" gradientUnits="userSpaceOnUse">
<stop stop-color="#2649AD"/>
<stop offset="1" stop-color="#1691D0"/>
</linearGradient>
<linearGradient id="paint10_linear_3004_793" x1="26.2645" y1="44.1319" x2="29.8963" y2="44.1319" gradientUnits="userSpaceOnUse">
<stop stop-color="#2649AD"/>
<stop offset="1" stop-color="#1691D0"/>
</linearGradient>
<linearGradient id="paint11_linear_3004_793" x1="22.4253" y1="51.0779" x2="26.4852" y2="51.0779" gradientUnits="userSpaceOnUse">
<stop stop-color="#2649AD"/>
<stop offset="1" stop-color="#1691D0"/>
</linearGradient>
<linearGradient id="paint12_linear_3004_793" x1="26.5262" y1="51.0503" x2="29.9233" y2="51.0503" gradientUnits="userSpaceOnUse">
<stop stop-color="#2649AD"/>
<stop offset="1" stop-color="#1691D0"/>
</linearGradient>
<linearGradient id="paint13_linear_3004_793" x1="22.7703" y1="58.3968" x2="28.9017" y2="58.3968" gradientUnits="userSpaceOnUse">
<stop stop-color="#2649AD"/>
<stop offset="1" stop-color="#1691D0"/>
</linearGradient>
<linearGradient id="paint14_linear_3004_793" x1="27.8937" y1="57.4854" x2="30.7936" y2="57.4854" gradientUnits="userSpaceOnUse">
<stop stop-color="#2649AD"/>
<stop offset="1" stop-color="#1691D0"/>
</linearGradient>
<linearGradient id="paint15_linear_3004_793" x1="25.4633" y1="65.2048" x2="33.8041" y2="65.2048" gradientUnits="userSpaceOnUse">
<stop stop-color="#2649AD"/>
<stop offset="1" stop-color="#1691D0"/>
</linearGradient>
<linearGradient id="paint16_linear_3004_793" x1="30.8905" y1="62.3602" x2="34.5224" y2="62.3602" gradientUnits="userSpaceOnUse">
<stop stop-color="#2649AD"/>
<stop offset="1" stop-color="#1691D0"/>
</linearGradient>
<linearGradient id="paint17_linear_3004_793" x1="30.8768" y1="70.0382" x2="39.411" y2="70.0382" gradientUnits="userSpaceOnUse">
<stop stop-color="#2649AD"/>
<stop offset="1" stop-color="#1691D0"/>
</linearGradient>
<linearGradient id="paint18_linear_3004_793" x1="35.5857" y1="66.3236" x2="39.908" y2="66.3236" gradientUnits="userSpaceOnUse">
<stop stop-color="#2649AD"/>
<stop offset="1" stop-color="#1691D0"/>
</linearGradient>
<linearGradient id="paint19_linear_3004_793" x1="36.6629" y1="73.974" x2="45.3628" y2="73.974" gradientUnits="userSpaceOnUse">
<stop stop-color="#2649AD"/>
<stop offset="1" stop-color="#1691D0"/>
</linearGradient>
<linearGradient id="paint20_linear_3004_793" x1="40.9299" y1="69.845" x2="45.7494" y2="69.845" gradientUnits="userSpaceOnUse">
<stop stop-color="#2649AD"/>
<stop offset="1" stop-color="#1691D0"/>
</linearGradient>
<linearGradient id="paint21_linear_3004_793" x1="42.6701" y1="77.3708" x2="51.4805" y2="77.3708" gradientUnits="userSpaceOnUse">
<stop stop-color="#2649AD"/>
<stop offset="1" stop-color="#1691D0"/>
</linearGradient>
<linearGradient id="paint22_linear_3004_793" x1="46.6748" y1="73.0072" x2="51.7843" y2="73.0072" gradientUnits="userSpaceOnUse">
<stop stop-color="#2649AD"/>
<stop offset="1" stop-color="#1691D0"/>
</linearGradient>
<linearGradient id="paint23_linear_3004_793" x1="48.7321" y1="80.1882" x2="70.2333" y2="80.1882" gradientUnits="userSpaceOnUse">
<stop stop-color="#2649AD"/>
<stop offset="1" stop-color="#1691D0"/>
</linearGradient>
<linearGradient id="paint24_linear_3004_793" x1="104.078" y1="9.84314" x2="109.16" y2="9.84314" gradientUnits="userSpaceOnUse">
<stop stop-color="#2649AD"/>
<stop offset="1" stop-color="#1691D0"/>
</linearGradient>
<linearGradient id="paint25_linear_3004_793" x1="100.847" y1="15.2286" x2="103.36" y2="15.2286" gradientUnits="userSpaceOnUse">
<stop stop-color="#2649AD"/>
<stop offset="1" stop-color="#1691D0"/>
</linearGradient>
<linearGradient id="paint26_linear_3004_793" x1="103.221" y1="16.3334" x2="107.019" y2="16.3334" gradientUnits="userSpaceOnUse">
<stop stop-color="#2649AD"/>
<stop offset="1" stop-color="#1691D0"/>
</linearGradient>
<linearGradient id="paint27_linear_3004_793" x1="99.7143" y1="22.5616" x2="102.531" y2="22.5616" gradientUnits="userSpaceOnUse">
<stop stop-color="#2649AD"/>
<stop offset="1" stop-color="#1691D0"/>
</linearGradient>
<linearGradient id="paint28_linear_3004_793" x1="102.752" y1="22.9067" x2="105.846" y2="22.9067" gradientUnits="userSpaceOnUse">
<stop stop-color="#2649AD"/>
<stop offset="1" stop-color="#1691D0"/>
</linearGradient>
<linearGradient id="paint29_linear_3004_793" x1="99.4517" y1="29.8113" x2="102.711" y2="29.8113" gradientUnits="userSpaceOnUse">
<stop stop-color="#2649AD"/>
<stop offset="1" stop-color="#1691D0"/>
</linearGradient>
<linearGradient id="paint30_linear_3004_793" x1="102.973" y1="29.7699" x2="105.887" y2="29.7699" gradientUnits="userSpaceOnUse">
<stop stop-color="#2649AD"/>
<stop offset="1" stop-color="#1691D0"/>
</linearGradient>
<linearGradient id="paint31_linear_3004_793" x1="99.604" y1="36.9509" x2="103.167" y2="36.9509" gradientUnits="userSpaceOnUse">
<stop stop-color="#2649AD"/>
<stop offset="1" stop-color="#1691D0"/>
</linearGradient>
<linearGradient id="paint32_linear_3004_793" x1="103.36" y1="36.716" x2="106.384" y2="36.716" gradientUnits="userSpaceOnUse">
<stop stop-color="#2649AD"/>
<stop offset="1" stop-color="#1691D0"/>
</linearGradient>
<linearGradient id="paint33_linear_3004_793" x1="99.8521" y1="43.9937" x2="103.47" y2="43.9937" gradientUnits="userSpaceOnUse">
<stop stop-color="#2649AD"/>
<stop offset="1" stop-color="#1691D0"/>
</linearGradient>
<linearGradient id="paint34_linear_3004_793" x1="103.692" y1="43.7726" x2="106.978" y2="43.7726" gradientUnits="userSpaceOnUse">
<stop stop-color="#2649AD"/>
<stop offset="1" stop-color="#1691D0"/>
</linearGradient>
<linearGradient id="paint35_linear_3004_793" x1="99.8662" y1="50.9259" x2="103.236" y2="50.9259" gradientUnits="userSpaceOnUse">
<stop stop-color="#2649AD"/>
<stop offset="1" stop-color="#1691D0"/>
</linearGradient>
<linearGradient id="paint36_linear_3004_793" x1="103.236" y1="50.9536" x2="107.323" y2="50.9536" gradientUnits="userSpaceOnUse">
<stop stop-color="#2649AD"/>
<stop offset="1" stop-color="#1691D0"/>
</linearGradient>
<linearGradient id="paint37_linear_3004_793" x1="98.9413" y1="57.3611" x2="101.896" y2="57.3611" gradientUnits="userSpaceOnUse">
<stop stop-color="#2649AD"/>
<stop offset="1" stop-color="#1691D0"/>
</linearGradient>
<linearGradient id="paint38_linear_3004_793" x1="100.833" y1="58.2725" x2="106.978" y2="58.2725" gradientUnits="userSpaceOnUse">
<stop stop-color="#2649AD"/>
<stop offset="1" stop-color="#1691D0"/>
</linearGradient>
<linearGradient id="paint39_linear_3004_793" x1="95.1986" y1="62.2496" x2="98.8581" y2="62.2496" gradientUnits="userSpaceOnUse">
<stop stop-color="#2649AD"/>
<stop offset="1" stop-color="#1691D0"/>
</linearGradient>
<linearGradient id="paint40_linear_3004_793" x1="95.9167" y1="65.0667" x2="104.285" y2="65.0667" gradientUnits="userSpaceOnUse">
<stop stop-color="#2649AD"/>
<stop offset="1" stop-color="#1691D0"/>
</linearGradient>
<linearGradient id="paint41_linear_3004_793" x1="89.813" y1="66.1991" x2="94.1215" y2="66.1991" gradientUnits="userSpaceOnUse">
<stop stop-color="#2649AD"/>
<stop offset="1" stop-color="#1691D0"/>
</linearGradient>
<linearGradient id="paint42_linear_3004_793" x1="90.3099" y1="69.9277" x2="98.8579" y2="69.9277" gradientUnits="userSpaceOnUse">
<stop stop-color="#2649AD"/>
<stop offset="1" stop-color="#1691D0"/>
</linearGradient>
<linearGradient id="paint43_linear_3004_793" x1="83.9852" y1="69.7344" x2="88.7771" y2="69.7344" gradientUnits="userSpaceOnUse">
<stop stop-color="#2649AD"/>
<stop offset="1" stop-color="#1691D0"/>
</linearGradient>
<linearGradient id="paint44_linear_3004_793" x1="84.3586" y1="73.8497" x2="93.0585" y2="73.8497" gradientUnits="userSpaceOnUse">
<stop stop-color="#2649AD"/>
<stop offset="1" stop-color="#1691D0"/>
</linearGradient>
<linearGradient id="paint45_linear_3004_793" x1="77.9366" y1="72.8827" x2="83.0599" y2="72.8827" gradientUnits="userSpaceOnUse">
<stop stop-color="#2649AD"/>
<stop offset="1" stop-color="#1691D0"/>
</linearGradient>
<linearGradient id="paint46_linear_3004_793" x1="78.2546" y1="77.3017" x2="87.0512" y2="77.3017" gradientUnits="userSpaceOnUse">
<stop stop-color="#2649AD"/>
<stop offset="1" stop-color="#1691D0"/>
</linearGradient>
<linearGradient id="paint47_linear_3004_793" x1="59.5154" y1="80.0776" x2="80.989" y2="80.0776" gradientUnits="userSpaceOnUse">
<stop stop-color="#2649AD"/>
<stop offset="1" stop-color="#1691D0"/>
</linearGradient>
<clipPath id="clip0_3004_793">
<rect width="128.053" height="115.394" fill="white" transform="translate(0.973389 0.30275)"/>
</clipPath>
</defs>
</svg>
