<svg width="51" height="50" viewBox="0 0 51 50" fill="none" xmlns="http://www.w3.org/2000/svg">
<path fill-rule="evenodd" clip-rule="evenodd" d="M25.7982 2.60449C26.2126 2.60449 26.61 2.76911 26.903 3.06214C27.1961 3.35516 27.3607 3.75259 27.3607 4.16699V27.0274L30.8607 22.942C30.9942 22.786 31.1571 22.6579 31.3401 22.5649C31.5232 22.472 31.7227 22.4159 31.9274 22.4001C32.1321 22.3842 32.3379 22.4088 32.533 22.4725C32.7282 22.5362 32.9089 22.6376 33.0648 22.7712C33.2208 22.9047 33.3489 23.0676 33.4419 23.2506C33.5349 23.4336 33.5909 23.6332 33.6068 23.8379C33.6226 24.0425 33.598 24.2483 33.5343 24.4435C33.4707 24.6387 33.3692 24.8194 33.2357 24.9753L26.9857 32.267C26.839 32.4385 26.6569 32.5762 26.4519 32.6707C26.2469 32.7651 26.0239 32.814 25.7982 32.814C25.5725 32.814 25.3495 32.7651 25.1445 32.6707C24.9395 32.5762 24.7574 32.4385 24.6107 32.267L18.3607 24.9753C18.2272 24.8194 18.1257 24.6387 18.062 24.4435C17.9983 24.2483 17.9737 24.0425 17.9896 23.8379C18.0055 23.6332 18.0615 23.4336 18.1545 23.2506C18.2474 23.0676 18.3756 22.9047 18.5315 22.7712C18.6875 22.6376 18.8682 22.5362 19.0633 22.4725C19.2585 22.4088 19.4643 22.3842 19.669 22.4001C19.8736 22.4159 20.0732 22.472 20.2562 22.5649C20.4392 22.6579 20.6022 22.786 20.7357 22.942L24.2357 27.0253V4.16699C24.2357 3.75259 24.4003 3.35516 24.6933 3.06214C24.9863 2.76911 25.3838 2.60449 25.7982 2.60449ZM15.3732 17.192C15.7876 17.1898 16.1859 17.3523 16.4805 17.6437C16.7751 17.9352 16.9418 18.3318 16.944 18.7462C16.9462 19.1606 16.7837 19.5589 16.4923 19.8535C16.2008 20.148 15.8042 20.3148 15.3898 20.317C13.1128 20.3295 11.4982 20.3878 10.2711 20.6128C9.09193 20.8316 8.40651 21.1795 7.90026 21.6857C7.32318 22.2628 6.94818 23.0732 6.74193 24.6024C6.53151 26.1753 6.52734 28.2607 6.52734 31.2503V33.3337C6.52734 36.3253 6.53151 38.4107 6.74193 39.9837C6.94818 41.5128 7.32526 42.3212 7.90026 42.9003C8.47734 43.4753 9.28568 43.8503 10.8169 44.0566C12.3878 44.2691 14.4753 44.2712 17.4648 44.2712H34.1315C37.1211 44.2712 39.2065 44.2691 40.7815 44.0566C42.3107 43.8503 43.119 43.4753 43.6961 42.8982C44.2732 42.3212 44.6482 41.5128 44.8544 39.9837C45.0648 38.4107 45.069 36.3253 45.069 33.3337V31.2503C45.069 28.2607 45.0648 26.1753 44.8544 24.6003C44.6482 23.0732 44.2711 22.2628 43.6961 21.6857C43.1878 21.1795 42.5044 20.8316 41.3253 20.6128C40.0982 20.3878 38.4836 20.3295 36.2065 20.317C36.0013 20.3159 35.7984 20.2744 35.6092 20.1949C35.42 20.1153 35.2484 19.9993 35.1041 19.8535C34.9598 19.7076 34.8456 19.5347 34.7681 19.3447C34.6906 19.1547 34.6512 18.9513 34.6523 18.7462C34.6534 18.541 34.6949 18.338 34.7745 18.1489C34.854 17.9597 34.97 17.7881 35.1159 17.6437C35.2617 17.4994 35.4346 17.3853 35.6246 17.3077C35.8146 17.2302 36.018 17.1909 36.2232 17.192C38.4773 17.2045 40.3544 17.2587 41.8898 17.5399C43.469 17.8316 44.8128 18.3837 45.9065 19.4774C47.1607 20.7295 47.6982 22.3107 47.9523 24.1857C48.194 25.9899 48.194 28.2878 48.194 31.1357V33.4482C48.194 36.2982 48.194 38.5941 47.9523 40.4003C47.6982 42.2753 47.1607 43.8545 45.9065 45.1087C44.6523 46.3628 43.0732 46.9003 41.1982 47.1545C39.3919 47.3962 37.094 47.3962 34.2461 47.3962H17.3503C14.5023 47.3962 12.2044 47.3962 10.3982 47.1545C8.52318 46.9024 6.94401 46.3628 5.68984 45.1087C4.43568 43.8545 3.89818 42.2753 3.64609 40.4003C3.40234 38.5941 3.40234 36.2962 3.40234 33.4482V31.1357C3.40234 28.2878 3.40234 25.9899 3.64609 24.1837C3.89609 22.3087 4.43776 20.7295 5.68984 19.4753C6.78359 18.3837 8.12734 17.8295 9.70651 17.5399C11.2419 17.2587 13.119 17.2045 15.3732 17.192Z" fill="#2D2323"/>
</svg>
