<svg width="99" height="99" viewBox="0 0 99 99" fill="none" xmlns="http://www.w3.org/2000/svg">
<rect width="99" height="99" rx="10" fill="white" fill-opacity="0.2"/>
<path d="M23 26C18.6521 25.9263 17.1579 26.9582 16 30C15.2993 31.8458 15 34.0235 15 36V70C15.3604 72.1239 15.4851 72.8442 17 74C19.4726 75.876 22.9468 76.4439 26 77C32.687 78.2161 38.44 80.2564 48 83M48 83C56.8526 80.2497 64.0672 78.0988 70 77C74.7416 76.1189 80.9322 75.7235 82 71C82.2803 69.7572 82.0234 68 82 66V40C82 34.9616 82.5781 28.0603 78 26C76.8521 25.4875 75.9253 25.8325 74 26M48 83V60M48 50C52.4231 49.9973 56.8733 48.1409 60 45C63.1267 41.8591 65 37.4406 65 33C65 23.7473 57.2096 16 48 16M48 50C43.5769 49.9973 40.1267 48.1409 37 45C33.8733 41.8591 32 37.4406 32 33C32 23.7473 38.7904 16 48 16M48 50C51.6838 50 55 42.246 55 33C55 23.7473 51.6872 16 48 16M48 16C44.3162 16 42 23.7473 42 33C42 42.246 44.3195 50 48 50" stroke="white" stroke-width="5" stroke-linecap="round" stroke-linejoin="round"/>
</svg>
