<svg width="99" height="99" viewBox="0 0 99 99" fill="none" xmlns="http://www.w3.org/2000/svg">
<rect width="99" height="99" rx="10" fill="white" fill-opacity="0.2"/>
<path d="M39 29C39 26.3059 40.0998 23.905 42 22C43.9003 20.095 47.3126 19 50 19C52.6874 19 55.0998 20.095 57 22C58.9003 23.905 60 26.3059 60 29C60 31.6941 58.9003 34.095 57 36C55.0998 37.905 52.6874 39 50 39C47.3126 39 43.9003 37.905 42 36C40.0998 34.095 39 31.6941 39 29ZM50 24C49.3354 24 48.6141 23.745 48 24C47.3859 24.255 46.47 25.5288 46 26C45.53 26.4712 45.2544 26.3844 45 27C44.7457 27.6156 44 28.3337 44 29C44 29.6663 44.7457 30.3844 45 31C45.2544 31.6156 45.53 32.5288 46 33C46.47 33.4712 47.3859 33.745 48 34C48.6141 34.255 49.3354 34 50 34C51.3423 34 52.0508 33.9516 53 33C53.9492 32.0484 55 30.3457 55 29C55 27.6543 53.9492 26.9516 53 26C52.0508 25.0484 51.3423 24 50 24ZM65 32C65 30.9985 64.6177 29.9253 65 29C65.3823 28.0747 66.2936 26.7082 67 26C67.7064 25.2918 68.0771 25.3833 69 25C69.923 24.6167 71.001 24 72 24C72.999 24 74.0771 24.6167 75 25C75.923 25.3833 77.2936 25.2918 78 26C78.7064 26.7082 78.6177 28.0747 79 29C79.3823 29.9253 80 30.9985 80 32C80 34.0226 79.4266 35.5698 78 37C76.5734 38.4302 74.0176 39 72 39C69.9825 39 68.4266 38.4302 67 37C65.5734 35.5698 65 34.0226 65 32ZM72 29C71.3275 29 71.4756 29.5233 71 30C70.5245 30.4767 70 31.3258 70 32C70 32.6742 70.5245 32.5233 71 33C71.4756 33.4767 71.3275 34 72 34C72.6725 34 73.5245 33.4767 74 33C74.4756 32.5233 75 32.6742 75 32C75 31.3258 74.4756 30.4767 74 30C73.5245 29.5233 72.6725 29 72 29ZM27 24C24.9825 24 22.4266 24.5698 21 26C19.5734 27.4302 19 29.9774 19 32C19 34.0226 19.5734 35.5698 21 37C22.4266 38.4302 24.9825 39 27 39C29.0176 39 30.5734 38.4302 32 37C33.4266 35.5698 34 34.0226 34 32C34 29.9774 33.4266 27.4302 32 26C30.5734 24.5698 29.0176 24 27 24ZM24 32C24 31.3258 24.5245 30.4767 25 30C25.4755 29.5233 26.3275 29 27 29C27.6725 29 27.5245 29.5233 28 30C28.4755 30.4767 29 31.3258 29 32C29 32.6742 28.4755 32.5233 28 33C27.5245 33.4767 27.6725 34 27 34C26.3275 34 25.4755 33.4767 25 33C24.5245 32.5233 24 32.6742 24 32ZM31 44C30.1097 45.5458 29.0001 47.2151 29 49H19V62C18.9996 63.2646 19.4012 64.8869 20 66C20.5988 67.1131 21.9457 68.3056 23 69C24.0543 69.6944 24.7433 69.891 26 70C27.2568 70.109 28.8424 69.5025 30 69C30.3753 70.6829 30.2393 72.5002 31 74C29.0752 74.7791 27.0643 75.218 25 75C22.9357 74.782 21.7206 74.1642 20 73C18.2794 71.8358 15.974 69.8377 15 68C14.0261 66.1623 13.9993 64.081 14 62V49C14 47.6516 14.0489 46.9535 15 46C15.9511 45.0465 17.655 44 19 44H31ZM68 74C69.9248 74.7791 71.9357 75.218 74 75C76.0643 74.782 77.2795 74.1642 79 73C80.7206 71.8358 83.0261 69.8377 84 68C84.974 66.1623 85.0007 64.081 85 62V49C85 47.6516 84.9511 46.9535 84 46C83.0489 45.0465 81.345 44 80 44H68C68.8622 45.4947 70 47.1443 70 49H80V62C80.0004 63.2646 79.5988 64.8869 79 66C78.4012 67.1131 77.0543 68.3056 76 69C74.9457 69.6944 74.2568 69.891 73 70C71.7433 70.109 70.1576 69.5025 69 69C68.6146 70.6879 68.7641 72.4951 68 74ZM39 44C37.655 44 36.9511 45.0465 36 46C35.0489 46.9535 34 47.6516 34 49V65C34 69.0452 36.1468 73.1396 39 76C41.8532 78.8604 45.9649 80 50 80C54.0351 80 57.1468 78.8604 60 76C62.8532 73.1396 65 69.0452 65 65V49C65 47.6516 63.9511 46.9535 63 46C62.0489 45.0465 61.345 44 60 44H39ZM39 49H60V65C60 67.6968 58.9022 70.0931 57 72C55.0979 73.9069 52.6901 75 50 75C47.31 75 43.9022 73.9069 42 72C40.0979 70.0931 39 67.6968 39 65V49Z" fill="white"/>
</svg>
