<svg width="99" height="99" viewBox="0 0 99 99" fill="none" xmlns="http://www.w3.org/2000/svg">
<rect width="99" height="99" rx="10" fill="white" fill-opacity="0.2"/>
<path d="M53 13V32C53 34.1565 53.4763 36.4751 55 38C56.5237 39.5249 58.8451 40 61 40H80V81C80 83.1565 79.5237 85.4751 78 87C76.4763 88.5249 74.1549 89 72 89H47C47.0867 88.5663 48 88.4698 48 88V71C51.0698 67.5204 52.5993 62.6244 53 58C53.4007 53.3756 52.4255 48.9565 50 45C47.5745 41.0435 43.3009 37.7378 39 36C34.6991 34.2622 30.4905 33.8379 26 35V21C26 18.8435 26.4763 16.5249 28 15C29.5237 13.4751 31.8451 13 34 13H53ZM58 14V32C58 32.7188 58.4921 33.4917 59 34C59.5079 34.5083 60.2817 35 61 35H79L58 14ZM48 56C48 58.1356 46.8166 61.027 46 63C45.1834 64.973 44.509 66.4899 43 68C41.491 69.5101 38.9715 70.1827 37 71C35.0285 71.8173 33.134 73 31 73C28.866 73 26.9715 71.8173 25 71C23.0285 70.1827 21.509 69.5101 20 68C18.491 66.4899 16.8166 64.973 16 63C15.1834 61.027 15 58.1356 15 56C15 51.687 16.9525 48.0498 20 45C23.0475 41.9502 26.6902 40 31 40C35.3098 40 39.9525 41.9502 43 45C46.0475 48.0498 48 51.687 48 56ZM42 75C38.7063 76.9033 34.8033 77.9998 31 78C27.1971 78.0015 23.2942 76.9014 20 75V88C20.0007 88.2391 20.8793 87.7936 21 88C21.1207 88.2064 20.7921 88.8822 21 89C21.2079 89.1178 21.7611 89.0027 22 89C21.7947 89.1224 22.2389 88.9973 22 89L31 84L40 89C40.2057 89.1227 40.7606 88.9976 41 89C40.7919 89.1185 41.2394 89.0024 41 89C41.2081 88.8815 41.8797 88.2072 42 88C42.0002 88.2396 42.1203 87.7928 42 88V75Z" fill="white"/>
</svg>
