<svg width="99" height="99" viewBox="0 0 99 99" fill="none" xmlns="http://www.w3.org/2000/svg">
<rect width="99" height="99" rx="10" fill="white" fill-opacity="0.2"/>
<path d="M12 80C10.6501 80 8.97988 79.9876 8 79C7.02012 78.0124 7 76.3517 7 75H21C19.1992 75 18.204 74.2102 17 73C15.796 71.7898 15.0026 70.8127 15 69V26C15 24.1899 15.7934 23.2102 17 22C18.2066 20.7898 19.2044 20.0026 21 20H79C80.7982 20 81.796 20.7872 83 22C84.204 23.2128 84.9974 24.1925 85 26V69C85 70.8075 84.2066 71.7872 83 73C81.7934 74.2128 80.7956 75.0026 79 75H93C93 76.3543 92.9799 78.0151 92 79C91.0201 79.9849 89.3473 80 88 80H12ZM50 78C50.6567 78 51.5257 77.4794 52 77C52.4743 76.5206 52 76.6549 52 76C52 75.3451 52.4743 74.482 52 74C51.5257 73.518 50.6567 72.9895 50 73C49.3433 73.0105 48.4743 73.5363 48 74C47.5257 74.4637 48 75.3268 48 76C48 76.6732 47.5257 76.539 48 77C48.4743 77.461 49.3433 77.9843 50 78ZM21 71H79C79.5994 71 80.497 70.5029 81 70C81.503 69.4971 81.0026 69.6077 81 69V26C81 25.3949 81.5004 25.5056 81 25C80.4996 24.4944 79.602 23.9974 79 24H21C20.4006 24 19.503 24.4971 19 25C18.497 25.5029 18.9974 25.3923 19 26V69C19 69.6025 18.4996 69.4944 19 70C19.5004 70.5056 20.398 71.0026 21 71Z" fill="white"/>
</svg>
