<svg width="99" height="99" viewBox="0 0 99 99" fill="none" xmlns="http://www.w3.org/2000/svg">
<rect width="99" height="99" rx="10" fill="white" fill-opacity="0.2"/>
<path d="M49 15C68.3305 15 84 30.6695 84 50C84 69.3305 68.3305 85 49 85C29.6695 85 14 69.3305 14 50C14 30.6695 29.6695 15 49 15ZM49 22C41.5739 22 34.452 24.95 29.201 30.201C23.95 35.452 21 42.5739 21 50C21 57.4261 23.95 64.548 29.201 69.799C34.452 75.05 41.5739 78 49 78C56.4261 78 63.548 75.05 68.799 69.799C74.05 64.548 77 57.4261 77 50C77 42.5739 74.05 35.452 68.799 30.201C63.548 24.95 56.4261 22 49 22ZM49 29C49.8573 29.0001 50.6847 29.3148 51.3253 29.8845C51.9659 30.4542 52.3752 31.2391 52.4755 32.0905L52.5 32.5V48.551L61.9745 58.0255C62.6022 58.6554 62.9667 59.5005 62.9938 60.3893C63.0209 61.2782 62.7087 62.144 62.1206 62.811C61.5325 63.478 60.7126 63.8961 59.8273 63.9804C58.9421 64.0647 58.058 63.8089 57.3545 63.265L57.0255 62.9745L46.5255 52.4745C45.9815 51.9301 45.6322 51.2215 45.5315 50.4585L45.5 50V32.5C45.5 31.5717 45.8687 30.6815 46.5251 30.0251C47.1815 29.3687 48.0717 29 49 29Z" fill="#F0F1F6"/>
</svg>
