<svg width="96" height="96" viewBox="0 0 96 96" fill="none" xmlns="http://www.w3.org/2000/svg">
<path d="M44.2541 5.0751L46 2L42.9249 3.7459C31.1884 10.41 16.8116 10.41 5.0751 3.7459L2 2L3.74589 5.0751C10.41 16.8116 10.41 31.1884 3.74589 42.9249L2 46L5.0751 44.2541C16.8116 37.59 31.1884 37.59 42.9249 44.2541L46 46L44.2541 42.9249C37.59 31.1884 37.59 16.8116 44.2541 5.0751Z" fill="#F0F1F6"/>
<path d="M92.2541 5.0751L94 2L90.9249 3.7459C79.1884 10.41 64.8116 10.41 53.0751 3.7459L50 2L51.7459 5.0751C58.41 16.8116 58.41 31.1884 51.7459 42.9249L50 46L53.0751 44.2541C64.8116 37.59 79.1884 37.59 90.9249 44.2541L94 46L92.2541 42.9249C85.59 31.1884 85.59 16.8116 92.2541 5.0751Z" fill="#F0F1F6"/>
<path d="M44.2541 53.0751L46 50L42.9249 51.7459C31.1884 58.41 16.8116 58.41 5.0751 51.7459L2 50L3.74589 53.0751C10.41 64.8116 10.41 79.1884 3.74589 90.9249L2 94L5.0751 92.2541C16.8116 85.59 31.1884 85.59 42.9249 92.2541L46 94L44.2541 90.9249C37.59 79.1884 37.59 64.8116 44.2541 53.0751Z" fill="#F0F1F6"/>
<path d="M92.2541 53.0751L94 50L90.9249 51.7459C79.1884 58.41 64.8116 58.41 53.0751 51.7459L50 50L51.7459 53.0751C58.41 64.8116 58.41 79.1884 51.7459 90.9249L50 94L53.0751 92.2541C64.8116 85.59 79.1884 85.59 90.9249 92.2541L94 94L92.2541 90.9249C85.59 79.1884 85.59 64.8116 92.2541 53.0751Z" fill="#F0F1F6"/>
</svg>
