<svg width="99" height="99" viewBox="0 0 99 99" fill="none" xmlns="http://www.w3.org/2000/svg">
<rect width="99" height="99" rx="10" fill="white" fill-opacity="0.2"/>
<path d="M12.7637 46.7595C12.7198 46.3453 12.7815 45.9281 12.9451 45.5345C13.1087 45.1408 13.3704 44.7793 13.7138 44.4728C14.0572 44.1663 14.4747 43.9215 14.9398 43.7541C15.405 43.5866 15.9076 43.5001 16.4157 43.5H23.4172C24.3897 43.5 25.3223 43.8161 26.01 44.3787C26.6976 44.9413 27.0839 45.7043 27.0839 46.5V75C27.0839 75.7956 26.6976 76.5587 26.01 77.1213C25.3223 77.6839 24.3897 78 23.4172 78H19.4462C18.5285 78.0002 17.6441 77.7188 16.9676 77.2114C16.2911 76.704 15.8718 76.0075 15.7924 75.2595L12.7637 46.7595ZM38.0839 45.5625C38.0839 44.3085 39.0372 43.1865 40.4214 42.6525C43.4446 41.4855 48.5944 39.141 50.9172 35.9715C53.9111 31.8855 54.4757 24.504 54.5674 22.8135C54.5802 22.5765 54.5729 22.3395 54.6114 22.1055C55.1082 19.176 62.0181 22.5975 64.6672 26.2155C66.1064 28.1775 66.2897 30.756 66.1394 32.7705C65.9762 34.9245 65.2044 37.005 64.4472 39.072L62.8339 43.4775H82.7384C83.3049 43.4775 83.8637 43.5848 84.371 43.7912C84.8783 43.9975 85.3202 44.2973 85.6621 44.6668C86.0041 45.0364 86.2367 45.4658 86.3417 45.9212C86.4468 46.3767 86.4214 46.8459 86.2676 47.292L76.4226 75.816C76.2052 76.4451 75.7427 76.9989 75.1053 77.3931C74.4679 77.7874 73.6906 78.0004 72.8916 78H41.7506C40.7781 78 39.8455 77.6839 39.1579 77.1213C38.4702 76.5587 38.0839 75.7956 38.0839 75V45.5625Z" stroke="#F0F1F6" stroke-width="6" stroke-linecap="round" stroke-linejoin="round"/>
</svg>
