<svg width="194" height="191" viewBox="0 0 194 191" fill="none" xmlns="http://www.w3.org/2000/svg">
<path d="M204.128 67C211.06 62.7149 216.849 58.3659 220.938 54.1445C243.243 31.0825 243.243 -6.3082 220.938 -29.3702C198.634 -52.4322 162.471 -52.4322 140.167 -29.3702C134.878 -23.9022 129.357 -15.4239 124 -5.19618C118.643 -15.4168 113.122 -23.9022 107.833 -29.3702C85.5288 -52.4322 49.3663 -52.4322 27.0618 -29.3702C4.75725 -6.3082 4.75725 31.0825 27.0618 54.1445C31.1514 58.373 36.9398 62.7149 43.8723 67C36.9398 71.2852 31.1514 75.634 27.0618 79.8555C4.75725 102.917 4.75725 140.308 27.0618 163.37C49.3663 186.432 85.5288 186.432 107.833 163.37C113.122 157.902 118.643 149.424 124 139.196C129.357 149.417 134.878 157.895 140.167 163.37C162.471 186.432 198.634 186.432 220.938 163.37C243.243 140.308 243.243 102.917 220.938 79.8555C216.849 75.6269 211.06 71.2852 204.128 67ZM132.604 75.8961L124 125.951L115.396 75.8961L66.9851 67L115.396 58.1038L124 8.04884L132.604 58.1038L181.015 67L132.604 75.8961Z" fill="#1691D0"/>
</svg>
