<svg width="106" height="106" viewBox="0 0 106 106" fill="none" xmlns="http://www.w3.org/2000/svg">
<path d="M86.2359 52.9989C90.5518 47.1856 94.1217 41.4255 96.7406 35.9906C104.453 19.984 101.531 12.0846 97.721 8.27482C93.9112 4.46767 86.0121 1.5477 70.0059 9.25791C64.571 11.8768 58.8111 15.4495 52.998 19.7629C47.1848 15.4469 41.4249 11.8768 35.9901 9.25791C19.9839 1.54503 12.0847 4.46766 8.27493 8.27748C4.46786 12.0873 1.54529 19.9867 9.258 35.9932C11.8769 41.4282 15.4495 47.1882 19.7627 53.0015C15.4468 58.8148 11.8769 64.5748 9.258 70.0098C1.54529 86.0137 4.46786 93.9158 8.27759 97.7229C10.337 99.7823 13.5899 101.583 18.6784 101.583C22.9997 101.583 28.6397 100.286 35.9927 96.7425C41.4276 94.1236 47.1875 90.5509 53.0006 86.2375C58.8138 90.5535 64.5737 94.1236 70.0085 96.7425C77.3616 100.286 83.0016 101.583 87.3228 101.583C92.4087 101.583 95.6643 99.7823 97.7236 97.7229C101.533 93.9158 104.453 86.0137 96.7432 70.0098C94.1244 64.5748 90.5518 58.8148 86.2385 53.0015L86.2359 52.9989ZM91.0953 14.9034C94.3748 18.183 91.0207 30.2332 80.1962 45.4085C77.2763 41.9664 74.1326 38.5455 70.7945 35.2073C67.4563 31.869 64.0355 28.7226 60.5934 25.8053C75.7684 14.9833 87.8184 11.6264 91.0953 14.906V14.9034ZM74.3458 52.9989C71.3433 56.6302 67.9571 60.3707 64.1661 64.1646C60.375 67.9557 56.6319 71.3419 53.0006 74.3445C49.3694 71.3419 45.6289 67.9557 41.8352 64.1646C38.0441 60.3734 34.658 56.6302 31.6555 52.9989C34.658 49.3676 38.0441 45.627 41.8352 41.8332C45.6263 38.042 49.3667 34.6585 52.9953 31.6559C56.6292 34.6585 60.3697 38.0367 64.1634 41.8332C67.9545 45.6243 71.3406 49.3676 74.3431 52.9989H74.3458ZM14.9087 14.9034C15.7079 14.1041 17.0266 13.6991 18.7823 13.6991C24.2385 13.6991 33.9307 17.6342 45.3998 25.8106C41.9604 28.7279 38.545 31.869 35.2094 35.2046C31.8713 38.5429 28.7249 41.9637 25.8077 45.4059C14.9832 30.2305 11.6291 18.1803 14.9087 14.9007V14.9034ZM14.9087 91.0944C11.6291 87.8147 14.9832 75.7645 25.8077 60.5892C28.7276 64.0313 31.8713 67.4522 35.2094 70.7904C38.5476 74.1287 41.9684 77.2751 45.4105 80.1924C30.2355 91.0144 18.1856 94.3687 14.906 91.0917L14.9087 91.0944ZM91.0979 91.0944C87.8184 94.374 75.7684 91.0198 60.5934 80.1951C64.0355 77.2751 67.4563 74.1314 70.7945 70.7931C74.1326 67.4548 77.279 64.034 80.1962 60.5919C91.0207 75.7672 94.3748 87.8174 91.0953 91.097L91.0979 91.0944Z" fill="#F0F1F6"/>
</svg>
