<svg width="192" height="205" viewBox="0 0 192 205" fill="none" xmlns="http://www.w3.org/2000/svg">
<path d="M148.128 124C155.06 119.715 160.849 115.366 164.938 111.145C187.243 88.0826 187.243 50.6918 164.938 27.6298C142.634 4.56785 106.471 4.56785 84.1667 27.6298C78.8783 33.0978 73.3569 41.5761 68 51.8038C62.6431 41.5832 57.1218 33.0978 51.8334 27.6298C29.5288 4.56785 -6.63374 4.56785 -28.9382 27.6298C-51.2428 50.6918 -51.2428 88.0826 -28.9382 111.145C-24.8486 115.373 -19.0602 119.715 -12.1277 124C-19.0602 128.285 -24.8486 132.634 -28.9382 136.855C-51.2428 159.917 -51.2428 197.308 -28.9382 220.37C-6.63374 243.432 29.5288 243.432 51.8334 220.37C57.1218 214.902 62.6431 206.424 68 196.196C73.3569 206.417 78.8783 214.895 84.1667 220.37C106.471 243.432 142.634 243.432 164.938 220.37C187.243 197.308 187.243 159.917 164.938 136.855C160.849 132.627 155.06 128.285 148.128 124ZM76.604 132.896L68 182.951L59.3961 132.896L10.9851 124L59.3961 115.104L68 65.0489L76.604 115.104L125.015 124L76.604 132.896Z" fill="#134283"/>
</svg>
