<svg width="99" height="99" viewBox="0 0 99 99" fill="none" xmlns="http://www.w3.org/2000/svg">
<rect width="99" height="99" rx="10" fill="white" fill-opacity="0.2"/>
<path d="M49.5 12.375L51.1252 8.58001C50.6117 8.35986 50.0588 8.24634 49.5 8.24634C48.9412 8.24634 48.3883 8.35986 47.8747 8.58001L49.5 12.375ZM49.5 86.625L47.454 90.2055C48.0771 90.5615 48.7824 90.7487 49.5 90.7487C50.2176 90.7487 50.9229 90.5615 51.546 90.2055L49.5 86.625ZM47.8747 8.58413L21.4995 19.8825L24.75 27.4725L51.1252 16.17L47.8747 8.58413ZM16.5 27.4684V55.7659H24.75V27.4684H16.5ZM31.0489 80.8335L47.454 90.2055L51.546 83.0445L35.1409 73.6684L31.0489 80.8335ZM51.546 90.2055L67.9511 80.8335L63.8591 73.6684L47.454 83.0445L51.546 90.2055ZM82.5 55.7618V27.4725H74.25V55.77L82.5 55.7618ZM77.5005 19.8866L51.1252 8.58413L47.8747 16.1659L74.25 27.4725L77.5005 19.8866ZM82.5 27.4725C82.4998 25.8582 82.026 24.2795 81.1374 22.9318C80.2487 21.5841 78.9842 20.5227 77.5005 19.8866L74.25 27.4725H82.5ZM67.9511 80.8335C72.3716 78.3075 76.0456 74.6617 78.6007 70.2579C81.1557 65.8541 82.5009 60.8531 82.5 55.7618H74.25C74.2495 59.3979 73.2878 62.9693 71.4623 66.114C69.6368 69.2587 67.0123 71.8649 63.855 73.6684L67.9511 80.8335ZM16.5 55.7618C16.4998 60.8524 17.8454 65.8526 20.4004 70.2556C22.9554 74.6586 26.629 78.3078 31.0489 80.8335L35.1409 73.6684C31.9855 71.865 29.3627 69.2599 27.538 66.1169C25.7133 62.9738 24.7515 59.4044 24.75 55.77L16.5 55.7618ZM21.4995 19.8825C20.0151 20.5188 18.7502 21.5809 17.8615 22.9294C16.9728 24.2779 16.4994 25.8575 16.5 27.4725H24.75L21.4995 19.8825Z" fill="#F0F1F6"/>
<path d="M61.875 41.25L45.375 57.75L37.125 49.5" stroke="#F0F1F6" stroke-width="8" stroke-linecap="round" stroke-linejoin="round"/>
</svg>
