<svg width="99" height="99" viewBox="0 0 99 99" fill="none" xmlns="http://www.w3.org/2000/svg">
<rect width="99" height="99" rx="10" fill="white" fill-opacity="0.2"/>
<path d="M45.5556 29.3724H55.8888L67.2208 18.0178C67.541 17.6953 67.922 17.4393 68.3417 17.2646C68.7614 17.0899 69.2116 17 69.6663 17C70.121 17 70.5712 17.0899 70.991 17.2646C71.4107 17.4393 71.7917 17.6953 72.1119 18.0178L80.9984 26.9294C81.6399 27.5741 82 28.4462 82 29.3552C82 30.2642 81.6399 31.1363 80.9984 31.781L73.1107 39.6948H45.5556V46.5764C45.5556 47.489 45.1927 48.3641 44.5468 49.0094C43.9008 49.6547 43.0247 50.0172 42.1112 50.0172C41.1977 50.0172 40.3216 49.6547 39.6757 49.0094C39.0297 48.3641 38.6668 47.489 38.6668 46.5764V36.254C38.6668 34.4289 39.3926 32.6785 40.6845 31.388C41.9764 30.0974 43.7286 29.3724 45.5556 29.3724ZM24.8893 46.5764V60.3396L17.0016 68.219C16.3601 68.8637 16 69.7358 16 70.6448C16 71.5538 16.3601 72.4259 17.0016 73.0706L25.8881 81.9822C26.2083 82.3047 26.5893 82.5607 27.009 82.7354C27.4287 82.9101 27.879 83 28.3337 83C28.7884 83 29.2386 82.9101 29.6583 82.7354C30.078 82.5607 30.459 82.3047 30.7792 81.9822L45.5556 67.2212H59.3332C60.2467 67.2212 61.1228 66.8587 61.7687 66.2134C62.4147 65.5681 62.7776 64.693 62.7776 63.7804V60.3396H66.222C67.1355 60.3396 68.0116 59.9771 68.6575 59.3318C69.3035 58.6865 69.6663 57.8114 69.6663 56.8988V53.458H73.1107C74.0243 53.458 74.9003 53.0955 75.5463 52.4502C76.1922 51.8049 76.5551 50.9298 76.5551 50.0172V46.5764H52.4444V50.0172C52.4444 51.8423 51.7186 53.5927 50.4267 54.8832C49.1348 56.1738 47.3826 56.8988 45.5556 56.8988H38.6668C36.8398 56.8988 35.0876 56.1738 33.7957 54.8832C32.5038 53.5927 31.778 51.8423 31.778 50.0172V39.6948L24.8893 46.5764Z" fill="#F0F1F6"/>
</svg>
