<svg width="99" height="99" viewBox="0 0 99 99" fill="none" xmlns="http://www.w3.org/2000/svg">
<rect width="99" height="99" rx="10" fill="white" fill-opacity="0.2"/>
<path fill-rule="evenodd" clip-rule="evenodd" d="M55.5078 18.342H38.9203C38.396 20.9083 37.1273 23.2639 35.272 25.1159C33.4168 26.9678 31.057 28.2343 28.4862 28.7576V31.0722C31.057 31.5956 33.4168 32.862 35.272 34.714C37.1273 36.5659 38.396 38.9216 38.9203 41.4878H55.5078C56.0321 38.9216 57.3008 36.5659 59.156 34.714C61.0112 32.862 63.3711 31.5956 65.9419 31.0722V28.7576C63.3711 28.2343 61.0112 26.9678 59.156 25.1159C57.3008 23.2639 56.0321 20.9083 55.5078 18.342ZM57.6659 13.0114C56.6862 13.0019 55.6422 12.9983 54.5339 13.0007H39.8941C38.7859 13.0007 37.7431 13.0043 36.7657 13.0114C36.5707 12.999 36.375 13.0025 36.1806 13.0221C34.5683 13.0506 33.1378 13.1182 31.8964 13.2856C29.6562 13.5847 27.6336 14.247 26.0105 15.8672C24.3839 17.491 23.7204 19.51 23.4207 21.7427C23.2531 22.9854 23.1853 24.4133 23.1568 26.0229C23.1374 26.2157 23.1338 26.4098 23.1461 26.6033C23.1366 27.5837 23.133 28.6259 23.1354 29.7297V30.1001C23.1354 31.204 23.1389 32.2461 23.1461 33.2265C23.1338 33.42 23.1374 33.6141 23.1568 33.807C23.1853 35.42 23.2531 36.8444 23.4207 38.0836C23.7204 40.3198 24.3839 42.3388 26.0105 43.959C27.6336 45.5828 29.6562 46.2451 31.8964 46.5442C33.1378 46.7116 34.5683 46.7793 36.1806 46.8078C36.375 46.8273 36.5707 46.8309 36.7657 46.8184C37.7431 46.8279 38.7859 46.8315 39.8941 46.8291H54.5339C55.6398 46.8291 56.6838 46.8256 57.6659 46.8184C57.8597 46.8307 58.0542 46.8271 58.2474 46.8078C59.8633 46.7793 61.2938 46.7116 62.5316 46.5442C64.7718 46.2451 66.7944 45.5828 68.4175 43.959C70.0442 42.3388 70.7077 40.3198 71.0073 38.0836C71.1734 36.6639 71.2615 35.2362 71.2713 33.807C71.2907 33.6141 71.2942 33.42 71.282 33.2265C71.2915 32.2461 71.2951 31.204 71.2927 30.1001V29.7297C71.2927 28.6259 71.2891 27.5837 71.282 26.6033C71.2942 26.4098 71.2907 26.2157 71.2713 26.0229C71.2615 24.5936 71.1734 23.1659 71.0073 21.7462C70.7077 19.51 70.0442 17.491 68.4211 15.8708C66.7944 14.247 64.7718 13.5847 62.5352 13.2856C61.1118 13.1197 59.6804 13.0317 58.2474 13.0221C58.0542 13.0027 57.8597 12.9992 57.6659 13.0114ZM61.1047 18.4987C61.5092 19.5637 62.1356 20.5308 62.9424 21.3362C63.7492 22.1416 64.718 22.7668 65.7849 23.1706C65.7624 22.9327 65.735 22.6952 65.7029 22.4584C65.4853 20.8133 65.1 20.1082 64.6327 19.6453C64.1654 19.1824 63.4662 18.8014 61.8217 18.5771C61.5845 18.5462 61.3466 18.5201 61.1083 18.4987M65.7885 36.6592C64.7216 37.063 63.7527 37.6883 62.9459 38.4936C62.1392 39.299 61.5128 40.2661 61.1083 41.3311C61.358 41.3074 61.5958 41.2813 61.8217 41.2528C63.4698 41.0284 64.1761 40.6474 64.6398 40.1845C65.1036 39.7216 65.4888 39.0165 65.71 37.3714C65.7385 37.1459 65.7647 36.9085 65.7885 36.6592ZM33.3269 41.3311C32.9224 40.2661 32.296 39.299 31.4892 38.4936C30.6824 37.6883 29.7136 37.063 28.6467 36.6592C28.6705 36.9085 28.6978 37.1459 28.7288 37.3714C28.9499 39.0165 29.3316 39.7216 29.7989 40.1845C30.2662 40.6474 30.9654 41.0284 32.6099 41.2528C32.8382 41.2813 33.0772 41.3074 33.3269 41.3311ZM28.6467 23.1706C29.7136 22.7668 30.6824 22.1416 31.4892 21.3362C32.296 20.5308 32.9224 19.5637 33.3269 18.4987C33.0772 18.5225 32.8394 18.5498 32.6134 18.5806C30.9654 18.8014 30.2591 19.1824 29.7953 19.6489C29.3316 20.1154 28.9499 20.8133 28.7252 22.4549L28.6467 23.1706ZM47.214 29.0247C46.9775 29.0247 46.7507 29.1185 46.5834 29.2854C46.4162 29.4524 46.3222 29.6788 46.3222 29.9149C46.3222 30.151 46.4162 30.3774 46.5834 30.5444C46.7507 30.7113 46.9775 30.8051 47.214 30.8051C47.4505 30.8051 47.6774 30.7113 47.8446 30.5444C48.0119 30.3774 48.1058 30.151 48.1058 29.9149C48.1058 29.6788 48.0119 29.4524 47.8446 29.2854C47.6774 29.1185 47.4505 29.0247 47.214 29.0247ZM40.9714 29.9149C40.9714 28.2622 41.6291 26.6772 42.7998 25.5085C43.9705 24.3399 45.5584 23.6834 47.214 23.6834C48.8697 23.6834 50.4575 24.3399 51.6282 25.5085C52.7989 26.6772 53.4566 28.2622 53.4566 29.9149C53.4566 31.5676 52.7989 33.1526 51.6282 34.3213C50.4575 35.4899 48.8697 36.1465 47.214 36.1465C45.5584 36.1465 43.9705 35.4899 42.7998 34.3213C41.6291 33.1526 40.9714 31.5676 40.9714 29.9149ZM35.3852 56.4364C42.0416 55.1509 49.1653 55.4393 54.9335 58.872C55.7397 59.3527 56.503 59.9545 57.163 60.6952C58.5042 62.2015 59.1963 64.0674 59.2284 65.9404C59.9085 65.4988 60.5946 65.0157 61.2867 64.4911L67.7362 59.6305C69.352 58.4468 71.3039 57.8085 73.3082 57.8085C75.3124 57.8085 77.2644 58.4468 78.8801 59.6305C81.8588 61.8739 83.0502 65.9083 80.9134 69.3268C79.3974 71.7517 77.1144 75.1097 74.7885 77.2604C72.4342 79.4326 69.0917 81.2629 66.5626 82.4807C63.4876 83.962 60.1701 84.781 56.9418 85.3009C50.3425 86.3692 43.4792 86.2054 36.9583 84.8629C33.5955 84.1727 30.1714 83.8232 26.7382 83.8196H18.6764C17.9668 83.8196 17.2863 83.5382 16.7846 83.0374C16.2828 82.5365 16.001 81.8572 16.001 81.1489C16.001 80.4406 16.2828 79.7613 16.7846 79.2605C17.2863 78.7596 17.9668 78.4783 18.6764 78.4783H26.7382C30.5266 78.4783 34.3542 78.8735 38.0392 79.632C43.9827 80.8494 50.0979 80.9833 56.0892 80.0272C59.0429 79.5501 61.8039 78.8415 64.2367 77.6699C66.6731 76.4948 69.4128 74.9494 71.15 73.3435C72.9086 71.7161 74.8742 68.8995 76.3759 66.4994C76.829 65.773 76.7648 64.7297 75.6554 63.8929C74.3355 62.8958 72.2772 62.8958 70.9609 63.8929L64.515 68.7535C61.9395 70.6942 58.7718 72.7702 54.8443 73.3969C54.4328 73.4619 54.0201 73.5188 53.6065 73.5678C53.4019 73.6034 53.1891 73.6271 52.9679 73.639C50.676 73.8611 48.368 73.8611 46.0761 73.639C45.7208 73.6133 45.3742 73.517 45.0566 73.3558C44.7391 73.1946 44.457 72.9717 44.2269 72.7002C43.9968 72.4287 43.8234 72.1141 43.7167 71.7747C43.6101 71.4354 43.5724 71.0783 43.6059 70.7242C43.6394 70.3702 43.7434 70.0264 43.9118 69.713C44.0802 69.3996 44.3096 69.123 44.5865 68.8993C44.8635 68.6756 45.1824 68.5093 45.5245 68.4103C45.8667 68.3113 46.2252 68.2815 46.5791 68.3226C48.558 68.5138 50.5509 68.5102 52.5292 68.3119L52.6362 68.3012C52.969 68.0951 53.2518 67.8177 53.4643 67.4892C53.6767 67.1607 53.8134 66.7892 53.8646 66.4015C53.9158 66.0139 53.8802 65.6197 53.7603 65.2475C53.6404 64.8752 53.4392 64.5342 53.1713 64.249C52.8851 63.9386 52.5546 63.6722 52.1903 63.4584C47.9774 60.948 42.3484 60.5314 36.4018 61.678C30.5928 62.8421 25.0861 65.1875 20.2245 68.5683C19.9378 68.7713 19.6139 68.9159 19.2712 68.9938C18.9286 69.0718 18.5739 69.0817 18.2274 69.0228C17.8809 68.9639 17.5494 68.8375 17.2519 68.6508C16.9543 68.4641 16.6965 68.2207 16.4932 67.9345C16.2899 67.6483 16.1451 67.3249 16.0669 66.9829C15.9888 66.6408 15.979 66.2867 16.0379 65.9409C16.157 65.2423 16.5492 64.6197 17.1282 64.2098C22.6121 60.3904 28.8279 57.7439 35.3852 56.4364Z" fill="white"/>
</svg>
