<svg width="1518" height="570" viewBox="0 0 1518 570" fill="none" xmlns="http://www.w3.org/2000/svg">
<mask id="mask0_1687_27914" style="mask-type:alpha" maskUnits="userSpaceOnUse" x="0" y="0" width="1518" height="570">
<rect width="1518" height="570" rx="10" fill="#1691D0"/>
</mask>
<g mask="url(#mask0_1687_27914)">
<path opacity="0.2" fill-rule="evenodd" clip-rule="evenodd" d="M194.048 195.219C181.552 171.908 174.516 145.574 174.516 117.698C174.516 22.3196 256.888 -55 358.5 -55V100.486C372.381 77.894 391.649 58.5121 415.813 44.4616C498.283 -3.49289 606.554 28.8155 657.643 116.624L522.448 195.237C549.034 195.926 575.539 202.916 599.861 216.85C682.638 264.274 708.786 374.166 658.263 462.302L522.952 384.781C535.448 408.092 542.484 434.426 542.484 462.302C542.484 557.68 460.112 635 358.5 635V479.514C344.619 502.106 325.351 521.488 301.187 535.538C218.717 583.493 110.446 551.185 59.3572 463.376L194.552 384.763C167.966 384.074 141.461 377.084 117.139 363.15C34.3617 315.726 8.21421 205.834 58.7369 117.698L194.048 195.219ZM358.597 289.604C358.564 289.548 358.532 289.492 358.5 289.436L358.5 289.604C358.532 289.604 358.565 289.604 358.597 289.604ZM358.5 290.396V290.564L358.403 290.396L358.5 290.396Z" fill="white"/>
</g>
</svg>
