<svg width="171" height="178" viewBox="0 0 171 178" fill="none" xmlns="http://www.w3.org/2000/svg">
<path d="M15.0305 168.744C10.7458 168.744 7.17112 167.318 4.30639 164.467C1.44166 161.616 0.00620071 158.059 0 153.795V35.5907C0 31.3328 1.43546 27.7784 4.30639 24.9274C7.17732 22.0764 10.752 20.6479 15.0305 20.6417H31.4841V0H41.5013V20.6417H108.041V0H117.342V20.6417H133.796C138.074 20.6417 141.649 22.0703 144.52 24.9274C147.391 27.7845 148.823 31.3421 148.817 35.6V79.577C148.817 80.8976 148.374 81.9991 147.487 82.8815C146.6 83.764 145.493 84.2052 144.166 84.2052C142.839 84.2052 141.733 83.764 140.846 82.8815C139.959 81.9991 139.516 80.8976 139.516 79.577V72.6162H9.30106V153.795C9.30106 155.214 9.89633 156.519 11.0869 157.71C12.2774 158.901 13.5888 159.493 15.0212 159.487H74.8735C76.2005 159.487 77.3073 159.928 78.194 160.811C79.0807 161.693 79.5241 162.795 79.5241 164.115C79.5241 165.436 79.0807 166.537 78.194 167.42C77.3073 168.302 76.2005 168.744 74.8735 168.744H15.0305ZM133.796 178C123.434 178 114.642 174.408 107.418 167.226C100.2 160.03 96.5915 151.28 96.5915 140.974C96.5915 130.669 100.2 121.922 107.418 114.733C114.636 107.544 123.425 103.949 133.786 103.949C144.148 103.949 152.94 107.544 160.164 114.733C167.388 121.922 171 130.669 171 140.974C171 151.28 167.388 160.03 160.164 167.226C152.94 174.421 144.151 178.012 133.796 178ZM149.189 161.357L154.267 156.303L137.367 139.475V114.279H130.215V142.474L149.189 161.357Z" fill="#EEE9DF"/>
</svg>
