<svg width="187" height="187" viewBox="0 0 187 187" fill="none" xmlns="http://www.w3.org/2000/svg">
<path d="M93.5 11.6875V52.5938C93.5 57.2433 95.347 61.7025 98.6348 64.9902C101.923 68.278 106.382 70.125 111.031 70.125H151.938V157.781C151.938 162.431 150.09 166.89 146.803 170.178C143.515 173.465 139.056 175.313 134.406 175.313H81.532C81.719 174.378 81.8125 173.404 81.8125 172.391V136.101C88.4362 128.599 92.4775 119.169 93.3421 109.198C94.2067 99.2278 91.8489 89.2431 86.6155 80.7126C81.382 72.1821 73.5493 65.5562 64.2692 61.8095C54.9891 58.0627 44.7517 57.3929 35.0625 59.8984V29.2188C35.0625 24.5692 36.9095 20.11 40.1973 16.8223C43.485 13.5345 47.9442 11.6875 52.5938 11.6875H93.5ZM105.188 14.6094V52.5938C105.188 54.1436 105.803 55.63 106.899 56.7259C107.995 57.8218 109.481 58.4375 111.031 58.4375H149.016L105.188 14.6094ZM81.8125 105.188C81.8125 109.792 80.9056 114.351 79.1435 118.605C77.3815 122.859 74.7988 126.725 71.5429 129.98C68.2871 133.236 64.4218 135.819 60.1678 137.581C55.9139 139.343 51.3545 140.25 46.75 140.25C42.1455 140.25 37.5861 139.343 33.3322 137.581C29.0782 135.819 25.2129 133.236 21.9571 129.98C18.7012 126.725 16.1185 122.859 14.3565 118.605C12.5944 114.351 11.6875 109.792 11.6875 105.188C11.6875 95.8884 15.3816 86.9701 21.9571 80.3946C28.5326 73.8191 37.4508 70.125 46.75 70.125C56.0492 70.125 64.9674 73.8191 71.5429 80.3946C78.1184 86.9701 81.8125 95.8884 81.8125 105.188ZM70.125 145.673C63.0182 149.777 54.9564 151.937 46.75 151.938C38.5446 151.941 30.4829 149.784 23.375 145.685V172.402C23.3765 172.918 23.5145 173.424 23.7748 173.869C24.0352 174.314 24.4087 174.682 24.8574 174.936C25.3061 175.19 25.814 175.321 26.3295 175.315C26.8451 175.31 27.35 175.167 27.7929 174.903L46.75 163.625L65.7071 174.903C66.1509 175.168 66.6568 175.31 67.1734 175.315C67.6899 175.321 68.1987 175.189 68.6477 174.933C69.0968 174.678 69.4701 174.308 69.7296 173.861C69.9891 173.415 70.1255 172.907 70.125 172.391V145.673Z" fill="#EEE9DF"/>
</svg>
