<svg width="99" height="99" viewBox="0 0 99 99" fill="none" xmlns="http://www.w3.org/2000/svg">
<rect width="99" height="99" rx="10" fill="white" fill-opacity="0.2"/>
<path d="M29.0775 40.7501V17.4167H71.375L81.5833 27.6251V81.5834H61.1667M67 17.4167V32.0001H81.5833M40.75 55.3334V46.5834M40.75 55.3334C43.0706 55.3334 45.2962 56.2553 46.9372 57.8962C48.5781 59.5372 49.5 61.7628 49.5 64.0834M40.75 55.3334C38.4294 55.3334 36.2038 56.2553 34.5628 57.8962C32.9219 59.5372 32 61.7628 32 64.0834M40.75 72.8334C43.0706 72.8334 45.2962 71.9115 46.9372 70.2706C48.5781 68.6296 49.5 66.4041 49.5 64.0834M40.75 72.8334C38.4294 72.8334 36.2038 71.9115 34.5628 70.2706C32.9219 68.6296 32 66.4041 32 64.0834M40.75 72.8334V81.5834M49.5 64.0834H58.25M32 64.0834H23.25M29.0833 52.4167L34.9167 58.2501M46.5833 69.9167L52.4167 75.7501M52.4167 52.4167L46.5833 58.2501M34.9167 69.9167L29.0833 75.7501" stroke="white" stroke-width="8"/>
</svg>
