<svg width="217" height="217" viewBox="0 0 217 217" fill="none" xmlns="http://www.w3.org/2000/svg">
<path d="M99.4577 54.25H126.583L156.33 24.4125C157.17 23.565 158.17 22.8924 159.272 22.4334C160.374 21.9743 161.556 21.738 162.749 21.738C163.943 21.738 165.125 21.9743 166.227 22.4334C167.328 22.8924 168.328 23.565 169.169 24.4125L192.496 47.8304C194.18 49.5245 195.126 51.8161 195.126 54.2048C195.126 56.5935 194.18 58.8851 192.496 60.5792L171.791 81.375H99.4577V99.4583C99.4577 101.856 98.5051 104.156 96.8095 105.852C95.1138 107.547 92.814 108.5 90.416 108.5C88.018 108.5 85.7183 107.547 84.0226 105.852C82.327 104.156 81.3744 101.856 81.3744 99.4583V72.3333C81.3744 67.5373 83.2796 62.9378 86.6709 59.5465C90.0621 56.1552 94.6617 54.25 99.4577 54.25ZM45.2077 99.4583V135.625L24.5023 156.33C22.8183 158.025 21.873 160.316 21.873 162.705C21.873 165.093 22.8183 167.385 24.5023 169.079L47.8298 192.497C48.6703 193.345 49.6704 194.017 50.7722 194.476C51.874 194.935 53.0558 195.172 54.2494 195.172C55.443 195.172 56.6248 194.935 57.7266 194.476C58.8284 194.017 59.8284 193.345 60.669 192.497L99.4577 153.708H135.624C138.022 153.708 140.322 152.756 142.018 151.06C143.713 149.364 144.666 147.065 144.666 144.667V135.625H153.708C156.106 135.625 158.405 134.672 160.101 132.977C161.797 131.281 162.749 128.981 162.749 126.583V117.542H171.791C174.189 117.542 176.489 116.589 178.184 114.893C179.88 113.198 180.833 110.898 180.833 108.5V99.4583H117.541V108.5C117.541 113.296 115.636 117.896 112.245 121.287C108.853 124.678 104.254 126.583 99.4577 126.583H81.3744C76.5784 126.583 71.9788 124.678 68.5875 121.287C65.1962 117.896 63.291 113.296 63.291 108.5V81.375L45.2077 99.4583Z" fill="#EEE9DF"/>
</svg>
