<svg width="100" height="99" viewBox="0 0 100 99" fill="none" xmlns="http://www.w3.org/2000/svg">
<rect x="0.5" width="99" height="99" rx="10" fill="white" fill-opacity="0.2"/>
<path d="M53.136 13V31.9826C53.136 34.1402 53.9931 36.2095 55.5188 37.7352C57.0445 39.2608 59.1138 40.118 61.2714 40.118H80.254V80.7949C80.254 82.9525 79.3969 85.0218 77.8712 86.5475C76.3455 88.0731 74.2762 88.9303 72.1186 88.9303H47.5823C47.669 88.4964 47.7124 88.0444 47.7124 87.5744V70.7341C50.7862 67.2527 52.6616 62.8767 53.0628 58.2499C53.464 53.6231 52.3698 48.9897 49.9413 45.0311C47.5127 41.0726 43.8779 37.9978 39.5715 36.2591C35.265 34.5204 30.5143 34.2096 26.0181 35.3723V21.1354C26.0181 18.9777 26.8752 16.9085 28.4009 15.3828C29.9266 13.8571 31.9958 13 34.1535 13H53.136ZM58.5596 14.3559V31.9826C58.5596 32.7018 58.8453 33.3915 59.3539 33.9001C59.8624 34.4087 60.5522 34.6944 61.2714 34.6944H78.8981L58.5596 14.3559ZM47.7124 56.3887C47.7124 58.5254 47.2916 60.6412 46.4739 62.6153C45.6562 64.5893 44.4577 66.383 42.9468 67.8939C41.436 69.4048 39.6423 70.6033 37.6682 71.421C35.6942 72.2386 33.5784 72.6595 31.4417 72.6595C29.305 72.6595 27.1892 72.2386 25.2151 71.421C23.2411 70.6033 21.4474 69.4048 19.9365 67.8939C18.4256 66.383 17.2271 64.5893 16.4094 62.6153C15.5918 60.6412 15.1709 58.5254 15.1709 56.3887C15.1709 52.0734 16.8851 47.9349 19.9365 44.8836C22.9879 41.8322 27.1264 40.118 31.4417 40.118C35.7569 40.118 39.8955 41.8322 42.9468 44.8836C45.9982 47.9349 47.7124 52.0734 47.7124 56.3887ZM42.2888 75.176C38.9909 77.0803 35.2499 78.0829 31.4417 78.0831C27.634 78.0846 23.8929 77.0838 20.5945 75.1815V87.5798C20.5952 87.8191 20.6592 88.0539 20.78 88.2604C20.9008 88.4669 21.0742 88.6378 21.2824 88.7557C21.4906 88.8736 21.7263 88.9342 21.9655 88.9316C22.2048 88.9289 22.4391 88.8629 22.6446 88.7404L31.4417 83.5067L40.2387 88.7404C40.4447 88.8632 40.6794 88.9291 40.9191 88.9316C41.1589 88.934 41.3949 88.8728 41.6033 88.7543C41.8117 88.6358 41.9849 88.4642 42.1053 88.2569C42.2258 88.0496 42.2891 87.8141 42.2888 87.5744V75.176Z" fill="white"/>
</svg>
