<svg width="100" height="99" viewBox="0 0 100 99" fill="none" xmlns="http://www.w3.org/2000/svg">
<rect x="0.5" width="99" height="99" rx="10" fill="white" fill-opacity="0.2"/>
<path d="M22.8382 80.2359C21.1867 80.2359 19.8089 79.6865 18.7047 78.5876C17.6006 77.4888 17.0473 76.1176 17.0449 74.474V28.9143C17.0449 27.2731 17.5982 25.9031 18.7047 24.8043C19.8113 23.7054 21.1891 23.1548 22.8382 23.1524H29.18V15.1964H33.0409V23.1524H58.6876V15.1964H62.2726V23.1524H68.6143C70.2634 23.1524 71.6412 23.703 72.7478 24.8043C73.8543 25.9055 74.4064 27.2767 74.404 28.9179V45.8681C74.404 46.3771 74.2331 46.8016 73.8914 47.1418C73.5496 47.4819 73.123 47.6519 72.6115 47.6519C72.1001 47.6519 71.6735 47.4819 71.3317 47.1418C70.9899 46.8016 70.8191 46.3771 70.8191 45.8681V43.1852H20.6299V74.474C20.6299 75.0211 20.8593 75.5241 21.3182 75.9832C21.777 76.4422 22.2825 76.6706 22.8346 76.6682H45.9037C46.4152 76.6682 46.8418 76.8382 47.1835 77.1784C47.5253 77.5185 47.6962 77.943 47.6962 78.452C47.6962 78.961 47.5253 79.3856 47.1835 79.7257C46.8418 80.0658 46.4152 80.2359 45.9037 80.2359H22.8382ZM68.6143 83.8036C64.6207 83.8036 61.2317 82.4193 58.4474 79.6508C55.6655 76.8775 54.2746 73.5048 54.2746 69.5327C54.2746 65.5607 55.6655 62.1892 58.4474 59.4183C61.2293 56.6473 64.6171 55.2619 68.6107 55.2619C72.6044 55.2619 75.9933 56.6473 78.7776 59.4183C81.5619 62.1892 82.9541 65.5607 82.9541 69.5327C82.9541 73.5048 81.5619 76.8775 78.7776 79.6508C75.9933 82.4241 72.6056 83.8084 68.6143 83.8036ZM74.5474 77.3889L76.5048 75.4409L69.9909 68.9548V59.2435H67.2341V70.1107L74.5474 77.3889Z" fill="white"/>
</svg>
