<svg width="192" height="193" viewBox="0 0 192 193" fill="none" xmlns="http://www.w3.org/2000/svg">
<path d="M39.7758 72.625V8.95831H155.187L183.042 36.8125V184.042H127.333M143.25 8.95831V48.75H183.042M71.625 112.417V88.5416M71.625 112.417C77.957 112.417 84.0297 114.932 88.5072 119.409C92.9846 123.887 95.5 129.96 95.5 136.292M71.625 112.417C65.293 112.417 59.2203 114.932 54.7428 119.409C50.2654 123.887 47.75 129.96 47.75 136.292M71.625 160.167C77.957 160.167 84.0297 157.651 88.5072 153.174C92.9846 148.696 95.5 142.624 95.5 136.292M71.625 160.167C65.293 160.167 59.2203 157.651 54.7428 153.174C50.2654 148.696 47.75 142.624 47.75 136.292M71.625 160.167V184.042M95.5 136.292H119.375M47.75 136.292H23.875M39.7917 104.458L55.7083 120.375M87.5417 152.208L103.458 168.125M103.458 104.458L87.5417 120.375M55.7083 152.208L39.7917 168.125" stroke="#EEE9DF" stroke-width="16"/>
</svg>
