<svg width="20" height="21" viewBox="0 0 20 21" fill="none" xmlns="http://www.w3.org/2000/svg">
<path fill-rule="evenodd" clip-rule="evenodd" d="M9.88037 0.820312C4.90981 0.820312 0.880371 4.84976 0.880371 9.82031C0.880371 14.7909 4.90981 18.8203 9.88037 18.8203C14.851 18.8203 18.8804 14.7909 18.8804 9.82031C18.8804 4.84976 14.851 0.820312 9.88037 0.820312ZM6.42943 6.36876C6.79302 6.00517 7.38252 6.00517 7.74611 6.36876L9.88088 8.50353L12.0156 6.36876C12.3792 6.00517 12.9687 6.00517 13.3323 6.36876C13.6959 6.73235 13.6959 7.32185 13.3323 7.68544L11.1976 9.82021L13.3323 11.955C13.6959 12.3186 13.6959 12.9081 13.3323 13.2717C12.9687 13.6352 12.3792 13.6352 12.0156 13.2717L9.88088 11.1369L7.74611 13.2717C7.38252 13.6352 6.79302 13.6352 6.42943 13.2717C6.06584 12.9081 6.06584 12.3186 6.42943 11.955L8.56419 9.82021L6.42943 7.68544C6.06584 7.32185 6.06584 6.73235 6.42943 6.36876Z" fill="#FB998A"/>
</svg>
