<svg width="49" height="49" viewBox="0 0 49 49" fill="none" xmlns="http://www.w3.org/2000/svg">
<rect x="0.5" y="0.853516" width="48" height="48" rx="8" fill="#F6FAFF"/>
<path fill-rule="evenodd" clip-rule="evenodd" d="M34.1002 21.6304C34.1002 21.1899 33.9253 20.7675 33.6138 20.4561L26.4977 13.34C26.1862 13.0285 25.7638 12.8535 25.3233 12.8535H16.146C15.4581 12.8535 14.9004 13.4112 14.9004 14.0991V35.6079C14.9004 36.2958 15.4581 36.8535 16.146 36.8535H32.8546C33.5426 36.8535 34.1002 36.2958 34.1002 35.6079V21.6304ZM25.0862 15.0855C25.0339 15.0332 24.9445 15.0702 24.9445 15.1442V21.7568C24.9445 21.9402 25.0932 22.0889 25.2766 22.0889H31.8892C31.9632 22.0889 32.0002 21.9995 31.9479 21.9472L25.0862 15.0855Z" fill="#4F75FE"/>
</svg>
