<svg width="21" height="19" viewBox="0 0 21 19" fill="none" xmlns="http://www.w3.org/2000/svg">
<path d="M0 7.78799V15.2811C0 16.0381 0.300741 16.7642 0.836064 17.2995C1.37139 17.8348 2.09744 18.1356 2.8545 18.1356H17.8406C18.5977 18.1356 19.3237 17.8348 19.8591 17.2995C20.3944 16.7642 20.6951 16.0381 20.6951 15.2811V7.78799H0ZM4.28175 13.497C3.99785 13.497 3.72558 13.3842 3.52484 13.1835C3.32409 12.9827 3.21131 12.7105 3.21131 12.4266C3.21131 12.1427 3.32409 11.8704 3.52484 11.6696C3.72558 11.4689 3.99785 11.3561 4.28175 11.3561H7.84988C8.13377 11.3561 8.40604 11.4689 8.60679 11.6696C8.80754 11.8704 8.92031 12.1427 8.92031 12.4266C8.92031 12.7105 8.80754 12.9827 8.60679 13.1835C8.40604 13.3842 8.13377 13.497 7.84988 13.497H4.28175ZM15.6998 13.497C15.4159 13.497 15.1436 13.3842 14.9428 13.1835C14.7421 12.9827 14.6293 12.7105 14.6293 12.4266C14.6293 12.1427 14.7421 11.8704 14.9428 11.6696C15.1436 11.4689 15.4159 11.3561 15.6998 11.3561H16.4134C16.6973 11.3561 16.9695 11.4689 17.1703 11.6696C17.371 11.8704 17.4838 12.1427 17.4838 12.4266C17.4838 12.7105 17.371 12.9827 17.1703 13.1835C16.9695 13.3842 16.6973 13.497 16.4134 13.497H15.6998Z" fill="#7D8592"/>
<path d="M0 5.64711H20.6951V3.14942C20.6951 2.39236 20.3944 1.66631 19.8591 1.13099C19.3237 0.595663 18.5977 0.294922 17.8406 0.294922H2.8545C2.09744 0.294922 1.37139 0.595663 0.836064 1.13099C0.300741 1.66631 0 2.39236 0 3.14942V5.64711Z" fill="#7D8592"/>
</svg>
