<svg width="24" height="25" viewBox="0 0 24 25" fill="none" xmlns="http://www.w3.org/2000/svg">
<path fill-rule="evenodd" clip-rule="evenodd" d="M6 3.21533C4.34315 3.21533 3 4.55848 3 6.21533V8.21533C3 9.87219 4.34315 11.2153 6 11.2153H8C9.65685 11.2153 11 9.87219 11 8.21533V6.21533C11 4.55848 9.65685 3.21533 8 3.21533H6ZM16 3.21533C14.3431 3.21533 13 4.55848 13 6.21533V8.21533C13 9.87219 14.3431 11.2153 16 11.2153H18C19.6569 11.2153 21 9.87219 21 8.21533V6.21533C21 4.55848 19.6569 3.21533 18 3.21533H16ZM3 16.2153C3 14.5585 4.34315 13.2153 6 13.2153H8C9.65685 13.2153 11 14.5585 11 16.2153V18.2153C11 19.8722 9.65685 21.2153 8 21.2153H6C4.34315 21.2153 3 19.8722 3 18.2153V16.2153ZM16 13.2153C14.3431 13.2153 13 14.5585 13 16.2153V18.2153C13 19.8722 14.3431 21.2153 16 21.2153H18C19.6569 21.2153 21 19.8722 21 18.2153V16.2153C21 14.5585 19.6569 13.2153 18 13.2153H16Z" fill="#7D8592"/>
</svg>
