<svg width="21" height="22" viewBox="0 0 21 22" fill="none" xmlns="http://www.w3.org/2000/svg">
<path d="M10.5 21.2153C16.299 21.2153 21 16.5143 21 10.7153C21 4.91634 16.299 0.215332 10.5 0.215332C4.70101 0.215332 0 4.91634 0 10.7153C0 16.5143 4.70101 21.2153 10.5 21.2153Z" fill="#7D8592"/>
<path d="M10.4997 11.5136C12.3901 11.5136 13.9225 9.98111 13.9225 8.09076C13.9225 6.2004 12.3901 4.66797 10.4997 4.66797C8.60934 4.66797 7.0769 6.2004 7.0769 8.09076C7.0769 9.98111 8.60934 11.5136 10.4997 11.5136Z" fill="white"/>
<path d="M16.8275 16.6125C16.5409 16.2654 16.2276 15.9412 15.8904 15.643C14.4552 14.2206 12.5247 13.4098 10.5042 13.3809C8.48383 13.4098 6.55325 14.2206 5.11812 15.643C4.79491 15.9498 4.49599 16.2811 4.22402 16.6341C4.16264 16.7193 4.11535 16.8139 4.08398 16.9142C4.46686 17.3437 4.88879 17.7368 5.34434 18.0883C6.84181 19.2225 8.66885 19.8362 10.5473 19.8362C12.4258 19.8362 14.2528 19.2225 15.7503 18.0883C16.1909 17.7347 16.5983 17.3417 16.9676 16.9142C16.9384 16.8064 16.8911 16.7044 16.8275 16.6125Z" fill="white"/>
</svg>
