<svg width="21" height="21" viewBox="0 0 21 21" fill="none" xmlns="http://www.w3.org/2000/svg">
<path d="M19.7466 1.49265C18.7086 0.932274 17.592 0.531657 16.4345 0.30432V6.73902C16.4345 6.99048 16.3346 7.23165 16.1568 7.40946C15.979 7.58727 15.7378 7.68716 15.4863 7.68716C15.2349 7.68716 14.9937 7.58727 14.8159 7.40946C14.6381 7.23165 14.5382 6.99048 14.5382 6.73902V0.102051C12.9943 0.115639 11.4764 0.501605 10.1136 1.22718C8.75068 0.501605 7.23283 0.115639 5.68891 0.102051C3.86761 0.149857 2.08322 0.626272 0.480466 1.49265C0.333287 1.57305 0.210797 1.69202 0.126157 1.8368C0.0415179 1.98158 -0.00207069 2.14668 7.56032e-05 2.31437V19.3809C0.000578227 19.5465 0.0439128 19.7093 0.125871 19.8533C0.20783 19.9972 0.325627 20.1176 0.467824 20.2026C0.612759 20.2834 0.775949 20.3258 0.941893 20.3258C1.10784 20.3258 1.27103 20.2834 1.41596 20.2026C2.7361 19.5056 4.19696 19.1166 5.68891 19.0648C7.06078 19.0838 8.40356 19.4631 9.5826 20.1647C9.6629 20.2143 9.74752 20.2566 9.83543 20.2911C9.92586 20.3169 10.0195 20.3297 10.1136 20.329H10.1894C10.3221 20.3164 10.451 20.2778 10.5687 20.2152H10.6445C11.8196 19.4981 13.1621 19.1014 14.5382 19.0648C16.0302 19.1166 17.491 19.5056 18.8111 20.2026C18.9561 20.2834 19.1193 20.3258 19.2852 20.3258C19.4512 20.3258 19.6144 20.2834 19.7593 20.2026C19.9015 20.1176 20.0193 19.9972 20.1012 19.8533C20.1832 19.7093 20.2265 19.5465 20.227 19.3809V2.31437C20.2292 2.14668 20.1856 1.98158 20.101 1.8368C20.0163 1.69202 19.8938 1.57305 19.7466 1.49265Z" fill="#7D8592"/>
</svg>
