<svg width="23" height="24" viewBox="0 0 23 24" fill="none" xmlns="http://www.w3.org/2000/svg">
<path d="M21.0694 8.40794L12.3598 3.29194C12.2144 3.21221 12.0513 3.17041 11.8856 3.17041C11.7198 3.17041 11.5567 3.21221 11.4114 3.29194L2.6768 8.40794C2.53715 8.4908 2.42146 8.60857 2.34111 8.74968C2.26076 8.8908 2.21851 9.05038 2.21851 9.21277C2.21851 9.37515 2.26076 9.53474 2.34111 9.67585C2.42146 9.81696 2.53715 9.93474 2.6768 10.0176L11.4114 15.1211C11.5533 15.211 11.7177 15.2587 11.8856 15.2587C12.0535 15.2587 12.2179 15.211 12.3598 15.1211L21.0944 10.0176C21.2372 9.93728 21.3561 9.82041 21.4388 9.67897C21.5215 9.53753 21.5651 9.37663 21.5651 9.21277C21.5651 9.04891 21.5215 8.88801 21.4388 8.74657C21.3561 8.60513 21.2372 8.48825 21.0944 8.40794H21.0694Z" fill="#7D8592"/>
<path d="M11.8853 10.5615C11.6385 10.5615 11.3972 10.4883 11.192 10.3512C10.9868 10.2141 10.8269 10.0192 10.7324 9.79124C10.638 9.56323 10.6133 9.31234 10.6614 9.07029C10.7096 8.82824 10.8284 8.6059 11.0029 8.43139C11.1774 8.25688 11.3998 8.13804 11.6418 8.08989C11.8839 8.04175 12.1348 8.06646 12.3628 8.1609C12.5908 8.25535 12.7857 8.41528 12.9228 8.62048C13.0599 8.82568 13.1331 9.06693 13.1331 9.31372C13.1331 9.64466 13.0016 9.96204 12.7676 10.1961C12.5336 10.4301 12.2162 10.5615 11.8853 10.5615Z" fill="#CBD5F8"/>
<path d="M17.5006 13.1494L12.3597 16.1441C12.2151 16.2261 12.0517 16.2693 11.8855 16.2693C11.7193 16.2693 11.5559 16.2261 11.4113 16.1441L5.25583 12.5297C4.8765 12.3069 4.39869 12.5805 4.39869 13.0204V17.8287C4.39819 18.0062 4.4503 18.1798 4.54842 18.3278C4.62329 18.4401 6.44508 21.2601 11.8855 21.2601C17.3259 21.2601 19.1602 18.4401 19.2351 18.3278C19.3239 18.1764 19.3713 18.0042 19.3723 17.8287V13.0314C19.3723 12.5891 18.8898 12.3159 18.5106 12.5434L17.5006 13.1494Z" fill="#7D8592"/>
</svg>
