<svg width="21" height="24" viewBox="0 0 21 24" fill="none" xmlns="http://www.w3.org/2000/svg">
<path d="M13.9212 0.46582V6.81287C13.9201 7.36727 14.1379 7.89967 14.5272 8.29441C14.9284 8.68637 15.4648 8.90935 16.0256 8.91733H20.4871L13.9212 0.46582Z" fill="#7D8592"/>
<path d="M15.5408 10.7092C14.5069 10.6603 13.5315 10.2148 12.8175 9.46539C12.1035 8.71594 11.7057 7.72017 11.7069 6.68504V0.46582H1.09759C0.807693 0.46961 0.530734 0.586457 0.325727 0.791465C0.120719 0.996472 0.00387241 1.27343 8.23981e-05 1.56333V22.7819C-0.00246588 22.9871 0.0541412 23.1886 0.163135 23.3625C0.272128 23.5364 0.428894 23.6752 0.614688 23.7623C0.764767 23.8372 0.929855 23.8773 1.09759 23.8794C1.34236 23.8819 1.58036 23.7991 1.77073 23.6452L4.11209 21.8307C4.18276 21.8037 4.26092 21.8037 4.33159 21.8307C4.42277 21.8265 4.512 21.858 4.58036 21.9185L6.59978 23.6745C6.79788 23.8607 7.05955 23.9644 7.33145 23.9644C7.60335 23.9644 7.86502 23.8607 8.06312 23.6745L10.0386 21.9624C10.1067 21.9065 10.192 21.876 10.2801 21.876C10.3682 21.876 10.4535 21.9065 10.5215 21.9624L12.4824 23.6745C12.6805 23.8607 12.9422 23.9644 13.2141 23.9644C13.486 23.9644 13.7477 23.8607 13.9458 23.6745L15.9652 21.9185C16.0305 21.8626 16.1134 21.8315 16.1993 21.8307C16.2757 21.8079 16.3571 21.8079 16.4335 21.8307L18.7748 23.6452C18.9367 23.7549 19.1249 23.8193 19.32 23.8318C19.5151 23.8444 19.71 23.8046 19.8845 23.7165C20.0591 23.6285 20.207 23.4955 20.3129 23.3311C20.4188 23.1668 20.4789 22.9772 20.4869 22.7819V10.7092H15.5408Z" fill="#7D8592"/>
</svg>
