<svg width="21" height="17" viewBox="0 0 21 17" fill="none" xmlns="http://www.w3.org/2000/svg">
<path fill-rule="evenodd" clip-rule="evenodd" d="M20.7133 6.68148C20.427 6.2846 19.9681 6.04927 19.4793 6.04867H18.2529L18.2392 4.97546C18.2252 3.88096 17.3339 3.00105 16.2394 3.00105H10.4751C10.258 3.00105 10.0468 2.9304 9.87336 2.79977L7.6407 1.11788C7.2939 0.856628 6.8715 0.715332 6.43731 0.715332H2C0.895429 0.715332 0 1.61076 0 2.71533L0 14.7153C0 15.8199 0.895431 16.7153 2 16.7153H16.5968C17.458 16.7153 18.2224 16.1641 18.4944 15.3471L20.9223 8.05434C21.0763 7.58961 20.9986 7.07908 20.7133 6.68148ZM6.25749 2.23914C6.47416 2.23914 6.68496 2.30951 6.85818 2.43966L9.22784 4.22007C9.49148 4.41729 9.81152 4.52416 10.1405 4.52486H15.7318C16.2841 4.52486 16.7318 4.97257 16.7318 5.52486V6.04867H4.35086C3.69595 6.04807 3.11436 6.468 2.90782 7.09061L1.52108 11.2583V3.23914C1.52108 2.68686 1.96879 2.23914 2.52108 2.23914H6.25749Z" fill="#7D8592"/>
</svg>
