<svg width="99" height="100" viewBox="0 0 99 100" fill="none" xmlns="http://www.w3.org/2000/svg">
<rect y="0.136963" width="99" height="99" rx="10" fill="white" fill-opacity="0.2"/>
<path d="M49.5 15.512V32.5745C49.5 34.5139 50.2803 36.3738 51.6692 37.7452C53.0582 39.1165 54.942 39.887 56.9062 39.887H74.1875V76.4495C74.1875 78.3889 73.4072 80.2488 72.0183 81.6202C70.6293 82.9915 68.7455 83.762 66.7812 83.762H44.444C44.523 83.372 44.5625 82.9657 44.5625 82.5432V67.4063C47.3607 64.277 49.0681 60.3437 49.4333 56.1849C49.7986 52.0261 48.8025 47.8613 46.5916 44.3032C44.3807 40.745 41.0716 37.9813 37.1512 36.4184C33.2307 34.8556 28.9058 34.5762 24.8125 35.6213V22.8245C24.8125 20.8851 25.5928 19.0251 26.9817 17.6537C28.3707 16.2824 30.2545 15.512 32.2188 15.512H49.5ZM54.4375 16.7307V32.5745C54.4375 33.2209 54.6976 33.8409 55.1606 34.298C55.6236 34.7552 56.2515 35.012 56.9062 35.012H72.9531L54.4375 16.7307ZM44.5625 54.512C44.5625 56.4325 44.1794 58.3343 43.435 60.1087C42.6906 61.8831 41.5995 63.4953 40.224 64.8534C38.8486 66.2115 37.2156 67.2887 35.4185 68.0237C33.6214 68.7587 31.6952 69.137 29.75 69.137C27.8048 69.137 25.8786 68.7587 24.0815 68.0237C22.2844 67.2887 20.6514 66.2115 19.276 64.8534C17.9005 63.4953 16.8094 61.8831 16.065 60.1087C15.3206 58.3343 14.9375 56.4325 14.9375 54.512C14.9375 50.6332 16.4981 46.9132 19.276 44.1705C22.0539 41.4278 25.8215 39.887 29.75 39.887C33.6785 39.887 37.4461 41.4278 40.224 44.1705C43.0019 46.9132 44.5625 50.6332 44.5625 54.512ZM39.625 71.399C36.6227 73.1106 33.2169 74.0118 29.75 74.012C26.2836 74.0133 22.8778 73.1138 19.875 71.4038V82.5481C19.8756 82.7632 19.9339 82.9742 20.0439 83.1599C20.1539 83.3455 20.3117 83.4991 20.5012 83.605C20.6908 83.711 20.9054 83.7655 21.1232 83.7631C21.341 83.7607 21.5543 83.7015 21.7414 83.5913L29.75 78.887L37.7586 83.5913C37.9461 83.7017 38.1598 83.7609 38.3781 83.7631C38.5963 83.7653 38.8112 83.7104 39.0009 83.6038C39.1906 83.4973 39.3483 83.343 39.4579 83.1567C39.5676 82.9704 39.6252 82.7587 39.625 82.5432V71.399Z" fill="white"/>
</svg>
