<svg width="99" height="100" viewBox="0 0 99 100" fill="none" xmlns="http://www.w3.org/2000/svg">
<rect y="0.136963" width="99" height="99" rx="10" fill="white" fill-opacity="0.2"/>
<path fill-rule="evenodd" clip-rule="evenodd" d="M55.5078 18.479H38.9203C38.396 21.0452 37.1273 23.4009 35.272 25.2528C33.4168 27.1048 31.057 28.3712 28.4862 28.8946V31.2092C31.057 31.7325 33.4168 32.999 35.272 34.8509C37.1273 36.7029 38.396 39.0585 38.9203 41.6248H55.5078C56.0321 39.0585 57.3008 36.7029 59.156 34.8509C61.0112 32.999 63.3711 31.7325 65.9419 31.2092V28.8946C63.3711 28.3712 61.0112 27.1048 59.156 25.2528C57.3008 23.4009 56.0321 21.0452 55.5078 18.479ZM57.6659 13.1484C56.6862 13.1389 55.6422 13.1353 54.5339 13.1377H39.8941C38.7859 13.1377 37.7431 13.1412 36.7657 13.1484C36.5707 13.1359 36.375 13.1395 36.1806 13.159C34.5683 13.1875 33.1378 13.2552 31.8964 13.4225C29.6562 13.7217 27.6336 14.384 26.0105 16.0042C24.3839 17.628 23.7204 19.647 23.4207 21.8796C23.2531 23.1224 23.1853 24.5503 23.1568 26.1598C23.1374 26.3527 23.1338 26.5468 23.1461 26.7403C23.1366 27.7207 23.133 28.7628 23.1354 29.8667V30.237C23.1354 31.3409 23.1389 32.3831 23.1461 33.3635C23.1338 33.5569 23.1374 33.7511 23.1568 33.9439C23.1853 35.557 23.2531 36.9814 23.4207 38.2205C23.7204 40.4568 24.3839 42.4758 26.0105 44.096C27.6336 45.7198 29.6562 46.3821 31.8964 46.6812C33.1378 46.8486 34.5683 46.9162 36.1806 46.9447C36.375 46.9643 36.5707 46.9678 36.7657 46.9554C37.7431 46.9649 38.7859 46.9684 39.8941 46.9661H54.5339C55.6398 46.9661 56.6838 46.9625 57.6659 46.9554C57.8597 46.9676 58.0542 46.9641 58.2474 46.9447C59.8633 46.9162 61.2938 46.8486 62.5316 46.6812C64.7718 46.3821 66.7944 45.7198 68.4175 44.096C70.0442 42.4758 70.7077 40.4568 71.0073 38.2205C71.1734 36.8009 71.2615 35.3732 71.2713 33.9439C71.2907 33.7511 71.2942 33.5569 71.282 33.3635C71.2915 32.3831 71.2951 31.3409 71.2927 30.237V29.8667C71.2927 28.7628 71.2891 27.7207 71.282 26.7403C71.2942 26.5468 71.2907 26.3527 71.2713 26.1598C71.2615 24.7305 71.1734 23.3029 71.0073 21.8832C70.7077 19.647 70.0442 17.628 68.4211 16.0077C66.7944 14.384 64.7718 13.7217 62.5352 13.4225C61.1118 13.2566 59.6804 13.1687 58.2474 13.159C58.0542 13.1397 57.8597 13.1361 57.6659 13.1484ZM61.1047 18.6357C61.5092 19.7007 62.1356 20.6678 62.9424 21.4732C63.7492 22.2785 64.718 22.9038 65.7849 23.3076C65.7624 23.0696 65.735 22.8322 65.7029 22.5954C65.4853 20.9503 65.1 20.2452 64.6327 19.7823C64.1654 19.3194 63.4662 18.9384 61.8217 18.714C61.5845 18.6831 61.3466 18.657 61.1083 18.6357M65.7885 36.7962C64.7216 37.2 63.7527 37.8252 62.9459 38.6306C62.1392 39.4359 61.5128 40.4031 61.1083 41.4681C61.358 41.4443 61.5958 41.4182 61.8217 41.3897C63.4698 41.1654 64.1761 40.7844 64.6398 40.3215C65.1036 39.8585 65.4888 39.1535 65.71 37.5084C65.7385 37.2828 65.7647 37.0455 65.7885 36.7962ZM33.3269 41.4681C32.9224 40.4031 32.296 39.4359 31.4892 38.6306C30.6824 37.8252 29.7136 37.2 28.6467 36.7962C28.6705 37.0455 28.6978 37.2828 28.7288 37.5084C28.9499 39.1535 29.3316 39.8585 29.7989 40.3215C30.2662 40.7844 30.9654 41.1654 32.6099 41.3897C32.8382 41.4182 33.0772 41.4443 33.3269 41.4681ZM28.6467 23.3076C29.7136 22.9038 30.6824 22.2785 31.4892 21.4732C32.296 20.6678 32.9224 19.7007 33.3269 18.6357C33.0772 18.6594 32.8394 18.6867 32.6134 18.7176C30.9654 18.9384 30.2591 19.3194 29.7953 19.7858C29.3316 20.2523 28.9499 20.9503 28.7252 22.5918L28.6467 23.3076ZM47.214 29.1617C46.9775 29.1617 46.7507 29.2554 46.5834 29.4224C46.4162 29.5893 46.3222 29.8158 46.3222 30.0519C46.3222 30.288 46.4162 30.5144 46.5834 30.6814C46.7507 30.8483 46.9775 30.9421 47.214 30.9421C47.4505 30.9421 47.6774 30.8483 47.8446 30.6814C48.0119 30.5144 48.1058 30.288 48.1058 30.0519C48.1058 29.8158 48.0119 29.5893 47.8446 29.4224C47.6774 29.2554 47.4505 29.1617 47.214 29.1617ZM40.9714 30.0519C40.9714 28.3992 41.6291 26.8141 42.7998 25.6455C43.9705 24.4769 45.5584 23.8203 47.214 23.8203C48.8697 23.8203 50.4575 24.4769 51.6282 25.6455C52.7989 26.8141 53.4566 28.3992 53.4566 30.0519C53.4566 31.7046 52.7989 33.2896 51.6282 34.4582C50.4575 35.6269 48.8697 36.2834 47.214 36.2834C45.5584 36.2834 43.9705 35.6269 42.7998 34.4582C41.6291 33.2896 40.9714 31.7046 40.9714 30.0519ZM35.3852 56.5733C42.0416 55.2879 49.1653 55.5763 54.9335 59.009C55.7397 59.4897 56.503 60.0915 57.163 60.8322C58.5042 62.3384 59.1963 64.2043 59.2284 66.0773C59.9085 65.6358 60.5946 65.1527 61.2867 64.6281L67.7362 59.7675C69.352 58.5837 71.3039 57.9454 73.3082 57.9454C75.3124 57.9454 77.2644 58.5837 78.8801 59.7675C81.8588 62.0108 83.0502 66.0453 80.9134 69.4637C79.3974 71.8887 77.1144 75.2466 74.7885 77.3974C72.4342 79.5695 69.0917 81.3998 66.5626 82.6176C63.4876 84.099 60.1701 84.918 56.9418 85.4379C50.3425 86.5061 43.4792 86.3423 36.9583 84.9999C33.5955 84.3097 30.1714 83.9601 26.7382 83.9565H18.6764C17.9668 83.9565 17.2863 83.6752 16.7846 83.1743C16.2828 82.6735 16.001 81.9942 16.001 81.2859C16.001 80.5776 16.2828 79.8983 16.7846 79.3974C17.2863 78.8966 17.9668 78.6152 18.6764 78.6152H26.7382C30.5266 78.6152 34.3542 79.0105 38.0392 79.7689C43.9827 80.9864 50.0979 81.1203 56.0892 80.1642C59.0429 79.687 61.8039 78.9784 64.2367 77.8069C66.6731 76.6318 69.4128 75.0864 71.15 73.4804C72.9086 71.8531 74.8742 69.0364 76.3759 66.6364C76.829 65.91 76.7648 64.8666 75.6554 64.0298C74.3355 63.0328 72.2772 63.0328 70.9609 64.0298L64.515 68.8904C61.9395 70.8311 58.7718 72.9071 54.8443 73.5338C54.4328 73.5988 54.0201 73.6558 53.6065 73.7048C53.4019 73.7404 53.1891 73.7641 52.9679 73.776C50.676 73.998 48.368 73.998 46.0761 73.776C45.7208 73.7503 45.3742 73.654 45.0566 73.4928C44.7391 73.3316 44.457 73.1087 44.2269 72.8372C43.9968 72.5657 43.8234 72.251 43.7167 71.9117C43.6101 71.5724 43.5724 71.2152 43.6059 70.8612C43.6394 70.5072 43.7434 70.1634 43.9118 69.85C44.0802 69.5366 44.3096 69.2599 44.5865 69.0362C44.8635 68.8125 45.1824 68.6463 45.5245 68.5473C45.8667 68.4482 46.2252 68.4184 46.5791 68.4596C48.558 68.6507 50.5509 68.6472 52.5292 68.4489L52.6362 68.4382C52.969 68.232 53.2518 67.9547 53.4643 67.6262C53.6767 67.2976 53.8134 66.9262 53.8646 66.5385C53.9158 66.1508 53.8802 65.7567 53.7603 65.3844C53.6404 65.0122 53.4392 64.6712 53.1713 64.3859C52.8851 64.0755 52.5546 63.8091 52.1903 63.5954C47.9774 61.085 42.3484 60.6684 36.4018 61.815C30.5928 62.979 25.0861 65.3245 20.2245 68.7053C19.9378 68.9082 19.6139 69.0528 19.2712 69.1308C18.9286 69.2088 18.5739 69.2186 18.2274 69.1598C17.8809 69.1009 17.5494 68.9745 17.2519 68.7878C16.9543 68.601 16.6965 68.3576 16.4932 68.0714C16.2899 67.7853 16.1451 67.4619 16.0669 67.1198C15.9888 66.7778 15.979 66.4237 16.0379 66.0778C16.157 65.3793 16.5492 64.7566 17.1282 64.3468C22.6121 60.5273 28.8279 57.8808 35.3852 56.5733Z" fill="white"/>
</svg>
