<svg width="99" height="100" viewBox="0 0 99 100" fill="none" xmlns="http://www.w3.org/2000/svg">
<rect y="0.136963" width="99" height="99" rx="10" fill="white" fill-opacity="0.2"/>
<path d="M45.5556 29.5094H55.8888L67.2208 18.1547C67.541 17.8322 67.922 17.5763 68.3417 17.4016C68.7614 17.2269 69.2116 17.137 69.6663 17.137C70.121 17.137 70.5712 17.2269 70.991 17.4016C71.4107 17.5763 71.7917 17.8322 72.1119 18.1547L80.9984 27.0664C81.6399 27.7111 82 28.5832 82 29.4922C82 30.4012 81.6399 31.2733 80.9984 31.9179L73.1107 39.8318H45.5556V46.7134C45.5556 47.6259 45.1927 48.5011 44.5468 49.1464C43.9008 49.7917 43.0247 50.1542 42.1112 50.1542C41.1977 50.1542 40.3216 49.7917 39.6757 49.1464C39.0297 48.5011 38.6668 47.6259 38.6668 46.7134V36.391C38.6668 34.5659 39.3926 32.8155 40.6845 31.525C41.9764 30.2344 43.7286 29.5094 45.5556 29.5094ZM24.8893 46.7134V60.4766L17.0016 68.356C16.3601 69.0007 16 69.8727 16 70.7818C16 71.6908 16.3601 72.5628 17.0016 73.2075L25.8881 82.1192C26.2083 82.4417 26.5893 82.6977 27.009 82.8723C27.4287 83.047 27.879 83.137 28.3337 83.137C28.7884 83.137 29.2386 83.047 29.6583 82.8723C30.078 82.6977 30.459 82.4417 30.7792 82.1192L45.5556 67.3582H59.3332C60.2467 67.3582 61.1228 66.9956 61.7687 66.3504C62.4147 65.7051 62.7776 64.8299 62.7776 63.9174V60.4766H66.222C67.1355 60.4766 68.0116 60.114 68.6575 59.4688C69.3035 58.8235 69.6663 57.9483 69.6663 57.0358V53.595H73.1107C74.0243 53.595 74.9003 53.2325 75.5463 52.5872C76.1922 51.9419 76.5551 51.0667 76.5551 50.1542V46.7134H52.4444V50.1542C52.4444 51.9793 51.7186 53.7296 50.4267 55.0202C49.1348 56.3107 47.3826 57.0358 45.5556 57.0358H38.6668C36.8398 57.0358 35.0876 56.3107 33.7957 55.0202C32.5038 53.7296 31.778 51.9793 31.778 50.1542V39.8318L24.8893 46.7134Z" fill="#F0F1F6"/>
</svg>
