<svg width="99" height="100" viewBox="0 0 99 100" fill="none" xmlns="http://www.w3.org/2000/svg">
<rect y="0.136963" width="99" height="99" rx="10" fill="white" fill-opacity="0.2"/>
<path d="M34.8984 16.8245L32.5547 19.1682V26.326C34.1125 26.1557 35.6843 26.1557 37.2422 26.326V21.512H79.4297V44.9495H71.4281L65.3672 51.0104V44.9495H55.8656C56.036 46.5073 56.036 48.0791 55.8656 49.637H60.6797V56.6682L64.6828 58.3276L73.3687 49.637H81.7734L84.1172 47.2932V19.1682L81.7734 16.8245H34.8984Z" fill="white"/>
<path fill-rule="evenodd" clip-rule="evenodd" d="M43.8844 61.0229C46.8403 59.0879 49.0925 56.2504 50.3062 52.9325C51.5199 49.6145 51.6301 45.9935 50.6205 42.6079C49.6109 39.2223 47.5353 36.2531 44.7026 34.1418C41.8699 32.0306 38.4314 30.8901 34.8984 30.8901C31.3655 30.8901 27.927 32.0306 25.0942 34.1418C22.2615 36.2531 20.186 39.2223 19.1764 42.6079C18.1668 45.9935 18.277 49.6145 19.4907 52.9325C20.7043 56.2504 22.9566 59.0879 25.9125 61.0229C22.2921 62.7277 19.2312 65.4271 17.0873 68.806C14.9434 72.185 13.8049 76.104 13.8047 80.1057L13.8047 82.4495H18.4922V80.1057C18.6361 75.8505 20.4276 71.8177 23.4886 68.8584C26.5497 65.8991 30.6408 64.2448 34.8984 64.2448C39.1561 64.2448 43.2472 65.8991 46.3082 68.8584C49.3693 71.8177 51.1608 75.8505 51.3047 80.1057V82.4495H55.9922V80.1057C55.992 76.104 54.8534 72.185 52.7095 68.806C50.5656 65.4271 47.5048 62.7277 43.8844 61.0229ZM34.8984 59.012C31.7904 59.012 28.8097 57.7773 26.612 55.5797C24.4143 53.382 23.1797 50.4012 23.1797 47.2932C23.1797 44.1852 24.4143 41.2045 26.612 39.0068C28.8097 36.8091 31.7904 35.5745 34.8984 35.5745C38.0064 35.5745 40.9872 36.8091 43.1848 39.0068C45.3825 41.2045 46.6172 44.1852 46.6172 47.2932C46.6172 50.4012 45.3825 53.382 43.1848 55.5797C40.9872 57.7773 38.0064 59.012 34.8984 59.012Z" fill="white"/>
</svg>
