<svg width="102" height="102" viewBox="0 0 102 102" fill="none" xmlns="http://www.w3.org/2000/svg">
<path d="M28.6875 6.375L25.5 9.5625V19.2971C27.6187 19.0655 29.7563 19.0655 31.875 19.2971V12.75H89.25V44.625H78.3679L70.125 52.8679V44.625H57.2029C57.4345 46.7437 57.4345 48.8813 57.2029 51H63.75V60.5625L69.1943 62.8193L81.0071 51H92.4375L95.625 47.8125V9.5625L92.4375 6.375H28.6875Z" fill="#EEE9DF"/>
<path fill-rule="evenodd" clip-rule="evenodd" d="M40.9084 66.485C44.9284 63.8533 47.9915 59.9943 49.6421 55.482C51.2927 50.9696 51.4426 46.045 50.0695 41.4405C48.6964 36.8361 45.8737 32.798 42.0212 29.9267C38.1687 27.0554 33.4923 25.5044 28.6875 25.5044C23.8827 25.5044 19.2063 27.0554 15.3538 29.9267C11.5013 32.798 8.67859 36.8361 7.3055 41.4405C5.93242 46.045 6.08232 50.9696 7.73292 55.482C9.38352 59.9943 12.4466 63.8533 16.4666 66.485C11.5428 68.8034 7.38011 72.4746 4.4644 77.07C1.54869 81.6654 0.00030747 86.9953 0 92.4376L0 95.6251H6.375V92.4376C6.57067 86.6505 9.00714 81.1658 13.1702 77.1412C17.3332 73.1165 22.8971 70.8668 28.6875 70.8668C34.4779 70.8668 40.0418 73.1165 44.2048 77.1412C48.3679 81.1658 50.8043 86.6505 51 92.4376V95.6251H57.375V92.4376C57.3747 86.9953 55.8263 81.6654 52.9106 77.07C49.9949 72.4746 45.8322 68.8034 40.9084 66.485ZM28.6875 63.7501C24.4606 63.7501 20.4068 62.071 17.418 59.0821C14.4291 56.0933 12.75 52.0395 12.75 47.8126C12.75 43.5857 14.4291 39.532 17.418 36.5431C20.4068 33.5542 24.4606 31.8751 28.6875 31.8751C32.9144 31.8751 36.9682 33.5542 39.957 36.5431C42.9459 39.532 44.625 43.5857 44.625 47.8126C44.625 52.0395 42.9459 56.0933 39.957 59.0821C36.9682 62.071 32.9144 63.7501 28.6875 63.7501Z" fill="#EEE9DF"/>
</svg>
