<svg width="115" height="115" viewBox="0 0 115 115" fill="none" xmlns="http://www.w3.org/2000/svg">
<path d="M51.5418 21.75H69.4168L89.0197 2.08754C89.5736 1.52907 90.2326 1.08581 90.9587 0.78331C91.6847 0.480814 92.4635 0.325073 93.2501 0.325073C94.0367 0.325073 94.8155 0.480814 95.5415 0.78331C96.2676 1.08581 96.9266 1.52907 97.4805 2.08754L112.853 17.5196C113.963 18.636 114.586 20.1461 114.586 21.7202C114.586 23.2944 113.963 24.8045 112.853 25.9209L99.2085 39.625H51.5418V51.5417C51.5418 53.122 50.914 54.6375 49.7966 55.7549C48.6792 56.8723 47.1637 57.5 45.5834 57.5C44.0032 57.5 42.4877 56.8723 41.3703 55.7549C40.2529 54.6375 39.6251 53.122 39.6251 51.5417V33.6667C39.6251 30.5062 40.8806 27.4752 43.1154 25.2403C45.3502 23.0055 48.3813 21.75 51.5418 21.75ZM15.7918 51.5417V75.375L2.14719 89.0196C1.03745 90.136 0.414551 91.6461 0.414551 93.2203C0.414551 94.7944 1.03745 96.3045 2.14719 97.4209L17.5197 112.853C18.0736 113.411 18.7326 113.855 19.4587 114.157C20.1847 114.46 20.9635 114.615 21.7501 114.615C22.5367 114.615 23.3155 114.46 24.0415 114.157C24.7676 113.855 25.4266 113.411 25.9805 112.853L51.5418 87.2917H75.3751C76.9554 87.2917 78.4709 86.664 79.5883 85.5466C80.7057 84.4292 81.3334 82.9136 81.3334 81.3334V75.375H87.2918C88.872 75.375 90.3876 74.7473 91.505 73.6299C92.6224 72.5125 93.2501 70.997 93.2501 69.4167V63.4584H99.2085C100.789 63.4584 102.304 62.8306 103.422 61.7132C104.539 60.5958 105.167 59.0803 105.167 57.5V51.5417H63.4584V57.5C63.4584 60.6605 62.2029 63.6916 59.9681 65.9264C57.7333 68.1612 54.7023 69.4167 51.5418 69.4167H39.6251C36.4646 69.4167 33.4336 68.1612 31.1988 65.9264C28.9639 63.6916 27.7084 60.6605 27.7084 57.5V39.625L15.7918 51.5417Z" fill="#EEE9DF"/>
</svg>
