<svg width="99" height="100" viewBox="0 0 99 100" fill="none" xmlns="http://www.w3.org/2000/svg">
<rect y="0.136963" width="99" height="99" rx="10" fill="white" fill-opacity="0.2"/>
<path d="M29.0775 40.887V17.5537H71.375L81.5833 27.762V81.7204H61.1667M67 17.5537V32.137H81.5833M40.75 55.4704V46.7204M40.75 55.4704C43.0706 55.4704 45.2962 56.3922 46.9372 58.0332C48.5781 59.6741 49.5 61.8997 49.5 64.2204M40.75 55.4704C38.4294 55.4704 36.2038 56.3922 34.5628 58.0332C32.9219 59.6741 32 61.8997 32 64.2204M40.75 72.9704C43.0706 72.9704 45.2962 72.0485 46.9372 70.4076C48.5781 68.7666 49.5 66.541 49.5 64.2204M40.75 72.9704C38.4294 72.9704 36.2038 72.0485 34.5628 70.4076C32.9219 68.7666 32 66.541 32 64.2204M40.75 72.9704V81.7204M49.5 64.2204H58.25M32 64.2204H23.25M29.0833 52.5537L34.9167 58.387M46.5833 70.0537L52.4167 75.887M52.4167 52.5537L46.5833 58.387M34.9167 70.0537L29.0833 75.887" stroke="white" stroke-width="8"/>
</svg>
