<svg width="120" height="120" viewBox="0 0 120 120" fill="none" xmlns="http://www.w3.org/2000/svg">
<path d="M60 7.5V33.75C60 36.7337 61.1853 39.5952 63.295 41.705C65.4048 43.8147 68.2663 45 71.25 45H97.5V101.25C97.5 104.234 96.3147 107.095 94.205 109.205C92.0952 111.315 89.2337 112.5 86.25 112.5H52.32C52.44 111.9 52.5 111.275 52.5 110.625V87.3375C56.7505 82.5232 59.3439 76.4719 59.8987 70.0738C60.4535 63.6756 58.9405 57.2683 55.5821 51.7942C52.2238 46.3201 47.1974 42.0682 41.2423 39.6638C35.2872 37.2595 28.7176 36.8296 22.5 38.4375V18.75C22.5 15.7663 23.6853 12.9048 25.795 10.795C27.9048 8.68526 30.7663 7.5 33.75 7.5H60ZM67.5 9.375V33.75C67.5 34.7446 67.8951 35.6984 68.5983 36.4017C69.3016 37.1049 70.2554 37.5 71.25 37.5H95.625L67.5 9.375ZM52.5 67.5C52.5 70.4547 51.918 73.3806 50.7873 76.1104C49.6566 78.8402 47.9992 81.3206 45.9099 83.4099C43.8206 85.4992 41.3402 87.1566 38.6104 88.2873C35.8806 89.418 32.9547 90 30 90C27.0453 90 24.1194 89.418 21.3896 88.2873C18.6598 87.1566 16.1794 85.4992 14.0901 83.4099C12.0008 81.3206 10.3434 78.8402 9.21271 76.1104C8.08198 73.3806 7.5 70.4547 7.5 67.5C7.5 61.5326 9.87053 55.8097 14.0901 51.5901C18.3097 47.3705 24.0326 45 30 45C35.9674 45 41.6903 47.3705 45.9099 51.5901C50.1295 55.8097 52.5 61.5326 52.5 67.5ZM45 93.48C40.4395 96.1133 35.2662 97.4998 30 97.5C24.7345 97.5021 19.5612 96.1182 15 93.4875V110.633C15.001 110.963 15.0895 111.288 15.2566 111.574C15.4237 111.859 15.6633 112.096 15.9512 112.259C16.2392 112.422 16.5651 112.505 16.896 112.502C17.2268 112.498 17.5508 112.407 17.835 112.238L30 105L42.165 112.238C42.4498 112.407 42.7744 112.498 43.1059 112.502C43.4374 112.505 43.7639 112.421 44.052 112.257C44.3402 112.093 44.5797 111.855 44.7462 111.569C44.9128 111.282 45.0003 110.957 45 110.625V93.48Z" fill="#EEE9DF"/>
</svg>
