<svg width="106" height="106" viewBox="0 0 106 106" fill="none" xmlns="http://www.w3.org/2000/svg">
<path d="M22.0745 39.7501V4.41675H86.125L101.583 19.8751V101.583H70.6667M79.5 4.41675V26.5001H101.583M39.75 61.8334V48.5834M39.75 61.8334C43.2641 61.8334 46.6343 63.2294 49.1192 65.7142C51.604 68.1991 53 71.5693 53 75.0834M39.75 61.8334C36.2359 61.8334 32.8657 63.2294 30.3808 65.7142C27.896 68.1991 26.5 71.5693 26.5 75.0834M39.75 88.3334C43.2641 88.3334 46.6343 86.9374 49.1192 84.4526C51.604 81.9677 53 78.5975 53 75.0834M39.75 88.3334C36.2359 88.3334 32.8657 86.9374 30.3808 84.4526C27.896 81.9677 26.5 78.5975 26.5 75.0834M39.75 88.3334V101.583M53 75.0834H66.25M26.5 75.0834H13.25M22.0833 57.4167L30.9167 66.2501M48.5833 83.9167L57.4167 92.7501M57.4167 57.4167L48.5833 66.2501M30.9167 83.9167L22.0833 92.7501" stroke="#EEE9DF" stroke-width="8"/>
</svg>
