<svg width="99" height="100" viewBox="0 0 99 100" fill="none" xmlns="http://www.w3.org/2000/svg">
<rect y="0.136963" width="99" height="99" rx="10" fill="white" fill-opacity="0.2"/>
<path d="M49.5 71.512C54.6777 71.512 58.875 67.3146 58.875 62.137C58.875 56.9593 54.6777 52.762 49.5 52.762C44.3223 52.762 40.125 56.9593 40.125 62.137C40.125 67.3146 44.3223 71.512 49.5 71.512Z" stroke="white" stroke-width="4"/>
<path d="M40.4784 62.012L37.2284 65.262L32.6097 69.6901C31.5972 70.662 31.0909 71.1463 30.9159 71.5588C30.7192 71.9976 30.6934 72.494 30.8437 72.9507C30.994 73.4074 31.3096 73.7915 31.7284 74.0276C32.1097 74.2432 32.8003 74.3088 34.1753 74.4463C34.9503 74.5213 35.3409 74.5588 35.6659 74.6745C36.0191 74.7971 36.3416 74.9947 36.6112 75.2536C36.8809 75.5125 37.0915 75.8266 37.2284 76.1745C37.3503 76.487 37.3909 76.8588 37.4691 77.6057C37.6097 78.9245 37.6816 79.5838 37.9066 79.9495C38.4191 80.7838 39.5034 81.112 40.4816 80.7307C40.9097 80.5588 41.4159 80.0745 42.4284 79.1057L49.5003 72.3245L56.5722 79.1057C57.5847 80.0745 58.0909 80.5588 58.5191 80.7307C59.4972 81.112 60.5816 80.7838 61.0941 79.9495C61.3191 79.5838 61.3909 78.9245 61.5316 77.6057C61.6097 76.8588 61.6503 76.487 61.7722 76.1745C61.9091 75.8266 62.1197 75.5125 62.3894 75.2536C62.6591 74.9947 62.9815 74.7971 63.3347 74.6745C63.6628 74.5588 64.0503 74.5213 64.8253 74.4463C66.2003 74.312 66.8909 74.2432 67.2722 74.0276C67.691 73.7915 68.0066 73.4074 68.1569 72.9507C68.3072 72.494 68.2815 71.9976 68.0847 71.5588C67.9097 71.1463 67.4034 70.662 66.3909 69.6901L61.7691 65.262L58.8753 62.3651" stroke="white" stroke-width="4"/>
<path d="M66.125 68.3745C72.2875 68.3088 75.725 67.9213 78.0031 65.6401C80.75 62.8963 80.75 58.4745 80.75 49.637V37.137C80.75 28.2995 80.75 23.8776 78.0031 21.1338C75.2594 18.387 70.8375 18.387 62 18.387H37C28.1625 18.387 23.7406 18.387 20.9969 21.1338C18.25 23.8776 18.25 28.2995 18.25 37.137V49.637C18.25 58.4745 18.25 62.8963 20.9969 65.6401C23.3969 68.0432 27.0781 68.3432 33.875 68.3807" stroke="white" stroke-width="4"/>
<path d="M40.125 30.887H58.875M33.875 41.8245H65.125" stroke="white" stroke-width="4" stroke-linecap="round"/>
</svg>
