<svg width="32" height="33" viewBox="0 0 32 33" fill="none" xmlns="http://www.w3.org/2000/svg">
<path d="M16 0.691681C24.7448 0.691681 31.8333 7.78027 31.8333 16.525C31.8333 25.2698 24.7448 32.3584 16 32.3584C7.25526 32.3584 0.166672 25.2698 0.166672 16.525C0.166672 7.78027 7.25526 0.691681 16 0.691681ZM16 3.85835C12.6406 3.85835 9.41878 5.19287 7.04332 7.56833C4.66786 9.94379 3.33334 13.1656 3.33334 16.525C3.33334 19.8844 4.66786 23.1062 7.04332 25.4817C9.41878 27.8572 12.6406 29.1917 16 29.1917C19.3594 29.1917 22.5812 27.8572 24.9567 25.4817C27.3322 23.1062 28.6667 19.8844 28.6667 16.525C28.6667 13.1656 27.3322 9.94379 24.9567 7.56833C22.5812 5.19287 19.3594 3.85835 16 3.85835ZM16 7.02501C16.3878 7.02507 16.7621 7.16745 17.0519 7.42515C17.3417 7.68285 17.5269 8.03795 17.5723 8.4231L17.5833 8.60835V15.8695L21.8694 20.1556C22.1534 20.4405 22.3183 20.8229 22.3305 21.225C22.3428 21.627 22.2016 22.0187 21.9355 22.3205C21.6695 22.6222 21.2986 22.8113 20.8981 22.8495C20.4976 22.8876 20.0977 22.7719 19.7794 22.5258L19.6306 22.3944L14.8806 17.6444C14.6345 17.3981 14.4765 17.0776 14.4309 16.7324L14.4167 16.525V8.60835C14.4167 8.18842 14.5835 7.7857 14.8804 7.48876C15.1774 7.19183 15.5801 7.02501 16 7.02501Z" fill="#7D8592"/>
</svg>
