<svg width="100" height="332" viewBox="0 0 100 332" fill="none" xmlns="http://www.w3.org/2000/svg">
<path fill-rule="evenodd" clip-rule="evenodd" d="M50 331.5C47.2386 331.5 45 329.261 45 326.5L45 5.0708C45 2.30938 47.2386 0.0708004 50 0.0708006C52.7614 0.0708007 55 2.30938 55 5.0708L55 326.5C55 329.261 52.7614 331.5 50 331.5Z" fill="#134283"/>
<g filter="url(#filter0_d_1764_11487)">
<circle cx="50" cy="65.8135" r="23.5571" transform="rotate(90 50 65.8135)" fill="#FF662C"/>
<circle cx="50" cy="65.8135" r="24.5671" transform="rotate(90 50 65.8135)" stroke="#F2F2F2" stroke-width="2.01985"/>
</g>
<g filter="url(#filter1_d_1764_11487)">
<circle cx="50" cy="253.215" r="23.5571" transform="rotate(90 50 253.215)" fill="#FF662C"/>
<circle cx="50" cy="253.215" r="24.5671" transform="rotate(90 50 253.215)" stroke="#F2F2F2" stroke-width="2.01985"/>
</g>
<defs>
<filter id="filter0_d_1764_11487" x="0.184931" y="24.0776" width="99.6301" height="99.6306" filterUnits="userSpaceOnUse" color-interpolation-filters="sRGB">
<feFlood flood-opacity="0" result="BackgroundImageFix"/>
<feColorMatrix in="SourceAlpha" type="matrix" values="0 0 0 0 0 0 0 0 0 0 0 0 0 0 0 0 0 0 127 0" result="hardAlpha"/>
<feOffset dy="8.07939"/>
<feGaussianBlur stdDeviation="12.1191"/>
<feComposite in2="hardAlpha" operator="out"/>
<feColorMatrix type="matrix" values="0 0 0 0 0 0 0 0 0 0 0 0 0 0 0 0 0 0 0.36 0"/>
<feBlend mode="normal" in2="BackgroundImageFix" result="effect1_dropShadow_1764_11487"/>
<feBlend mode="normal" in="SourceGraphic" in2="effect1_dropShadow_1764_11487" result="shape"/>
</filter>
<filter id="filter1_d_1764_11487" x="0.184931" y="211.479" width="99.6301" height="99.6306" filterUnits="userSpaceOnUse" color-interpolation-filters="sRGB">
<feFlood flood-opacity="0" result="BackgroundImageFix"/>
<feColorMatrix in="SourceAlpha" type="matrix" values="0 0 0 0 0 0 0 0 0 0 0 0 0 0 0 0 0 0 127 0" result="hardAlpha"/>
<feOffset dy="8.07939"/>
<feGaussianBlur stdDeviation="12.1191"/>
<feComposite in2="hardAlpha" operator="out"/>
<feColorMatrix type="matrix" values="0 0 0 0 0 0 0 0 0 0 0 0 0 0 0 0 0 0 0.36 0"/>
<feBlend mode="normal" in2="BackgroundImageFix" result="effect1_dropShadow_1764_11487"/>
<feBlend mode="normal" in="SourceGraphic" in2="effect1_dropShadow_1764_11487" result="shape"/>
</filter>
</defs>
</svg>
