<svg width="21" height="21" viewBox="0 0 21 21" fill="none" xmlns="http://www.w3.org/2000/svg">
<rect x="0.335449" y="0.697266" width="20" height="20" rx="10" fill="#FB998A"/>
<path fill-rule="evenodd" clip-rule="evenodd" d="M8.08156 6.97533C7.71797 6.61174 7.12847 6.61174 6.76488 6.97533C6.40129 7.33892 6.40129 7.92842 6.76488 8.29201L8.89964 10.4268L6.76488 12.5615C6.40129 12.9251 6.40129 13.5146 6.76488 13.8782C7.12847 14.2418 7.71797 14.2418 8.08156 13.8782L10.2163 11.7435L12.3511 13.8782C12.7147 14.2418 13.3042 14.2418 13.6678 13.8782C14.0314 13.5146 14.0314 12.9251 13.6678 12.5615L11.533 10.4268L13.6678 8.29201C14.0314 7.92842 14.0314 7.33892 13.6678 6.97533C13.3042 6.61174 12.7147 6.61174 12.3511 6.97533L10.2163 9.11009L8.08156 6.97533Z" fill="#EEE9DF"/>
</svg>
