<svg width="21" height="21" viewBox="0 0 21 21" fill="none" xmlns="http://www.w3.org/2000/svg">
<path d="M10.3352 0.950928C8.40756 0.950928 6.52321 1.52254 4.92043 2.59348C3.31766 3.66442 2.06844 5.18659 1.33077 6.9675C0.59309 8.74841 0.40008 10.7081 0.776145 12.5987C1.15221 14.4893 2.08046 16.2259 3.44351 17.589C4.80656 18.952 6.54319 19.8803 8.43379 20.2563C10.3244 20.6324 12.2841 20.4394 14.065 19.7017C15.8459 18.964 17.368 17.7148 18.439 16.112C19.5099 14.5093 20.0815 12.6249 20.0815 10.6973C20.0815 8.11237 19.0547 5.63336 17.2269 3.80556C15.3991 1.97777 12.9201 0.950928 10.3352 0.950928ZM14.916 7.94663L10.1078 14.6175C9.96457 14.8108 9.75556 14.9451 9.52016 14.9949C9.28477 15.0448 9.03926 15.0068 8.82994 14.8882L6.06848 13.2746C5.84445 13.1396 5.68323 12.9212 5.62027 12.6673C5.55732 12.4135 5.59778 12.145 5.73277 11.921C5.86776 11.6969 6.08621 11.5357 6.34007 11.4728C6.59393 11.4098 6.8624 11.4503 7.08643 11.5853L9.04652 12.7548L13.3782 6.80956C13.539 6.6485 13.751 6.54877 13.9776 6.52767C14.2042 6.50656 14.431 6.56541 14.6188 6.694C14.8065 6.82259 14.9434 7.01283 15.0056 7.23173C15.0677 7.45062 15.0514 7.68438 14.9593 7.89248L14.916 7.94663Z" fill="#5FE0BE"/>
</svg>
