<svg width="32" height="32" viewBox="0 0 32 32" fill="none" xmlns="http://www.w3.org/2000/svg">
<path d="M15.9994 0.166656C24.7441 0.166656 31.8327 7.25524 31.8327 16C31.8327 24.7447 24.7441 31.8333 15.9994 31.8333C7.2546 31.8333 0.166016 24.7447 0.166016 16C0.166016 7.25524 7.2546 0.166656 15.9994 0.166656ZM15.9994 3.33332C12.6399 3.33332 9.41812 4.66784 7.04266 7.0433C4.6672 9.41877 3.33268 12.6406 3.33268 16C3.33268 19.3594 4.6672 22.5812 7.04266 24.9567C9.41812 27.3321 12.6399 28.6667 15.9994 28.6667C19.3588 28.6667 22.5806 27.3321 24.956 24.9567C27.3315 22.5812 28.666 19.3594 28.666 16C28.666 12.6406 27.3315 9.41877 24.956 7.0433C22.5806 4.66784 19.3588 3.33332 15.9994 3.33332ZM15.9994 6.49999C16.3872 6.50004 16.7615 6.64242 17.0513 6.90012C17.3411 7.15782 17.5262 7.51293 17.5716 7.89807L17.5827 8.08332V15.3445L21.8688 19.6306C22.1527 19.9155 22.3176 20.2978 22.3299 20.6999C22.3422 21.102 22.2009 21.4937 21.9349 21.7954C21.6688 22.0972 21.2979 22.2863 20.8974 22.3245C20.497 22.3626 20.097 22.2469 19.7788 22.0008L19.6299 21.8694L14.8799 17.1194C14.6339 16.8731 14.4758 16.5526 14.4303 16.2074L14.416 16V8.08332C14.416 7.6634 14.5828 7.26067 14.8798 6.96374C15.1767 6.66681 15.5794 6.49999 15.9994 6.49999Z" fill="white"/>
</svg>
