<svg viewBox="0 0 151 143" fill="none" xmlns="http://www.w3.org/2000/svg">
<path d="M27.8135 37.9823C33.6548 37.0416 39.6298 40.9016 40.8183 46.632C42.3391 45.8932 43.9358 46.5347 45.5144 46.632C53.9242 28.6262 79.7026 24.0886 95.0049 35.8199C96.2006 32.1834 100.312 30.2552 104.036 30.7742C104.227 28.8748 106.409 27.999 107.287 26.4493C89.6657 11.9538 61.5898 12.2601 43.0146 25.0365C36.9855 27.8873 32.795 34.2629 27.8135 37.9823Z" fill="#35E4D6"/>
<path d="M65.0214 19.9619C61.4451 20.4449 66.4592 23.2777 65.0214 19.9619V19.9619Z" fill="#CAF8F6"/>
<path d="M75.1361 25.7284C76.1403 24.8237 76.6569 23.4975 75.4973 22.4847C72.7446 21.3566 72.5496 26.1356 75.1361 25.7284Z" fill="#F0D338"/>
<path d="M75.1421 25.7284C76.8905 25.7428 77.1362 22.9677 75.5033 22.4847C76.6629 23.4975 76.1463 24.8238 75.1421 25.7284Z" fill="#9ED27A"/>
<path d="M82.7268 23.9264C78.847 23.948 84.197 27.5088 82.7268 23.9264V23.9264Z" fill="#F1FDFC"/>
<path d="M107.293 26.4493C106.415 27.999 104.233 28.8748 104.041 30.7742C100.317 30.2552 96.206 32.1834 95.0103 35.8199C79.708 24.0886 53.9296 28.6262 45.5199 46.632C43.9412 46.5347 42.3445 45.8932 40.8237 46.632C39.6352 40.9016 33.6602 37.0416 27.8189 37.9823C24.0728 38.4436 19.9366 41.3197 19.149 45.1904C12.2023 44.1416 8.41648 55.0043 15.1754 57.8046C15.2946 57.8659 15.5041 58.0389 15.5366 58.165C23.9644 58.165 32.3959 58.165 40.8237 58.165C40.8237 59.0048 40.8237 59.8481 40.8237 60.6879C40.5058 65.7264 41.4631 70.4369 42.6299 75.1041C44.4434 79.0109 46.7661 82.9934 49.1323 86.6371C53.1927 90.4466 57.4698 93.9606 62.5272 95.9789C64.9403 97.6908 69.492 96.988 70.8069 99.2513C67.162 100.502 63.8819 101.832 60.963 98.2602C55.4685 94.1696 49.6344 90.3241 44.4361 85.9163C39.8917 83.2998 35.5387 79.8074 31.4313 76.5457C28.7906 75.4645 31.1568 71.2045 27.8189 70.7793C25.171 70.7793 22.5195 70.7793 19.8715 70.7793C18.9576 70.5522 19.1852 71.6911 19.149 72.2209C22.1221 72.6065 25.6695 71.4244 28.2705 72.8516C28.8954 75.8394 28.3644 79.1875 28.5414 82.3122C28.7328 83.0907 28.1404 83.8404 27.4577 84.1143C23.9933 84.7089 19.3369 84.7198 15.8978 84.1143C16.0676 83.4367 15.5149 82.3375 16.2591 81.9518C16.3422 81.8473 16.512 81.6707 16.6203 81.5914C18.8203 80.7661 21.7355 81.4581 24.2065 81.231C27.79 81.2743 28.1079 74.9023 24.9289 74.0229C19.8715 74.0229 14.8141 74.0229 9.7567 74.0229C8.52486 76.0123 12.1915 75.4033 13.3691 75.4645C17.0574 76.434 26.6665 72.7327 25.0084 79.1479C20.287 80.6291 14.5179 79.3713 9.39545 79.7894C8.29727 82.1248 12.6936 80.9643 14.0916 81.231C14.4456 88.6085 17.5523 95.3842 20.9553 101.774C19.6439 102.603 15.4102 101.9 13.0079 102.135C12.3721 102.315 12.7478 103.115 12.6467 103.576C16.2808 104.023 20.5543 102.628 23.7549 104.387C25.7923 106.304 27.9959 107.923 30.3476 109.343C29.3542 110.799 27.8875 112.172 27.8189 114.028C20.7205 113.091 18.9756 124.044 25.2902 126.282C34.3863 127.104 43.8617 126.415 53.106 126.642C57.7516 125.428 59.9299 128.037 62.5886 131.237C65.2582 133.919 68.8201 135.616 72.6132 135.652C73.8161 135.652 75.0227 135.652 76.2256 135.652C80.1632 135.865 83.5589 133.789 86.6114 131.598C89.3135 128.527 91.3292 125.262 96.094 126.642C105.284 125.99 115.211 127.99 123.91 125.561C126.901 123.683 127.912 119.03 125.626 116.281C122.877 114.06 120.521 112.749 119.214 109.343C123.422 107.389 126.034 102.019 131.496 103.576C133.338 103.075 138.706 104.838 137.998 102.135C136.192 102.135 134.386 102.135 132.58 102.135C131.518 101.85 127.952 102.823 128.606 101.414C131.846 95.1247 135.069 88.5292 135.108 81.231C136.951 80.7301 142.319 82.4924 141.611 79.7894C138.84 79.7894 136.073 79.7894 133.302 79.7894C129.729 80.9247 130.813 77.0251 128.967 75.4645C129.668 74.6464 133.317 75.3276 135.108 75.1041C137.637 75.1041 140.166 75.1041 142.695 75.1041C143.207 75.0356 143.157 74.1022 142.695 74.0229C139.143 73.785 135.112 74.5022 131.857 73.6625C128.241 74.1526 123.87 72.6498 120.749 74.4734C118.928 76.6575 116.266 78.3045 113.795 79.7894C105.559 86.3452 96.7334 92.3279 88.255 98.6386C85.3542 102.502 81.9549 100.531 78.3931 98.8909C81.5937 97.1141 86.8064 97.1069 90.2057 94.4579C97.3728 90.8539 102.589 83.8548 105.848 76.9062C106.715 73.6084 108.033 70.3756 108.015 66.8148C108.015 64.8938 108.015 62.9692 108.015 61.0483C108.015 59.9671 108.015 58.8858 108.015 57.8046C107.191 53.9339 105.819 49.9442 104.041 46.2716C103.178 45.7671 102.813 44.6714 102.596 43.7488C110.425 43.7488 118.249 43.7488 126.077 43.7488C133.385 43.4136 131.919 30.7994 124.632 33.297C123.697 29.1704 119.954 25.3248 115.601 25.0077C114.275 25.0077 112.953 25.0077 111.628 25.0077C109.973 24.8491 108.734 26.0565 107.293 26.4493Z" fill="#13395E"/>
<path d="M98.6196 25.368C94.3136 26.3411 101.257 29.1091 98.6196 25.368V25.368Z" fill="#0E526E"/>
<path d="M98.6206 33.6574C98.0173 34.5728 96.9986 35.308 97.1756 36.5406C100.029 32.9906 105.04 34.8359 107.399 35.3585C110.972 34.8683 115.856 34.4827 118.85 35.4594C121.025 32.4968 121.411 37.2398 121.74 38.703C122.318 36.8469 123.651 37.0776 125.071 36.9803C126.31 35.3909 128.55 38.3462 128.965 36.901C128.521 34.4755 125.262 34.1259 123.546 35.4594C122.99 25.6635 107.818 22.7046 104.762 32.5761C102.685 31.9454 100.221 32.1797 98.6206 33.6574Z" fill="#F2F7F8"/>
<path d="M62.855 26.4492C58.437 26.4817 64.253 30.5362 62.855 26.4492V26.4492Z" fill="#E9FBFC"/>
<path d="M92.4771 26.4492C88.4023 27.8656 95.0817 29.9019 92.4771 26.4492V26.4492Z" fill="#0B5175"/>
<path d="M55.6325 27.8909C55.9685 28.3017 56.0227 28.8099 55.9938 29.3325C54.8775 29.7073 54.7077 28.5432 55.2713 27.8909C52.6595 29.9164 58.2443 29.9524 55.6325 27.8909Z" fill="#A1C471"/>
<path d="M55.6324 27.8909C55.6324 27.8909 55.4265 27.8296 55.2711 27.8909C54.7076 28.5432 54.8774 29.7073 55.9936 29.3325C56.0225 28.8099 55.9683 28.3017 55.6324 27.8909Z" fill="#E0B728"/>
<path d="M49.4883 34.0178C47.5412 33.2249 46.891 31.203 45.1642 30.4246C43.8674 31.4049 42.2996 33.1132 41.27 34.2881C43.2243 35.0558 43.7518 37.2146 45.4857 37.9534C46.4683 36.173 47.9277 35.3765 49.4883 34.0178Z" fill="#154767"/>
<path d="M45.5182 76.5457C45.3881 73.302 43.4663 70.5233 43.7119 67.1751C43.1231 65.1605 43.1014 61.9564 43.7119 59.967C43.6325 58.0821 43.8275 56.0314 44.7957 54.5609C47.9638 41.4746 61.3551 31.6679 74.7789 31.8553C88.293 31.7184 101.374 41.9575 104.762 54.9213C106.789 60.9834 105.741 67.8923 104.762 74.0228C106.099 71.5108 106.424 68.3392 106.568 65.3731C106.568 63.9315 106.568 62.4899 106.568 61.0482C106.178 41.7917 85.1611 26.0924 66.4956 31.8806C47.8446 36.1838 36.6352 59.5525 45.5182 76.5457Z" fill="#E5EBE5"/>
<path d="M45.5185 31.4949C44.6659 32.3635 44.2577 33.5312 42.9897 34.0177C44.0301 34.6268 44.9513 35.4413 45.5185 36.5406C45.1789 35.0377 46.9743 34.7746 47.6859 34.0177C46.6997 33.5816 45.3234 32.7959 45.5185 31.4949Z" fill="#CFE4EB"/>
<path d="M44.7944 54.5609C45.2821 54.2978 45.1412 53.5409 45.5169 53.1193C46.467 54.3915 46.4887 53.3139 47.3231 54.2005C53.0597 32.3959 85.9871 26.9934 98.1755 46.3544C100.191 47.706 100.502 53.2094 102.955 52.038C103.121 53.6707 104.183 53.8833 104.761 54.9213C101.372 41.9575 88.2918 31.7183 74.7777 31.8553C61.3539 31.6679 47.9625 41.4745 44.7944 54.5609Z" fill="#FAE775"/>
<path d="M98.2578 38.703C102.578 41.68 108.701 39.4563 113.791 40.1447C118.953 39.7879 124.087 41.0168 128.964 39.7843C129.408 38.9914 129.617 37.5605 128.964 36.901C128.548 38.3462 126.308 35.3909 125.069 36.9803C123.65 37.0776 122.317 36.8469 121.739 38.703C121.41 37.2398 121.023 32.4968 118.849 35.4594C115.854 34.4827 110.97 34.8683 107.397 35.3585C105.038 34.8359 100.028 32.9906 97.1741 36.5406C96.9971 35.308 98.0158 34.5728 98.619 33.6573C97.3511 34.4683 96.2023 35.7441 96.0903 37.2614C96.9573 37.5173 97.5028 38.2273 98.2578 38.703Z" fill="#D6F3F9"/>
<path d="M44.7973 54.561C43.8292 56.0314 43.6341 58.0821 43.7136 59.967C43.7136 62.371 43.7136 64.7713 43.7136 67.1752C43.4679 70.5233 45.3897 73.3021 45.5198 76.5457C45.4367 77.2305 45.7257 77.9693 46.2423 78.3478C46.4446 77.4395 45.8124 76.0772 46.6035 75.4645C47.2574 76.279 47.0045 77.7747 48.0485 78.3478C48.5795 77.0971 49.2948 78.8776 49.8547 77.6269C48.8396 75.5186 47.662 73.4715 47.326 71.1396C46.04 67.9789 45.0249 63.2179 46.6035 59.967C46.7444 59.8914 46.9648 59.967 46.9648 59.967C46.9611 57.0117 48.0485 54.3303 49.1322 51.6777C50.1834 49.5477 51.0685 47.0213 53.1059 45.5508C57.271 39.6978 64.2214 36.2163 71.1681 35.4594C73.1875 34.872 76.3989 34.8503 78.393 35.4594C83.7466 35.8234 88.6126 38.3859 92.8427 41.5863C94.5767 42.8694 95.9783 44.5669 97.1777 46.2716C98.6118 48.3043 99.7425 50.6397 100.79 52.7589C104.142 57.109 103.608 63.7477 102.596 68.9772C102.838 70.0368 102.203 70.8441 102.235 71.8604C105.736 69.8674 103.752 76.0808 103.68 77.2665C104.189 76.2322 104.746 75.1978 104.764 74.0229C105.743 67.8924 106.79 60.9834 104.764 54.9214C104.186 53.8834 103.124 53.6707 102.958 52.0381C100.505 53.2094 100.194 47.706 98.1783 46.3545C85.9899 26.9935 53.0626 32.396 47.326 54.2005C46.4915 53.3139 46.4698 54.3916 45.5198 53.1193C45.1441 53.541 45.285 54.2979 44.7973 54.561Z" fill="#EDB43A"/>
<path d="M71.1606 35.4594C73.5701 35.4594 75.976 35.4594 78.3855 35.4594C76.3915 34.8503 73.18 34.8719 71.1606 35.4594Z" fill="#384636"/>
<path d="M37.205 36.1802C38.314 35.1782 38.4116 36.8217 38.2887 37.6218C37.8552 37.3803 37.3567 37.0307 37.205 36.5406C36.7679 37.6362 38.7475 38.2489 39.3725 36.901C39.004 36.0072 37.8263 34.6773 37.205 36.1802Z" fill="#024D6B"/>
<path d="M53.1026 45.5507C51.3686 47.5294 50.9857 49.9188 49.1289 51.6776C48.0452 54.3302 46.9578 57.0116 46.9614 59.967C46.9614 60.3274 46.9614 60.6878 46.9614 61.0482C46.9614 62.3709 46.9614 63.69 46.9614 65.0127C47.254 76.8087 56.408 87.9129 67.9172 90.5979C79.7804 94.1443 92.8286 87.7254 98.9806 77.2665C99.1359 75.9582 100.274 74.9779 100.426 73.6624C103.25 67.1859 103.193 59.3579 100.787 52.7588C99.7392 50.6397 98.6085 48.3042 97.1744 46.2715C95.6066 44.8948 94.2844 43.1288 92.8394 41.5863C88.6093 38.3858 83.7433 35.8234 78.3897 35.4594C75.9802 35.4594 73.5743 35.4594 71.1648 35.4594C64.2181 36.2162 57.2677 39.6977 53.1026 45.5507Z" fill="#1C334A"/>
<path d="M37.2085 36.1802C37.2085 36.1802 37.2916 36.4108 37.2085 36.5406C37.3602 37.0307 37.8587 37.3803 38.2922 37.6218C38.4151 36.8217 38.3175 35.1782 37.2085 36.1802Z" fill="#073566"/>
<path d="M72.6118 36.9011C74.418 36.9011 76.2243 36.9011 78.0305 36.9011C76.6361 36.2884 74.0315 36.3244 72.6118 36.9011Z" fill="#836735"/>
<path d="M49.4917 55.2817C51.3846 53.2887 51.4713 49.335 54.1879 48.0736C53.3426 48.9386 53.8447 50.4126 52.3817 50.9568C54.4624 52.2975 51.8073 53.3247 52.7429 54.9213C58.0351 36.8794 86.1869 33.5456 94.6472 50.9568C95.1999 51.2235 94.8892 52.3156 95.7309 52.3985C96.1825 51.4938 95.908 50.7118 95.3697 49.8756C95.9802 49.991 96.5582 49.3999 96.4534 48.7944C92.9494 42.0512 85.4283 37.629 78.03 36.901C76.2238 36.901 74.4175 36.901 72.6113 36.901C62.0449 37.1641 52.3166 45.2192 49.4917 55.2817Z" fill="#EB9D2A"/>
<path d="M128.963 39.7842C124.086 41.0168 118.953 39.7878 113.791 40.1446C108.701 39.4563 102.578 41.68 98.2573 38.703C98.8209 39.9392 100.605 40.5375 100.786 41.9467C105.843 41.9467 110.901 41.9467 115.958 41.9467C120.134 41.143 126.409 43.9037 128.963 39.7842Z" fill="#A2D8EB"/>
<path d="M13.3612 52.3984C18.8232 50.3693 24.8162 51.9443 31.0657 51.3208C32.9551 50.3946 36.9974 52.7156 37.2033 49.5152C38.3882 49.6665 37.3695 51.4794 38.6483 51.3172C39.6597 49.4251 42.0981 49.6557 43.7057 49.5152C43.9007 49.043 44.215 48.6358 44.0669 48.0735C42.64 48.2357 41.0108 47.7059 39.732 48.434C39.0673 38.0434 22.4067 36.1729 20.2248 46.6319C16.8544 46.0877 13.0108 48.8268 13.3612 52.3984Z" fill="#F3F9FA"/>
<path d="M52.7383 54.9214C52.7672 55.0979 52.7383 55.2818 52.7383 55.2818C52.7383 55.462 52.7816 55.8332 52.7383 56.0026C53.9701 53.7608 55.0177 51.238 56.712 49.1549C59.4213 49.9658 61.4768 47.1258 63.9368 46.2716C63.4672 47.9295 61.2131 48.8161 61.4081 50.5965C64.9267 48.9819 68.4849 46.9816 71.0714 44.0191C74.3082 42.3216 81.8184 41.7809 82.7215 46.2716C83.6355 45.3634 83.6355 45.8788 84.1665 46.632C85.0588 46.3076 87.2046 45.6157 87.7789 46.632C89.0108 46.6933 88.4581 45.1219 87.7789 44.83C90.4738 46.1419 92.4607 48.7476 94.6426 50.9569C86.1823 33.5457 58.0305 36.8794 52.7383 54.9214Z" fill="#FCEF98"/>
<path d="M45.5179 41.2259C44.6111 41.3557 42.5918 40.7105 42.9892 42.3071C43.8959 42.1774 45.9152 42.8225 45.5179 41.2259Z" fill="#E4FEFE"/>
<path d="M97.1738 46.2716C95.9745 44.5669 94.5728 42.8693 92.8389 41.5863C94.2838 43.1288 95.606 44.8948 97.1738 46.2716Z" fill="#726C42"/>
<path d="M52.7457 56.0025C52.2436 56.0962 52.4639 56.7413 52.3845 57.0837C52.1316 58.2622 52.901 59.1633 52.7457 60.3274C53.4863 59.4696 54.9421 60.3346 54.9132 58.8858C55.9825 60.3886 57.5972 58.0172 58.1644 59.967C58.8182 59.1885 59.696 58.2875 59.9706 57.0837C60.1909 55.9412 59.519 54.3266 60.3318 53.4797C60.3716 53.1193 60.1621 52.4958 60.6931 52.3984C62.8389 50.1459 66.4224 50.0954 68.6404 47.7132C71.3606 43.8496 75.6883 42.1557 80.2003 43.7487C80.9047 44.0731 81.4574 44.729 81.284 45.5507C82.1004 47.2627 81.4213 49.6918 81.6452 51.6776C82.6061 52.384 81.3851 54.2401 82.3677 54.9213C83.1877 54.1212 82.7868 52.7552 83.4515 52.038C85.3986 56.5467 90.6619 54.6402 94.2888 53.8401C95.5351 54.3482 96.1961 56.6332 96.8175 56.7233C96.6802 55.224 95.9577 53.8869 95.7337 52.3984C94.892 52.3155 95.2027 51.2235 94.65 50.9568C92.4681 48.7475 90.4813 46.1418 87.7864 44.8299C88.4655 45.1218 89.0182 46.6932 87.7864 46.6319C87.212 45.6156 85.0662 46.3076 84.1739 46.6319C83.6429 45.8787 83.6429 45.3633 82.729 46.2715C81.8259 41.7809 74.3156 42.3215 71.0788 44.019C68.4923 46.9815 64.9341 48.9818 61.4156 50.5964C61.2205 48.816 63.4747 47.9294 63.9443 46.2715C61.4842 47.1257 59.4287 49.9657 56.7194 49.1548C55.0252 51.2379 53.9776 53.7608 52.7457 56.0025Z" fill="#FADC5C"/>
<path d="M68.6353 47.7132C69.8779 47.6375 71.4168 45.3777 72.338 44.1992C74.7475 43.2441 77.6013 43.9794 80.1951 43.7487C75.6831 42.1557 71.3554 43.8496 68.6353 47.7132Z" fill="#4E4C2E"/>
<path d="M68.6344 47.7133C66.4163 50.0955 62.8328 50.146 60.687 52.3985C60.687 54.561 60.687 56.7234 60.687 58.8858C60.929 59.3183 61.2795 59.8157 61.7707 59.9671C63.6962 59.9671 65.6252 59.9671 67.5506 59.9671C68.3851 60.1833 68.284 61.0951 68.2731 61.7691C68.8728 67.7518 68.8764 74.9131 68.2731 80.8706C68.2731 81.4725 68.2731 82.0708 68.2731 82.6726C68.2731 82.8529 68.2334 83.2205 68.2731 83.3935C71.6797 85.0009 76.0435 83.689 79.8329 84.1143C80.0136 84.1143 80.1942 84.1143 80.1942 84.1143C82.6434 77.6882 80.6132 69.8386 81.2779 62.8503C81.2779 57.0838 81.2779 51.3173 81.2779 45.5508C81.4513 44.7291 80.8986 44.0732 80.1942 43.7488C77.6005 43.9795 74.7466 43.2442 72.3371 44.1993C71.416 45.3778 69.8771 47.6376 68.6344 47.7133Z" fill="#153455"/>
<path d="M104.037 46.2716C107.444 44.9597 111.739 46.6933 115.478 46.1527C118.809 45.2661 123.927 47.9908 126.434 44.83C126.424 44.4191 125.882 44.2101 126.073 43.7488C118.245 43.7488 110.42 43.7488 102.592 43.7488C102.809 44.6714 103.174 45.7671 104.037 46.2716Z" fill="#1AA4B0"/>
<path d="M104.039 46.2716C105.816 49.9441 107.189 53.9338 108.012 57.8046C108.178 57.7145 109.688 59.0011 109.457 59.967C110.299 58.7885 110.476 59.5598 110.18 60.6878C111.148 58.9326 113.297 59.74 114.153 57.8046C114.731 58.8642 116.05 58.1506 115.96 57.0838C116.776 57.3541 117.397 57.9668 117.405 58.8858C118.311 59.0083 118.308 57.5739 119.211 57.4442C120.323 55.3718 123.029 55.8584 124.539 54.4708C125.518 52.4922 128.361 51.4146 130.409 52.3985C128.852 50.0234 128.137 47.0789 126.436 44.83C123.929 47.9907 118.81 45.266 115.479 46.1526C111.74 46.6933 107.445 44.9597 104.039 46.2716Z" fill="#29C4C0"/>
<path d="M69.7198 82.3122C69.7198 82.3266 70.0811 82.3122 70.0811 82.3122C70.0847 77.9585 70.2147 73.403 70.8036 69.3376C71.6958 71.983 70.9733 75.36 72.2485 77.6269C74.3979 76.6358 75.1096 78.3045 77.035 76.6358C79.2639 75.2122 78.1404 71.673 78.7509 69.3376C79.2133 67.1319 77.8117 62.4178 79.4734 61.7691C79.4734 56.244 79.4734 50.7154 79.4734 45.1904C76.522 45.2913 73.1372 44.3254 71.6164 47.4429C69.9113 49.2666 67.7691 50.337 65.775 51.7065C62.1373 52.0705 61.6027 54.8565 62.1337 58.165C64.9839 58.6047 71.0275 56.4459 69.7198 61.4086C69.7198 68.3753 69.7198 75.3456 69.7198 82.3122Z" fill="#D8F5FA"/>
<path d="M79.4722 61.769C79.4722 66.2128 79.4722 70.6602 79.4722 75.104C79.4722 77.3854 79.4722 79.6704 79.4722 81.9517C79.5878 81.8652 79.8334 81.9517 79.8334 81.9517C79.5914 69.752 80.3139 57.1197 79.4722 45.1903C79.4722 50.7153 79.4722 56.244 79.4722 61.769Z" fill="#558CA7"/>
<path d="M49.1289 51.6777C50.9857 49.9189 51.3686 47.5294 53.1026 45.5508C51.0652 47.0212 50.1801 49.5477 49.1289 51.6777Z" fill="#3A3D28"/>
<path d="M81.2812 62.8503C81.2812 62.8359 81.6425 62.8503 81.6425 62.8503C81.6425 61.7691 81.6425 60.6878 81.6425 59.6066C81.6425 56.9648 81.6425 54.3195 81.6425 51.6777C81.4185 49.6918 82.0977 47.2627 81.2812 45.5508C81.2812 51.3173 81.2812 57.0838 81.2812 62.8503Z" fill="#A48A4E"/>
<path d="M78.0292 46.632C74.1133 45.6373 71.9278 48.3332 69.4496 50.6866C67.6651 53.3212 62.2753 52.64 63.2182 56.7234C65.8914 57.2424 70.7899 55.2313 71.5015 58.857C71.3787 61.8195 71.6352 65.3804 71.5304 68.6132C71.9639 71.4352 75.7425 70.7684 77.668 69.698C78.8023 62.9512 78.5855 54.0492 78.0292 46.632Z" fill="#FCFEFE"/>
<path d="M109.814 46.9924C106.436 46.6932 110.305 50.6577 109.814 46.9924V46.9924Z" fill="#DAF8F7"/>
<path d="M49.4871 55.2817C48.9199 56.7954 48.779 58.4101 48.4033 59.967C48.4033 61.888 48.4033 63.8125 48.4033 65.7335C48.8513 69.3051 49.7797 72.711 51.6545 75.8249C52.2903 76.6538 53.3668 75.9114 53.0995 77.2665C53.4354 76.4556 54.3386 76.3078 54.9057 75.8249C58.5579 78.928 62.2715 83.7646 67.5493 84.4746C67.5493 81.5914 67.5493 78.7081 67.5493 75.8249C66.8412 76.3475 67.347 77.5548 67.188 78.3477C65.6455 75.5654 63.9621 78.5964 61.7657 77.6305C57.1057 79.3821 54.8804 74.4914 53.4607 70.7792C51.6906 66.1516 50.4371 59.8877 52.7382 55.2817C52.7382 55.2817 52.7671 55.0979 52.7382 54.9213C51.8026 53.3247 54.4578 52.2976 52.377 50.9569C53.84 50.4126 53.3379 48.9386 54.1832 48.0736C51.4667 49.335 51.38 53.2887 49.4871 55.2817Z" fill="#ED7C15"/>
<path d="M121.378 48.434C117.599 47.9763 121.854 52.1894 121.378 48.434V48.434Z" fill="#EEFDFD"/>
<path d="M95.7274 52.3985C95.9514 53.887 96.6739 55.2241 96.8111 56.7234C97.4433 57.0225 97.0496 57.9632 97.1724 58.5254C97.9744 61.7727 97.6601 65.8164 96.4499 68.9772C95.601 72.6821 93.2276 76.3186 90.67 78.7081C88.7482 76.8701 85.6848 78.5604 83.0839 77.6269C82.6143 76.9962 82.8166 75.6663 81.6389 75.8249C81.6389 78.1063 81.6389 80.3912 81.6389 82.6726C81.3282 84.0133 82.0941 84.3701 83.0839 84.4746C85.2369 83.8223 87.4441 82.5501 88.8638 80.8706C91.3925 78.8054 93.3649 76.0447 95.7274 74.0229C96.7714 74.6428 96.6414 74.8013 96.8111 76.1853C97.2627 76.0772 97.4289 75.5257 97.8949 75.4645C101.97 67.395 102.233 56.0134 96.4499 48.7944C96.5547 49.3999 95.9767 49.991 95.3662 49.8757C95.9044 50.7118 96.179 51.4939 95.7274 52.3985Z" fill="#EE7A16"/>
<path d="M111.623 53.4797C110.85 51.9985 113.581 53.9266 114.231 52.8382C114.917 52.4922 116.214 53.6095 117.403 52.7589C114.647 53.004 116.124 49.0684 113.79 49.1548C113.859 50.7875 112.718 52.5643 110.9 52.3985C110.825 52.9103 111.157 53.3211 111.623 53.4797Z" fill="#E3DF89"/>
<path d="M13.3618 52.3985C13.286 53.1914 13.4341 54.1104 14.0843 54.5609C23.39 54.2222 33.2086 55.3538 42.2614 53.8401C42.5395 52.3264 43.3018 50.9749 43.7063 49.5153C42.0988 49.6558 39.6604 49.4252 38.6489 51.3173C37.3701 51.4795 38.3888 49.6666 37.204 49.5153C36.998 52.7157 32.9557 50.3946 31.0664 51.3209C24.8169 51.9444 18.8239 50.3694 13.3618 52.3985Z" fill="#D3F2F9"/>
<path d="M81.6396 59.6065C81.9901 60.3562 82.7956 61.5311 83.4459 60.3274C84.3309 63.3836 87.481 60.9509 89.9483 61.769C92.5926 61.4158 94.8287 61.769 97.1731 60.3274C97.1731 59.7255 97.1731 59.1272 97.1731 58.5253C97.0503 57.9631 97.4441 57.0224 96.8119 56.7233C96.1906 56.6332 95.5295 54.3482 94.2832 53.84C90.6563 54.6402 85.393 56.5467 83.4459 52.038C82.7812 52.7552 83.1822 54.1212 82.3621 54.9213C81.3796 54.2401 82.6006 52.384 81.6396 51.6776C81.6396 54.3194 81.6396 56.9648 81.6396 59.6065Z" fill="#FDCC37"/>
<path d="M119.208 57.4442C118.11 59.0156 117.76 61.0446 118.486 62.8503C116.286 63.6756 113.371 62.9836 110.9 63.2107C110.752 63.7729 111.066 64.1802 111.261 64.6523C119.208 64.6523 127.156 64.6523 135.103 64.6523C138.062 65.229 142.523 64.2559 141.595 60.3382C141.147 57.264 137.274 56.2981 134.742 57.4442C134.55 55.2097 132.553 52.9896 130.407 52.3985C128.359 51.4146 125.516 52.4922 124.537 54.4708C123.027 55.8584 120.321 55.3718 119.208 57.4442Z" fill="#10395F"/>
<path d="M60.328 53.4797C60.328 55.2817 60.328 57.0837 60.328 58.8857C60.328 58.9002 60.6892 58.8857 60.6892 58.8857C60.6892 56.7233 60.6892 54.5609 60.6892 52.3984C60.1582 52.4957 60.3677 53.1192 60.328 53.4797Z" fill="#87653A"/>
<path d="M89.2284 54.2005C88.6902 52.3732 87.2199 52.4453 86.6997 54.2005C87.4366 54.6654 88.4951 54.7483 89.2284 54.2005Z" fill="#F9F0C9"/>
<path d="M111.624 53.4797C112.206 53.9338 113.185 53.6996 113.431 54.5609C114.077 54.961 113.749 56.5035 114.876 56.363C114.789 55.4331 115.038 54.251 115.959 53.8401C116.657 53.9879 117.545 53.5842 117.404 52.7589C116.216 53.6095 114.919 52.4922 114.233 52.8382C113.582 53.9266 110.851 51.9985 111.624 53.4797Z" fill="#E49B24"/>
<path d="M100.425 73.6625C101.996 72.6497 101.859 70.3539 102.592 68.9772C103.604 63.7477 104.138 57.109 100.786 52.7589C103.192 59.3579 103.25 67.186 100.425 73.6625Z" fill="#E2E7D2"/>
<path d="M59.9652 57.0838C60.6154 60.068 58.4697 62.2304 58.8815 64.6523C58.979 65.1136 58.6033 65.6326 58.159 65.7335C58.0976 65.8885 58.159 66.094 58.159 66.094C57.8664 67.7987 57.003 65.5966 56.3528 65.3731C56.4611 64.9226 57.0138 64.7568 57.0752 64.2919C56.4792 63.1206 53.9144 63.0161 52.7403 63.9315C51.6241 62.0105 51.7902 59.0084 52.3791 57.0838C52.4586 56.7414 52.2382 56.0963 52.7403 56.0026C52.7837 55.8332 52.7403 55.462 52.7403 55.2818C50.4392 59.8878 51.6927 66.1516 53.4628 70.7792C55.0342 70.7684 56.5803 70.6243 58.5202 70.7792C60.4709 71.792 61.6305 69.1754 63.2164 70.7792C64.1376 70.1954 65.0624 69.6476 64.6614 68.2564C65.373 68.8763 66.4495 69.1105 66.8288 70.0584C67.6236 69.7917 66.7169 68.4979 67.5513 68.2564C67.5513 66.094 67.5513 63.9315 67.5513 61.7691C65.2466 60.6122 60.2939 62.962 60.3264 58.8858C60.3264 57.0838 60.3264 55.2818 60.3264 53.4797C59.5136 54.3267 60.1856 55.9413 59.9652 57.0838Z" fill="#FCAD1F"/>
<path d="M14.0884 54.5609C17.0795 58.1902 22.8955 55.5664 27.0932 56.3629C31.9085 56.3629 36.7275 56.3629 41.5429 56.3629C41.6296 55.4691 42.1715 54.7195 42.2654 53.8401C33.2126 55.3538 23.394 54.2221 14.0884 54.5609Z" fill="#9FD9EB"/>
<path d="M113.431 54.5609C113.395 55.4367 113.807 56.7702 114.876 56.7233C115.364 55.7899 115.277 54.7051 115.96 53.8401C115.039 54.251 114.79 55.4331 114.876 56.3629C113.749 56.5035 114.078 54.961 113.431 54.5609Z" fill="#8F9857"/>
<path d="M119.931 59.967C120.491 60.1797 120.076 61.2897 121.015 61.0482C121.163 60.086 122.2 59.0047 123.182 58.8858C122.807 59.6391 121.817 60.0499 122.099 61.0482C125.108 61.0482 128.121 61.0482 131.13 61.0482C133.85 60.5905 137.954 61.9781 139.8 60.3274C139.03 57.646 135.689 58.4605 134.02 59.6066C133.998 55.0691 127.185 51.0398 124.989 56.7234C122.825 56.417 120.285 57.7217 119.931 59.967Z" fill="#F2F8F9"/>
<path d="M57.0755 64.2919C57.7691 62.8935 57.9533 64.728 58.8817 64.6523C58.4699 62.2303 60.6157 60.0679 59.9655 57.0837C59.6909 58.2875 58.8131 59.1885 58.1593 59.967C57.5921 58.0172 55.9773 60.3887 54.9081 58.8858C54.937 60.3346 53.4811 59.4696 52.7406 60.3274C52.8959 59.1633 52.1265 58.2623 52.3793 57.0837C51.7905 59.0083 51.6243 62.0105 52.7406 63.9315C53.9146 63.016 56.4795 63.1205 57.0755 64.2919Z" fill="#FDC32D"/>
<path d="M108.011 57.8046C108.011 58.8858 108.011 59.967 108.011 61.0482C108.593 62.5835 108.625 65.3046 108.011 66.8147C108.029 70.3755 106.711 73.6084 105.844 76.9061C104.955 78.6108 107.047 79.4758 105.844 80.5101C106.508 80.5822 107.029 81.0652 107.65 80.5101C107.798 80.211 108 79.8362 108.372 79.7893C108.842 78.9244 109.983 79.8722 110.179 80.5101C110.818 79.4722 111.613 79.7461 111.624 80.8705C112.48 80.8597 112.967 79.9695 113.791 79.7893C116.262 78.3045 118.924 76.6574 120.745 74.4733C123.866 72.6497 128.237 74.1526 131.853 73.6624C133.056 73.6624 134.263 73.6624 135.466 73.6624C135.466 72.1019 135.466 70.5377 135.466 68.9771C135.368 68.0185 135.726 66.912 135.104 66.0939C129.079 65.7875 122.042 66.757 117.754 65.0235C115.435 64.591 110.688 66.3786 110.54 63.5711C112.527 61.9636 115.944 63.2755 118.487 62.8502C117.761 61.0446 118.111 59.0155 119.21 57.4441C118.307 57.5739 118.31 59.0083 117.403 58.8858C117.396 57.9667 116.775 57.354 115.958 57.0837C116.049 58.1505 114.73 58.8641 114.152 57.8046C113.296 59.7399 111.147 58.9326 110.179 60.6878C110.475 59.5597 110.298 58.7885 109.456 59.967C109.687 59.0011 108.177 57.7145 108.011 57.8046Z" fill="#20AAB4"/>
<path d="M13.7226 65.3731C14.3259 65.6218 14.2536 67.049 13.3613 66.8147C13.3108 66.8291 13.3613 67.1751 13.3613 67.1751C13.3613 69.3376 13.3613 71.5 13.3613 73.6624C15.1676 73.6624 16.9738 73.6624 18.78 73.6624C18.8812 73.2011 18.5055 72.401 19.1412 72.2208C19.1774 71.691 18.9498 70.5521 19.8637 70.7792C22.1251 70.1881 25.575 70.1701 27.8111 70.7792C31.149 71.2045 28.7829 75.4645 31.4235 76.5457C32.9913 76.5601 34.0462 77.2593 35.7585 77.2665C35.5526 76.9277 35.343 76.6106 35.3972 76.1853C33.4357 75.6591 36.8494 74.9491 36.1197 73.6624C37.7923 72.9488 37.236 75.2158 38.6484 75.1041C39.7611 74.8554 39.4829 76.2177 40.0934 76.5457C40.032 75.6158 41.4083 75.7708 41.8996 75.1041C42.0875 75.569 42.138 76.4952 42.2609 77.2665C42.9364 76.8556 42.4812 75.778 42.6221 75.1041C41.4553 70.4368 40.498 65.7263 40.8159 60.6878C38.4028 59.5597 34.7542 61.2717 31.7595 59.9922C28.8876 60.4499 25.7917 59.9057 23.1149 59.967C23.2956 59.967 23.4762 59.967 23.4762 59.967C23.6568 59.967 24.0253 59.9274 24.1987 59.967C27.8039 62.2988 20.5971 63.6215 22.7537 59.967C20.4815 60.3995 17.8697 59.6679 15.5288 59.2462C15.9334 58.8642 15.7022 58.583 15.5288 58.165C15.4963 58.0388 15.2868 57.8658 15.1676 57.8046C14.9906 60.4139 13.8165 62.7529 13.7226 65.3731Z" fill="#23B2B9"/>
<path d="M22.7595 59.9669C22.9149 59.9021 23.1208 59.9669 23.1208 59.9669C25.7976 59.9057 28.8935 60.4499 31.7654 59.9922C34.7601 61.2716 38.4086 59.5597 40.8218 60.6878C40.8218 59.848 40.8218 59.0047 40.8218 58.1649C32.3939 58.1649 23.9625 58.1649 15.5347 58.1649C15.7081 58.583 15.9393 58.8641 15.5347 59.2461C17.8755 59.6678 20.4873 60.3994 22.7595 59.9669Z" fill="#14879D"/>
<path d="M81.6396 59.6066C81.6396 60.6878 81.6396 61.769 81.6396 62.8503C81.6396 63.9315 81.6396 65.0127 81.6396 66.0939C82.5789 67.204 81.4446 69.1862 82.3621 70.4188C82.9257 68.9483 84.2009 69.6475 83.8071 71.1396C85.4652 69.7376 87.9253 70.7071 89.9483 70.4188C91.7834 71.3739 93.521 69.5142 95.0057 70.7792C95.739 70.4368 95.8149 69.4277 96.4507 68.9772C97.6608 65.8164 97.9751 61.7726 97.1731 58.5254C97.1731 59.1273 97.1731 59.7255 97.1731 60.3274C94.8287 61.769 92.5926 61.4158 89.9483 61.769C87.481 60.9509 84.3309 63.3837 83.4459 60.3274C82.7956 61.5312 81.9901 60.3563 81.6396 59.6066Z" fill="#FDAF1F"/>
<path d="M67.5537 61.769C67.5537 61.2897 67.5537 60.8067 67.5537 60.3274C65.6896 60.0931 63.3415 60.7995 61.7737 59.967C61.2825 59.8156 60.9321 59.3182 60.69 58.8857C60.69 58.8857 60.3288 58.9002 60.3288 58.8857C60.2963 62.9619 65.2489 60.6121 67.5537 61.769Z" fill="#E9881E"/>
<path d="M119.933 59.967C120.092 60.9148 119.467 62.4141 120.656 62.8502C126.678 62.8502 132.696 62.8502 138.718 62.8502C139.849 62.9367 140.636 60.9833 139.802 60.3274C137.956 61.978 133.852 60.5905 131.132 61.0482C128.123 61.0482 125.11 61.0482 122.101 61.0482C121.819 60.0499 122.809 59.639 123.185 58.8857C122.202 59.0047 121.165 60.0859 121.017 61.0482C120.078 61.2897 120.493 60.1796 119.933 59.967Z" fill="#C5EBF5"/>
<path d="M24.2038 59.9671C26.8372 62.58 20.9309 62.4719 23.4813 59.9671C23.4813 59.9671 23.3007 59.9671 23.12 59.9671C23.12 59.9671 22.9141 59.9022 22.7588 59.9671C20.6022 63.6216 27.809 62.2989 24.2038 59.9671Z" fill="#B9EFF2"/>
<path d="M24.201 59.967C24.0276 59.9273 23.6591 59.967 23.4785 59.967C20.9281 62.4718 26.8345 62.5799 24.201 59.967Z" fill="#F5FCFD"/>
<path d="M43.7081 67.1752C43.7081 64.7713 43.7081 62.3709 43.7081 59.967C43.0976 61.9565 43.1193 65.1605 43.7081 67.1752Z" fill="#F3E09B"/>
<path d="M47.3253 71.1396C46.8484 67.4995 45.5371 63.7189 46.6028 59.967C45.0241 63.2179 46.0392 67.9789 47.3253 71.1396Z" fill="#F5DB9F"/>
<path d="M47.323 71.1396C47.659 73.4714 48.8366 75.5185 49.8517 77.6269C51.9758 81.7103 56.0904 85.1522 59.6053 88.0787C63.4562 89.9492 67.3648 92.1585 71.8876 92.0431C74.0551 92.0431 76.2225 92.0431 78.39 92.0431C82.6599 91.5422 86.9515 90.169 90.3111 87.3579C91.0516 86.8713 91.7416 86.3848 92.4785 85.9162C94.9025 83.1699 97.8141 80.6903 98.9809 77.2665C92.8289 87.7255 79.7808 94.1443 67.9175 90.5979C56.4083 87.9129 47.2544 76.8088 46.9618 65.0127C46.3982 64.072 46.3404 61.9636 46.9618 61.0482C46.9618 60.6878 46.9618 60.3274 46.9618 59.967C46.9618 59.967 46.7414 59.8913 46.6005 59.967C45.5349 63.7188 46.8462 67.4995 47.323 71.1396Z" fill="#DFE3DB"/>
<path d="M48.404 65.7335C48.404 63.8126 48.404 61.888 48.404 59.967C47.7899 61.4771 47.8224 64.1982 48.404 65.7335Z" fill="#382F2B"/>
<path d="M67.5548 60.3274C67.4681 60.2121 67.5548 59.967 67.5548 59.967C65.6294 59.967 63.7003 59.967 61.7749 59.967C63.3427 60.7996 65.6908 60.0932 67.5548 60.3274Z" fill="#754E2C"/>
<path d="M67.5527 60.3274C68.3944 67.4491 67.6755 75.2807 67.9139 82.6726C67.9139 82.6906 68.2752 82.6726 68.2752 82.6726C68.2752 82.0707 68.2752 81.4725 68.2752 80.8706C68.2752 74.5022 68.2752 68.1374 68.2752 61.7691C68.286 61.0951 68.3872 60.1833 67.5527 59.967C67.5527 59.967 67.466 60.2121 67.5527 60.3274Z" fill="#593225"/>
<path d="M67.5539 61.769C67.5539 63.9315 67.5539 66.0939 67.5539 68.2563C67.5539 70.7792 67.5539 73.302 67.5539 75.8249C67.5539 78.7081 67.5539 81.5914 67.5539 84.4746C62.2761 83.7646 58.5626 78.928 54.9104 75.8249C54.3432 76.3078 53.4401 76.4556 53.1042 77.2665C53.3715 75.9114 52.295 76.6538 51.6592 75.8249C52.0854 77.3782 53.2739 78.4666 54.1879 79.7893C55.6401 80.9138 56.8105 82.3698 58.5228 83.033C60.7228 80.7156 62.5977 84.1574 65.0505 84.089C70.2705 86.8317 77.8458 86.6767 83.0874 84.4746C82.0976 84.3701 81.3318 84.0133 81.6424 82.6726C81.2451 82.6834 81.3498 83.1555 81.2812 83.3934C80.5587 86.3884 76.6645 84.8026 74.4176 85.1954C72.0911 85.1522 68.1066 85.9631 67.9152 82.6726C67.6767 75.2806 68.3956 67.449 67.5539 60.3274C67.5539 60.8067 67.5539 61.2897 67.5539 61.769Z" fill="#D75E12"/>
<path d="M32.1494 62.8503C32.5865 62.7421 32.6298 60.9473 33.2331 61.7691C33.8292 62.1331 33.5691 63.2828 34.3168 63.5711C34.6311 61.6898 31.7195 59.8985 32.1494 62.8503Z" fill="#6BAD90"/>
<path d="M46.9588 65.0127C46.9588 63.69 46.9588 62.3709 46.9588 61.0482C46.3374 61.9636 46.3952 64.072 46.9588 65.0127Z" fill="#4D626F"/>
<path d="M106.569 65.3731C107.187 64.3387 107.136 62.1078 106.569 61.0482C106.569 62.4898 106.569 63.9315 106.569 65.3731Z" fill="#4E7180"/>
<path d="M108.011 66.8147C108.625 65.3046 108.592 62.5835 108.011 61.0482C108.011 62.9692 108.011 64.8938 108.011 66.8147Z" fill="#10697E"/>
<path d="M32.1513 62.8503C32.2849 64.5658 30.0886 63.8594 29.6226 65.0127C29.6262 65.0416 29.9838 65.0127 29.9838 65.0127C30.9736 64.9082 32.9135 65.4993 32.8738 63.9315C33.4048 65.2182 34.8859 65.0668 36.125 65.0127C36.1466 64.9082 35.8793 64.7208 35.7637 64.6523C33.8636 65.211 32.7726 63.4594 33.235 61.7691C32.6317 60.9474 32.5884 62.7422 32.1513 62.8503Z" fill="#ECE997"/>
<path d="M70.0771 82.3122C70.7527 81.9013 70.2975 80.8237 70.4384 80.1498C71.84 82.5392 75.6837 81.2994 78.3858 81.5914C79.0649 79.5407 78.281 76.8809 79.4695 75.1041C79.4695 70.6603 79.4695 66.2129 79.4695 61.769C77.8078 62.4178 79.2094 67.1319 78.747 69.3376C78.1365 71.673 79.26 75.2122 77.0311 76.6358C75.1057 78.3045 74.394 76.6358 72.2446 77.6269C70.9694 75.36 71.6919 71.983 70.7996 69.3376C70.2108 73.403 70.0808 77.9585 70.0771 82.3122Z" fill="#ADE4F5"/>
<path d="M35.7625 64.6523C35.5132 63.9964 34.4259 64.4577 34.3175 63.5711C33.5697 63.2827 33.8298 62.1331 33.2338 61.769C32.7714 63.4593 33.8623 65.2109 35.7625 64.6523Z" fill="#E6F1D4"/>
<path d="M68.2725 80.8706C68.8757 74.9131 68.8721 67.7518 68.2725 61.769C68.2725 68.1374 68.2725 74.5022 68.2725 80.8706Z" fill="#141D34"/>
<path d="M80.1978 84.1142C80.6493 84.0061 80.8155 83.4547 81.2815 83.3934C81.3501 83.1556 81.2454 82.6834 81.6427 82.6726C81.6427 80.3912 81.6427 78.1063 81.6427 75.8249C81.6427 72.5812 81.6427 69.3376 81.6427 66.0939C81.6427 65.0127 81.6427 63.9315 81.6427 62.8503C81.6427 62.8503 81.2815 62.8359 81.2815 62.8503C80.6168 69.8386 82.647 77.6882 80.1978 84.1142Z" fill="#9A6332"/>
<path d="M110.542 63.5711C110.445 64.0324 110.821 64.5514 111.265 64.6523C111.07 64.1802 110.756 63.7729 110.904 63.2107C113.375 62.9836 116.29 63.6756 118.49 62.8503C115.947 63.2756 112.529 61.9637 110.542 63.5711Z" fill="#116E88"/>
<path d="M138.719 62.8502C132.697 62.8502 126.679 62.8502 120.657 62.8502C126.263 63.4521 133.084 63.4485 138.719 62.8502Z" fill="#5D899B"/>
<path d="M57.0794 64.2919C57.018 64.7568 56.4653 64.9226 56.3569 65.3731C57.0072 65.5965 57.8705 67.7986 58.1632 66.0939C57.3215 66.8868 57.4985 65.4488 57.0794 65.0127C57.5563 64.4901 58.8604 65.0235 58.1632 65.7335C58.6075 65.6326 58.9832 65.1136 58.8856 64.6523C57.9572 64.7279 57.773 62.8935 57.0794 64.2919Z" fill="#F7DFA2"/>
<path d="M135.107 66.0939C135.107 65.6145 135.107 65.1316 135.107 64.6523C127.16 64.6523 119.212 64.6523 111.265 64.6523C110.821 64.5513 110.445 64.0324 110.542 63.571C110.691 66.3786 115.437 64.591 117.756 65.0235C122.044 66.757 129.081 65.7875 135.107 66.0939Z" fill="#1B8FA1"/>
<path d="M29.981 65.0127C30.6601 66.0255 32.842 66.1228 32.5097 67.896C32.4555 68.3213 32.665 68.6384 32.8709 68.9772C33.9799 67.6581 34.6085 66.094 36.1221 65.0127C34.883 65.0668 33.4019 65.2182 32.8709 63.9315C32.9106 65.4993 30.9708 64.9082 29.981 65.0127Z" fill="#DFA32E"/>
<path d="M92.1157 66.8148C92.719 65.7768 92.7912 64.7713 91.7544 63.9315C90.873 64.9479 90.4829 66.476 92.1157 66.8148Z" fill="#F8EBBA"/>
<path d="M58.1614 66.0939C58.1614 66.0939 58.1 65.8884 58.1614 65.7335C58.8586 65.0235 57.5545 64.4901 57.0776 65.0126C57.4967 65.4487 57.3197 66.8868 58.1614 66.0939Z" fill="#FCF4E7"/>
<path d="M32.5125 67.8959C32.8449 66.1227 30.6629 66.0254 29.9838 65.0127C29.9838 65.0127 29.6262 65.0415 29.6226 65.0127C30.3234 66.3138 32.2705 66.2705 32.5125 67.8959Z" fill="#8B8E53"/>
<path d="M9.39174 66.8147C10.7175 66.8147 12.0397 66.8147 13.3654 66.8147C14.2577 67.049 14.3299 65.6218 13.7267 65.3731C12.4117 65.5821 8.25743 64.5766 9.39174 66.8147Z" fill="#173B65"/>
<path d="M27.4557 66.8147C27.2606 64.0504 23.1967 65.9173 21.3146 65.3731C19.5373 65.8705 15.6322 64.1261 15.5347 66.8147C19.5084 66.8147 23.482 66.8147 27.4557 66.8147Z" fill="#043861"/>
<path d="M81.6396 75.8248C82.8173 75.6663 82.615 76.9962 83.0846 77.6269C85.6856 78.5603 88.7489 76.87 90.6707 78.7081C93.2284 76.3186 95.6017 72.6821 96.4507 68.9771C95.8149 69.4276 95.739 70.4368 95.0057 70.7792C93.521 69.5141 91.7834 71.3738 89.9483 70.4187C87.9253 70.7071 85.4652 69.7376 83.8071 71.1396C84.2009 69.6475 82.9257 68.9483 82.3621 70.4187C81.4446 69.1862 82.5789 67.2039 81.6396 66.0939C81.6396 69.3375 81.6396 72.5812 81.6396 75.8248Z" fill="#F99218"/>
<path d="M115.959 71.8604C116.23 70.7431 114.305 69.2979 115.959 68.6167C115.988 67.8671 115.71 66.7138 116.682 66.4543C117.256 67.1643 116.971 68.1338 117.043 68.9772C118.044 69.8313 116.74 71.1216 117.043 72.2208C117.654 73.5399 119.229 70.044 119.211 68.9772C117.043 68.6996 118.412 65.1424 115.598 66.0939C115.562 67.3373 115.147 68.6672 113.792 68.9772C113.846 70.48 115.555 71.3558 115.237 72.9416C115.952 73.0786 116.061 72.3974 115.959 71.8604Z" fill="#0E5778"/>
<path d="M115.961 68.6168C115.961 69.0961 115.961 69.5791 115.961 70.0584C116.759 70.3143 117.211 69.734 117.045 68.9772C116.973 68.1338 117.258 67.1643 116.684 66.4543C115.712 66.7138 115.99 67.8671 115.961 68.6168Z" fill="#D0E8ED"/>
<path d="M13.0031 67.1751C13.1837 67.1751 13.3643 67.1751 13.3643 67.1751C13.3643 67.1751 13.3137 66.8291 13.3643 66.8147C12.0385 66.8147 10.7164 66.8147 9.39062 66.8147C10.2395 67.6256 11.8579 66.9553 13.0031 67.1751Z" fill="#7B9BB2"/>
<path d="M13.0044 73.6625C13.185 73.6625 13.3656 73.6625 13.3656 73.6625C13.3656 71.5 13.3656 69.3376 13.3656 67.1752C13.3656 67.1752 13.185 67.1752 13.0044 67.1752C13.0044 69.3376 13.0044 71.5 13.0044 73.6625Z" fill="#9FECEE"/>
<path d="M53.4639 70.7792C54.8836 74.4914 57.1088 79.3821 61.7689 77.6305C63.9652 78.5964 65.6486 75.5654 67.1911 78.3477C67.3501 77.5548 66.8443 76.3475 67.5524 75.8249C67.5524 73.302 67.5524 70.7792 67.5524 68.2563C66.7179 68.4978 67.6246 69.7917 66.8299 70.0584C66.4506 69.1105 65.3741 68.8762 64.6624 68.2563C65.0634 69.6475 64.1386 70.1953 63.2175 70.7792C61.6316 69.1754 60.472 71.7919 58.5213 70.7792C56.5814 70.6242 55.0353 70.7684 53.4639 70.7792Z" fill="#F8951B"/>
<path d="M115.959 71.8604C116.465 72.0406 116.422 72.8767 117.043 72.2208C116.74 71.1215 118.044 69.8313 117.043 68.9771C117.209 69.734 116.758 70.3142 115.959 70.0583C115.959 69.579 115.959 69.096 115.959 68.6167C114.305 69.2979 116.23 70.7431 115.959 71.8604Z" fill="#66BAD0"/>
<path d="M125.352 70.0583C120.783 70.9882 124.814 66.4218 125.352 70.0583V70.0583Z" fill="#C2F0F2"/>
<path d="M100.428 73.6625C100.277 74.9779 99.1387 75.9582 98.9833 77.2665C97.8165 80.6904 94.9049 83.17 92.481 85.9163C97.1338 82.1897 100.338 77.2449 102.235 71.8604C102.202 70.8441 102.838 70.0368 102.596 68.9772C101.862 70.3539 102 72.6497 100.428 73.6625Z" fill="#ECE2BA"/>
<path d="M135.466 73.6625C135.646 73.6625 135.827 73.6625 135.827 73.6625C135.618 72.156 136.264 70.2098 135.466 68.9772C135.466 70.5377 135.466 72.1019 135.466 73.6625Z" fill="#70D0D0"/>
<path d="M19.8647 70.7792C22.5127 70.7792 25.1642 70.7792 27.8121 70.7792C25.576 70.1701 22.1261 70.1881 19.8647 70.7792Z" fill="#1B8195"/>
<path d="M31.7864 71.8604C29.0337 72.3902 31.4505 69.3844 31.7864 71.8604V71.8604Z" fill="#188BA8"/>
<path d="M62.4932 71.1396C61.3553 70.9558 61.9947 72.8948 60.687 72.5813C60.7954 73.4534 61.89 73.6553 62.4932 74.0229C63.288 72.8624 62.6955 72.3866 62.4932 71.1396Z" fill="#FCECCF"/>
<path d="M102.235 71.8605C100.338 77.2449 97.1338 82.1897 92.4809 85.9163C91.744 86.3848 91.054 86.8714 90.3135 87.3579C93.0553 87.4444 94.7134 83.4115 97.5384 82.6726C96.8664 83.9521 97.6431 84.381 98.6221 83.3935C100.186 82.3591 100.779 79.1731 102.596 79.429C102.964 78.6757 103.073 77.9045 103.68 77.2665C103.752 76.0808 105.735 69.8674 102.235 71.8605Z" fill="#F39B1E"/>
<path d="M18.7846 73.6625C20.7714 73.8968 23.2387 73.1868 24.9257 74.0229C28.1047 74.9023 27.7868 81.2743 24.2032 81.231C22.0033 82.0563 19.088 81.3644 16.6171 81.5914C16.5087 81.6707 16.3389 81.8473 16.2559 81.9518C19.9803 82.7339 24.7957 82.1465 28.5382 82.3122C28.3611 79.1875 28.8922 75.8393 28.2672 72.8516C25.6663 71.4244 22.1188 72.6065 19.1458 72.2209C18.51 72.4011 18.8857 73.2012 18.7846 73.6625Z" fill="#ADE4F1"/>
<path d="M87.7797 75.1041C88.6972 74.1598 89.0332 72.8191 87.4184 72.2208C86.2046 73.5435 86.5153 74.012 87.7797 75.1041Z" fill="#F9E4C9"/>
<path d="M9.75342 74.0229C14.8108 74.0229 19.8682 74.0229 24.9257 74.0229C23.2387 73.1868 20.7714 73.8968 18.7845 73.6625C16.9783 73.6625 15.1721 73.6625 13.3659 73.6625C13.3659 73.6625 13.1852 73.6625 13.0046 73.6625C11.9751 73.8427 10.512 73.2733 9.75342 74.0229Z" fill="#397188"/>
<path d="M35.398 76.1853C36.3119 75.9943 36.0302 77.1764 36.4817 77.6269C37.3234 77.043 38.9454 76.1528 38.6492 75.1041C37.2367 75.2158 37.793 72.9488 36.1205 73.6624C36.8502 74.9491 33.4364 75.6591 35.398 76.1853Z" fill="#073C6A"/>
<path d="M111.622 73.6625C106.749 74.7221 114.241 77.8864 111.622 73.6625V73.6625Z" fill="#D1F3F4"/>
<path d="M142.689 74.0229C140.76 73.1867 138.051 73.9003 135.826 73.6625C135.826 73.6625 135.645 73.6625 135.464 73.6625C134.262 73.6625 133.055 73.6625 131.852 73.6625C135.107 74.5022 139.138 73.785 142.689 74.0229Z" fill="#426C7F"/>
<path d="M88.8623 80.8705C90.0797 80.7408 91.5752 80.8633 92.836 81.9518C93.9595 81.3283 94.6133 80.0308 95.7259 79.4289C95.7982 79.2848 95.7259 79.0685 95.7259 79.0685C96.5062 77.8936 97.3371 76.7727 97.8934 75.4645C97.4274 75.5257 97.2612 76.0771 96.8097 76.1853C96.6399 74.8013 96.7699 74.6427 95.7259 74.0228C93.3634 76.0447 91.391 78.8054 88.8623 80.8705Z" fill="#DB5E0D"/>
<path d="M35.4009 76.1853C35.3467 76.6106 35.5563 76.9278 35.7622 77.2666C34.0499 77.2593 32.995 76.5602 31.4272 76.5457C35.5346 79.8074 39.8876 83.2997 44.432 85.9163C45.6928 86.6407 47.6038 86.1686 48.0445 87.7183C48.3299 87.4552 49.3413 87.6354 49.1282 86.6371C46.7621 82.9934 44.4393 79.0109 42.6258 75.1041C42.4849 75.7781 42.9401 76.8557 42.2646 77.2666C42.1417 76.4953 42.0912 75.569 41.9033 75.1041C41.412 75.7709 40.0357 75.6159 40.0971 76.5457C39.4866 76.2178 39.7648 74.8554 38.6521 75.1041C38.9483 76.1529 37.3264 77.0431 36.4847 77.627C36.0331 77.1764 36.3149 75.9943 35.4009 76.1853Z" fill="#1C96AB"/>
<path d="M70.08 82.3121C70.08 82.3121 69.7188 82.3265 69.7188 82.3121C69.7513 82.6545 70.1739 82.7374 70.4412 82.6725C73.0639 81.6057 76.875 83.0221 79.4723 81.9517C79.4723 79.6703 79.4723 77.3854 79.4723 75.104C78.2838 76.8808 79.0677 79.5406 78.3886 81.5913C75.6865 81.2994 71.8429 82.5392 70.4412 80.1497C70.3004 80.8236 70.7555 81.9013 70.08 82.3121Z" fill="#73C5E0"/>
<path d="M128.963 75.4644C131.131 75.4644 133.298 75.4644 135.466 75.4644C135.646 75.4644 135.827 75.4644 135.827 75.4644C138.06 75.2374 140.733 75.9257 142.691 75.104C140.162 75.104 137.633 75.104 135.105 75.104C133.313 75.3275 129.664 74.6463 128.963 75.4644Z" fill="#285F79"/>
<path d="M9.39062 79.7894C14.5131 79.3713 20.2821 80.6291 25.0036 79.1479C26.6617 72.7326 17.0526 76.434 13.3643 75.4645C13.3643 76.7872 13.3643 78.1063 13.3643 79.429C12.0963 79.6272 10.3877 79.0109 9.39062 79.7894Z" fill="#24A9B8"/>
<path d="M46.2387 78.3477C46.1845 78.773 46.394 79.0902 46.5999 79.4289C47.3621 79.0649 46.2676 78.2756 46.5999 77.6269C49.75 82.1248 53.8537 87.5957 59.6047 88.0787C56.0898 85.1522 51.9752 81.7103 49.8511 77.6269C49.2912 78.8775 48.5759 77.0971 48.0449 78.3477C47.0009 77.7747 47.2538 76.279 46.5999 75.4645C45.8088 76.0772 46.441 77.4395 46.2387 78.3477Z" fill="#F49D2C"/>
<path d="M122.098 83.3934C122.098 83.033 122.098 82.6726 122.098 82.3122C122.098 81.5914 122.098 80.8706 122.098 80.1498C122.098 78.5892 122.098 77.025 122.098 75.4645C121.487 77.6954 121.505 81.1373 122.098 83.3934Z" fill="#7797A7"/>
<path d="M122.099 80.1498C122.601 80.2435 122.38 80.8886 122.46 81.231C123.927 80.3913 126.611 82.0852 126.795 79.429C127.431 79.4109 127.904 79.9804 128.601 79.7894C130.01 76.3187 124.963 74.6752 122.099 75.4645C122.099 77.0251 122.099 78.5892 122.099 80.1498Z" fill="#F6FBFB"/>
<path d="M141.607 79.7894C140.039 78.9568 137.691 79.6632 135.827 79.4289C135.047 78.4342 135.664 76.7295 135.466 75.4645C133.298 75.4645 131.131 75.4645 128.963 75.4645C130.809 77.025 129.726 80.9246 133.298 79.7894C136.069 79.7894 138.836 79.7894 141.607 79.7894Z" fill="#2EA0B1"/>
<path d="M135.826 79.4289C135.826 78.1063 135.826 76.7872 135.826 75.4645C135.826 75.4645 135.645 75.4645 135.465 75.4645C135.663 76.7295 135.046 78.4342 135.826 79.4289Z" fill="#78CBD8"/>
<path d="M113.79 79.7894C112.966 79.9696 112.479 80.8598 111.623 80.8706C111.612 79.7461 110.817 79.4722 110.178 80.5102C109.983 79.8723 108.841 78.9244 108.371 79.7894C109.199 79.6488 109.603 80.5354 109.455 81.231C108.794 81.2742 107.844 81.3247 107.649 80.5102C107.028 81.0652 106.507 80.5823 105.843 80.5102C107.046 79.4758 104.954 78.6108 105.843 76.9061C102.584 83.8548 97.3679 90.8538 90.2009 94.4579C86.8016 97.1069 81.5888 97.1141 78.3882 98.8909C81.95 100.531 85.3494 102.502 88.2501 98.6386C96.7285 92.3279 105.554 86.3452 113.79 79.7894Z" fill="#1788A5"/>
<path d="M85.9741 102.135C88.0585 101.81 90.2296 99.1684 92.4765 98.1701C94.8463 95.968 97.7001 94.1768 100.424 92.4036C106.85 87.4552 113.537 82.5465 120.292 77.9873C119.125 76.9638 116.449 80.2903 114.783 81.1409C105.12 88.0571 95.6121 95.1499 85.9741 102.135Z" fill="#A6DBE5"/>
<path d="M46.6023 79.429C46.6637 79.8939 47.2164 80.0597 47.3248 80.5102C49.9474 82.1464 51.6742 84.7954 53.8272 86.9975C64.7295 97.1357 82.9145 97.6727 94.2865 88.0787C95.5003 86.3452 97.4257 85.1126 98.6214 83.3935C97.6425 84.381 96.8658 83.9521 97.5377 82.6726C94.7128 83.4115 93.0547 87.4444 90.3128 87.3579C86.9533 90.1691 82.6617 91.5422 78.3918 92.0432C76.6145 92.6271 73.6414 92.6523 71.8894 92.0432C67.3666 92.1585 63.4579 89.9492 59.6071 88.0787C53.8561 87.5958 49.7523 82.1248 46.6023 77.627C46.27 78.2757 47.3645 79.065 46.6023 79.429Z" fill="#EF831C"/>
<path d="M29.9788 80.5102C36.2211 84.5504 42.1455 89.5312 48.4022 93.4848C49.1608 93.3334 49.0091 92.0648 49.8472 92.764C43.753 87.9634 35.9104 83.2241 30.7013 78.3478C29.6248 77.353 30.0474 79.8759 29.9788 80.5102Z" fill="#4CDAED"/>
<path d="M100.425 92.4035C102.495 92.1296 103.333 89.6825 105.482 89.5203C105.428 90.1907 103.774 90.3528 104.76 90.9619C110.063 87.7291 115.135 83.7971 120.293 80.1497C120.293 79.4289 120.293 78.7081 120.293 77.9873C113.538 82.5464 106.851 87.4552 100.425 92.4035Z" fill="#47E0E9"/>
<path d="M49.8525 92.764C52.0705 94.5624 54.7907 95.7446 56.7161 97.8097C58.9305 98.7251 61.1558 101.54 63.2185 101.774C52.457 94.0326 41.6739 85.7902 30.7065 78.3478C35.9157 83.2241 43.7583 87.9634 49.8525 92.764Z" fill="#A5DBE5"/>
<path d="M95.7293 79.4289C94.2771 81.4039 92.106 82.8744 90.6719 84.835C92.2613 83.1303 95.6065 81.0832 95.7293 79.0685C95.7293 79.0685 95.8015 79.2847 95.7293 79.4289Z" fill="#211C29"/>
<path d="M98.6206 83.3935C97.4249 85.1126 95.4994 86.3452 94.2856 88.0787C96.6662 86.2731 98.4689 83.4764 101.149 82.3122C101.724 81.4112 102.453 80.5102 102.594 79.429C100.777 79.1731 100.185 82.3591 98.6206 83.3935Z" fill="#C25E1B"/>
<path d="M92.8375 81.9518C91.9742 83.516 90.1968 84.2079 89.2251 85.5559C89.7778 85.4658 90.0126 84.6368 90.6701 84.835C92.1042 82.8744 94.2753 81.404 95.7275 79.429C94.6149 80.0308 93.961 81.3283 92.8375 81.9518Z" fill="#66331F"/>
<path d="M122.099 80.1497C122.099 80.8705 122.099 81.5913 122.099 82.3121C125.83 82.3121 129.566 82.3121 133.297 82.3121C133.257 82.1427 133.297 81.9517 133.297 81.9517C132.105 80.6218 129.891 81.4724 128.24 81.2309C128.211 80.7083 128.265 80.2002 128.601 79.7893C127.904 79.9803 127.431 79.4109 126.795 79.4289C126.611 82.0851 123.927 80.3912 122.46 81.2309C122.38 80.8885 122.601 80.2434 122.099 80.1497Z" fill="#DCF4F8"/>
<path d="M40.8197 79.7893C36.6581 79.7461 42.2719 83.4222 40.8197 79.7893V79.7893Z" fill="#06446E"/>
<path d="M54.1835 80.1497C55.6212 81.2994 57.0337 82.6834 58.1572 84.1142C66.6572 91.2214 80.1569 91.9422 89.2241 85.5558C90.1959 84.2079 91.9732 83.5159 92.8366 81.9517C91.5758 80.8633 90.0803 80.7408 88.8629 80.8705C87.4432 82.55 85.236 83.8223 83.083 84.4746C77.8413 86.6767 70.2661 86.8316 65.0461 84.0889C62.5932 84.1574 60.7184 80.7156 58.5184 83.033C56.8061 82.3698 55.6357 80.9138 54.1835 79.7893C54.1835 79.7893 54.1112 80.0056 54.1835 80.1497Z" fill="#C3430E"/>
<path d="M107.653 80.5102C107.848 81.3247 108.798 81.2743 109.459 81.231C109.607 80.5354 109.203 79.6488 108.375 79.7894C108.003 79.8362 107.801 80.2111 107.653 80.5102Z" fill="#063664"/>
<path d="M58.1631 84.1142C57.0397 82.6834 55.6272 81.2995 54.1895 80.1498C55.3129 81.5806 56.7254 82.9646 58.1631 84.1142Z" fill="#4F302E"/>
<path d="M104.758 90.962C104.491 91.9351 103.263 91.8882 102.952 92.764C104.072 92.6234 104.693 90.7565 105.842 91.6828C104.903 92.9838 103.031 93.4416 102.229 94.9264C103.216 94.2092 104.14 93.4668 105.119 92.764C105.235 92.6775 105.481 92.764 105.481 92.764C109.985 88.5112 115.484 85.5054 120.292 81.5914C120.292 81.1121 120.292 80.6291 120.292 80.1498C115.133 83.7971 110.061 87.7291 104.758 90.962Z" fill="#35AAEE"/>
<path d="M29.981 82.3122C35.1756 85.8225 40.3125 89.7906 45.5144 93.4848C45.3013 92.7135 44.4163 92.5982 44.0695 92.0431C46.833 91.8918 50.0625 94.7858 52.3781 96.7284C53.4112 96.7753 53.8881 97.9934 54.9068 98.17C55.4125 97.7339 56.0844 97.8168 56.713 97.8096C54.7876 95.7445 52.0674 94.5624 49.8494 92.7639C49.0113 92.0648 49.163 93.3334 48.4044 93.4848C42.1477 89.5311 36.2233 84.5503 29.981 80.5101C29.981 81.112 29.981 81.7103 29.981 82.3122Z" fill="#39B9EB"/>
<path d="M48.0438 82.3122C49.9873 83.4258 51.855 88.0282 53.8238 86.9974C51.6707 84.7954 49.944 82.1464 47.3214 80.5101C47.1155 81.2994 48.2317 81.5409 48.0438 82.3122Z" fill="#D5581C"/>
<path d="M16.6187 81.5914C19.0896 81.3643 22.0048 82.0563 24.2048 81.2309C21.7339 81.458 18.8186 80.766 16.6187 81.5914Z" fill="#5D8F9F"/>
<path d="M105.485 92.7639C110.102 89.477 114.863 86.2081 119.213 82.6725C119.516 85.7252 122.583 86.4316 125.354 85.9162C125.437 85.8225 125.621 85.599 125.715 85.5558C122.948 86.2189 119.516 84.9899 120.296 81.5913C115.488 85.5053 109.99 88.5111 105.485 92.7639Z" fill="#BCE3F0"/>
<path d="M15.8949 84.1142C19.7494 84.1142 23.6002 84.1142 27.4547 84.1142C28.1375 83.8403 28.7299 83.0907 28.5384 82.3122C24.7959 82.1464 19.9806 82.7339 16.2561 81.9518C15.512 82.3374 16.0647 83.4367 15.8949 84.1142Z" fill="#6FAFC2"/>
<path d="M70.4443 82.6726C73.4679 82.2293 77.373 83.5844 79.8367 81.9518C79.8367 81.9518 79.591 81.8653 79.4754 81.9518C76.8781 83.0222 73.067 81.6058 70.4443 82.6726Z" fill="#2D6588"/>
<path d="M133.3 82.3122C133.3 82.9141 133.3 83.5123 133.3 84.1142C129.807 84.1142 126.317 84.1142 122.824 84.1142C125.552 84.0133 134.525 86.5434 133.3 81.9518C133.3 81.9518 133.261 82.1428 133.3 82.3122Z" fill="#4788AD"/>
<path d="M27.8137 85.5558C27.0551 86.3054 25.592 85.736 24.5625 85.9162C32.0114 92.4251 40.4645 97.7015 48.4046 103.576C46.4575 101.482 50.4131 100.736 51.6847 101.388C52.9274 98.9593 55.3513 102.142 56.7132 101.774C55.5825 100.812 54.2857 99.8603 53.1008 98.8908C50.4998 97.1717 48.0795 95.2471 45.5147 93.4847C40.3127 89.7906 35.1758 85.8225 29.9812 82.3121C30.169 83.6961 29.2225 85.3287 27.8137 85.5558Z" fill="#F5FBFB"/>
<path d="M50.5741 85.5558C52.1347 86.8244 53.6664 88.3309 54.909 89.8807C59.7172 93.0342 64.883 96.022 70.8038 96.368C73.0905 96.368 75.3807 96.368 77.6674 96.368C84.2348 96.4545 89.8413 93.1531 95.0071 89.5203C96.0439 88.2084 97.3046 86.9145 98.6196 85.9162C99.5985 84.7881 100.158 83.4474 101.148 82.3121C98.4679 83.4762 96.6652 86.273 94.2846 88.0786C82.9127 97.6726 64.7277 97.1356 53.8253 86.9974C51.8565 88.0282 49.9889 83.4258 48.0454 82.3121C48.8221 83.4402 49.7144 84.4602 50.5741 85.5558Z" fill="#B24216"/>
<path d="M122.099 83.3934C122.146 83.7646 122.521 83.9664 122.821 84.1142C126.314 84.1142 129.804 84.1142 133.297 84.1142C133.297 83.5123 133.297 82.914 133.297 82.3121C129.566 82.3121 125.83 82.3121 122.099 82.3121C122.099 82.6725 122.099 83.0329 122.099 83.3934Z" fill="#7CCBE9"/>
<path d="M81.2806 83.3934C80.8146 83.4547 80.6484 84.0061 80.1968 84.1142C80.1968 84.1142 80.0162 84.1142 79.8356 84.1142C76.4544 84.3089 71.1116 85.5739 68.2758 83.3934C68.2361 83.2204 68.2758 82.8528 68.2758 82.6726C68.2758 82.6726 67.9146 82.6906 67.9146 82.6726C68.106 85.9631 72.0905 85.1522 74.4169 85.1954C76.6639 84.8026 80.5581 86.3884 81.2806 83.3934Z" fill="#BB4312"/>
<path d="M105.481 92.764C105.481 92.764 105.235 92.6775 105.12 92.764C103.454 94.9985 100.283 96.1158 98.9785 98.1701C100.221 98.7143 100.449 96.9195 101.507 97.8097C100.116 100.134 106.695 98.1773 106.203 99.9721C112.424 96.1049 118.128 91.2431 124.266 87.3579C124.461 86.7596 125.19 86.5181 125.349 85.9163C122.579 86.4316 119.512 85.7252 119.208 82.6726C114.859 86.2082 110.098 89.4771 105.481 92.764Z" fill="#FBFCFB"/>
<path d="M79.8323 84.1142C76.0428 83.689 71.679 85.0008 68.2725 83.3934C71.1082 85.5739 76.451 84.3089 79.8323 84.1142Z" fill="#6F3422"/>
<path d="M27.4529 84.1143C23.5984 84.1143 19.7475 84.1143 15.8931 84.1143C19.3321 84.7197 23.9885 84.7089 27.4529 84.1143Z" fill="#3D7087"/>
<path d="M16.2559 85.5559C18.5425 85.5559 20.8328 85.5559 23.1195 85.5559C21.288 84.6945 18.2716 85.1053 16.2559 85.5559Z" fill="#252146"/>
<path d="M127.522 85.5558C129.328 85.5558 131.134 85.5558 132.941 85.5558C133.121 85.5558 133.302 85.5558 133.302 85.5558C131.788 84.9431 129.061 84.9756 127.522 85.5558Z" fill="#212047"/>
<path d="M16.2582 86.2767C17.3058 85.5919 18.6785 86.0533 19.8706 85.9163C21.0158 85.6965 22.6341 86.3668 23.4831 85.5559C23.4831 85.5559 23.3024 85.5559 23.1218 85.5559C20.8351 85.5559 18.5448 85.5559 16.2582 85.5559C16.1751 85.6821 16.2112 86.1109 16.2582 86.2767Z" fill="#BD6981"/>
<path d="M19.865 85.9163C19.7783 86.5182 18.8354 85.9776 18.7812 86.6371C20.2335 87.3255 20.5694 89.9421 22.7549 89.8808C21.6315 91.6576 25.4607 92.3279 25.616 92.4541C26.8442 93.9678 28.7516 93.7912 28.8961 96.0077C31.9486 96.6816 32.7686 99.2982 35.3985 99.2513C35.0156 101.169 39.5564 101.497 40.9002 103.493C43.1074 105.187 46.9149 104.982 48.7645 106.82C49.9674 105.562 50.8489 107.4 51.6545 106.099C50.5563 105.241 49.534 104.355 48.4033 103.576C40.4631 97.7016 32.01 92.4252 24.5612 85.9163C24.2938 85.9812 23.8712 85.8983 23.8387 85.5559C23.8387 85.5559 23.658 85.5559 23.4774 85.5559C22.6285 86.3668 21.0101 85.6965 19.865 85.9163Z" fill="#FA5E64"/>
<path d="M24.5638 85.9163C25.5933 85.7361 27.0564 86.3056 27.815 85.5559C26.4892 85.5559 25.1671 85.5559 23.8413 85.5559C23.8738 85.8983 24.2965 85.9812 24.5638 85.9163Z" fill="#9CBDCD"/>
<path d="M54.9101 89.8808C53.6674 88.331 52.1358 86.8245 50.5752 85.5559C51.8179 87.1057 53.3495 88.6122 54.9101 89.8808Z" fill="#413335"/>
<path d="M125.35 85.9163C125.191 86.5182 124.461 86.7597 124.266 87.3579C126.119 85.2063 130.808 85.4226 132.575 86.6371C133.077 86.5434 132.856 85.8983 132.936 85.5559C131.13 85.5559 129.324 85.5559 127.517 85.5559C126.914 85.5559 126.314 85.5559 125.711 85.5559C125.617 85.5992 125.433 85.8226 125.35 85.9163Z" fill="#D47889"/>
<path d="M132.579 86.6371C132.345 89.4411 129.061 90.789 127.522 92.764C130.275 91.5278 133.168 88.7347 133.302 85.5559C133.302 85.5559 133.121 85.5559 132.941 85.5559C132.861 85.8983 133.082 86.5434 132.579 86.6371Z" fill="#703449"/>
<path d="M16.2559 86.2766C19.5829 92.7531 27.0751 95.5679 32.4215 100.062C37.786 104.773 43.9055 108.204 49.4903 112.586C50.3501 112.049 51.0039 113.149 52.2647 112.709C53.5904 113.462 54.6055 110.932 55.2702 112.226C55.4436 110.871 55.7615 110.918 56.7152 111.505C56.9897 110.716 56.2456 110.309 55.9927 109.703C54.6994 108.424 53.1678 107.177 51.6578 106.099C50.8522 107.4 49.9708 105.562 48.7678 106.82C46.9183 104.982 43.1107 105.187 40.9035 103.493C39.5597 101.497 35.0189 101.169 35.4018 99.2513C32.7719 99.2981 31.9519 96.6816 28.8994 96.0076C28.7549 93.7911 26.8475 93.9677 25.6193 92.454C25.464 92.3279 21.6348 91.6575 22.7583 89.8807C20.5727 89.942 20.2368 87.3254 18.7846 86.637C18.8388 85.9775 19.7816 86.5181 19.8683 85.9162C18.6762 86.0532 17.3035 85.5919 16.2559 86.2766Z" fill="#E34854"/>
<path d="M49.1278 86.6371C49.3409 87.6354 48.3295 87.4552 48.0441 87.7183C47.6034 86.1685 45.6924 86.6407 44.4316 85.9163C49.6299 90.324 55.464 94.1696 60.9586 98.2602C63.8774 101.832 67.1575 100.502 70.8025 99.2513C69.4875 96.9879 64.9358 97.6907 62.5227 95.9788C57.4653 93.9605 53.1882 90.4466 49.1278 86.6371Z" fill="#18809E"/>
<path d="M95.0063 89.5203C96.3213 88.522 97.582 87.2281 98.6188 85.9163C97.3039 86.9146 96.0431 88.2084 95.0063 89.5203Z" fill="#342C35"/>
<path d="M124.272 87.3579C118.134 91.2431 112.43 96.105 106.209 99.9721C104.757 101.089 103.525 102.459 101.874 103.216C100.22 104.286 98.6557 105.634 97.1783 106.82C97.4095 108.099 91.4706 110.2 95.3829 111.134C97.1241 111.426 101.715 109.642 99.3457 112.586C100.086 112.1 100.776 111.613 101.513 111.145C103.72 110.233 105.425 108.052 107.654 107.18C114.319 102.426 120.811 97.4637 127.523 92.764C129.062 90.789 132.345 89.4411 132.58 86.6371C130.814 85.4225 126.125 85.2063 124.272 87.3579Z" fill="#F2545B"/>
<path d="M100.428 92.4035C97.7045 94.1767 94.8507 95.9679 92.481 98.17C93.6189 96.923 95.6021 98.9233 94.6484 96.7284C95.4721 97.1248 95.9344 97.6871 96.8159 96.7284C99.0917 95.9319 100.782 93.719 102.957 92.7639C103.268 91.8881 104.496 91.935 104.763 90.9619C103.777 90.3528 105.432 90.1906 105.486 89.5203C103.336 89.6824 102.498 92.1296 100.428 92.4035Z" fill="#3BC7EF"/>
<path d="M102.957 92.764C100.782 93.7191 99.0917 95.932 96.8159 96.7285C95.8044 98.4296 93.5358 98.7323 92.481 100.333C93.0698 99.8928 93.6008 99.3703 94.2872 99.9721C94.0921 100.57 93.3624 100.812 93.2034 101.414C93.8067 101.014 94.3341 100.585 95.0097 100.333C97.188 98.271 99.8395 96.7429 102.235 94.9264C103.037 93.4416 104.908 92.9839 105.847 91.6828C104.698 90.7565 104.077 92.6235 102.957 92.764Z" fill="#2B8AE5"/>
<path d="M45.5182 93.4848C48.0831 95.2472 50.5034 97.1718 53.1043 98.8909C53.4078 97.889 51.6883 97.4421 52.3819 96.7285C50.0663 94.7859 46.8368 91.8918 44.0732 92.0432C44.42 92.5982 45.3051 92.7135 45.5182 93.4848Z" fill="#2C9DE1"/>
<path d="M18.7812 92.764C23.4702 96.2491 28.4265 99.5252 32.8698 103.216C37.0638 105.173 40.893 109.62 44.7908 111.145C37.7935 105.677 30.2688 100.689 23.1993 95.2039C21.9313 94.6705 18.7957 91.3188 18.7812 92.764Z" fill="#7DCCE0"/>
<path d="M78.3886 92.0432C76.2212 92.0432 74.0537 92.0432 71.8862 92.0432C73.6383 92.6523 76.6113 92.6271 78.3886 92.0432Z" fill="#F6DDAD"/>
<path d="M101.509 113.668C106.382 110.691 110.818 106.917 115.597 103.937C120.156 99.8351 125.687 96.7573 130.408 93.1244C130.076 91.7728 126.662 95.3805 125.243 96.2599C117.273 101.929 109.08 107.501 101.509 113.668Z" fill="#7BC6DD"/>
<path d="M22.3937 100.693C25.5907 102.614 27.8701 100.909 30.7023 101.774C29.3079 102.65 32.0425 103.086 32.8698 103.216C28.4265 99.5251 23.4702 96.249 18.7812 92.7639C19.3303 95.6364 20.9776 98.152 22.3937 100.693Z" fill="#30B2F0"/>
<path d="M102.231 94.9264C99.8362 96.7428 97.1846 98.2709 95.0063 100.332C95.7252 101.536 97.2497 99.572 98.3406 100.97C99.847 101.713 100.721 102.084 102.231 101.774C101.895 102.185 101.841 102.693 101.87 103.216C103.521 102.459 104.753 101.089 106.205 99.972C106.696 98.1772 100.118 100.134 101.509 97.8096C100.45 96.9194 100.223 98.7142 98.98 98.17C100.284 96.1157 103.456 94.9984 105.121 92.7639C104.142 93.4667 103.217 94.2091 102.231 94.9264Z" fill="#E6F8FA"/>
<path d="M115.597 103.937C118.544 101.443 122.298 100.884 125.35 102.135C128.067 99.8964 129.515 96.3753 130.408 93.1244C125.686 96.7573 120.156 99.8352 115.597 103.937Z" fill="#2EB1EE"/>
<path d="M77.6664 96.368C75.3797 96.368 73.0894 96.368 70.8027 96.368C72.6776 96.9771 75.7662 96.9555 77.6664 96.368Z" fill="#6F3B28"/>
<path d="M53.1041 98.8908C54.289 99.8603 55.5859 100.812 56.7166 101.774C58.1904 102.448 59.6896 103.659 60.6903 105.018C61.1201 104.34 60.7336 103.875 61.774 103.576C59.8594 101.381 56.8864 100.25 54.9103 98.17C53.8916 97.9934 53.4148 96.7752 52.3816 96.7284C51.6881 97.442 53.4076 97.8889 53.1041 98.8908Z" fill="#1D7BCE"/>
<path d="M92.4762 98.17C90.2293 99.1683 88.0582 101.81 85.9739 102.134C85.2983 102.704 86.9528 103.306 87.4188 103.576C89.1998 102.628 90.6989 101.273 92.4762 100.332C93.5311 98.7323 95.7997 98.4295 96.8112 96.7284C95.9297 97.6871 95.4673 97.1248 94.6437 96.7284C95.5974 98.9233 93.6142 96.923 92.4762 98.17Z" fill="#2EA8EA"/>
<path d="M54.9053 98.17C56.8813 100.25 59.8543 101.381 61.7689 103.576C62.4914 103.634 64.0158 102.351 63.2139 101.774C61.1512 101.54 58.9259 98.725 56.7115 97.8096C56.0829 97.8168 55.411 97.7339 54.9053 98.17Z" fill="#29A0EA"/>
<path d="M76.5845 98.8909C75.4394 98.6711 73.821 99.3414 72.9721 98.5305C73.8499 97.7628 75.4358 98.3611 76.5845 98.1701C75.6164 97.352 73.8752 98.0331 72.6108 97.8097C72.2857 99.9217 75.5803 99.4243 76.5845 98.8909Z" fill="#885D36"/>
<path d="M76.5827 98.8908C76.6657 98.7647 76.6657 98.2962 76.5827 98.17C75.4339 98.361 73.848 97.7628 72.9702 98.5304C73.8191 99.3413 75.4375 98.671 76.5827 98.8908Z" fill="#DE7823"/>
<path d="M92.4783 100.332C90.701 101.273 89.2018 102.628 87.4209 103.576C87.6449 104.192 88.6094 104.07 88.8659 104.657C90.3795 103.645 91.6475 102.333 93.2008 101.414C93.3597 100.812 94.0895 100.57 94.2845 99.972C93.5982 99.3702 93.0671 99.8927 92.4783 100.332Z" fill="#1A6ACB"/>
<path d="M48.4055 103.576C49.5362 104.355 50.5585 105.241 51.6567 106.099C53.1667 107.177 54.6984 108.424 55.9916 109.703C56.6491 109.505 56.8839 110.334 57.4366 110.424C58.3505 108.506 59.2789 106.654 60.6878 105.018C59.6871 103.659 58.188 102.448 56.7141 101.774C55.3522 102.142 52.9283 98.9593 51.6856 101.388C50.414 100.736 46.4584 101.482 48.4055 103.576Z" fill="#C4EAF7"/>
<path d="M58.1566 113.668C57.687 115.491 57.7846 117.484 57.7954 119.434C58.1494 120.504 58.1603 121.842 58.8791 122.678C58.0952 117.946 58.3373 112.994 61.0466 108.982C64.9336 100.689 77.6855 98.689 84.1662 104.657C88.7685 107.141 90.2134 112.839 91.3911 117.272C91.9004 108.914 84.6756 101.233 76.5801 100.332C67.9716 99.1035 59.8834 105.53 58.1566 113.668Z" fill="#E1E8DB"/>
<path d="M93.1972 101.414C91.6439 102.333 90.3759 103.645 88.8623 104.657C88.9743 106.384 91.5969 108.676 92.1135 110.784C93.5079 109.162 95.4586 108.085 97.1709 106.82C98.6484 105.634 100.213 104.286 101.867 103.216C101.838 102.693 101.892 102.185 102.228 101.774C100.718 102.084 99.8441 101.713 98.3377 100.97C97.2468 99.5721 95.7223 101.536 95.0035 100.333C94.3279 100.585 93.8005 101.014 93.1972 101.414Z" fill="#C3EBF7"/>
<path d="M28.1749 105.739C29.5585 106.431 31.1877 106.827 32.2389 108.171C33.4093 109.159 35.678 106.921 36.1223 109.343C40.5295 107.923 43.8746 113.711 48.4046 113.667C47.2414 112.752 46.0312 111.959 44.7921 111.145C40.8943 109.62 37.0651 105.173 32.8711 103.216C32.0438 103.086 29.3092 102.65 30.7036 101.774C27.8715 100.909 25.592 102.614 22.395 100.693C23.8906 102.844 26.1339 104.243 28.1749 105.739Z" fill="#2C9BE4"/>
<path d="M61.0493 108.982C66.6667 102.675 76.3552 100.127 84.1689 104.657C77.6882 98.689 64.9363 100.689 61.0493 108.982Z" fill="#F8E05C"/>
<path d="M115.597 103.936C110.818 106.917 106.382 110.69 101.509 113.667C100.577 113.66 100.035 114.72 99.3413 115.109C99.9663 115.48 100.757 116.061 101.87 115.469C101.025 117.463 104.128 117.012 105.482 117.272C112.216 112.435 119.376 108.042 125.351 102.134C122.298 100.884 118.545 101.442 115.597 103.936Z" fill="#2590DF"/>
<path d="M137.997 102.135C135.281 101.064 131.347 102.48 128.605 101.414C127.951 102.823 131.516 101.85 132.579 102.135C134.385 102.135 136.191 102.135 137.997 102.135Z" fill="#92BABD"/>
<path d="M13.0044 102.135C15.4067 101.9 19.6404 102.603 20.9518 101.774C18.358 102.005 15.3236 101.309 13.0044 102.135Z" fill="#9CC3C7"/>
<path d="M61.049 108.982C58.3397 112.994 58.0977 117.946 58.8816 122.678C58.8707 122.858 58.8346 123.233 58.8816 123.398C59.9436 122.458 58.3686 120.097 59.9653 119.434C60.1893 118.173 59.5065 116.435 60.3265 115.47C60.5108 113.123 61.5945 110.943 62.8552 108.982C62.9347 108.852 62.8552 108.622 62.8552 108.622C64.228 107.166 65.5357 105.09 67.5514 104.657C68.0355 104.394 68.5051 104.174 68.9964 103.937C69.997 103.839 70.8279 103.136 71.8863 103.216C72.9484 102.65 75.1845 102.599 76.2213 103.216C84.1867 103.428 90.0533 111.783 89.2261 119.434C89.2261 120.036 89.2261 120.634 89.2261 121.236C89.7715 120.631 90.0172 119.614 89.9485 118.713C91.3357 118.443 89.9702 120.775 91.3935 120.515C91.3935 119.434 91.3935 118.353 91.3935 117.272C90.2159 112.839 88.7709 107.141 84.1686 104.657C76.3549 100.127 66.6664 102.675 61.049 108.982Z" fill="#EBB83A"/>
<path d="M71.8862 103.216C73.3312 103.216 74.7762 103.216 76.2212 103.216C75.1844 102.599 72.9483 102.65 71.8862 103.216Z" fill="#4E583E"/>
<path d="M69.0001 103.937C66.9916 105.497 64.7446 107.072 62.859 108.982C61.5982 110.943 60.5145 113.123 60.3302 115.47C60.3302 116.792 60.3302 118.111 60.3302 119.434C60.1388 120.631 60.9227 121.553 61.0527 122.678C65.6405 136.481 87.857 133.382 89.2298 119.434C90.057 111.783 84.1904 103.428 76.225 103.216C74.78 103.216 73.335 103.216 71.8901 103.216C70.8316 103.136 70.0007 103.839 69.0001 103.937Z" fill="#1F3248"/>
<path d="M67.5502 104.657C65.7945 105.544 64.4832 107.432 62.854 108.622C62.854 108.622 62.9335 108.852 62.854 108.982C64.7397 107.072 66.9866 105.497 68.9952 103.937C68.5039 104.174 68.0342 104.394 67.5502 104.657Z" fill="#4E492B"/>
<path d="M62.854 108.622C64.4832 107.432 65.7945 105.544 67.5502 104.657C65.5344 105.09 64.2267 107.166 62.854 108.622Z" fill="#B69233"/>
<path d="M63.9375 110.424C64.035 110.337 64.2265 110.179 64.2987 110.063C68.1243 105.065 75.342 104.376 80.916 106.459C75.6852 102.643 67.0731 104.83 63.9375 110.424Z" fill="#D2DDD1"/>
<path d="M64.3008 110.063C64.7523 109.955 64.9185 109.404 65.3845 109.343C65.1822 111.148 68.2709 111.073 68.6357 109.703C69.3763 111.357 70.991 109.609 72.6094 110.784C72.902 109.887 73.5053 109.256 74.4156 108.982C74.1302 110.363 73.1151 111.505 72.9706 112.947C74.6071 112.157 73.6967 113.797 73.6931 114.749C75.6294 115.149 75.0153 112.561 76.5831 113.307C75.8859 111.588 75.4957 109.808 74.4156 108.261C75.4271 108.222 75.8678 109.321 76.2218 110.063C79.0251 110.175 81.9475 109.126 84.1692 110.424C84.1114 108.831 82.3377 108.088 81.6405 106.82C81.608 106.477 81.1853 106.394 80.918 106.459C75.344 104.376 68.1264 105.065 64.3008 110.063Z" fill="#FBDE5F"/>
<path d="M43.3485 116.911C44.7754 118.158 46.5058 118.421 48.0447 119.434C48.8033 118.976 50.6745 116.352 51.6571 117.632C51.8522 116.493 50.5589 116.136 50.2122 115.109C49.4788 114.846 49.1429 113.959 48.4059 113.667C43.8759 113.711 40.5308 107.923 36.1236 109.343C35.6793 106.921 33.4107 109.159 32.2403 108.171C31.189 106.827 29.5598 106.431 28.1763 105.739C33.0133 109.656 38.2116 113.311 43.3485 116.911Z" fill="#2486DA"/>
<path d="M64.3038 110.063C64.2315 110.179 64.0401 110.337 63.9425 110.424C63.6897 111.029 62.9455 111.437 63.22 112.226C64.1123 112.727 62.9166 113.631 63.22 114.388C64.712 113.354 68.5628 113.804 71.1674 114.388C70.3835 114.832 69.4768 114.828 68.6387 115.109C68.4761 115.942 69.5526 116.216 69.7224 116.911C70.174 117.019 70.3402 117.571 70.8062 117.632C73.5914 117.001 76.7342 117.679 79.476 116.911C79.6133 116.832 79.8373 116.911 79.8373 116.911C80.5598 116.439 81.21 115.556 82.0047 115.109C82.7597 115.855 82.0878 116.634 81.6435 117.272C83.1029 116.875 83.8832 116.479 84.5334 115.109C85.3354 115.354 85.4546 115.715 86.3397 115.83C86.9176 113.895 84.92 111.945 85.6172 110.424C84.519 109.087 83.251 107.548 81.6435 106.82C82.3407 108.088 84.1144 108.831 84.1722 110.424C81.9505 109.126 79.0281 110.175 76.2248 110.063C75.8708 109.321 75.4301 108.222 74.4186 108.261C75.4987 109.808 75.8889 111.588 76.5861 113.307C75.0183 112.561 75.6324 115.149 73.6961 114.749C73.6997 113.797 74.6101 112.157 72.9736 112.947C73.1181 111.505 74.1332 110.363 74.4186 108.982C73.5083 109.256 72.905 109.887 72.6124 110.784C70.994 109.609 69.3793 111.357 68.6387 109.703C68.2738 111.073 65.1852 111.148 65.3875 109.343C64.9215 109.404 64.7553 109.955 64.3038 110.063Z" fill="#FBC231"/>
<path d="M92.1138 110.784C91.9802 112.622 93.2554 113.992 93.1976 115.83C94.8918 117.744 96.7269 113.898 98.6162 113.668C98.6162 113.668 98.8619 113.754 98.9775 113.668C99.4615 112.431 100.997 112.302 101.506 111.145C100.769 111.613 100.079 112.1 99.3387 112.586C101.708 109.642 97.1171 111.426 95.3759 111.134C91.4636 110.2 97.4024 108.099 97.1712 106.82C95.4589 108.085 93.5082 109.162 92.1138 110.784Z" fill="#D14654"/>
<path d="M101.507 111.145C100.998 112.302 99.4626 112.431 98.9785 113.667C101.865 111.516 105.073 109.678 107.648 107.18C105.419 108.052 103.714 110.233 101.507 111.145Z" fill="#5B2C43"/>
<path d="M49.4917 112.586C51.6881 114.111 53.6677 115.945 55.9941 117.272C56.4384 114.976 56.5793 112.597 57.4391 110.424C56.8864 110.334 56.6516 109.505 55.9941 109.703C56.247 110.308 56.9911 110.716 56.7166 111.505C55.7629 110.918 55.445 110.871 55.2716 112.226C54.6069 110.932 53.5918 113.462 52.2661 112.709C51.0053 113.148 50.3515 112.049 49.4917 112.586Z" fill="#C33D51"/>
<path d="M79.8352 116.911C80.1964 116.911 80.5577 116.911 80.9189 116.911C80.7708 118.003 79.5679 118.807 78.7515 119.434C78.9646 120.886 79.4017 122.148 80.5577 123.038C81.6703 121.571 85.1202 119.874 85.6151 122.678C86.6627 120.562 86.7855 117.942 87.4213 115.83C86.9589 113.977 86.5435 112.121 85.6151 110.424C84.9179 111.945 86.9156 113.895 86.3376 115.83C85.4525 115.715 85.3333 115.354 84.5314 115.109C83.8811 116.479 83.1008 116.875 81.6414 117.272C82.0857 116.634 82.7577 115.855 82.0027 115.109C81.2079 115.556 80.5577 116.439 79.8352 116.911Z" fill="#F4951A"/>
<path d="M23.1177 120.515C23.4826 120.713 23.6379 121.229 23.8402 121.596C29.7574 120.176 35.7324 121.467 41.1799 118.353C40.8873 117.618 39.9987 117.282 39.735 116.551C37.7951 114.969 35.6637 113.311 33.5035 111.956C31.0723 108.896 29.2589 113.397 28.8976 115.47C25.9174 114.853 22.5506 117.322 23.1177 120.515Z" fill="#E2F5F8"/>
<path d="M109.817 116.551C109.553 117.034 109.333 117.502 109.094 117.992C113.74 121.027 119.895 119.499 124.266 120.876C124.003 120.079 125.256 120.277 124.989 119.434C124.844 117.001 122.413 115.052 119.932 115.47C120.419 112.914 117.815 109.04 115.626 112.255C113.682 113.621 111.605 114.997 109.817 116.551Z" fill="#E8F6F9"/>
<path d="M62.1348 114.749C62.1348 115.109 62.1348 115.469 62.1348 115.83C62.8862 116.587 62.3154 118.046 62.4961 119.074C63.1066 120.173 63.3233 119.239 63.2186 118.353C65.7798 118.45 67.0622 118.291 69.721 119.794C69.4247 118.306 67.8461 117.326 67.5535 115.83C68.4205 115.812 69.0129 116.54 69.721 116.911C69.5512 116.216 68.4747 115.942 68.6372 115.109C69.4753 114.828 70.382 114.832 71.1659 114.388C68.5614 113.804 64.7105 113.354 63.2186 114.388C62.9151 113.631 64.1108 112.727 63.2186 112.226C62.5936 112.813 62.1023 113.822 62.1348 114.749Z" fill="#F8A81E"/>
<path d="M57.7976 119.434C57.7868 117.484 57.6893 115.491 58.1589 113.667C57.1221 115.102 57.1763 117.852 57.7976 119.434Z" fill="#1D4554"/>
<path d="M93.2021 115.83C93.2021 116.432 93.2021 117.03 93.2021 117.632C95.142 116.551 96.9049 115.023 98.6208 113.667C96.7315 113.898 94.8964 117.744 93.2021 115.83Z" fill="#843A4E"/>
<path d="M61.7705 119.074C61.9837 118.05 61.3298 116.558 62.1318 115.83C62.1318 115.47 62.1318 115.109 62.1318 114.749C61.2901 115.761 61.0553 117.938 61.7705 119.074Z" fill="#38312B"/>
<path d="M43.3477 116.911C47.8199 119.787 51.9453 125.107 57.7974 124.84C56.9666 120.274 54.4162 117.239 50.2113 115.109C50.5581 116.136 51.8513 116.493 51.6563 117.632C50.6737 116.353 48.8024 118.976 48.0438 119.434C46.5049 118.421 44.7746 118.158 43.3477 116.911Z" fill="#1F6BB9"/>
<path d="M105.483 117.272C104.128 117.012 101.025 117.463 101.87 115.47C100.758 116.061 99.9664 115.48 99.3415 115.109C95.4437 117.239 92.3984 120.389 91.7554 124.84C97.3727 125.219 101.184 120.032 105.483 117.272Z" fill="#1F6FBF"/>
<path d="M59.9649 119.434C60.131 119.384 60.3261 119.434 60.3261 119.434C60.3261 118.111 60.3261 116.792 60.3261 115.47C59.5061 116.435 60.1888 118.173 59.9649 119.434Z" fill="#785D3E"/>
<path d="M61.7742 119.074C62.6196 119.578 61.7237 120.933 62.4967 121.596C64.2488 123.881 65.9322 127.439 69.3604 128.084C68.5729 126.974 66.6763 126.375 66.4704 124.84C67.6661 124.415 67.565 125.896 68.2766 126.282C68.4247 125.222 70.7909 125.979 71.5278 126.642C73.0234 124.512 75.6243 127.32 77.3908 125.644C79.7172 126.891 81.2995 124.487 83.4489 124.48C81.7077 126.869 79.1356 128.596 76.224 128.805C81.4946 129.619 85.5188 124.112 87.4226 119.794C87.4226 118.472 87.4226 117.153 87.4226 115.83C86.7868 117.942 86.664 120.562 85.6163 122.678C85.1214 119.874 81.6716 121.571 80.5589 123.038C79.4029 122.148 78.9658 120.886 78.7527 119.434C79.5691 118.807 80.7721 118.003 80.9202 116.911C80.5589 116.911 80.1977 116.911 79.8364 116.911C79.8364 116.911 79.6125 116.832 79.4752 116.911C79.0453 117.527 78.5179 118.396 77.669 118.353C77.4125 119.773 78.2072 120.912 78.0302 122.317C75.599 120.631 73.493 121.196 71.1666 122.678C71.3869 120.724 72.2359 117.895 69.3604 117.632C70.7223 119.185 70.2562 120.822 69.7216 122.678C67.5144 122.299 66.5138 122.115 64.6642 121.596C63.6816 122.465 65.3831 122.598 64.6642 123.398C63.2662 122.44 62.4534 120.771 62.4967 119.074C62.3161 118.046 62.8869 116.587 62.1355 115.83C61.3335 116.558 61.9874 118.05 61.7742 119.074Z" fill="#E56E11"/>
<path d="M62.4929 119.074C62.4495 120.771 63.2623 122.44 64.6603 123.398C65.3792 122.598 63.6777 122.465 64.6603 121.596C66.5099 122.115 67.5105 122.299 69.7177 122.678C70.2524 120.822 70.7184 119.185 69.3565 117.632C72.232 117.895 71.3831 120.724 71.1627 122.678C73.4891 121.196 75.5952 120.631 78.0264 122.317C78.2034 120.912 77.4086 119.773 77.6651 118.353C76.119 119.722 73.7962 118.807 71.8852 119.074C72.1309 118.23 70.8484 118.403 70.8015 117.632C70.3355 117.571 70.1693 117.019 69.7177 116.911C69.0097 116.54 68.4173 115.812 67.5503 115.83C67.8429 117.326 69.4215 118.306 69.7177 119.794C67.059 118.291 65.7766 118.45 63.2153 118.353C63.3201 119.239 63.1034 120.173 62.4929 119.074Z" fill="#F68E15"/>
<path d="M23.1226 120.515C23.1298 121.142 23.0467 121.813 23.4838 122.317C28.0174 124.08 33.8588 122.526 38.685 123.016C41.0909 123.741 43.1283 121.481 44.7972 122.317C45.3897 121.701 45.4258 121.301 45.1585 120.515C43.5509 119.07 41.6363 117.718 39.7398 116.551C40.0035 117.282 40.8922 117.618 41.1848 118.353C35.7372 121.467 29.7622 120.176 23.8451 121.596C23.6428 121.229 23.4874 120.713 23.1226 120.515Z" fill="#B8E6F4"/>
<path d="M106.205 119.074C105.948 119.805 105.518 120.277 104.76 120.515C105.172 121.51 105.233 122.144 105.843 123.038C111.905 122.649 118.599 123.993 124.628 122.317C124.885 121.449 125.842 120.18 124.989 119.434C125.257 120.277 124.003 120.079 124.267 120.876C119.896 119.499 113.74 121.027 109.095 117.992C109.333 117.502 109.553 117.034 109.817 116.551C108.582 117.362 107.375 118.14 106.205 119.074Z" fill="#BEE8F5"/>
<path d="M70.8027 117.632C70.8497 118.403 72.1321 118.23 71.8865 119.074C73.7974 118.807 76.1202 119.722 77.6664 118.353C78.5153 118.396 79.0427 117.527 79.4726 116.911C76.7307 117.679 73.5879 117.001 70.8027 117.632Z" fill="#FDAC20"/>
<path d="M89.2275 121.236C88.8698 122.043 88.4978 122.843 88.505 123.759C88.9963 122.728 90.192 122.663 91.0337 121.957C90.9687 121.69 91.0518 121.268 91.3949 121.236C91.3986 121.056 91.3949 120.695 91.3949 120.515C89.9716 120.775 91.3371 118.443 89.95 118.713C90.0186 119.614 89.773 120.631 89.2275 121.236Z" fill="#EB9A29"/>
<path d="M124.628 122.317C118.599 123.993 111.905 122.649 105.843 123.038C105.233 122.144 105.172 121.51 104.76 120.515C105.518 120.277 105.948 119.805 106.205 119.074C103.448 120.706 101.086 122.955 98.2573 124.48C102.715 125.319 107.95 124.599 112.707 124.84C116.706 124.296 122.172 126.487 124.628 122.317Z" fill="#8FCFE4"/>
<path d="M58.8823 123.399C59.2508 124.127 59.5868 124.837 59.9661 125.561C60.8403 125.691 61.3821 125.637 62.1335 125.921C61.794 124.887 60.2623 123.622 61.0498 122.678C60.9197 121.553 60.1358 120.631 60.3273 119.434C60.3273 119.434 60.1322 119.384 59.9661 119.434C58.3694 120.097 59.9444 122.458 58.8823 123.399Z" fill="#EC902D"/>
<path d="M61.0504 122.678C60.2629 123.622 61.7946 124.887 62.1342 125.921C63.1962 128.163 65.5154 129.435 67.1916 130.967C68.8569 131.486 70.45 132.286 72.249 132.409C73.5747 132.409 74.8969 132.409 76.2227 132.409C79.2607 132.722 81.728 130.816 84.17 129.525C85.727 127.637 87.6163 126.029 88.505 123.759C88.4977 122.843 88.8698 122.043 89.2274 121.236C89.2274 120.634 89.2274 120.036 89.2274 119.434C87.8547 133.382 65.6382 136.481 61.0504 122.678Z" fill="#D7CFB6"/>
<path d="M62.4961 121.596C64.3384 128.278 72.6796 131.955 79.1133 129.525C81.9852 127.835 84.7848 125.467 86.6994 122.678C86.62 121.622 87.3244 120.793 87.4219 119.794C85.5182 124.112 81.4939 129.619 76.2234 128.805C79.135 128.596 81.7071 126.869 83.4482 124.48C81.2988 124.487 79.7166 126.891 77.3902 125.644C75.6237 127.32 73.0227 124.512 71.5272 126.642C70.7903 125.979 68.4241 125.222 68.276 126.282C67.5643 125.896 67.6655 124.415 66.4698 124.84C66.6757 126.375 68.5722 126.974 69.3597 128.084C65.9315 127.439 64.2481 123.881 62.4961 121.596Z" fill="#D15612"/>
<path d="M23.4785 122.317C26.112 126.624 31.9172 124.217 36.1221 124.84C41.1795 124.84 46.2369 124.84 51.2943 124.84C49.358 123.377 47.2989 121.791 45.1532 120.515C45.4205 121.301 45.3844 121.701 44.7919 122.317C43.123 121.481 41.0856 123.741 38.6797 123.016C33.8534 122.526 28.0121 124.08 23.4785 122.317Z" fill="#8ECEE4"/>
<path d="M91.036 121.957C90.6856 122.645 90.4616 123.362 90.3135 124.119C91.3033 123.615 91.3575 122.238 91.3972 121.236C91.054 121.269 90.9709 121.69 91.036 121.957Z" fill="#3A2F3C"/>
<path d="M88.5048 123.759C87.6162 126.029 85.7269 127.637 84.1699 129.525C85.5463 128.934 86.6192 127.781 88.1436 127.363C88.96 126.329 89.5091 125.06 90.3111 124.119C90.4592 123.362 90.6832 122.645 91.0336 121.957C90.1919 122.663 88.9961 122.728 88.5048 123.759Z" fill="#D76D1B"/>
<path d="M79.1082 124.84C76.8613 121.669 72.4108 122.065 70.0771 124.84C73.2344 123.193 75.9763 123.006 79.1082 124.84Z" fill="#FA9920"/>
<path d="M79.1143 129.525C80.3714 129.471 81.1986 128.289 82.3655 128.084C83.8502 126.408 85.483 124.743 86.7004 123.038C86.7004 123.038 86.6932 122.858 86.7004 122.678C84.7858 125.467 81.9861 127.835 79.1143 129.525Z" fill="#8B4223"/>
<path d="M82.3652 128.084C84.045 126.689 85.9163 125.107 86.7002 123.038C85.4828 124.743 83.8499 126.408 82.3652 128.084Z" fill="#45271F"/>
<path d="M88.1418 127.363C86.751 129.522 84.3957 130.74 82.7231 132.409C85.9635 130.639 89.0052 127.54 90.3093 124.119C89.5073 125.06 88.9582 126.329 88.1418 127.363Z" fill="#673C2C"/>
<path d="M59.9661 125.921C60.3707 126.487 61.0535 127.071 61.4111 127.723C63.2137 128.96 65.0091 131.522 67.191 130.967C65.5148 129.435 63.1956 128.163 62.1336 125.921C61.3822 125.637 60.8403 125.691 59.9661 125.561C59.9661 125.561 59.9336 125.748 59.9661 125.921Z" fill="#E06516"/>
<path d="M66.4682 132.409C64.969 130.754 62.6824 129.702 61.4108 127.723C61.0532 127.071 60.3704 126.487 59.9658 125.921C61.2157 128.632 63.8673 130.92 66.4682 132.409Z" fill="#523330"/>
<path d="M84.1705 129.525C81.7285 130.816 79.2612 132.722 76.2231 132.409C75.2803 132.971 73.167 133.028 72.2494 132.409C70.4504 132.286 68.8573 131.486 67.192 130.967C65.0101 131.522 63.2147 128.96 61.4121 127.723C62.6837 129.702 64.9704 130.754 66.4695 132.409C71.2488 134.996 77.8993 134.986 82.7255 132.409C84.3981 130.74 86.7534 129.522 88.1442 127.363C86.6197 127.781 85.5468 128.934 84.1705 129.525Z" fill="#B94A18"/>
<path d="M76.2227 132.409C74.8969 132.409 73.5748 132.409 72.249 132.409C73.1666 133.029 75.2799 132.971 76.2227 132.409Z" fill="#D89657"/>
<path d="M76.2243 135.652C75.0213 135.652 73.8148 135.652 72.6118 135.652C73.4102 136.272 75.4006 136.207 76.2243 135.652Z" fill="#29697B"/>
</svg>
