<svg width="67" height="67" viewBox="0 0 67 67" fill="none" xmlns="http://www.w3.org/2000/svg">
<path d="M12.1235 27.4628C11.6253 27.795 11.2932 28.1271 10.6289 28.4593C8.96814 29.2897 7.30734 29.7879 5.81266 30.7843C2.82329 32.7773 2.82325 35.2684 5.97869 36.9292C9.13413 38.5899 12.4557 39.7524 15.9432 40.4167C20.2612 41.2471 24.5792 41.5793 29.0633 42.0775C30.8901 42.2436 32.717 42.0775 34.7099 42.0775C34.7099 40.7489 34.8759 39.4203 34.8759 37.7595C36.8688 40.0846 38.5296 42.0775 40.3564 44.0704C38.8617 45.5651 37.0349 47.3919 34.8759 49.717C34.8759 48.0562 34.7099 46.8937 34.7099 45.7312C29.8937 45.399 25.0774 45.0669 20.4273 44.5686C14.9468 43.9043 9.63238 42.9079 4.6501 40.2507C2.49112 39.0881 0 37.7595 0 34.9362C0 31.9469 2.49112 30.6183 4.6501 29.4557C6.80909 28.2932 9.13421 27.6289 11.4593 26.6324C11.7914 26.9646 11.9574 27.2967 12.1235 27.4628Z" fill="#5FE0BE"/>
<path d="M43.5102 44.9007C43.1781 41.5792 43.178 41.7453 45.8352 41.2471C50.1532 40.2506 54.4712 39.0881 58.6231 37.7595C60.4499 37.2612 62.2768 35.9326 62.2768 33.7737C62.2768 31.6147 60.2839 30.7843 58.7892 29.9539C57.6267 29.2896 56.4641 28.9574 55.3016 28.4592C54.8034 28.2931 54.4713 27.7949 54.3052 27.1306C58.291 27.961 61.9446 28.9574 64.934 31.9468C66.7608 33.7737 66.7608 35.9326 64.934 37.7595C63.9375 38.7559 62.775 39.5863 61.4464 40.2506C55.9659 43.0739 49.8211 44.0704 43.5102 44.9007Z" fill="#5FE0BE"/>
<path d="M54.8058 17C53.145 17 51.8164 18.3286 51.8164 19.9894C51.8164 21.6501 53.145 22.9787 54.8058 22.9787C56.4665 22.9787 57.7951 21.6501 57.7951 19.9894C57.7951 18.3286 56.4665 17 54.8058 17ZM54.8058 21.1519C54.1414 21.1519 53.4772 20.6537 53.4772 19.8233C53.4772 19.159 53.9754 18.4947 54.8058 18.4947C55.4701 18.4947 56.1343 18.9929 56.1343 19.8233C56.1343 20.6537 55.4701 21.1519 54.8058 21.1519Z" fill="#5FE0BE"/>
<path d="M25.0759 29.6215C25.0759 32.4448 22.917 34.6038 19.9276 34.6038C17.1043 34.6038 14.9453 32.6109 14.9453 29.7876H17.4365C17.6025 31.2823 18.5989 32.2788 20.0936 32.2788C21.5883 32.2788 22.7509 31.1162 22.7509 29.4555C22.7509 27.7947 21.5884 26.7982 19.7616 26.7982H17.9347V26.3L21.0901 21.4838H15.4435V19.3248H24.7438V19.8231L21.4223 24.9714C23.4152 25.4696 25.0759 27.2965 25.0759 29.6215Z" fill="#5FE0BE"/>
<path d="M38.1953 29.4555C38.1953 32.4449 35.8703 34.7699 32.7149 34.7699C29.3933 34.7699 27.2344 32.611 27.2344 29.4555C27.2344 28.1269 27.7326 26.4662 28.8951 24.4732L31.8845 19.1588H34.5417C32.7148 22.3143 32.0506 23.6429 31.3863 24.8054C32.0506 24.6393 32.5488 24.4732 33.2131 24.4732C35.8703 24.4732 38.1953 26.4662 38.1953 29.4555ZM35.7042 29.4555C35.7042 27.6287 34.3756 26.4662 32.7149 26.4662C30.888 26.4662 29.7255 27.6287 29.7255 29.4555C29.7255 31.1163 31.0541 32.4449 32.7149 32.4449C34.3756 32.4449 35.7042 31.1163 35.7042 29.4555Z" fill="#5FE0BE"/>
<path d="M39.8555 26.7984C39.8555 21.9822 42.1805 18.9928 45.8342 18.9928C49.4878 18.9928 51.813 21.9822 51.813 26.7984C51.813 31.6146 49.4878 34.6039 45.8342 34.6039C42.1805 34.6039 39.8555 31.6146 39.8555 26.7984ZM49.3218 26.7984C49.3218 23.3108 47.9931 21.3179 45.8342 21.3179C43.6752 21.3179 42.3466 23.3108 42.3466 26.7984C42.3466 30.286 43.6752 32.2789 45.8342 32.2789C47.9931 32.4449 49.3218 30.286 49.3218 26.7984Z" fill="#5FE0BE"/>
</svg>
