<svg width="67" height="67" viewBox="0 0 67 67" fill="none" xmlns="http://www.w3.org/2000/svg">
<path d="M64.4314 1.89199C63.4349 1.89199 62.2724 1.89199 61.2759 1.89199C54.4668 2.22414 47.9899 3.71882 41.8451 6.70819C34.3716 10.1958 28.0608 15.1781 23.0785 21.8211C19.5909 26.3051 17.0997 31.2874 15.2729 36.6019C15.1068 36.934 15.2729 37.1001 15.439 37.2662C16.9337 38.7608 18.4283 40.2555 19.923 41.7502C20.0891 41.9163 20.2552 42.2484 20.2552 42.5806C20.2552 42.9127 20.0891 43.2449 19.757 43.411C19.4248 43.577 18.9266 43.577 18.7605 43.2449C17.9301 42.4145 17.2658 41.7502 16.4354 40.9198C15.439 39.9234 14.6086 38.9269 13.6121 38.0965C13.28 37.7644 13.1139 37.2662 13.28 36.7679C15.439 30.291 18.5944 24.3122 23.0785 18.9978C27.5625 13.5173 33.043 9.19933 39.1878 6.04389C44.8344 3.05452 50.9792 1.22768 57.2901 0.397304C59.9473 0.0651524 62.6045 -0.100924 65.2618 0.0651524C66.0921 0.0651524 66.2582 0.397304 66.4243 1.22768C66.7564 12.0226 64.0992 21.9872 58.2866 31.2874C52.4739 40.4216 44.5023 47.2307 34.5377 51.5487C33.043 52.213 31.3823 52.7112 29.7215 53.3755C29.2233 53.5416 28.8911 53.5416 28.559 53.0434C26.8982 51.3826 25.0714 49.5558 23.4106 47.895C23.0785 47.5629 22.9124 47.0646 23.2445 46.5664C23.5767 46.0682 24.241 46.0682 24.7392 46.5664C26.2339 48.0611 27.7286 49.5558 29.2233 51.0505C29.5554 51.3826 29.7215 51.3826 30.0537 51.2165C37.361 48.7254 43.838 44.7396 49.3185 39.4251C55.7954 33.1143 60.1134 25.6408 62.6045 17.171C63.9331 12.5208 64.5975 7.70464 64.5975 2.72237C64.5975 2.39022 64.4314 2.22414 64.4314 1.89199Z" fill="#4F75FE"/>
<path d="M55.2964 21.3229C55.2964 26.9695 50.8124 31.4535 45.1658 31.4535C39.5192 31.4535 35.0352 26.9695 35.0352 21.3229C35.0352 15.8424 39.5192 11.1923 44.9997 11.1923C50.8124 11.1923 55.2964 15.6763 55.2964 21.3229ZM53.3035 21.489C53.3035 16.8388 49.6498 13.1852 44.9997 13.1852C40.3496 13.1852 36.6959 16.8388 36.6959 21.489C36.6959 26.1391 40.3496 29.7928 44.9997 29.7928C49.6498 29.6267 53.3035 25.973 53.3035 21.489Z" fill="#4F75FE"/>
<path d="M29.886 63.8383C31.0486 63.174 32.2111 62.3436 33.2075 61.5132C36.5291 58.5239 38.3559 54.8702 39.1863 50.5522C39.3524 49.8879 39.6845 49.5558 40.1827 49.5558C40.847 49.5558 41.1792 50.054 41.1792 50.7183C41.0131 51.5487 40.847 52.5452 40.5149 53.3755C38.6881 59.0221 35.3665 63.174 30.2182 65.9973C29.0557 66.6616 28.5574 66.3294 28.3913 65.1669C27.727 61.6793 27.0627 58.0257 26.3984 54.5381C26.3984 54.2059 26.3984 53.8738 26.3984 53.7077C26.5645 53.3755 26.8967 53.2095 27.3949 53.2095C27.727 53.2095 28.0592 53.5416 28.2253 53.8738C28.3913 54.8702 28.5574 55.8667 28.8896 57.0292C29.0557 59.3543 29.5539 61.5132 29.886 63.8383Z" fill="#4F75FE"/>
<path d="M2.48545 36.4359C3.48191 36.602 4.47836 36.7681 5.30874 36.9341C7.6338 37.4324 9.95887 37.7645 12.1179 38.2627C12.2839 38.2627 12.2839 38.2627 12.45 38.2627C12.9482 38.4288 13.2804 38.927 13.1143 39.4253C12.9482 39.9235 12.6161 40.2557 11.9518 40.0896C10.6232 39.7574 9.12849 39.5914 7.79988 39.2592C5.64089 38.761 3.48191 38.4288 1.15684 37.9306C0.990767 37.9306 0.990767 37.9306 0.824691 37.9306C-0.00568885 37.7645 -0.171765 37.2663 0.160387 36.4359C1.15684 34.6091 2.31937 32.7822 3.81406 31.2876C6.9695 27.966 10.7892 26.1392 15.1072 25.1427C15.2733 25.1427 15.4394 25.1427 15.4394 24.9767C15.9376 24.8106 16.4358 25.1427 16.6019 25.641C16.768 26.1392 16.4358 26.6374 15.7715 26.8035C14.7751 27.1357 13.6125 27.3017 12.6161 27.6339C8.29811 29.1286 4.97659 31.7858 2.48545 35.6055C2.65153 36.1038 2.65153 36.2698 2.48545 36.4359Z" fill="#4F75FE"/>
<path d="M14.2773 51.2166C14.4434 51.0505 14.6095 50.7184 14.7756 50.5523C17.931 47.3969 20.9204 44.4075 24.0758 41.252C25.2384 40.0895 26.2348 39.0931 27.3973 37.9305C27.8956 37.4323 28.3938 37.4323 28.892 37.7644C29.2242 38.0966 29.2242 38.7609 28.7259 39.2591C25.0723 42.9128 21.4186 46.7325 17.5989 50.3862C17.1006 50.8844 16.6024 51.5487 15.9381 52.047C15.606 52.3791 15.2738 52.3791 14.9416 52.2131C14.4434 52.047 14.2773 51.7148 14.2773 51.2166Z" fill="#4F75FE"/>
<path d="M9.96153 55.5345C10.2937 55.7006 10.6258 55.8667 10.7919 56.1988C10.958 56.531 10.7919 56.8632 10.6258 57.1953C10.4598 57.3614 10.1276 57.6935 9.96153 58.0257C7.96862 60.0186 5.97571 62.1776 3.81672 64.1705C3.48457 64.3366 3.31849 64.5026 2.98634 64.5026C2.65419 64.5026 2.32204 64.3366 2.15596 64.0044C1.98989 63.5062 1.98989 63.174 2.32204 62.8419C3.65065 61.5133 4.97925 60.1847 6.30786 58.8561C7.30432 57.8596 8.1347 57.0292 9.13115 56.0328C9.4633 55.8667 9.62938 55.7006 9.96153 55.5345Z" fill="#4F75FE"/>
<path d="M8.46661 48.7255C9.29699 48.7255 9.79522 49.5558 9.46307 50.0541C9.29699 50.2201 9.29699 50.3862 9.13091 50.5523C6.97193 52.7113 4.81294 54.8703 2.65395 57.0293L2.48788 57.1953C1.98965 57.5275 1.49142 57.6936 1.15927 57.1953C0.827118 56.8632 0.827118 56.1989 1.15927 55.8667C2.82003 54.206 4.48079 52.5452 6.14155 50.8844C6.80585 50.2201 7.30408 49.7219 7.96838 49.2237C8.13446 48.8915 8.46661 48.7255 8.46661 48.7255Z" fill="#4F75FE"/>
<path d="M17.7659 58.0257C17.7659 58.1918 17.5998 58.3579 17.4337 58.69C15.1087 61.0151 12.9497 63.1741 10.6246 65.4991C10.1264 65.9974 9.62815 65.9974 9.12993 65.4991C8.79778 65.167 8.79777 64.5027 9.296 64.1705C11.6211 61.8455 13.7801 59.6865 16.1051 57.3614C16.4373 57.0293 16.7694 56.8632 17.2676 57.0293C17.5998 57.1953 17.7659 57.3614 17.7659 58.0257Z" fill="#4F75FE"/>
</svg>
