<svg width="31" height="31" viewBox="0 0 31 31" fill="none" xmlns="http://www.w3.org/2000/svg">
<path d="M25.4129 14.0084H27.9547C27.9547 7.48866 23.0325 2.57153 16.5039 2.57153V5.11334C21.6663 5.11334 25.4129 8.85361 25.4129 14.0084Z" fill="#2D2323"/>
<path d="M16.5219 10.197C19.1946 10.197 20.3346 11.337 20.3346 14.0097H22.8764C22.8764 9.91106 20.6206 7.6552 16.5219 7.6552V10.197ZM20.8709 17.1145C20.6267 16.8926 20.3058 16.7742 19.976 16.7844C19.6461 16.7946 19.3331 16.9326 19.1031 17.1692L16.0618 20.2969C15.3298 20.1571 13.8581 19.6983 12.3432 18.1872C10.8282 16.671 10.3694 15.1955 10.2335 14.4685L13.3586 11.426C13.5955 11.1961 13.7337 10.8831 13.7439 10.5531C13.7541 10.2232 13.6355 9.90221 13.4133 9.65815L8.71727 4.49447C8.49492 4.24964 8.18588 4.10113 7.85579 4.08048C7.52571 4.05984 7.20057 4.16868 6.94945 4.3839L4.19159 6.74905C3.97186 6.96957 3.84072 7.26307 3.82303 7.57387C3.80396 7.89159 3.44048 15.4179 9.27647 21.2564C14.3677 26.3464 20.7451 26.7187 22.5015 26.7187C22.7582 26.7187 22.9158 26.7111 22.9577 26.7086C23.2685 26.6912 23.5618 26.5595 23.7813 26.3387L26.1452 23.5796C26.3605 23.3287 26.4696 23.0036 26.4492 22.6735C26.4288 22.3434 26.2805 22.0343 26.0359 21.8118L20.8709 17.1145Z" fill="#2D2323"/>
</svg>
