<svg width="67" height="67" viewBox="0 0 67 67" fill="none" xmlns="http://www.w3.org/2000/svg">
<path d="M27.9212 45.5046C27.2569 45.6707 26.7587 45.8368 26.2605 46.169C25.5962 45.1725 25.098 44.01 24.4337 43.1796C23.2711 41.5188 21.9425 40.0241 20.78 38.3634C18.9532 35.8722 17.4585 33.3811 16.7942 30.2257C15.2995 22.4201 19.6174 14.7806 27.0908 11.7912C36.8893 7.80541 48.1825 14.4484 49.6772 24.9112C50.3415 29.7274 48.8468 33.7133 46.1896 37.533C45.027 39.1938 43.5324 40.8545 42.3699 42.6814C41.5395 43.8439 41.0413 45.0064 40.2109 46.169C39.8787 46.6672 39.5466 47.1654 39.0483 47.3315C35.2286 48.8262 31.4089 50.1548 27.5891 51.4834C27.0909 51.6495 26.7587 51.4834 26.5926 51.1512C26.4266 50.653 26.4266 50.1548 26.9248 49.9887C27.257 49.8226 27.5891 49.6565 27.9212 49.6565C31.2427 48.494 34.5643 47.3315 37.8858 46.0029C38.2179 45.8368 38.5501 45.5046 38.7162 45.1725C40.0448 42.6814 41.7056 40.6884 43.3663 38.3634C45.0271 36.2044 46.5217 34.2115 47.186 31.5543C48.8468 26.2398 47.6843 21.5897 44.0306 17.6039C39.8787 12.9538 34.5643 11.4591 28.5856 13.2859C22.6068 15.1128 19.2853 19.2647 18.1228 25.4095C17.2924 29.7274 18.7871 33.3811 21.2782 36.7026C22.7729 38.6955 24.2676 40.6884 25.7623 42.6814C26.7587 43.3457 27.2569 44.3421 27.9212 45.5046Z" fill="#FB998A"/>
<path d="M27.092 61.9463C26.9259 61.7802 26.5938 61.6141 26.5938 61.282C26.5938 60.9498 26.7598 60.6177 26.9259 60.2855C26.9259 60.1194 27.2581 60.1194 27.4241 60.1194C31.0778 58.7908 34.8976 57.4622 38.5512 56.1336C39.3816 55.8015 39.7137 55.9675 39.8798 56.4658C40.0459 56.964 39.7137 57.4622 39.0494 57.7944C35.2297 59.123 31.576 60.4516 27.7563 61.9463C27.5902 61.7802 27.4241 61.7802 27.092 61.9463Z" fill="#FB998A"/>
<path d="M27.092 56.4658C26.9259 56.2997 26.5938 56.1337 26.5938 55.8015C26.5938 55.4694 26.7598 55.1372 26.9259 54.805C26.9259 54.639 27.2581 54.639 27.4241 54.639C31.0778 53.3104 34.8976 51.9818 38.5512 50.6532C39.3816 50.321 39.7137 50.4871 39.8798 50.9853C40.0459 51.4835 39.8798 51.9818 39.0494 52.3139C35.2297 53.6425 31.576 55.1372 27.7563 56.4658C27.5902 56.4658 27.4241 56.4658 27.092 56.4658Z" fill="#FB998A"/>
<path d="M39.0511 61.116C37.8886 65.1018 31.4116 67.4269 27.4258 65.2679C31.2455 63.9393 35.0653 62.4446 39.0511 61.116Z" fill="#FB998A"/>
<path d="M34.067 2.98937C34.067 3.65367 34.067 4.31797 34.067 4.98228C34.067 5.4805 33.7349 5.81266 33.2366 5.81266C32.7384 5.81266 32.4062 5.4805 32.4062 4.98228C32.4062 3.65367 32.4062 2.32506 32.4062 0.830379C32.4062 0.332152 32.7384 0 33.2366 0C33.7349 0 34.067 0.332152 34.067 0.830379C34.067 1.49468 34.067 2.32506 34.067 2.98937Z" fill="#FB998A"/>
<path d="M8.98935 26.24C9.65365 26.24 10.318 26.24 10.9823 26.24C11.6466 26.24 11.9787 26.5721 11.9787 27.0704C11.9787 27.5686 11.6466 27.9007 10.9823 27.9007C9.65367 27.9007 8.32507 27.9007 6.99647 27.9007C6.33216 27.9007 6 27.5686 6 27.0704C6 26.5721 6.33216 26.24 6.99647 26.24C7.66077 26.24 8.32504 26.24 8.98935 26.24Z" fill="#FB998A"/>
<path d="M57.4835 28.0669C56.8192 28.0669 56.1548 28.0669 55.4905 28.0669C54.9923 28.0669 54.6602 27.7347 54.6602 27.2365C54.6602 26.7383 54.9923 26.4061 55.4905 26.4061C56.8191 26.4061 58.3138 26.4061 59.6424 26.4061C60.1407 26.4061 60.4728 26.7383 60.4728 27.2365C60.4728 27.7347 60.1407 28.0669 59.6424 28.0669C58.8121 28.0669 58.1478 28.0669 57.4835 28.0669Z" fill="#FB998A"/>
<path d="M14.3054 7.30737C14.6376 7.47345 14.8036 7.63952 14.9697 7.8056C15.9662 8.80206 16.7966 9.63244 17.793 10.6289C18.2912 11.1271 18.2912 11.4593 17.793 11.9575C17.4609 12.2896 16.9626 12.2896 16.4644 11.9575C15.4679 10.961 14.4715 10.1307 13.6411 9.13421C13.475 8.96813 13.309 8.4699 13.475 8.13775C13.6411 7.63952 14.1393 7.47345 14.3054 7.30737Z" fill="#FB998A"/>
<path d="M49.0143 42.0172C49.3465 42.1833 49.5125 42.3494 49.6786 42.5154C50.6751 43.3458 51.5055 44.3423 52.5019 45.1727C53.0002 45.6709 53.0002 46.1691 52.668 46.5013C52.3359 46.8334 51.8376 46.8334 51.3394 46.3352C50.3429 45.3387 49.5126 44.5084 48.5161 43.5119C48.35 43.3458 48.184 42.8476 48.35 42.5154C48.35 42.3494 48.6822 42.1833 49.0143 42.0172Z" fill="#FB998A"/>
<path d="M53.0008 8.30383C52.8347 8.63599 52.6686 8.80206 52.5026 8.96814C51.5061 9.96459 50.6757 10.795 49.6793 11.7914C49.3471 12.1236 48.8489 12.2897 48.3507 11.7914C48.0185 11.4593 48.0185 10.961 48.3507 10.4628C49.3471 9.46637 50.1775 8.46991 51.1739 7.63953C51.34 7.47345 51.8382 7.30738 52.1704 7.47345C52.5026 7.63953 52.6686 8.13776 53.0008 8.30383Z" fill="#FB998A"/>
<path d="M14.3045 46.8334C14.1384 46.6674 13.8063 46.5013 13.6402 46.1691C13.4741 46.0031 13.6402 45.5048 13.6402 45.3388C14.6367 44.3423 15.6331 43.1798 16.7956 42.1833C17.1278 41.8512 17.626 41.8512 17.9582 42.1833C18.2903 42.5155 18.2903 43.0137 17.9582 43.3459C16.9617 44.3423 15.9653 45.3388 14.9688 46.3352C14.8027 46.6674 14.6367 46.8334 14.3045 46.8334Z" fill="#FB998A"/>
</svg>
