<svg width="27" height="27" viewBox="0 0 27 27" fill="none" xmlns="http://www.w3.org/2000/svg">
<path fill-rule="evenodd" clip-rule="evenodd" d="M13.5733 1.16943C7.14381 1.16943 1.93164 6.3816 1.93164 12.8111C1.93164 19.2407 7.14381 24.4528 13.5733 24.4528C20.0029 24.4528 25.215 19.2407 25.215 12.8111C25.215 6.3816 20.0029 1.16943 13.5733 1.16943ZM9.10958 8.3464C9.57989 7.87608 10.3424 7.87608 10.8127 8.3464L13.5741 11.1078L16.3355 8.3464C16.8058 7.87608 17.5683 7.87608 18.0386 8.3464C18.5089 8.81671 18.5089 9.57924 18.0386 10.0496L15.2772 12.8109L18.0386 15.5723C18.5089 16.0426 18.5089 16.8051 18.0386 17.2754C17.5683 17.7457 16.8058 17.7457 16.3355 17.2754L13.5741 14.5141L10.8127 17.2754C10.3424 17.7457 9.57989 17.7457 9.10958 17.2754C8.63926 16.8051 8.63926 16.0426 9.10958 15.5723L11.8709 12.8109L9.10958 10.0496C8.63926 9.57924 8.63926 8.81671 9.10958 8.3464Z" fill="#FB998A"/>
</svg>
