<svg width="1526" height="807" viewBox="0 0 1526 807" fill="none" xmlns="http://www.w3.org/2000/svg">
<g filter="url(#filter0_d_1681_27347)">
<mask id="mask0_1681_27347" style="mask-type:alpha" maskUnits="userSpaceOnUse" x="4" y="0" width="1518" height="799">
<rect x="4" width="1518" height="799" rx="10" fill="#5FE0BE"/>
</mask>
<g mask="url(#mask0_1681_27347)">
<path d="M1207.46 549.206L1440.98 414.606L1399.64 343.121L1161 480.671C1151.82 469.253 1142.17 458.238 1132.06 447.657L1328.93 251.117L1270.46 192.75L1070.24 392.632C1059.08 384.207 1047.56 376.229 1035.7 368.726L1178.3 122.152L1106.7 80.8802L962.45 330.306C950.006 325.021 937.309 320.217 924.382 315.915L999.376 36.5009L919.511 15.1369L844.05 296.29C830.973 294.205 817.73 292.616 804.341 291.544V0H721.659V291.544C708.27 292.616 695.027 294.205 681.95 296.29L606.489 15.1369L526.624 36.5009L601.618 315.915C588.691 320.217 575.994 325.022 563.55 330.306L419.303 80.8802L347.697 122.152L490.296 368.726C478.443 376.229 466.921 384.207 455.757 392.632L255.539 192.75L197.073 251.117L393.943 447.657C383.833 458.238 374.176 469.253 365.001 480.671L126.357 343.121L85.0159 414.606L318.541 549.206C310.967 562.61 303.983 576.39 297.625 590.512L40.5622 521.748L19.1623 601.479L269.933 668.56C265.782 684.242 262.361 700.22 259.709 716.456H4V799H1522V716.456H1266.29C1263.64 700.22 1260.22 684.242 1256.07 668.561L1506.84 601.479L1485.44 521.748L1228.38 590.512C1222.02 576.39 1215.03 562.61 1207.46 549.206Z" fill="#F0F1F6"/>
</g>
</g>
<defs>
<filter id="filter0_d_1681_27347" x="0" y="0" width="1526" height="807" filterUnits="userSpaceOnUse" color-interpolation-filters="sRGB">
<feFlood flood-opacity="0" result="BackgroundImageFix"/>
<feColorMatrix in="SourceAlpha" type="matrix" values="0 0 0 0 0 0 0 0 0 0 0 0 0 0 0 0 0 0 127 0" result="hardAlpha"/>
<feOffset dy="4"/>
<feGaussianBlur stdDeviation="2"/>
<feComposite in2="hardAlpha" operator="out"/>
<feColorMatrix type="matrix" values="0 0 0 0 0 0 0 0 0 0 0 0 0 0 0 0 0 0 0.25 0"/>
<feBlend mode="normal" in2="BackgroundImageFix" result="effect1_dropShadow_1681_27347"/>
<feBlend mode="normal" in="SourceGraphic" in2="effect1_dropShadow_1681_27347" result="shape"/>
</filter>
</defs>
</svg>
