<svg width="595" height="842" viewBox="0 0 595 842" fill="none" xmlns="http://www.w3.org/2000/svg">
<path d="M55.1692 784.732L63.8403 769.37L65.9651 770.57L57.294 785.932L55.1692 784.732ZM77.0304 803.778L75.2539 802.775L75.4505 802.427C75.8831 801.661 76.1673 800.994 76.3033 800.428C76.4291 799.825 76.2365 799.38 75.7256 799.091L56.9851 788.513C56.4742 788.225 56.0049 788.297 55.5772 788.729C55.1394 789.125 54.7042 789.706 54.2716 790.472L54.075 790.821L52.2984 789.818L56.4865 782.398L79.1285 795.179C79.1981 795.218 79.3348 795.112 79.5386 794.859C79.7423 794.607 79.9738 794.278 80.2329 793.873C80.4921 793.468 80.7331 793.068 80.956 792.674L81.1329 792.36L82.9094 793.363L77.0304 803.778ZM85.6819 788.451L83.9053 787.449L84.0626 787.17C84.2855 786.775 84.5033 786.362 84.716 785.931C84.9287 785.5 85.0905 785.132 85.2014 784.827C85.3122 784.522 85.3328 784.35 85.2631 784.311L62.6212 771.53L66.8093 764.111L68.5858 765.113L68.3892 765.462C67.9566 766.228 67.6774 766.912 67.5516 767.515C67.4157 768.081 67.6032 768.509 68.1141 768.797L86.8546 779.376C87.3655 779.664 87.8399 779.61 88.2777 779.214C88.7054 778.782 89.1355 778.183 89.5681 777.416L89.7647 777.068L91.5413 778.071L85.6819 788.451ZM95.0962 766.647C95.1891 766.699 95.298 766.669 95.4231 766.556C95.5613 766.419 95.7192 766.248 95.8967 766.042C96.0641 765.8 96.2381 765.546 96.4186 765.28C96.589 764.978 96.7529 764.688 96.9102 764.409L97.4018 763.538L99.1783 764.541L93.1222 775.27L91.3457 774.267L91.5424 773.919C91.9749 773.153 92.2592 772.486 92.3951 771.92C92.5209 771.317 92.3284 770.872 91.8175 770.583L73.077 760.005C72.5661 759.717 72.0968 759.789 71.6691 760.221C71.2312 760.617 70.796 761.198 70.3634 761.964L70.1668 762.312L68.3903 761.31L74.643 750.233C76.2946 747.307 78.2294 745.398 80.4475 744.506C82.6655 743.615 84.9008 743.805 87.1534 745.076C88.6629 745.928 89.7703 747.059 90.4756 748.467C91.1809 749.876 91.4589 751.472 91.3095 753.256C91.1369 755.026 90.5066 756.875 89.4186 758.803L86.8429 763.366L84.7528 762.186L87.0337 758.145C87.7153 756.938 88.0584 755.815 88.0628 754.776C88.0804 753.714 87.7942 752.757 87.2042 751.903C86.6274 751.026 85.77 750.267 84.6321 749.624C83.4942 748.982 82.4423 748.648 81.4763 748.624C80.4872 748.586 79.5723 748.85 78.7319 749.417C77.8813 749.948 77.1283 750.793 76.4729 751.954L74.6836 755.124L95.0962 766.647ZM109.037 729.254L116.666 733.56L105.871 752.684L104.095 751.681L104.291 751.333C104.724 750.567 104.997 749.894 105.109 749.314C105.235 748.712 105.043 748.266 104.532 747.978L85.8608 737.439C85.3499 737.15 84.8689 737.216 84.418 737.635C83.9802 738.031 83.545 738.612 83.1124 739.378L82.9158 739.727L81.1392 738.724L91.3834 720.575L98.1411 724.39L96.9417 726.515L93.6797 725.133C93.2355 724.943 92.8121 724.934 92.4094 725.105C92.0068 725.276 91.6003 725.643 91.1898 726.208C90.7692 726.736 90.3033 727.453 89.792 728.358L87.4325 732.538L107.915 744.1L110.687 739.188C111.107 738.445 111.437 737.805 111.679 737.268C111.934 736.708 112.096 736.232 112.163 735.842C112.243 735.428 112.225 735.081 112.108 734.8C112.004 734.496 111.807 734.248 111.518 734.054L107.799 731.449L109.037 729.254ZM95.8888 738.552C96.406 737.527 96.9151 736.544 97.4162 735.602C97.9305 734.636 98.42 733.688 98.8847 732.756C99.3394 731.788 99.7991 730.838 100.264 729.906L102.981 731.44C102.4 732.306 101.824 733.19 101.253 734.093C100.673 734.959 100.102 735.862 99.5411 736.801C98.9703 737.704 98.3915 738.648 97.8046 739.633L95.8888 738.552ZM97.6492 709.475L104.61 697.144L106.735 698.343L99.7741 710.674L97.6492 709.475ZM130.341 708.683L127.844 713.107L103.391 699.303L107.579 691.884L109.355 692.887L109.139 693.27C108.72 694.013 108.447 694.686 108.321 695.289C108.208 695.868 108.407 696.302 108.918 696.59L130.341 708.683ZM132.814 709.022C132.277 708.78 131.808 708.715 131.409 708.826C131.045 708.927 130.68 709.195 130.311 709.63C129.966 710.079 129.565 710.709 129.106 711.522L121.437 725.107C120.992 725.897 120.66 726.567 120.441 727.117C120.258 727.657 120.223 728.127 120.334 728.527C120.458 728.903 120.768 729.277 121.263 729.648L124.615 732.091L123.356 734.321L115.832 730.073L130.441 704.192L137.966 708.439L136.727 710.634L132.814 709.022ZM119.768 725.543L118.018 728.643C117.666 727.801 117.247 726.998 116.76 726.233C116.25 725.455 115.632 724.678 114.907 723.901C114.158 723.111 113.233 722.283 112.13 721.415C111.041 720.525 109.686 719.561 108.066 718.524L99.7467 713.001C99.2155 712.64 98.718 712.681 98.2539 713.123C97.803 713.543 97.3612 714.135 96.9286 714.902L96.6534 715.389L94.8768 714.386L98.1998 708.5L109.626 716.006C111.73 717.377 113.435 718.615 114.741 719.72C116.06 720.801 117.113 721.809 117.902 722.744C118.668 723.667 119.29 724.599 119.768 725.543ZM112.044 683.973L120.715 668.611L122.84 669.811L114.169 685.172L112.044 683.973ZM133.906 703.019L132.129 702.016L132.326 701.668C132.758 700.901 133.042 700.235 133.178 699.669C133.304 699.066 133.112 698.621 132.601 698.332L113.86 687.754C113.349 687.465 112.88 687.537 112.452 687.97C112.015 688.366 111.579 688.947 111.147 689.713L110.95 690.061L109.174 689.059L113.362 681.639L136.004 694.42C136.073 694.459 136.21 694.352 136.414 694.1C136.617 693.847 136.849 693.519 137.108 693.114C137.367 692.709 137.608 692.309 137.831 691.914L138.008 691.601L139.785 692.604L133.906 703.019ZM142.557 687.692L140.78 686.689L140.938 686.411C141.161 686.016 141.378 685.603 141.591 685.172C141.804 684.741 141.966 684.373 142.077 684.068C142.187 683.763 142.208 683.591 142.138 683.551L119.496 670.771L123.684 663.351L125.461 664.354L125.264 664.702C124.832 665.469 124.553 666.153 124.427 666.756C124.291 667.322 124.478 667.75 124.989 668.038L143.73 678.616C144.241 678.905 144.715 678.851 145.153 678.455C145.581 678.023 146.011 677.424 146.443 676.657L146.64 676.309L148.416 677.312L142.557 687.692ZM151.971 665.887C152.064 665.94 152.173 665.909 152.298 665.796C152.436 665.66 152.594 665.489 152.772 665.283C152.939 665.04 153.113 664.786 153.294 664.521C153.464 664.219 153.628 663.929 153.785 663.65L154.277 662.779L156.053 663.782L149.997 674.511L148.221 673.508L148.418 673.16C148.85 672.393 149.134 671.727 149.27 671.161C149.396 670.558 149.204 670.112 148.693 669.824L129.952 659.246C129.441 658.957 128.972 659.029 128.544 659.461C128.106 659.857 127.671 660.439 127.239 661.205L127.042 661.553L125.265 660.55L131.518 649.473C133.17 646.547 135.105 644.638 137.323 643.747C139.541 642.855 141.776 643.045 144.029 644.317C145.538 645.169 146.645 646.299 147.351 647.708C148.056 649.117 148.334 650.713 148.185 652.496C148.012 654.267 147.382 656.116 146.294 658.043L143.718 662.607L141.628 661.427L143.909 657.386C144.59 656.179 144.934 655.055 144.938 654.017C144.956 652.955 144.669 651.997 144.079 651.144C143.503 650.267 142.645 649.507 141.507 648.865C140.369 648.223 139.317 647.889 138.351 647.865C137.362 647.827 136.447 648.091 135.607 648.658C134.756 649.188 134.003 650.034 133.348 651.195L131.559 654.365L151.971 665.887ZM170.653 638.732C169.657 640.497 168.43 641.963 166.975 643.132C165.509 644.264 163.897 645.085 162.14 645.594C160.396 646.079 158.57 646.196 156.66 645.945C154.74 645.657 152.839 644.983 150.958 643.921C149.077 642.859 147.529 641.587 146.314 640.105C145.112 638.6 144.268 636.975 143.783 635.232C143.287 633.451 143.157 631.648 143.392 629.821C143.617 627.957 144.228 626.143 145.224 624.378C146.22 622.613 147.451 621.165 148.917 620.032C150.373 618.864 151.985 618.043 153.752 617.571C155.509 617.062 157.342 616.933 159.252 617.185C161.162 617.436 163.057 618.092 164.938 619.154C166.819 620.216 168.372 621.506 169.598 623.024C170.8 624.53 171.637 626.166 172.109 627.933C172.595 629.677 172.725 631.48 172.5 633.344C172.265 635.171 171.649 636.967 170.653 638.732ZM168.458 637.493C169.101 636.355 169.452 635.191 169.512 634C169.561 632.772 169.33 631.555 168.818 630.347C168.305 629.139 167.504 627.982 166.413 626.876C165.322 625.771 163.952 624.753 162.303 623.822C160.678 622.904 159.11 622.264 157.6 621.902C156.09 621.539 154.685 621.451 153.386 621.636C152.064 621.809 150.902 622.24 149.9 622.93C148.888 623.583 148.061 624.479 147.419 625.617C146.789 626.732 146.45 627.903 146.4 629.13C146.327 630.344 146.559 631.562 147.094 632.783C147.62 633.968 148.428 635.113 149.519 636.218C150.609 637.324 151.967 638.336 153.593 639.253C155.242 640.184 156.821 640.831 158.332 641.193C159.842 641.556 161.24 641.656 162.526 641.493C163.824 641.308 164.986 640.877 166.012 640.2C167.013 639.51 167.829 638.608 168.458 637.493ZM163 598.177C162.397 599.245 162.083 600.37 162.06 601.551C162.036 602.732 162.299 603.921 162.848 605.119C163.373 606.303 164.17 607.442 165.237 608.534C166.318 609.604 167.659 610.591 169.262 611.495C170.887 612.413 172.437 613.058 173.911 613.43C175.398 613.78 176.784 613.873 178.07 613.711C179.356 613.549 180.518 613.118 181.556 612.418C182.594 611.718 183.454 610.764 184.136 609.556C184.87 608.256 185.217 606.936 185.177 605.596C185.15 604.234 184.792 602.914 184.104 601.638C183.416 600.361 182.502 599.187 181.362 598.115L183.342 596.477C184.782 597.779 185.884 599.244 186.65 600.87C187.429 602.474 187.792 604.164 187.739 605.94C187.698 607.693 187.173 609.464 186.164 611.252C185.168 613.017 183.948 614.472 182.506 615.618C181.053 616.727 179.461 617.513 177.73 617.975C175.989 618.401 174.17 618.476 172.274 618.202C170.39 617.904 168.508 617.225 166.627 616.163C164.746 615.101 163.209 613.836 162.017 612.367C160.802 610.885 159.934 609.277 159.412 607.543C158.89 605.809 158.727 604.064 158.923 602.306C159.096 600.536 159.641 598.838 160.558 597.212C161.45 595.633 162.465 594.43 163.606 593.604C164.736 592.741 165.957 592.206 167.269 591.997C168.581 591.788 169.945 591.839 171.363 592.149L170.402 593.444L165.232 589.745L166.471 587.551L174.03 591.818L172.634 594.291C171.286 594.02 170.018 593.962 168.828 594.117C167.651 594.249 166.568 594.649 165.579 595.315C164.58 595.946 163.72 596.9 163 598.177ZM192.912 598.484L191.136 597.481L191.352 597.098C191.64 596.587 191.861 596.114 192.014 595.68C192.167 595.246 192.198 594.866 192.107 594.539C192.029 594.188 191.816 593.915 191.468 593.718L172.867 583.219C172.518 583.022 172.197 582.994 171.904 583.134C171.6 583.239 171.314 583.475 171.044 583.843C170.752 584.199 170.461 584.632 170.173 585.143L169.957 585.526L168.18 584.523L173.41 575.258L197.61 580.558L196.512 581.04L180.174 563.275L185.326 554.148L187.102 555.151L186.886 555.534C186.467 556.277 186.194 556.95 186.068 557.553C185.919 558.143 186.1 558.581 186.611 558.87L205.351 569.448C205.862 569.737 206.343 569.671 206.794 569.252C207.222 568.82 207.645 568.232 208.065 567.489L208.281 567.106L210.058 568.109L204.316 578.28L202.54 577.277L202.697 576.999C202.933 576.581 203.144 576.179 203.331 575.795C203.517 575.41 203.653 575.088 203.737 574.83C203.812 574.535 203.814 574.368 203.745 574.329L181.8 561.942L182.085 561.598L201.692 583.092L200.257 585.635L171.704 579.99L171.94 579.572L193.711 591.861C193.827 591.926 193.992 591.851 194.206 591.635C194.433 591.396 194.669 591.085 194.915 590.704C195.174 590.299 195.402 589.922 195.599 589.574L195.737 589.33L197.513 590.333L192.912 598.484ZM219.002 553.076C218.006 554.841 216.78 556.308 215.324 557.477C213.858 558.609 212.247 559.429 210.49 559.938C208.746 560.424 206.919 560.541 205.009 560.289C203.089 560.002 201.189 559.327 199.308 558.265C197.427 557.204 195.879 555.932 194.664 554.45C193.462 552.944 192.618 551.32 192.133 549.576C191.637 547.796 191.507 545.992 191.742 544.165C191.967 542.302 192.578 540.488 193.574 538.723C194.57 536.958 195.801 535.509 197.267 534.377C198.723 533.208 200.334 532.388 202.101 531.915C203.858 531.407 205.692 531.278 207.602 531.529C209.511 531.78 211.407 532.437 213.288 533.499C215.169 534.56 216.722 535.85 217.947 537.369C219.149 538.874 219.986 540.51 220.459 542.277C220.944 544.021 221.074 545.825 220.849 547.688C220.614 549.515 219.999 551.311 219.002 553.076ZM216.808 551.837C217.45 550.7 217.801 549.535 217.861 548.344C217.911 547.117 217.68 545.899 217.167 544.691C216.655 543.483 215.853 542.326 214.762 541.221C213.672 540.115 212.302 539.097 210.653 538.166C209.028 537.249 207.46 536.609 205.949 536.246C204.439 535.884 203.035 535.795 201.736 535.981C200.414 536.153 199.252 536.584 198.25 537.274C197.238 537.928 196.411 538.823 195.768 539.961C195.139 541.076 194.8 542.247 194.75 543.474C194.677 544.689 194.908 545.906 195.444 547.127C195.969 548.312 196.778 549.457 197.868 550.563C198.959 551.668 200.317 552.68 201.943 553.598C203.591 554.528 205.171 555.175 206.681 555.537C208.191 555.9 209.589 556 210.875 555.838C212.174 555.652 213.336 555.221 214.361 554.544C215.363 553.854 216.179 552.952 216.808 551.837ZM228.621 528.224L208.94 517.114L207.937 518.891C207.413 519.82 207.027 520.612 206.779 521.269C206.508 521.912 206.41 522.438 206.485 522.848C206.56 523.258 206.786 523.615 207.165 523.921L210.487 526.255L209.268 528.415L202.127 524.384L214.101 503.17L221.242 507.201L220.043 509.326L216.308 507.723C215.877 507.511 215.46 507.49 215.058 507.66C214.655 507.831 214.248 508.199 213.838 508.763C213.417 509.291 212.945 510.02 212.42 510.949L211.418 512.725L231.099 523.835C231.61 524.123 232.084 524.069 232.522 523.673C232.95 523.241 233.38 522.642 233.812 521.875L234.107 521.353L235.884 522.356L229.808 533.119L228.032 532.117L228.346 531.559C228.779 530.793 229.063 530.127 229.199 529.56C229.325 528.958 229.132 528.512 228.621 528.224ZM242.315 505.836C242.408 505.888 242.517 505.858 242.642 505.745C242.78 505.608 242.938 505.437 243.115 505.231C243.283 504.989 243.457 504.735 243.637 504.469C243.808 504.168 243.972 503.877 244.129 503.599L244.62 502.728L246.397 503.731L240.341 514.459L238.564 513.457L238.761 513.108C239.194 512.342 239.478 511.676 239.614 511.109C239.74 510.507 239.547 510.061 239.036 509.773L220.296 499.194C219.785 498.906 219.315 498.978 218.888 499.41C218.45 499.806 218.015 500.387 217.582 501.153L217.386 501.502L215.609 500.499L221.862 489.422C223.513 486.496 225.448 484.587 227.666 483.696C229.884 482.804 232.12 482.994 234.372 484.266C235.882 485.118 236.989 486.248 237.694 487.657C238.4 489.065 238.678 490.661 238.528 492.445C238.356 494.215 237.725 496.064 236.637 497.992L234.062 502.555L231.972 501.375L234.252 497.335C234.934 496.127 235.277 495.004 235.282 493.965C235.299 492.904 235.013 491.946 234.423 491.092C233.846 490.215 232.989 489.456 231.851 488.814C230.713 488.171 229.661 487.838 228.695 487.813C227.706 487.775 226.791 488.04 225.951 488.607C225.1 489.137 224.347 489.983 223.692 491.144L221.902 494.314L242.315 505.836Z" fill="#575757" fill-opacity="0.5"/>
<path d="M240.169 732.73L248.84 717.368L250.965 718.568L242.294 733.93L240.169 732.73ZM262.03 751.776L260.254 750.773L260.45 750.425C260.883 749.659 261.167 748.992 261.303 748.426C261.429 747.823 261.237 747.378 260.726 747.09L241.985 736.511C241.474 736.223 241.005 736.295 240.577 736.727C240.139 737.123 239.704 737.704 239.272 738.47L239.075 738.819L237.298 737.816L241.487 730.396L264.128 743.177C264.198 743.216 264.335 743.11 264.539 742.857C264.742 742.605 264.974 742.276 265.233 741.871C265.492 741.466 265.733 741.066 265.956 740.672L266.133 740.358L267.909 741.361L262.03 751.776ZM270.682 736.449L268.905 735.447L269.063 735.168C269.285 734.773 269.503 734.36 269.716 733.929C269.929 733.498 270.091 733.13 270.201 732.825C270.312 732.52 270.333 732.348 270.263 732.309L247.621 719.528L251.809 712.109L253.586 713.111L253.389 713.46C252.957 714.226 252.677 714.911 252.552 715.513C252.416 716.08 252.603 716.507 253.114 716.795L271.855 727.374C272.365 727.662 272.84 727.608 273.278 727.212C273.705 726.78 274.136 726.181 274.568 725.414L274.765 725.066L276.541 726.069L270.682 736.449ZM280.096 714.645C280.189 714.697 280.298 714.667 280.423 714.554C280.561 714.417 280.719 714.246 280.897 714.04C281.064 713.798 281.238 713.544 281.419 713.278C281.589 712.976 281.753 712.686 281.91 712.407L282.402 711.536L284.178 712.539L278.122 723.268L276.346 722.265L276.542 721.917C276.975 721.151 277.259 720.484 277.395 719.918C277.521 719.315 277.328 718.87 276.818 718.581L258.077 708.003C257.566 707.715 257.097 707.787 256.669 708.219C256.231 708.615 255.796 709.196 255.363 709.962L255.167 710.311L253.39 709.308L259.643 698.231C261.295 695.305 263.229 693.396 265.447 692.504C267.666 691.613 269.901 691.803 272.153 693.074C273.663 693.926 274.77 695.057 275.476 696.465C276.181 697.874 276.459 699.47 276.31 701.254C276.137 703.024 275.507 704.873 274.419 706.801L271.843 711.364L269.753 710.184L272.034 706.143C272.715 704.936 273.058 703.813 273.063 702.774C273.08 701.712 272.794 700.755 272.204 699.901C271.627 699.024 270.77 698.265 269.632 697.622C268.494 696.98 267.442 696.647 266.476 696.622C265.487 696.584 264.572 696.849 263.732 697.415C262.881 697.946 262.128 698.791 261.473 699.953L259.684 703.122L280.096 714.645ZM294.037 677.252L301.666 681.558L290.871 700.682L289.095 699.679L289.291 699.331C289.724 698.565 289.997 697.892 290.109 697.312C290.235 696.71 290.043 696.264 289.532 695.976L270.861 685.437C270.35 685.148 269.869 685.214 269.418 685.633C268.98 686.029 268.545 686.61 268.112 687.376L267.916 687.725L266.139 686.722L276.383 668.574L283.141 672.388L281.942 674.513L278.68 673.131C278.236 672.941 277.812 672.932 277.409 673.103C277.007 673.274 276.6 673.641 276.19 674.206C275.769 674.734 275.303 675.451 274.792 676.356L272.433 680.537L292.915 692.098L295.687 687.186C296.107 686.443 296.437 685.803 296.679 685.266C296.934 684.706 297.096 684.23 297.163 683.84C297.243 683.426 297.225 683.079 297.108 682.798C297.004 682.494 296.807 682.246 296.518 682.052L292.799 679.447L294.037 677.252ZM280.889 686.55C281.406 685.525 281.915 684.542 282.416 683.6C282.93 682.635 283.42 681.686 283.885 680.754C284.339 679.786 284.799 678.836 285.264 677.904L287.981 679.438C287.4 680.304 286.824 681.188 286.253 682.091C285.673 682.957 285.102 683.86 284.541 684.799C283.97 685.702 283.391 686.646 282.805 687.631L280.889 686.55ZM282.649 657.473L289.61 645.142L291.735 646.341L284.774 658.672L282.649 657.473ZM315.341 656.681L312.844 661.105L288.391 647.302L292.579 639.882L294.355 640.885L294.139 641.268C293.72 642.011 293.447 642.684 293.321 643.287C293.208 643.866 293.407 644.3 293.918 644.588L315.341 656.681ZM317.814 657.02C317.277 656.778 316.808 656.713 316.409 656.824C316.045 656.925 315.68 657.193 315.311 657.628C314.966 658.077 314.565 658.707 314.106 659.52L306.437 673.105C305.992 673.895 305.66 674.565 305.441 675.115C305.258 675.655 305.223 676.125 305.334 676.525C305.458 676.901 305.768 677.275 306.263 677.646L309.615 680.089L308.356 682.319L300.832 678.071L315.441 652.19L322.966 656.437L321.727 658.632L317.814 657.02ZM304.768 673.541L303.018 676.641C302.666 675.799 302.247 674.996 301.76 674.231C301.25 673.453 300.632 672.676 299.907 671.899C299.158 671.109 298.233 670.281 297.13 669.413C296.041 668.523 294.686 667.559 293.066 666.522L284.747 660.999C284.216 660.638 283.718 660.679 283.254 661.121C282.803 661.541 282.361 662.133 281.929 662.9L281.653 663.387L279.877 662.385L283.2 656.498L294.626 664.004C296.73 665.375 298.435 666.613 299.741 667.718C301.06 668.799 302.113 669.807 302.902 670.742C303.668 671.665 304.29 672.597 304.768 673.541ZM297.044 631.971L305.715 616.609L307.84 617.809L299.169 633.17L297.044 631.971ZM318.906 651.017L317.129 650.014L317.326 649.666C317.758 648.899 318.042 648.233 318.178 647.667C318.304 647.064 318.112 646.619 317.601 646.33L298.86 635.752C298.349 635.463 297.88 635.535 297.452 635.968C297.015 636.364 296.579 636.945 296.147 637.711L295.95 638.059L294.174 637.057L298.362 629.637L321.004 642.418C321.073 642.457 321.21 642.35 321.414 642.098C321.617 641.845 321.849 641.517 322.108 641.112C322.367 640.707 322.608 640.307 322.831 639.912L323.008 639.599L324.785 640.602L318.906 651.017ZM327.557 635.69L325.78 634.687L325.938 634.409C326.161 634.014 326.378 633.601 326.591 633.17C326.804 632.739 326.966 632.371 327.077 632.066C327.187 631.761 327.208 631.589 327.138 631.549L304.496 618.769L308.684 611.349L310.461 612.352L310.264 612.7C309.832 613.467 309.553 614.151 309.427 614.754C309.291 615.32 309.478 615.748 309.989 616.036L328.73 626.614C329.241 626.903 329.715 626.849 330.153 626.453C330.581 626.021 331.011 625.422 331.443 624.655L331.64 624.307L333.416 625.31L327.557 635.69ZM336.971 613.885C337.064 613.938 337.173 613.907 337.298 613.794C337.436 613.658 337.594 613.487 337.772 613.281C337.939 613.038 338.113 612.784 338.294 612.519C338.464 612.217 338.628 611.927 338.785 611.648L339.277 610.777L341.053 611.78L334.997 622.509L333.221 621.506L333.418 621.158C333.85 620.391 334.134 619.725 334.27 619.159C334.396 618.556 334.204 618.111 333.693 617.822L314.952 607.244C314.441 606.955 313.972 607.027 313.544 607.46C313.106 607.855 312.671 608.437 312.239 609.203L312.042 609.551L310.265 608.548L316.518 597.471C318.17 594.545 320.105 592.637 322.323 591.745C324.541 590.854 326.776 591.044 329.029 592.315C330.538 593.167 331.645 594.297 332.351 595.706C333.056 597.115 333.334 598.711 333.185 600.494C333.012 602.265 332.382 604.114 331.294 606.041L328.718 610.605L326.628 609.425L328.909 605.384C329.59 604.177 329.934 603.053 329.938 602.015C329.956 600.953 329.669 599.995 329.079 599.142C328.503 598.265 327.645 597.505 326.507 596.863C325.369 596.221 324.317 595.887 323.351 595.863C322.362 595.825 321.447 596.089 320.607 596.656C319.756 597.186 319.003 598.032 318.348 599.193L316.559 602.363L336.971 613.885ZM355.653 586.73C354.657 588.495 353.43 589.962 351.975 591.13C350.509 592.262 348.897 593.083 347.14 593.592C345.396 594.077 343.57 594.194 341.66 593.943C339.74 593.655 337.839 592.981 335.958 591.919C334.077 590.857 332.529 589.585 331.314 588.103C330.112 586.598 329.268 584.973 328.783 583.23C328.287 581.449 328.157 579.646 328.392 577.819C328.617 575.955 329.228 574.141 330.224 572.376C331.22 570.611 332.451 569.163 333.917 568.03C335.373 566.862 336.985 566.041 338.752 565.569C340.509 565.06 342.342 564.931 344.252 565.183C346.162 565.434 348.057 566.09 349.938 567.152C351.819 568.214 353.372 569.504 354.598 571.022C355.8 572.528 356.637 574.164 357.109 575.931C357.595 577.675 357.725 579.478 357.5 581.342C357.265 583.169 356.649 584.965 355.653 586.73ZM353.458 585.491C354.101 584.353 354.452 583.189 354.512 581.998C354.561 580.77 354.33 579.553 353.818 578.345C353.305 577.137 352.504 575.98 351.413 574.874C350.322 573.769 348.952 572.751 347.303 571.82C345.678 570.902 344.11 570.262 342.6 569.9C341.09 569.537 339.685 569.449 338.386 569.634C337.064 569.807 335.902 570.238 334.9 570.928C333.888 571.581 333.061 572.477 332.419 573.615C331.789 574.73 331.45 575.901 331.4 577.128C331.327 578.342 331.559 579.56 332.094 580.781C332.62 581.966 333.428 583.111 334.519 584.216C335.609 585.322 336.967 586.334 338.593 587.251C340.242 588.182 341.821 588.829 343.332 589.191C344.842 589.554 346.24 589.654 347.526 589.491C348.824 589.306 349.986 588.875 351.012 588.198C352.013 587.508 352.829 586.606 353.458 585.491ZM348 546.175C347.397 547.243 347.083 548.368 347.06 549.549C347.036 550.73 347.299 551.919 347.848 553.117C348.373 554.301 349.17 555.44 350.237 556.533C351.318 557.602 352.659 558.589 354.262 559.493C355.887 560.411 357.437 561.056 358.911 561.428C360.398 561.778 361.784 561.871 363.07 561.709C364.356 561.547 365.518 561.116 366.556 560.416C367.594 559.716 368.454 558.762 369.136 557.554C369.87 556.254 370.217 554.934 370.177 553.595C370.15 552.232 369.792 550.912 369.104 549.636C368.416 548.36 367.502 547.185 366.362 546.113L368.342 544.475C369.782 545.777 370.884 547.242 371.65 548.868C372.429 550.472 372.792 552.162 372.739 553.938C372.698 555.692 372.173 557.462 371.164 559.25C370.168 561.015 368.948 562.47 367.506 563.616C366.053 564.725 364.461 565.511 362.73 565.973C360.989 566.399 359.17 566.475 357.274 566.2C355.39 565.902 353.508 565.223 351.627 564.161C349.746 563.099 348.209 561.834 347.017 560.365C345.802 558.883 344.934 557.275 344.412 555.541C343.89 553.807 343.727 552.062 343.923 550.304C344.096 548.534 344.641 546.836 345.558 545.21C346.45 543.631 347.465 542.428 348.606 541.602C349.736 540.74 350.957 540.204 352.269 539.995C353.581 539.787 354.945 539.837 356.363 540.147L355.402 541.442L350.232 537.743L351.471 535.549L359.03 539.816L357.634 542.289C356.286 542.018 355.018 541.96 353.828 542.115C352.651 542.247 351.568 542.647 350.579 543.313C349.58 543.944 348.72 544.898 348 546.175ZM377.912 546.482L376.136 545.479L376.352 545.096C376.64 544.585 376.861 544.112 377.014 543.678C377.167 543.244 377.198 542.864 377.107 542.537C377.029 542.186 376.816 541.913 376.468 541.716L357.867 531.217C357.518 531.02 357.197 530.992 356.904 531.132C356.6 531.237 356.314 531.473 356.044 531.842C355.752 532.197 355.461 532.63 355.173 533.141L354.957 533.524L353.18 532.521L358.41 523.256L382.61 528.556L381.512 529.038L365.174 511.273L370.326 502.146L372.102 503.149L371.886 503.532C371.467 504.275 371.194 504.948 371.068 505.551C370.919 506.141 371.1 506.58 371.611 506.868L390.351 517.446C390.862 517.735 391.343 517.669 391.794 517.25C392.222 516.818 392.645 516.23 393.065 515.487L393.281 515.104L395.058 516.107L389.316 526.278L387.54 525.275L387.697 524.997C387.933 524.579 388.144 524.177 388.331 523.793C388.517 523.408 388.653 523.087 388.737 522.828C388.812 522.533 388.814 522.366 388.745 522.327L366.8 509.94L367.085 509.596L386.692 531.09L385.257 533.633L356.704 527.988L356.94 527.57L378.711 539.859C378.827 539.925 378.992 539.849 379.206 539.633C379.433 539.394 379.669 539.083 379.915 538.702C380.174 538.297 380.402 537.92 380.599 537.572L380.737 537.328L382.513 538.331L377.912 546.482ZM404.002 501.074C403.006 502.839 401.78 504.306 400.324 505.475C398.858 506.607 397.247 507.427 395.49 507.936C393.746 508.422 391.919 508.539 390.009 508.287C388.089 508 386.189 507.325 384.308 506.263C382.427 505.202 380.879 503.93 379.664 502.448C378.462 500.942 377.618 499.318 377.133 497.574C376.637 495.794 376.507 493.99 376.742 492.163C376.967 490.3 377.578 488.486 378.574 486.721C379.57 484.956 380.801 483.507 382.267 482.375C383.723 481.206 385.334 480.386 387.101 479.913C388.858 479.405 390.692 479.276 392.602 479.527C394.511 479.778 396.407 480.435 398.288 481.497C400.169 482.558 401.722 483.848 402.947 485.367C404.149 486.872 404.986 488.508 405.459 490.275C405.944 492.019 406.074 493.823 405.849 495.686C405.614 497.513 404.999 499.309 404.002 501.074ZM401.808 499.836C402.45 498.698 402.801 497.533 402.861 496.342C402.911 495.115 402.68 493.897 402.167 492.689C401.655 491.481 400.853 490.324 399.762 489.219C398.672 488.113 397.302 487.095 395.653 486.164C394.028 485.247 392.46 484.607 390.949 484.244C389.439 483.882 388.035 483.793 386.736 483.979C385.414 484.151 384.252 484.582 383.25 485.272C382.238 485.926 381.411 486.821 380.768 487.959C380.139 489.074 379.8 490.245 379.75 491.472C379.677 492.687 379.908 493.904 380.444 495.125C380.969 496.31 381.778 497.455 382.868 498.561C383.959 499.667 385.317 500.678 386.943 501.596C388.591 502.526 390.171 503.173 391.681 503.535C393.191 503.898 394.589 503.998 395.875 503.836C397.174 503.65 398.336 503.219 399.361 502.542C400.363 501.853 401.179 500.95 401.808 499.836ZM413.621 476.222L393.94 465.112L392.937 466.889C392.413 467.818 392.027 468.61 391.779 469.267C391.508 469.91 391.41 470.436 391.485 470.846C391.56 471.256 391.786 471.613 392.165 471.919L395.487 474.253L394.268 476.413L387.127 472.382L399.101 451.168L406.242 455.199L405.043 457.324L401.308 455.721C400.877 455.509 400.46 455.488 400.058 455.658C399.655 455.829 399.248 456.197 398.838 456.761C398.417 457.289 397.945 458.018 397.42 458.947L396.418 460.723L416.099 471.833C416.61 472.121 417.084 472.067 417.522 471.671C417.95 471.239 418.38 470.64 418.812 469.873L419.107 469.351L420.884 470.354L414.808 481.117L413.032 480.115L413.346 479.557C413.779 478.791 414.063 478.125 414.199 477.558C414.325 476.956 414.132 476.51 413.621 476.222ZM427.315 453.834C427.408 453.886 427.517 453.856 427.642 453.743C427.78 453.607 427.938 453.435 428.115 453.229C428.283 452.987 428.457 452.733 428.637 452.467C428.808 452.166 428.972 451.875 429.129 451.597L429.62 450.726L431.397 451.729L425.341 462.457L423.564 461.455L423.761 461.106C424.194 460.34 424.478 459.674 424.614 459.107C424.74 458.505 424.547 458.059 424.036 457.771L405.296 447.192C404.785 446.904 404.315 446.976 403.888 447.408C403.45 447.804 403.015 448.385 402.582 449.151L402.386 449.5L400.609 448.497L406.862 437.42C408.513 434.494 410.448 432.585 412.666 431.694C414.884 430.802 417.12 430.992 419.372 432.264C420.882 433.116 421.989 434.246 422.694 435.655C423.4 437.063 423.678 438.659 423.528 440.443C423.356 442.214 422.725 444.062 421.637 445.99L419.062 450.553L416.972 449.373L419.252 445.333C419.934 444.125 420.277 443.002 420.282 441.963C420.299 440.902 420.013 439.944 419.423 439.09C418.846 438.214 417.989 437.454 416.851 436.812C415.713 436.169 414.661 435.836 413.695 435.811C412.706 435.773 411.791 436.038 410.951 436.605C410.1 437.135 409.347 437.981 408.692 439.142L406.902 442.312L427.315 453.834Z" fill="#575757" fill-opacity="0.5"/>
<path d="M29.1692 581.732L37.8403 566.37L39.9651 567.57L31.294 582.932L29.1692 581.732ZM51.0304 600.778L49.2539 599.775L49.4505 599.427C49.8831 598.661 50.1673 597.994 50.3033 597.428C50.4291 596.825 50.2365 596.38 49.7256 596.091L30.9851 585.513C30.4742 585.225 30.0049 585.297 29.5772 585.729C29.1394 586.125 28.7042 586.706 28.2716 587.472L28.075 587.821L26.2984 586.818L30.4865 579.398L53.1285 592.179C53.1981 592.218 53.3348 592.112 53.5386 591.859C53.7423 591.607 53.9738 591.278 54.2329 590.873C54.4921 590.468 54.7331 590.068 54.956 589.674L55.1329 589.36L56.9094 590.363L51.0304 600.778ZM59.6819 585.451L57.9053 584.449L58.0626 584.17C58.2855 583.775 58.5033 583.362 58.716 582.931C58.9287 582.5 59.0905 582.132 59.2014 581.827C59.3122 581.522 59.3328 581.35 59.2631 581.311L36.6212 568.53L40.8093 561.111L42.5858 562.113L42.3892 562.462C41.9566 563.228 41.6774 563.912 41.5516 564.515C41.4157 565.081 41.6032 565.509 42.1141 565.797L60.8546 576.376C61.3655 576.664 61.8399 576.61 62.2777 576.214C62.7054 575.782 63.1355 575.183 63.5681 574.416L63.7647 574.068L65.5413 575.071L59.6819 585.451ZM69.0962 563.647C69.1891 563.699 69.298 563.669 69.4231 563.556C69.5613 563.419 69.7192 563.248 69.8967 563.042C70.0641 562.8 70.2381 562.546 70.4186 562.28C70.589 561.978 70.7529 561.688 70.9102 561.409L71.4018 560.538L73.1783 561.541L67.1222 572.27L65.3457 571.267L65.5424 570.919C65.9749 570.153 66.2592 569.486 66.3951 568.92C66.5209 568.317 66.3284 567.872 65.8175 567.583L47.077 557.005C46.5661 556.717 46.0968 556.789 45.6691 557.221C45.2312 557.617 44.796 558.198 44.3634 558.964L44.1668 559.312L42.3903 558.31L48.643 547.233C50.2946 544.307 52.2294 542.398 54.4475 541.506C56.6655 540.615 58.9008 540.805 61.1534 542.076C62.6629 542.928 63.7703 544.059 64.4756 545.467C65.1809 546.876 65.4589 548.472 65.3095 550.256C65.1369 552.026 64.5066 553.875 63.4186 555.803L60.8429 560.366L58.7528 559.186L61.0337 555.145C61.7153 553.938 62.0584 552.815 62.0628 551.776C62.0804 550.714 61.7942 549.757 61.2042 548.903C60.6274 548.026 59.77 547.267 58.6321 546.624C57.4942 545.982 56.4423 545.648 55.4763 545.624C54.4872 545.586 53.5723 545.85 52.7319 546.417C51.8813 546.948 51.1283 547.793 50.4729 548.954L48.6836 552.124L69.0962 563.647ZM83.0373 526.254L90.6659 530.56L79.8712 549.684L78.0947 548.681L78.2913 548.333C78.7239 547.567 78.9965 546.894 79.1092 546.314C79.2351 545.712 79.0425 545.266 78.5316 544.978L59.8608 534.439C59.3499 534.15 58.8689 534.216 58.418 534.635C57.9802 535.031 57.545 535.612 57.1124 536.378L56.9158 536.727L55.1392 535.724L65.3834 517.575L72.1411 521.39L70.9417 523.515L67.6797 522.133C67.2355 521.943 66.8121 521.934 66.4094 522.105C66.0068 522.276 65.6003 522.643 65.1898 523.208C64.7692 523.736 64.3033 524.453 63.792 525.358L61.4325 529.538L81.9148 541.1L84.6872 536.188C85.1066 535.445 85.4373 534.805 85.6793 534.268C85.9343 533.708 86.0956 533.232 86.163 532.842C86.2435 532.428 86.2251 532.081 86.1079 531.8C86.0037 531.496 85.8073 531.248 85.5185 531.054L81.7986 528.449L83.0373 526.254ZM69.8888 535.552C70.406 534.527 70.9151 533.544 71.4162 532.602C71.9305 531.636 72.42 530.688 72.8847 529.756C73.3394 528.788 73.7991 527.838 74.2639 526.906L76.9809 528.44C76.4 529.306 75.8242 530.19 75.2534 531.093C74.6725 531.959 74.1018 532.862 73.5411 533.801C72.9703 534.704 72.3915 535.648 71.8046 536.633L69.8888 535.552ZM71.6492 506.475L78.6098 494.144L80.7346 495.343L73.7741 507.674L71.6492 506.475ZM104.341 505.683L101.844 510.107L77.3907 496.303L81.5788 488.884L83.3553 489.887L83.139 490.27C82.7196 491.013 82.4469 491.686 82.3211 492.289C82.2084 492.868 82.4075 493.302 82.9183 493.59L104.341 505.683ZM106.814 506.022C106.277 505.78 105.808 505.715 105.409 505.826C105.045 505.927 104.68 506.195 104.311 506.63C103.966 507.079 103.565 507.709 103.106 508.522L95.4374 522.107C94.9917 522.897 94.6595 523.567 94.4408 524.117C94.2584 524.657 94.2229 525.127 94.3341 525.527C94.4585 525.903 94.768 526.277 95.2628 526.648L98.6148 529.091L97.3564 531.321L89.8323 527.073L104.441 501.192L111.966 505.439L110.727 507.634L106.814 506.022ZM93.7677 522.543L92.0177 525.643C91.666 524.801 91.2466 523.998 90.7597 523.233C90.2495 522.455 89.6319 521.678 88.9067 520.901C88.1584 520.111 87.2328 519.283 86.1301 518.415C85.0405 517.525 83.6859 516.561 82.0663 515.524L73.7467 510.001C73.2155 509.64 72.718 509.681 72.2539 510.123C71.803 510.543 71.3612 511.135 70.9286 511.902L70.6534 512.389L68.8768 511.386L72.1998 505.5L83.6259 513.006C85.7301 514.377 87.4351 515.615 88.7408 516.72C90.0597 517.801 91.1135 518.809 91.9023 519.744C92.6679 520.667 93.2897 521.599 93.7677 522.543ZM86.0443 480.973L94.7154 465.611L96.8403 466.811L88.1692 482.172L86.0443 480.973ZM107.906 500.019L106.129 499.016L106.326 498.668C106.758 497.901 107.042 497.235 107.178 496.669C107.304 496.066 107.112 495.621 106.601 495.332L87.8603 484.754C87.3494 484.465 86.8801 484.537 86.4523 484.97C86.0145 485.366 85.5793 485.947 85.1467 486.713L84.9501 487.061L83.1736 486.059L87.3617 478.639L110.004 491.42C110.073 491.459 110.21 491.352 110.414 491.1C110.617 490.847 110.849 490.519 111.108 490.114C111.367 489.709 111.608 489.309 111.831 488.914L112.008 488.601L113.785 489.604L107.906 500.019ZM116.557 484.692L114.78 483.689L114.938 483.411C115.161 483.016 115.378 482.603 115.591 482.172C115.804 481.741 115.966 481.373 116.077 481.068C116.187 480.763 116.208 480.591 116.138 480.551L93.4964 467.771L97.6845 460.351L99.461 461.354L99.2644 461.702C98.8318 462.469 98.5526 463.153 98.4268 463.756C98.2908 464.322 98.4783 464.75 98.9892 465.038L117.73 475.616C118.241 475.905 118.715 475.851 119.153 475.455C119.581 475.023 120.011 474.424 120.443 473.657L120.64 473.309L122.416 474.312L116.557 484.692ZM125.971 462.887C126.064 462.94 126.173 462.909 126.298 462.796C126.436 462.66 126.594 462.489 126.772 462.283C126.939 462.04 127.113 461.786 127.294 461.521C127.464 461.219 127.628 460.929 127.785 460.65L128.277 459.779L130.053 460.782L123.997 471.511L122.221 470.508L122.418 470.16C122.85 469.393 123.134 468.727 123.27 468.161C123.396 467.558 123.204 467.112 122.693 466.824L103.952 456.246C103.441 455.957 102.972 456.029 102.544 456.461C102.106 456.857 101.671 457.439 101.239 458.205L101.042 458.553L99.2655 457.55L105.518 446.473C107.17 443.547 109.105 441.638 111.323 440.747C113.541 439.855 115.776 440.045 118.029 441.317C119.538 442.169 120.645 443.299 121.351 444.708C122.056 446.117 122.334 447.713 122.185 449.496C122.012 451.267 121.382 453.116 120.294 455.043L117.718 459.607L115.628 458.427L117.909 454.386C118.59 453.179 118.934 452.055 118.938 451.017C118.956 449.955 118.669 448.997 118.079 448.144C117.503 447.267 116.645 446.507 115.507 445.865C114.369 445.223 113.317 444.889 112.351 444.865C111.362 444.827 110.447 445.091 109.607 445.658C108.756 446.188 108.003 447.034 107.348 448.195L105.559 451.365L125.971 462.887ZM144.653 435.732C143.657 437.497 142.43 438.963 140.975 440.132C139.509 441.264 137.897 442.085 136.14 442.594C134.396 443.079 132.57 443.196 130.66 442.945C128.74 442.657 126.839 441.983 124.958 440.921C123.077 439.859 121.529 438.587 120.314 437.105C119.112 435.6 118.268 433.975 117.783 432.232C117.287 430.451 117.157 428.648 117.392 426.821C117.617 424.957 118.228 423.143 119.224 421.378C120.22 419.613 121.451 418.165 122.917 417.032C124.373 415.864 125.985 415.043 127.752 414.571C129.509 414.062 131.342 413.933 133.252 414.185C135.162 414.436 137.057 415.092 138.938 416.154C140.819 417.216 142.372 418.506 143.598 420.024C144.8 421.53 145.637 423.166 146.109 424.933C146.595 426.677 146.725 428.48 146.5 430.344C146.265 432.171 145.649 433.967 144.653 435.732ZM142.458 434.493C143.101 433.355 143.452 432.191 143.512 431C143.561 429.772 143.33 428.555 142.818 427.347C142.305 426.139 141.504 424.982 140.413 423.876C139.322 422.771 137.952 421.753 136.303 420.822C134.678 419.904 133.11 419.264 131.6 418.902C130.09 418.539 128.685 418.451 127.386 418.636C126.064 418.809 124.902 419.24 123.9 419.93C122.888 420.583 122.061 421.479 121.419 422.617C120.789 423.732 120.45 424.903 120.4 426.13C120.327 427.344 120.559 428.562 121.094 429.783C121.62 430.968 122.428 432.113 123.519 433.218C124.609 434.324 125.967 435.336 127.593 436.253C129.242 437.184 130.821 437.831 132.332 438.193C133.842 438.556 135.24 438.656 136.526 438.493C137.824 438.308 138.986 437.877 140.012 437.2C141.013 436.51 141.829 435.608 142.458 434.493ZM137 395.177C136.397 396.245 136.083 397.37 136.06 398.551C136.036 399.732 136.299 400.921 136.848 402.119C137.373 403.303 138.17 404.442 139.237 405.534C140.318 406.604 141.659 407.591 143.262 408.495C144.887 409.413 146.437 410.058 147.911 410.43C149.398 410.78 150.784 410.873 152.07 410.711C153.356 410.549 154.518 410.118 155.556 409.418C156.594 408.718 157.454 407.764 158.136 406.556C158.87 405.256 159.217 403.936 159.177 402.596C159.15 401.234 158.792 399.914 158.104 398.638C157.416 397.361 156.502 396.187 155.362 395.115L157.342 393.477C158.782 394.779 159.884 396.244 160.65 397.87C161.429 399.474 161.792 401.164 161.739 402.94C161.698 404.693 161.173 406.464 160.164 408.252C159.168 410.017 157.948 411.472 156.506 412.618C155.053 413.727 153.461 414.513 151.73 414.975C149.989 415.401 148.17 415.476 146.274 415.202C144.39 414.904 142.508 414.225 140.627 413.163C138.746 412.101 137.209 410.836 136.017 409.367C134.802 407.885 133.934 406.277 133.412 404.543C132.89 402.809 132.727 401.064 132.923 399.306C133.096 397.536 133.641 395.838 134.558 394.212C135.45 392.633 136.465 391.43 137.606 390.604C138.736 389.741 139.957 389.206 141.269 388.997C142.581 388.788 143.945 388.839 145.363 389.149L144.402 390.444L139.232 386.745L140.471 384.551L148.03 388.818L146.634 391.291C145.286 391.02 144.018 390.962 142.828 391.117C141.651 391.249 140.568 391.649 139.579 392.315C138.58 392.946 137.72 393.9 137 395.177ZM166.912 395.484L165.136 394.481L165.352 394.098C165.64 393.587 165.861 393.114 166.014 392.68C166.167 392.246 166.198 391.866 166.107 391.539C166.029 391.188 165.816 390.915 165.468 390.718L146.867 380.219C146.518 380.022 146.197 379.994 145.904 380.134C145.6 380.239 145.314 380.475 145.044 380.843C144.752 381.199 144.461 381.632 144.173 382.143L143.957 382.526L142.18 381.523L147.41 372.258L171.61 377.558L170.512 378.04L154.174 360.275L159.326 351.148L161.102 352.151L160.886 352.534C160.467 353.277 160.194 353.95 160.068 354.553C159.919 355.143 160.1 355.581 160.611 355.87L179.351 366.448C179.862 366.737 180.343 366.671 180.794 366.252C181.222 365.82 181.645 365.232 182.065 364.489L182.281 364.106L184.058 365.109L178.316 375.28L176.54 374.277L176.697 373.999C176.933 373.581 177.144 373.179 177.331 372.795C177.517 372.41 177.653 372.088 177.737 371.83C177.812 371.535 177.814 371.368 177.745 371.329L155.8 358.942L156.085 358.598L175.692 380.092L174.257 382.635L145.704 376.99L145.94 376.572L167.711 388.861C167.827 388.926 167.992 388.851 168.206 388.635C168.433 388.396 168.669 388.085 168.915 387.704C169.174 387.299 169.402 386.922 169.599 386.574L169.737 386.33L171.513 387.333L166.912 395.484ZM193.002 350.076C192.006 351.841 190.78 353.308 189.324 354.477C187.858 355.609 186.247 356.429 184.49 356.938C182.746 357.424 180.919 357.541 179.009 357.289C177.089 357.002 175.189 356.327 173.308 355.265C171.427 354.204 169.879 352.932 168.664 351.45C167.462 349.944 166.618 348.32 166.133 346.576C165.637 344.796 165.507 342.992 165.742 341.165C165.967 339.302 166.578 337.488 167.574 335.723C168.57 333.958 169.801 332.509 171.267 331.377C172.723 330.208 174.334 329.388 176.101 328.915C177.858 328.407 179.692 328.278 181.602 328.529C183.511 328.78 185.407 329.437 187.288 330.499C189.169 331.56 190.722 332.85 191.947 334.369C193.149 335.874 193.986 337.51 194.459 339.277C194.944 341.021 195.074 342.825 194.849 344.688C194.614 346.515 193.999 348.311 193.002 350.076ZM190.808 348.837C191.45 347.7 191.801 346.535 191.861 345.344C191.911 344.117 191.68 342.899 191.167 341.691C190.655 340.483 189.853 339.326 188.762 338.221C187.672 337.115 186.302 336.097 184.653 335.166C183.028 334.249 181.46 333.609 179.949 333.246C178.439 332.884 177.035 332.795 175.736 332.981C174.414 333.153 173.252 333.584 172.25 334.274C171.238 334.928 170.411 335.823 169.768 336.961C169.139 338.076 168.8 339.247 168.75 340.474C168.677 341.689 168.908 342.906 169.444 344.127C169.969 345.312 170.778 346.457 171.868 347.563C172.959 348.668 174.317 349.68 175.943 350.598C177.591 351.528 179.171 352.175 180.681 352.537C182.191 352.9 183.589 353 184.875 352.838C186.174 352.652 187.336 352.221 188.361 351.544C189.363 350.854 190.179 349.952 190.808 348.837ZM202.621 325.224L182.94 314.114L181.937 315.891C181.413 316.82 181.027 317.612 180.779 318.269C180.508 318.912 180.41 319.438 180.485 319.848C180.56 320.258 180.786 320.615 181.165 320.921L184.487 323.255L183.268 325.415L176.127 321.384L188.101 300.17L195.242 304.201L194.043 306.326L190.308 304.723C189.877 304.511 189.46 304.49 189.058 304.66C188.655 304.831 188.248 305.199 187.838 305.763C187.417 306.291 186.945 307.02 186.42 307.949L185.418 309.725L205.099 320.835C205.61 321.123 206.084 321.069 206.522 320.673C206.95 320.241 207.38 319.642 207.812 318.875L208.107 318.353L209.884 319.356L203.808 330.119L202.032 329.117L202.346 328.559C202.779 327.793 203.063 327.127 203.199 326.56C203.325 325.958 203.132 325.512 202.621 325.224ZM216.315 302.836C216.408 302.888 216.517 302.858 216.642 302.745C216.78 302.608 216.938 302.437 217.115 302.231C217.283 301.989 217.457 301.735 217.637 301.469C217.808 301.168 217.972 300.877 218.129 300.599L218.62 299.728L220.397 300.731L214.341 311.459L212.564 310.457L212.761 310.108C213.194 309.342 213.478 308.676 213.614 308.109C213.74 307.507 213.547 307.061 213.036 306.773L194.296 296.194C193.785 295.906 193.315 295.978 192.888 296.41C192.45 296.806 192.015 297.387 191.582 298.153L191.386 298.502L189.609 297.499L195.862 286.422C197.513 283.496 199.448 281.587 201.666 280.696C203.884 279.804 206.12 279.994 208.372 281.266C209.882 282.118 210.989 283.248 211.694 284.657C212.4 286.065 212.678 287.661 212.528 289.445C212.356 291.215 211.725 293.064 210.637 294.992L208.062 299.555L205.972 298.375L208.252 294.335C208.934 293.127 209.277 292.004 209.282 290.965C209.299 289.904 209.013 288.946 208.423 288.092C207.846 287.215 206.989 286.456 205.851 285.814C204.713 285.171 203.661 284.838 202.695 284.813C201.706 284.775 200.791 285.04 199.951 285.607C199.1 286.137 198.347 286.983 197.692 288.144L195.902 291.314L216.315 302.836Z" fill="#575757" fill-opacity="0.5"/>
<path d="M274.169 405.73L282.84 390.368L284.965 391.568L276.294 406.93L274.169 405.73ZM296.03 424.776L294.254 423.773L294.45 423.425C294.883 422.659 295.167 421.992 295.303 421.426C295.429 420.823 295.237 420.378 294.726 420.09L275.985 409.511C275.474 409.223 275.005 409.295 274.577 409.727C274.139 410.123 273.704 410.704 273.272 411.47L273.075 411.819L271.298 410.816L275.487 403.396L298.128 416.177C298.198 416.216 298.335 416.11 298.539 415.857C298.742 415.605 298.974 415.276 299.233 414.871C299.492 414.466 299.733 414.066 299.956 413.672L300.133 413.358L301.909 414.361L296.03 424.776ZM304.682 409.449L302.905 408.447L303.063 408.168C303.285 407.773 303.503 407.36 303.716 406.929C303.929 406.498 304.091 406.13 304.201 405.825C304.312 405.52 304.333 405.348 304.263 405.309L281.621 392.528L285.809 385.109L287.586 386.111L287.389 386.46C286.957 387.226 286.677 387.911 286.552 388.513C286.416 389.08 286.603 389.507 287.114 389.795L305.855 400.374C306.365 400.662 306.84 400.608 307.278 400.212C307.705 399.78 308.136 399.181 308.568 398.414L308.765 398.066L310.541 399.069L304.682 409.449ZM314.096 387.645C314.189 387.697 314.298 387.667 314.423 387.554C314.561 387.417 314.719 387.246 314.897 387.04C315.064 386.798 315.238 386.544 315.419 386.278C315.589 385.976 315.753 385.686 315.91 385.407L316.402 384.536L318.178 385.539L312.122 396.268L310.346 395.265L310.542 394.917C310.975 394.151 311.259 393.484 311.395 392.918C311.521 392.315 311.328 391.87 310.818 391.581L292.077 381.003C291.566 380.715 291.097 380.787 290.669 381.219C290.231 381.615 289.796 382.196 289.363 382.962L289.167 383.311L287.39 382.308L293.643 371.231C295.295 368.305 297.229 366.396 299.447 365.504C301.666 364.613 303.901 364.803 306.153 366.074C307.663 366.926 308.77 368.057 309.476 369.465C310.181 370.874 310.459 372.47 310.31 374.254C310.137 376.024 309.507 377.873 308.419 379.801L305.843 384.364L303.753 383.184L306.034 379.143C306.715 377.936 307.058 376.813 307.063 375.774C307.08 374.712 306.794 373.755 306.204 372.901C305.627 372.024 304.77 371.265 303.632 370.622C302.494 369.98 301.442 369.647 300.476 369.622C299.487 369.584 298.572 369.849 297.732 370.415C296.881 370.946 296.128 371.791 295.473 372.953L293.684 376.122L314.096 387.645ZM328.037 350.252L335.666 354.558L324.871 373.682L323.095 372.679L323.291 372.331C323.724 371.565 323.997 370.892 324.109 370.312C324.235 369.71 324.043 369.264 323.532 368.976L304.861 358.437C304.35 358.148 303.869 358.214 303.418 358.633C302.98 359.029 302.545 359.61 302.112 360.376L301.916 360.725L300.139 359.722L310.383 341.574L317.141 345.388L315.942 347.513L312.68 346.131C312.236 345.941 311.812 345.932 311.409 346.103C311.007 346.274 310.6 346.641 310.19 347.206C309.769 347.734 309.303 348.451 308.792 349.356L306.433 353.537L326.915 365.098L329.687 360.186C330.107 359.443 330.437 358.803 330.679 358.266C330.934 357.706 331.096 357.23 331.163 356.84C331.243 356.426 331.225 356.079 331.108 355.798C331.004 355.494 330.807 355.246 330.518 355.052L326.799 352.447L328.037 350.252ZM314.889 359.55C315.406 358.525 315.915 357.542 316.416 356.6C316.93 355.635 317.42 354.686 317.885 353.754C318.339 352.786 318.799 351.836 319.264 350.904L321.981 352.438C321.4 353.304 320.824 354.188 320.253 355.091C319.673 355.957 319.102 356.86 318.541 357.799C317.97 358.702 317.391 359.646 316.805 360.631L314.889 359.55ZM316.649 330.473L323.61 318.142L325.735 319.341L318.774 331.672L316.649 330.473ZM349.341 329.681L346.844 334.105L322.391 320.302L326.579 312.882L328.355 313.885L328.139 314.268C327.72 315.011 327.447 315.684 327.321 316.287C327.208 316.866 327.407 317.3 327.918 317.588L349.341 329.681ZM351.814 330.02C351.277 329.778 350.808 329.713 350.409 329.824C350.045 329.925 349.68 330.193 349.311 330.628C348.966 331.077 348.565 331.707 348.106 332.52L340.437 346.105C339.992 346.895 339.66 347.565 339.441 348.115C339.258 348.655 339.223 349.125 339.334 349.525C339.458 349.901 339.768 350.275 340.263 350.646L343.615 353.089L342.356 355.319L334.832 351.071L349.441 325.19L356.966 329.437L355.727 331.632L351.814 330.02ZM338.768 346.541L337.018 349.641C336.666 348.799 336.247 347.996 335.76 347.231C335.25 346.453 334.632 345.676 333.907 344.899C333.158 344.109 332.233 343.281 331.13 342.413C330.041 341.523 328.686 340.559 327.066 339.522L318.747 333.999C318.216 333.638 317.718 333.679 317.254 334.121C316.803 334.541 316.361 335.133 315.929 335.9L315.653 336.387L313.877 335.385L317.2 329.498L328.626 337.004C330.73 338.375 332.435 339.613 333.741 340.718C335.06 341.799 336.113 342.807 336.902 343.742C337.668 344.665 338.29 345.597 338.768 346.541ZM331.044 304.971L339.715 289.609L341.84 290.809L333.169 306.17L331.044 304.971ZM352.906 324.017L351.129 323.014L351.326 322.666C351.758 321.899 352.042 321.233 352.178 320.667C352.304 320.064 352.112 319.619 351.601 319.33L332.86 308.752C332.349 308.463 331.88 308.535 331.452 308.968C331.015 309.364 330.579 309.945 330.147 310.711L329.95 311.059L328.174 310.057L332.362 302.637L355.004 315.418C355.073 315.457 355.21 315.35 355.414 315.098C355.617 314.845 355.849 314.517 356.108 314.112C356.367 313.707 356.608 313.307 356.831 312.912L357.008 312.599L358.785 313.602L352.906 324.017ZM361.557 308.69L359.78 307.687L359.938 307.409C360.161 307.014 360.378 306.601 360.591 306.17C360.804 305.739 360.966 305.371 361.077 305.066C361.187 304.761 361.208 304.589 361.138 304.549L338.496 291.769L342.684 284.349L344.461 285.352L344.264 285.7C343.832 286.467 343.553 287.151 343.427 287.754C343.291 288.32 343.478 288.748 343.989 289.036L362.73 299.614C363.241 299.903 363.715 299.849 364.153 299.453C364.581 299.021 365.011 298.422 365.443 297.655L365.64 297.307L367.416 298.31L361.557 308.69ZM370.971 286.885C371.064 286.938 371.173 286.907 371.298 286.794C371.436 286.658 371.594 286.487 371.772 286.281C371.939 286.038 372.113 285.784 372.294 285.519C372.464 285.217 372.628 284.927 372.785 284.648L373.277 283.777L375.053 284.78L368.997 295.509L367.221 294.506L367.418 294.158C367.85 293.391 368.134 292.725 368.27 292.159C368.396 291.556 368.204 291.111 367.693 290.822L348.952 280.244C348.441 279.955 347.972 280.027 347.544 280.46C347.106 280.855 346.671 281.437 346.239 282.203L346.042 282.551L344.265 281.548L350.518 270.471C352.17 267.545 354.105 265.637 356.323 264.745C358.541 263.854 360.776 264.044 363.029 265.315C364.538 266.167 365.645 267.297 366.351 268.706C367.056 270.115 367.334 271.711 367.185 273.494C367.012 275.265 366.382 277.114 365.294 279.041L362.718 283.605L360.628 282.425L362.909 278.384C363.59 277.177 363.934 276.053 363.938 275.015C363.956 273.953 363.669 272.995 363.079 272.142C362.503 271.265 361.645 270.505 360.507 269.863C359.369 269.221 358.317 268.887 357.351 268.863C356.362 268.825 355.447 269.089 354.607 269.656C353.756 270.186 353.003 271.032 352.348 272.193L350.559 275.363L370.971 286.885ZM389.653 259.73C388.657 261.495 387.43 262.962 385.975 264.13C384.509 265.262 382.897 266.083 381.14 266.592C379.396 267.077 377.57 267.194 375.66 266.943C373.74 266.655 371.839 265.981 369.958 264.919C368.077 263.857 366.529 262.585 365.314 261.103C364.112 259.598 363.268 257.973 362.783 256.23C362.287 254.449 362.157 252.646 362.392 250.819C362.617 248.955 363.228 247.141 364.224 245.376C365.22 243.611 366.451 242.163 367.917 241.03C369.373 239.862 370.985 239.041 372.752 238.569C374.509 238.06 376.342 237.931 378.252 238.183C380.162 238.434 382.057 239.09 383.938 240.152C385.819 241.214 387.372 242.504 388.598 244.022C389.8 245.528 390.637 247.164 391.109 248.931C391.595 250.675 391.725 252.478 391.5 254.342C391.265 256.169 390.649 257.965 389.653 259.73ZM387.458 258.491C388.101 257.353 388.452 256.189 388.512 254.998C388.561 253.77 388.33 252.553 387.818 251.345C387.305 250.137 386.504 248.98 385.413 247.874C384.322 246.769 382.952 245.751 381.303 244.82C379.678 243.902 378.11 243.262 376.6 242.9C375.09 242.537 373.685 242.449 372.386 242.634C371.064 242.807 369.902 243.238 368.9 243.928C367.888 244.581 367.061 245.477 366.419 246.615C365.789 247.73 365.45 248.901 365.4 250.128C365.327 251.342 365.559 252.56 366.094 253.781C366.62 254.966 367.428 256.111 368.519 257.216C369.609 258.322 370.967 259.334 372.593 260.251C374.242 261.182 375.821 261.829 377.332 262.191C378.842 262.554 380.24 262.654 381.526 262.491C382.824 262.306 383.986 261.875 385.012 261.198C386.013 260.508 386.829 259.606 387.458 258.491ZM382 219.175C381.397 220.243 381.083 221.368 381.06 222.549C381.036 223.73 381.299 224.919 381.848 226.117C382.373 227.301 383.17 228.44 384.237 229.533C385.318 230.602 386.659 231.589 388.262 232.493C389.887 233.411 391.437 234.056 392.911 234.428C394.398 234.778 395.784 234.871 397.07 234.709C398.356 234.547 399.518 234.116 400.556 233.416C401.594 232.716 402.454 231.762 403.136 230.554C403.87 229.254 404.217 227.934 404.177 226.595C404.15 225.232 403.792 223.912 403.104 222.636C402.416 221.36 401.502 220.185 400.362 219.113L402.342 217.475C403.782 218.777 404.884 220.242 405.65 221.868C406.429 223.472 406.792 225.162 406.739 226.938C406.698 228.692 406.173 230.462 405.164 232.25C404.168 234.015 402.948 235.47 401.506 236.616C400.053 237.725 398.461 238.511 396.73 238.973C394.989 239.399 393.17 239.475 391.274 239.2C389.39 238.902 387.508 238.223 385.627 237.161C383.746 236.099 382.209 234.834 381.017 233.365C379.802 231.883 378.934 230.275 378.412 228.541C377.89 226.807 377.727 225.062 377.923 223.304C378.096 221.534 378.641 219.836 379.558 218.21C380.45 216.631 381.465 215.428 382.606 214.602C383.736 213.74 384.957 213.204 386.269 212.995C387.581 212.787 388.945 212.837 390.363 213.147L389.402 214.442L384.232 210.743L385.471 208.549L393.03 212.816L391.634 215.289C390.286 215.018 389.018 214.96 387.828 215.115C386.651 215.247 385.568 215.647 384.579 216.313C383.58 216.944 382.72 217.898 382 219.175ZM411.912 219.482L410.136 218.479L410.352 218.096C410.64 217.585 410.861 217.112 411.014 216.678C411.167 216.244 411.198 215.864 411.107 215.537C411.029 215.186 410.816 214.913 410.468 214.716L391.867 204.217C391.518 204.02 391.197 203.992 390.904 204.132C390.6 204.237 390.314 204.473 390.044 204.842C389.752 205.197 389.461 205.63 389.173 206.141L388.957 206.524L387.18 205.521L392.41 196.256L416.61 201.556L415.512 202.038L399.174 184.273L404.326 175.146L406.102 176.149L405.886 176.532C405.467 177.275 405.194 177.948 405.068 178.551C404.919 179.141 405.1 179.58 405.611 179.868L424.351 190.446C424.862 190.735 425.343 190.669 425.794 190.25C426.222 189.818 426.645 189.23 427.065 188.487L427.281 188.104L429.058 189.107L423.316 199.278L421.54 198.275L421.697 197.997C421.933 197.579 422.144 197.177 422.331 196.793C422.517 196.408 422.653 196.087 422.737 195.828C422.812 195.533 422.814 195.366 422.745 195.327L400.8 182.94L401.085 182.596L420.692 204.09L419.257 206.633L390.704 200.988L390.94 200.57L412.711 212.859C412.827 212.925 412.992 212.849 413.206 212.633C413.433 212.394 413.669 212.083 413.915 211.702C414.174 211.297 414.402 210.92 414.599 210.572L414.737 210.328L416.513 211.331L411.912 219.482ZM438.002 174.074C437.006 175.839 435.78 177.306 434.324 178.475C432.858 179.607 431.247 180.427 429.49 180.936C427.746 181.422 425.919 181.539 424.009 181.287C422.089 181 420.189 180.325 418.308 179.263C416.427 178.202 414.879 176.93 413.664 175.448C412.462 173.942 411.618 172.318 411.133 170.574C410.637 168.794 410.507 166.99 410.742 165.163C410.967 163.3 411.578 161.486 412.574 159.721C413.57 157.956 414.801 156.507 416.267 155.375C417.723 154.206 419.334 153.386 421.101 152.913C422.858 152.405 424.692 152.276 426.602 152.527C428.511 152.778 430.407 153.435 432.288 154.497C434.169 155.558 435.722 156.848 436.947 158.367C438.149 159.872 438.986 161.508 439.459 163.275C439.944 165.019 440.074 166.823 439.849 168.686C439.614 170.513 438.999 172.309 438.002 174.074ZM435.808 172.836C436.45 171.698 436.801 170.533 436.861 169.342C436.911 168.115 436.68 166.897 436.167 165.689C435.655 164.481 434.853 163.324 433.762 162.219C432.672 161.113 431.302 160.095 429.653 159.164C428.028 158.247 426.46 157.607 424.949 157.244C423.439 156.882 422.035 156.793 420.736 156.979C419.414 157.151 418.252 157.582 417.25 158.272C416.238 158.926 415.411 159.821 414.768 160.959C414.139 162.074 413.8 163.245 413.75 164.472C413.677 165.687 413.908 166.904 414.444 168.125C414.969 169.31 415.778 170.455 416.868 171.561C417.959 172.667 419.317 173.678 420.943 174.596C422.591 175.526 424.171 176.173 425.681 176.535C427.191 176.898 428.589 176.998 429.875 176.836C431.174 176.65 432.336 176.219 433.361 175.542C434.363 174.853 435.179 173.95 435.808 172.836ZM447.621 149.222L427.94 138.112L426.937 139.889C426.413 140.818 426.027 141.61 425.779 142.267C425.508 142.91 425.41 143.436 425.485 143.846C425.56 144.256 425.786 144.613 426.165 144.919L429.487 147.253L428.268 149.413L421.127 145.382L433.101 124.168L440.242 128.199L439.043 130.324L435.308 128.721C434.877 128.509 434.46 128.488 434.058 128.658C433.655 128.829 433.248 129.197 432.838 129.761C432.417 130.289 431.945 131.018 431.42 131.947L430.418 133.723L450.099 144.833C450.61 145.121 451.084 145.067 451.522 144.671C451.95 144.239 452.38 143.64 452.812 142.873L453.107 142.351L454.884 143.354L448.808 154.117L447.032 153.115L447.346 152.557C447.779 151.791 448.063 151.125 448.199 150.558C448.325 149.956 448.132 149.51 447.621 149.222ZM461.315 126.834C461.408 126.886 461.517 126.856 461.642 126.743C461.78 126.607 461.938 126.435 462.115 126.229C462.283 125.987 462.457 125.733 462.637 125.467C462.808 125.166 462.972 124.875 463.129 124.597L463.62 123.726L465.397 124.729L459.341 135.457L457.564 134.455L457.761 134.106C458.194 133.34 458.478 132.674 458.614 132.107C458.74 131.505 458.547 131.059 458.036 130.771L439.296 120.192C438.785 119.904 438.315 119.976 437.888 120.408C437.45 120.804 437.015 121.385 436.582 122.151L436.386 122.5L434.609 121.497L440.862 110.42C442.513 107.494 444.448 105.585 446.666 104.694C448.884 103.802 451.12 103.992 453.372 105.264C454.882 106.116 455.989 107.246 456.694 108.655C457.4 110.063 457.678 111.659 457.528 113.443C457.356 115.214 456.725 117.062 455.637 118.99L453.062 123.553L450.972 122.373L453.252 118.333C453.934 117.125 454.277 116.002 454.282 114.963C454.299 113.902 454.013 112.944 453.423 112.09C452.846 111.214 451.989 110.454 450.851 109.812C449.713 109.169 448.661 108.836 447.695 108.811C446.706 108.773 445.791 109.038 444.951 109.605C444.1 110.135 443.347 110.981 442.692 112.142L440.902 115.312L461.315 126.834Z" fill="#575757" fill-opacity="0.5"/>
<path d="M460.435 346.486L469.106 331.124L471.231 332.324L462.56 347.685L460.435 346.486ZM482.296 365.532L480.519 364.529L480.716 364.181C481.149 363.415 481.433 362.748 481.569 362.182C481.695 361.579 481.502 361.134 480.991 360.845L462.251 350.267C461.74 349.979 461.271 350.051 460.843 350.483C460.405 350.879 459.97 351.46 459.537 352.226L459.341 352.575L457.564 351.572L461.752 344.152L484.394 356.933C484.464 356.972 484.6 356.865 484.804 356.613C485.008 356.361 485.239 356.032 485.499 355.627C485.758 355.222 485.999 354.822 486.222 354.428L486.399 354.114L488.175 355.117L482.296 365.532ZM490.947 350.205L489.171 349.202L489.328 348.924C489.551 348.529 489.769 348.116 489.982 347.685C490.194 347.254 490.356 346.886 490.467 346.581C490.578 346.276 490.598 346.104 490.529 346.065L467.887 333.284L472.075 325.864L473.851 326.867L473.655 327.216C473.222 327.982 472.943 328.666 472.817 329.269C472.681 329.835 472.869 330.263 473.38 330.551L492.12 341.13C492.631 341.418 493.105 341.364 493.543 340.968C493.971 340.536 494.401 339.937 494.834 339.17L495.03 338.822L496.807 339.825L490.947 350.205ZM500.362 328.4C500.455 328.453 500.564 328.423 500.689 328.309C500.827 328.173 500.985 328.002 501.162 327.796C501.33 327.554 501.504 327.3 501.684 327.034C501.855 326.732 502.019 326.442 502.176 326.163L502.667 325.292L504.444 326.295L498.388 337.024L496.611 336.021L496.808 335.673C497.241 334.906 497.525 334.24 497.661 333.674C497.787 333.071 497.594 332.626 497.083 332.337L478.343 321.759C477.832 321.47 477.362 321.542 476.935 321.975C476.497 322.371 476.062 322.952 475.629 323.718L475.432 324.066L473.656 323.064L479.909 311.986C481.56 309.06 483.495 307.152 485.713 306.26C487.931 305.369 490.166 305.559 492.419 306.83C493.929 307.682 495.036 308.813 495.741 310.221C496.447 311.63 496.725 313.226 496.575 315.01C496.403 316.78 495.772 318.629 494.684 320.557L492.108 325.12L490.018 323.94L492.299 319.899C492.981 318.692 493.324 317.569 493.328 316.53C493.346 315.468 493.06 314.51 492.47 313.657C491.893 312.78 491.036 312.021 489.898 311.378C488.76 310.736 487.708 310.402 486.742 310.378C485.753 310.34 484.838 310.604 483.997 311.171C483.147 311.702 482.394 312.547 481.739 313.708L479.949 316.878L500.362 328.4ZM514.303 291.008L521.931 295.314L511.137 314.438L509.36 313.435L509.557 313.087C509.989 312.321 510.262 311.648 510.375 311.068C510.501 310.466 510.308 310.02 509.797 309.732L491.126 299.193C490.615 298.904 490.135 298.97 489.684 299.389C489.246 299.785 488.811 300.366 488.378 301.132L488.181 301.481L486.405 300.478L496.649 282.329L503.407 286.144L502.207 288.269L498.945 286.887C498.501 286.697 498.078 286.688 497.675 286.859C497.272 287.03 496.866 287.397 496.455 287.962C496.035 288.49 495.569 289.207 495.058 290.112L492.698 294.292L513.18 305.854L515.953 300.942C516.372 300.199 516.703 299.559 516.945 299.022C517.2 298.462 517.361 297.986 517.429 297.596C517.509 297.182 517.491 296.834 517.373 296.554C517.269 296.25 517.073 296.001 516.784 295.808L513.064 293.203L514.303 291.008ZM501.154 300.306C501.672 299.281 502.181 298.298 502.682 297.356C503.196 296.39 503.686 295.442 504.15 294.51C504.605 293.542 505.065 292.592 505.53 291.66L508.247 293.193C507.666 294.06 507.09 294.944 506.519 295.847C505.938 296.713 505.367 297.616 504.807 298.555C504.236 299.458 503.657 300.402 503.07 301.387L501.154 300.306ZM502.915 271.229L509.875 258.898L512 260.097L505.04 272.428L502.915 271.229ZM535.607 270.437L533.11 274.86L508.656 261.057L512.844 253.638L514.621 254.641L514.405 255.024C513.985 255.767 513.713 256.44 513.587 257.042C513.474 257.622 513.673 258.056 514.184 258.344L535.607 270.437ZM538.079 270.776C537.542 270.534 537.074 270.469 536.674 270.58C536.311 270.681 535.945 270.949 535.577 271.384C535.232 271.833 534.83 272.463 534.371 273.276L526.703 286.861C526.257 287.651 525.925 288.321 525.706 288.871C525.524 289.411 525.488 289.881 525.6 290.28C525.724 290.657 526.034 291.031 526.528 291.402L529.88 293.845L528.622 296.074L521.098 291.827L535.707 265.946L543.231 270.193L541.992 272.388L538.079 270.776ZM525.033 287.297L523.283 290.397C522.932 289.555 522.512 288.752 522.025 287.987C521.515 287.209 520.898 286.432 520.172 285.655C519.424 284.865 518.498 284.037 517.396 283.169C516.306 282.279 514.952 281.315 513.332 280.278L505.012 274.755C504.481 274.394 503.984 274.435 503.52 274.877C503.069 275.296 502.627 275.889 502.194 276.656L501.919 277.143L500.142 276.14L503.465 270.253L514.891 277.76C516.996 279.131 518.701 280.369 520.006 281.474C521.325 282.555 522.379 283.563 523.168 284.498C523.934 285.42 524.555 286.353 525.033 287.297ZM517.31 245.727L525.981 230.365L528.106 231.564L519.435 246.926L517.31 245.727ZM539.171 264.773L537.395 263.77L537.591 263.422C538.024 262.655 538.308 261.989 538.444 261.423C538.57 260.82 538.377 260.375 537.866 260.086L519.126 249.508C518.615 249.219 518.146 249.291 517.718 249.724C517.28 250.119 516.845 250.701 516.412 251.467L516.216 251.815L514.439 250.812L518.627 243.393L541.269 256.173C541.339 256.213 541.476 256.106 541.679 255.854C541.883 255.601 542.115 255.273 542.374 254.868C542.633 254.463 542.874 254.063 543.097 253.668L543.274 253.355L545.05 254.358L539.171 264.773ZM547.823 249.446L546.046 248.443L546.203 248.165C546.426 247.77 546.644 247.357 546.857 246.926C547.069 246.495 547.231 246.127 547.342 245.822C547.453 245.517 547.474 245.345 547.404 245.305L524.762 232.525L528.95 225.105L530.727 226.108L530.53 226.456C530.097 227.223 529.818 227.907 529.692 228.51C529.556 229.076 529.744 229.503 530.255 229.792L548.995 240.37C549.506 240.659 549.981 240.605 550.418 240.209C550.846 239.777 551.276 239.177 551.709 238.411L551.906 238.063L553.682 239.066L547.823 249.446ZM557.237 227.641C557.33 227.694 557.439 227.663 557.564 227.55C557.702 227.414 557.86 227.243 558.038 227.037C558.205 226.794 558.379 226.54 558.559 226.275C558.73 225.973 558.894 225.683 559.051 225.404L559.543 224.533L561.319 225.536L555.263 236.265L553.487 235.262L553.683 234.914C554.116 234.147 554.4 233.481 554.536 232.915C554.662 232.312 554.469 231.866 553.958 231.578L535.218 221C534.707 220.711 534.238 220.783 533.81 221.215C533.372 221.611 532.937 222.192 532.504 222.959L532.308 223.307L530.531 222.304L536.784 211.227C538.435 208.301 540.37 206.392 542.588 205.501C544.806 204.609 547.042 204.799 549.294 206.071C550.804 206.923 551.911 208.053 552.616 209.462C553.322 210.871 553.6 212.467 553.45 214.25C553.278 216.021 552.647 217.87 551.559 219.797L548.984 224.36L546.894 223.181L549.174 219.14C549.856 217.932 550.199 216.809 550.204 215.771C550.221 214.709 549.935 213.751 549.345 212.898C548.768 212.021 547.911 211.261 546.773 210.619C545.635 209.977 544.583 209.643 543.617 209.618C542.628 209.581 541.713 209.845 540.873 210.412C540.022 210.942 539.269 211.788 538.614 212.949L536.824 216.119L557.237 227.641ZM575.918 200.486C574.922 202.251 573.696 203.717 572.24 204.886C570.774 206.018 569.163 206.839 567.406 207.348C565.662 207.833 563.835 207.95 561.925 207.699C560.005 207.411 558.105 206.737 556.224 205.675C554.343 204.613 552.795 203.341 551.58 201.859C550.378 200.354 549.534 198.729 549.049 196.985C548.553 195.205 548.423 193.402 548.658 191.575C548.883 189.711 549.494 187.897 550.49 186.132C551.486 184.367 552.717 182.919 554.183 181.786C555.639 180.618 557.25 179.797 559.017 179.325C560.774 178.816 562.608 178.687 564.518 178.939C566.427 179.19 568.323 179.846 570.204 180.908C572.085 181.97 573.638 183.26 574.863 184.778C576.065 186.284 576.902 187.92 577.375 189.687C577.86 191.431 577.99 193.234 577.765 195.098C577.53 196.925 576.915 198.721 575.918 200.486ZM573.724 199.247C574.366 198.109 574.717 196.945 574.777 195.753C574.827 194.526 574.596 193.308 574.083 192.101C573.571 190.893 572.769 189.736 571.678 188.63C570.588 187.525 569.218 186.506 567.569 185.576C565.944 184.658 564.376 184.018 562.865 183.656C561.355 183.293 559.951 183.205 558.652 183.39C557.33 183.562 556.168 183.994 555.166 184.684C554.154 185.337 553.327 186.233 552.684 187.371C552.055 188.486 551.716 189.657 551.666 190.884C551.593 192.098 551.824 193.316 552.36 194.537C552.885 195.722 553.693 196.867 554.784 197.972C555.875 199.078 557.233 200.09 558.859 201.007C560.507 201.938 562.087 202.584 563.597 202.947C565.107 203.309 566.505 203.41 567.791 203.247C569.09 203.062 570.252 202.631 571.277 201.954C572.279 201.264 573.095 200.362 573.724 199.247ZM568.265 159.931C567.662 160.999 567.349 162.124 567.325 163.304C567.302 164.485 567.564 165.675 568.113 166.873C568.639 168.057 569.435 169.196 570.503 170.288C571.583 171.358 572.925 172.345 574.527 173.249C576.153 174.167 577.702 174.812 579.176 175.184C580.663 175.534 582.05 175.627 583.336 175.465C584.621 175.303 585.783 174.872 586.822 174.172C587.86 173.472 588.72 172.518 589.401 171.31C590.135 170.01 590.482 168.69 590.442 167.35C590.415 165.988 590.058 164.668 589.37 163.392C588.681 162.115 587.767 160.941 586.627 159.869L588.608 158.231C590.047 159.533 591.15 160.998 591.916 162.624C592.695 164.228 593.058 165.918 593.004 167.694C592.964 169.447 592.439 171.218 591.43 173.006C590.433 174.771 589.214 176.226 587.771 177.372C586.318 178.481 584.727 179.266 582.996 179.729C581.255 180.155 579.436 180.23 577.539 179.956C575.656 179.658 573.773 178.979 571.892 177.917C570.011 176.855 568.475 175.59 567.283 174.121C566.068 172.639 565.2 171.031 564.678 169.297C564.156 167.563 563.993 165.818 564.189 164.06C564.361 162.29 564.906 160.592 565.824 158.966C566.715 157.387 567.731 156.184 568.871 155.358C570.001 154.495 571.222 153.96 572.534 153.751C573.846 153.542 575.211 153.593 576.628 153.903L575.668 155.198L570.498 151.499L571.737 149.305L579.296 153.572L577.9 156.045C576.552 155.774 575.283 155.716 574.093 155.871C572.917 156.003 571.834 156.403 570.845 157.069C569.846 157.7 568.986 158.653 568.265 159.931ZM598.178 160.238L596.401 159.235L596.617 158.852C596.906 158.341 597.127 157.868 597.28 157.434C597.433 157 597.464 156.62 597.373 156.293C597.295 155.942 597.082 155.669 596.734 155.472L578.132 144.973C577.784 144.776 577.463 144.748 577.169 144.888C576.866 144.992 576.579 145.229 576.31 145.597C576.017 145.953 575.727 146.386 575.439 146.897L575.222 147.28L573.446 146.277L578.676 137.012L602.876 142.312L601.777 142.794L585.44 125.029L590.591 115.902L592.368 116.905L592.152 117.288C591.732 118.031 591.46 118.704 591.334 119.307C591.185 119.896 591.366 120.335 591.876 120.624L610.617 131.202C611.128 131.491 611.609 131.425 612.06 131.006C612.487 130.574 612.911 129.986 613.331 129.243L613.547 128.86L615.323 129.863L609.582 140.034L607.805 139.031L607.963 138.753C608.199 138.335 608.41 137.933 608.596 137.549C608.783 137.164 608.918 136.842 609.003 136.584C609.078 136.289 609.08 136.122 609.01 136.083L587.065 123.695L587.351 123.352L606.958 144.846L605.522 147.388L576.969 141.744L577.205 141.326L598.976 153.615C599.092 153.68 599.257 153.605 599.471 153.389C599.698 153.15 599.935 152.839 600.181 152.457C600.44 152.053 600.668 151.676 600.865 151.328L601.002 151.084L602.779 152.087L598.178 160.238ZM624.268 114.83C623.272 116.595 622.046 118.062 620.59 119.23C619.124 120.363 617.513 121.183 615.756 121.692C614.012 122.177 612.185 122.295 610.275 122.043C608.355 121.756 606.455 121.081 604.574 120.019C602.693 118.958 601.144 117.686 599.929 116.204C598.727 114.698 597.884 113.074 597.398 111.33C596.903 109.55 596.772 107.746 597.008 105.919C597.233 104.056 597.843 102.241 598.839 100.477C599.836 98.7116 601.067 97.263 602.533 96.1307C603.988 94.962 605.6 94.1415 607.367 93.6691C609.124 93.1604 610.957 93.0317 612.867 93.283C614.777 93.5342 616.673 94.1907 618.554 95.2525C620.435 96.3143 621.988 97.6043 623.213 99.1227C624.415 100.628 625.252 102.264 625.724 104.031C626.21 105.775 626.34 107.579 626.115 109.442C625.88 111.269 625.264 113.065 624.268 114.83ZM622.073 113.591C622.716 112.453 623.067 111.289 623.127 110.098C623.177 108.871 622.945 107.653 622.433 106.445C621.92 105.237 621.119 104.08 620.028 102.975C618.937 101.869 617.568 100.851 615.919 99.9202C614.293 99.0026 612.725 98.3626 611.215 98.0001C609.705 97.6376 608.3 97.5491 607.001 97.7345C605.679 97.9069 604.517 98.338 603.515 99.028C602.503 99.6816 601.676 100.577 601.034 101.715C600.405 102.83 600.065 104.001 600.015 105.228C599.942 106.443 600.174 107.66 600.709 108.881C601.235 110.066 602.043 111.211 603.134 112.317C604.225 113.422 605.583 114.434 607.208 115.352C608.857 116.282 610.437 116.929 611.947 117.291C613.457 117.654 614.855 117.754 616.141 117.592C617.44 117.406 618.602 116.975 619.627 116.298C620.629 115.608 621.444 114.706 622.073 113.591ZM633.887 89.9776L614.206 78.8683L613.203 80.6448C612.679 81.5737 612.293 82.3663 612.045 83.0225C611.774 83.6656 611.675 84.192 611.75 84.6018C611.825 85.0115 612.052 85.3692 612.431 85.6748L615.752 88.0091L614.533 90.1688L607.392 86.138L619.367 64.9242L626.508 68.955L625.308 71.0799L621.574 69.4771C621.143 69.2644 620.726 69.2434 620.323 69.4143C619.921 69.5851 619.514 69.9527 619.103 70.5172C618.683 71.0453 618.21 71.7738 617.686 72.7027L616.683 74.4792L636.364 85.5885C636.875 85.8769 637.35 85.8231 637.787 85.4272C638.215 84.995 638.645 84.3957 639.078 83.6293L639.373 83.1068L641.149 84.1096L635.074 94.8732L633.297 93.8704L633.612 93.3131C634.044 92.5468 634.329 91.8804 634.465 91.3141C634.59 90.7115 634.398 90.2659 633.887 89.9776ZM647.58 67.5898C647.673 67.6422 647.782 67.6118 647.907 67.4987C648.046 67.3624 648.204 67.1912 648.381 66.9852C648.548 66.7429 648.722 66.4889 648.903 66.2234C649.073 65.9215 649.237 65.6312 649.395 65.3525L649.886 64.4817L651.663 65.4845L645.607 76.2132L643.83 75.2105L644.027 74.8621C644.459 74.0958 644.744 73.4294 644.879 72.8631C645.005 72.2605 644.813 71.815 644.302 71.5266L625.561 60.9482C625.05 60.6598 624.581 60.7317 624.153 61.164C623.716 61.5599 623.28 62.141 622.848 62.9073L622.651 63.2557L620.875 62.2529L627.127 51.1758C628.779 48.2497 630.714 46.341 632.932 45.4495C635.15 44.558 637.385 44.748 639.638 46.0195C641.147 46.8715 642.255 48.0018 642.96 49.4105C643.665 50.8191 643.943 52.4153 643.794 54.1989C643.621 55.9694 642.991 57.8183 641.903 59.7458L639.327 64.309L637.237 63.1293L639.518 59.0886C640.2 57.881 640.543 56.7579 640.547 55.7193C640.565 54.6574 640.279 53.6997 639.689 52.8462C639.112 51.9694 638.254 51.2098 637.116 50.5675C635.979 49.9252 634.927 49.5917 633.961 49.567C632.971 49.5292 632.057 49.7937 631.216 50.3604C630.366 50.8908 629.613 51.7366 628.957 52.8977L627.168 56.0676L647.58 67.5898Z" fill="#575757" fill-opacity="0.5"/>
<path d="M227.384 208.049L236.055 192.687L238.18 193.886L229.509 209.248L227.384 208.049ZM249.245 227.095L247.469 226.092L247.665 225.743C248.098 224.977 248.382 224.311 248.518 223.744C248.644 223.142 248.451 222.696 247.94 222.408L229.2 211.829C228.689 211.541 228.22 211.613 227.792 212.045C227.354 212.441 226.919 213.022 226.486 213.789L226.29 214.137L224.513 213.134L228.701 205.715L251.343 218.495C251.413 218.535 251.55 218.428 251.753 218.176C251.957 217.923 252.189 217.594 252.448 217.19C252.707 216.785 252.948 216.385 253.171 215.99L253.348 215.676L255.124 216.679L249.245 227.095ZM257.897 211.768L256.12 210.765L256.277 210.486C256.5 210.091 256.718 209.679 256.931 209.247C257.144 208.816 257.305 208.448 257.416 208.143C257.527 207.839 257.548 207.666 257.478 207.627L234.836 194.847L239.024 187.427L240.801 188.43L240.604 188.778C240.171 189.544 239.892 190.229 239.766 190.832C239.631 191.398 239.818 191.825 240.329 192.114L259.069 202.692C259.58 202.98 260.055 202.927 260.493 202.531C260.92 202.098 261.35 201.499 261.783 200.733L261.98 200.384L263.756 201.387L257.897 211.768ZM267.311 189.963C267.404 190.015 267.513 189.985 267.638 189.872C267.776 189.736 267.934 189.564 268.112 189.358C268.279 189.116 268.453 188.862 268.633 188.597C268.804 188.295 268.968 188.004 269.125 187.726L269.617 186.855L271.393 187.858L265.337 198.586L263.561 197.584L263.757 197.235C264.19 196.469 264.474 195.803 264.61 195.236C264.736 194.634 264.543 194.188 264.032 193.9L245.292 183.321C244.781 183.033 244.312 183.105 243.884 183.537C243.446 183.933 243.011 184.514 242.578 185.281L242.382 185.629L240.605 184.626L246.858 173.549C248.509 170.623 250.444 168.714 252.662 167.823C254.88 166.931 257.116 167.121 259.368 168.393C260.878 169.245 261.985 170.375 262.69 171.784C263.396 173.192 263.674 174.788 263.524 176.572C263.352 178.343 262.721 180.192 261.633 182.119L259.058 186.682L256.968 185.502L259.249 181.462C259.93 180.254 260.273 179.131 260.278 178.092C260.295 177.031 260.009 176.073 259.419 175.219C258.842 174.343 257.985 173.583 256.847 172.941C255.709 172.298 254.657 171.965 253.691 171.94C252.702 171.902 251.787 172.167 250.947 172.734C250.096 173.264 249.343 174.11 248.688 175.271L246.898 178.441L267.311 189.963ZM281.252 152.571L288.881 156.877L278.086 176.001L276.31 174.998L276.506 174.649C276.939 173.883 277.211 173.21 277.324 172.631C277.45 172.028 277.257 171.583 276.746 171.294L258.076 160.755C257.565 160.467 257.084 160.532 256.633 160.951C256.195 161.347 255.76 161.928 255.327 162.695L255.131 163.043L253.354 162.04L263.598 143.892L270.356 147.706L269.157 149.831L265.895 148.449C265.45 148.26 265.027 148.25 264.624 148.421C264.222 148.592 263.815 148.96 263.405 149.524C262.984 150.052 262.518 150.769 262.007 151.675L259.647 155.855L280.13 167.416L282.902 162.505C283.321 161.762 283.652 161.122 283.894 160.585C284.149 160.024 284.31 159.549 284.378 159.158C284.458 158.744 284.44 158.397 284.323 158.116C284.219 157.813 284.022 157.564 283.733 157.37L280.013 154.765L281.252 152.571ZM268.104 161.868C268.621 160.844 269.13 159.86 269.631 158.918C270.145 157.953 270.635 157.004 271.1 156.072C271.554 155.104 272.014 154.154 272.479 153.222L275.196 154.756C274.615 155.622 274.039 156.507 273.468 157.409C272.887 158.276 272.317 159.179 271.756 160.118C271.185 161.02 270.606 161.964 270.019 162.95L268.104 161.868ZM269.864 132.791L276.825 120.46L278.949 121.66L271.989 133.991L269.864 132.791ZM302.556 131.999L300.059 136.423L275.606 122.62L279.794 115.2L281.57 116.203L281.354 116.586C280.934 117.329 280.662 118.002 280.536 118.605C280.423 119.184 280.622 119.618 281.133 119.907L302.556 131.999ZM305.029 132.338C304.491 132.096 304.023 132.031 303.623 132.142C303.26 132.243 302.894 132.512 302.526 132.947C302.181 133.395 301.779 134.026 301.321 134.839L293.652 148.424C293.207 149.213 292.874 149.883 292.656 150.433C292.473 150.973 292.438 151.443 292.549 151.843C292.673 152.219 292.983 152.593 293.478 152.964L296.83 155.408L295.571 157.637L288.047 153.39L302.656 127.508L310.18 131.755L308.942 133.95L305.029 132.338ZM291.983 148.859L290.233 151.959C289.881 151.118 289.461 150.315 288.975 149.55C288.464 148.772 287.847 147.994 287.122 147.218C286.373 146.428 285.448 145.599 284.345 144.732C283.255 143.841 281.901 142.877 280.281 141.841L271.962 136.318C271.43 135.957 270.933 135.997 270.469 136.44C270.018 136.859 269.576 137.452 269.143 138.218L268.868 138.706L267.092 137.703L270.415 131.816L281.841 139.322C283.945 140.694 285.65 141.932 286.956 143.036C288.275 144.117 289.328 145.126 290.117 146.061C290.883 146.983 291.505 147.916 291.983 148.859ZM284.259 107.289L292.93 91.9276L295.055 93.127L286.384 108.489L284.259 107.289ZM306.12 126.335L304.344 125.333L304.54 124.984C304.973 124.218 305.257 123.552 305.393 122.985C305.519 122.383 305.327 121.937 304.816 121.649L286.075 111.07C285.564 110.782 285.095 110.854 284.667 111.286C284.229 111.682 283.794 112.263 283.362 113.029L283.165 113.378L281.388 112.375L285.577 104.955L308.218 117.736C308.288 117.775 308.425 117.669 308.629 117.416C308.832 117.164 309.064 116.835 309.323 116.43C309.582 116.025 309.823 115.626 310.046 115.231L310.223 114.917L311.999 115.92L306.12 126.335ZM314.772 111.008L312.995 110.006L313.153 109.727C313.375 109.332 313.593 108.919 313.806 108.488C314.019 108.057 314.181 107.689 314.291 107.384C314.402 107.079 314.423 106.907 314.353 106.868L291.711 94.0873L295.899 86.6677L297.676 87.6705L297.479 88.0188C297.047 88.7851 296.767 89.4696 296.642 90.0723C296.506 90.6386 296.693 91.066 297.204 91.3543L315.945 101.933C316.455 102.221 316.93 102.167 317.368 101.771C317.795 101.339 318.226 100.74 318.658 99.9736L318.855 99.6252L320.631 100.628L314.772 111.008ZM324.186 89.2037C324.279 89.2561 324.388 89.2258 324.513 89.1127C324.651 88.9763 324.809 88.8051 324.987 88.5991C325.154 88.3568 325.328 88.1028 325.509 87.8373C325.679 87.5354 325.843 87.2451 326 86.9664L326.492 86.0956L328.268 87.0984L322.212 97.8272L320.436 96.8244L320.632 96.476C321.065 95.7097 321.349 95.0434 321.485 94.477C321.611 93.8744 321.418 93.4289 320.908 93.1405L302.167 82.5621C301.656 82.2737 301.187 82.3456 300.759 82.7779C300.321 83.1738 299.886 83.7549 299.453 84.5213L299.257 84.8696L297.48 83.8668L303.733 72.7897C305.385 69.8637 307.319 67.9549 309.537 67.0634C311.756 66.1719 313.991 66.3619 316.243 67.6334C317.753 68.4854 318.86 69.6158 319.566 71.0244C320.271 72.4331 320.549 74.0292 320.4 75.8128C320.227 77.5833 319.597 79.4323 318.509 81.3597L315.933 85.923L313.843 84.7432L316.124 80.7025C316.805 79.4949 317.148 78.3718 317.153 77.3332C317.17 76.2714 316.884 75.3137 316.294 74.4601C315.717 73.5833 314.86 72.8237 313.722 72.1814C312.584 71.5391 311.532 71.2056 310.566 71.1809C309.577 71.1432 308.662 71.4076 307.822 71.9743C306.971 72.5047 306.218 73.3505 305.563 74.5116L303.774 77.6815L324.186 89.2037ZM342.868 62.0482C341.871 63.8131 340.645 65.2799 339.19 66.4485C337.724 67.5808 336.112 68.4013 334.355 68.91C332.611 69.3955 330.784 69.5126 328.875 69.2614C326.955 68.9738 325.054 68.2991 323.173 67.2374C321.292 66.1756 319.744 64.9037 318.529 63.4216C317.327 61.9164 316.483 60.2918 315.998 58.5479C315.502 56.7677 315.372 54.9641 315.607 53.137C315.832 51.2736 316.443 49.4595 317.439 47.6946C318.435 45.9297 319.666 44.4811 321.132 43.3488C322.588 42.1801 324.2 41.3596 325.967 40.8872C327.724 40.3785 329.557 40.2498 331.467 40.501C333.377 40.7523 335.272 41.4088 337.153 42.4706C339.034 43.5324 340.587 44.8224 341.812 46.3408C343.014 47.8461 343.852 49.4822 344.324 51.2493C344.809 52.9932 344.94 54.7968 344.715 56.6602C344.48 58.4873 343.864 60.2833 342.868 62.0482ZM340.673 60.8094C341.315 59.6715 341.666 58.5071 341.726 57.316C341.776 56.0886 341.545 54.8709 341.032 53.6631C340.52 52.4552 339.718 51.2984 338.628 50.1928C337.537 49.0871 336.167 48.069 334.518 47.1383C332.893 46.2207 331.325 45.5807 329.815 45.2182C328.305 44.8557 326.9 44.7671 325.601 44.9526C324.279 45.1249 323.117 45.5561 322.115 46.246C321.103 46.8997 320.276 47.7954 319.633 48.9333C319.004 50.048 318.665 51.219 318.615 52.4464C318.542 53.6607 318.773 54.8784 319.309 56.0994C319.835 57.2841 320.643 58.4292 321.733 59.5348C322.824 60.6405 324.182 61.6521 325.808 62.5696C327.457 63.5003 329.036 64.1469 330.546 64.5094C332.057 64.8719 333.455 64.9721 334.74 64.8098C336.039 64.6244 337.201 64.1932 338.226 63.5164C339.228 62.8264 340.044 61.9241 340.673 60.8094ZM335.214 21.4932C334.611 22.5614 334.298 23.686 334.275 24.867C334.251 26.0479 334.514 27.2373 335.062 28.4351C335.588 29.6198 336.384 30.7583 337.452 31.8509C338.533 32.9202 339.874 33.907 341.476 34.8115C343.102 35.7291 344.652 36.3742 346.126 36.7468C347.613 37.0962 348.999 37.1898 350.285 37.0276C351.571 36.8653 352.733 36.4342 353.771 35.7341C354.809 35.034 355.669 34.0802 356.351 32.8727C357.085 31.5722 357.432 30.2523 357.391 28.9129C357.364 27.5503 357.007 26.2308 356.319 24.9543C355.631 23.6779 354.717 22.5035 353.576 21.4313L355.557 19.7935C356.996 21.0957 358.099 22.5602 358.865 24.1868C359.644 25.7902 360.007 27.4802 359.953 29.2566C359.913 31.0099 359.388 32.7806 358.379 34.5687C357.383 36.3336 356.163 37.7888 354.72 38.9342C353.268 40.0433 351.676 40.829 349.945 41.2912C348.204 41.7172 346.385 41.7929 344.489 41.5184C342.605 41.2207 340.723 40.541 338.842 39.4792C336.961 38.4175 335.424 37.1521 334.232 35.6832C333.017 34.2011 332.149 32.5932 331.627 30.8595C331.105 29.1257 330.942 27.3801 331.138 25.6227C331.311 23.8523 331.856 22.1542 332.773 20.5286C333.665 18.9495 334.68 17.7468 335.82 16.9205C336.95 16.0579 338.171 15.5222 339.483 15.3136C340.795 15.1049 342.16 15.1556 343.577 15.4656L342.617 16.7607L337.447 13.0618L338.686 10.8673L346.245 15.1341L344.849 17.6073C343.501 17.3365 342.232 17.2787 341.043 17.4338C339.866 17.5657 338.783 17.965 337.794 18.6317C336.795 19.2621 335.935 20.216 335.214 21.4932ZM365.127 21.8001L363.35 20.7973L363.567 20.4142C363.855 19.9033 364.076 19.4308 364.229 18.9967C364.382 18.5626 364.413 18.182 364.322 17.855C364.244 17.5048 364.031 17.2314 363.683 17.0348L345.082 6.53505C344.733 6.33843 344.412 6.31035 344.119 6.45082C343.815 6.55495 343.528 6.7913 343.259 7.15987C342.967 7.51533 342.676 7.9485 342.388 8.4594L342.171 8.84257L340.395 7.83978L345.625 -1.42599L369.825 3.87444L368.726 4.35653L352.389 -13.4088L357.541 -22.5352L359.317 -21.5324L359.101 -21.1493C358.681 -20.4061 358.409 -19.7333 358.283 -19.1306C358.134 -18.5411 358.315 -18.1021 358.826 -17.8137L377.566 -7.23532C378.077 -6.94694 378.558 -7.01232 379.009 -7.43145C379.437 -7.8637 379.86 -8.45138 380.28 -9.1945L380.496 -9.57767L382.273 -8.57489L376.531 1.59656L374.755 0.593775L374.912 0.315105C375.148 -0.1029 375.359 -0.504236 375.546 -0.888903C375.732 -1.27357 375.868 -1.59513 375.952 -1.85357C376.027 -2.14834 376.029 -2.31539 375.96 -2.35471L354.014 -14.7421L354.3 -15.0859L373.907 6.4081L372.472 8.95097L343.919 3.30631L344.154 2.8883L365.926 15.1773C366.042 15.2429 366.207 15.1676 366.421 14.9515C366.647 14.7121 366.884 14.4016 367.13 14.0199C367.389 13.615 367.617 13.2384 367.814 12.8901L367.951 12.6462L369.728 13.649L365.127 21.8001ZM391.217 -23.6074C390.221 -21.8425 388.995 -20.3757 387.539 -19.2071C386.073 -18.0748 384.462 -17.2542 382.705 -16.7455C380.961 -16.2601 379.134 -16.1429 377.224 -16.3942C375.304 -16.6818 373.404 -17.3565 371.523 -18.4182C369.642 -19.48 368.094 -20.7519 366.879 -22.2339C365.677 -23.7392 364.833 -25.3638 364.347 -27.1077C363.852 -28.8879 363.722 -30.6915 363.957 -32.5185C364.182 -34.3819 364.792 -36.1961 365.789 -37.961C366.785 -39.7259 368.016 -41.1745 369.482 -42.3068C370.938 -43.4755 372.549 -44.296 374.316 -44.7684C376.073 -45.2771 377.907 -45.4058 379.816 -45.1545C381.726 -44.9033 383.622 -44.2468 385.503 -43.185C387.384 -42.1232 388.937 -40.8332 390.162 -39.3148C391.364 -37.8095 392.201 -36.1733 392.674 -34.4062C393.159 -32.6624 393.289 -30.8587 393.064 -28.9953C392.829 -27.1683 392.213 -25.3723 391.217 -23.6074ZM389.023 -24.8461C389.665 -25.984 390.016 -27.1485 390.076 -28.3396C390.126 -29.567 389.894 -30.7846 389.382 -31.9925C388.87 -33.2004 388.068 -34.3572 386.977 -35.4628C385.887 -36.5684 384.517 -37.5866 382.868 -38.5173C381.242 -39.4349 379.675 -40.0749 378.164 -40.4374C376.654 -40.7999 375.25 -40.8884 373.951 -40.703C372.629 -40.5306 371.466 -40.0995 370.465 -39.4095C369.453 -38.7559 368.625 -37.8602 367.983 -36.7223C367.354 -35.6076 367.014 -34.4365 366.965 -33.2091C366.892 -31.9949 367.123 -30.7772 367.659 -29.5562C368.184 -28.3715 368.992 -27.2264 370.083 -26.1208C371.174 -25.0151 372.532 -24.0035 374.158 -23.0859C375.806 -22.1553 377.386 -21.5087 378.896 -21.1462C380.406 -20.7836 381.804 -20.6835 383.09 -20.8457C384.389 -21.0312 385.551 -21.4623 386.576 -22.1392C387.578 -22.8291 388.394 -23.7315 389.023 -24.8461ZM400.836 -48.4599L381.155 -59.5692L380.152 -57.7927C379.628 -56.8638 379.242 -56.0712 378.994 -55.415C378.723 -54.7719 378.625 -54.2455 378.7 -53.8357C378.774 -53.426 379.001 -53.0683 379.38 -52.7627L382.702 -50.4284L381.482 -48.2687L374.342 -52.2995L386.316 -73.5133L393.457 -69.4825L392.258 -67.3576L388.523 -68.9604C388.092 -69.1731 387.675 -69.1941 387.272 -69.0232C386.87 -68.8524 386.463 -68.4848 386.053 -67.9203C385.632 -67.3922 385.16 -66.6637 384.635 -65.7348L383.633 -63.9583L403.314 -52.849C403.824 -52.5606 404.299 -52.6144 404.737 -53.0103C405.164 -53.4425 405.595 -54.0418 406.027 -54.8082L406.322 -55.3307L408.099 -54.3279L402.023 -43.5643L400.246 -44.5671L400.561 -45.1244C400.994 -45.8907 401.278 -46.5571 401.414 -47.1234C401.54 -47.726 401.347 -48.1716 400.836 -48.4599ZM414.53 -70.8477C414.623 -70.7953 414.732 -70.8257 414.857 -70.9388C414.995 -71.0751 415.153 -71.2463 415.33 -71.4523C415.498 -71.6946 415.672 -71.9486 415.852 -72.2141C416.023 -72.516 416.186 -72.8063 416.344 -73.085L416.835 -73.9558L418.612 -72.953L412.556 -62.2243L410.779 -63.227L410.976 -63.5754C411.408 -64.3417 411.693 -65.0081 411.829 -65.5744C411.955 -66.177 411.762 -66.6225 411.251 -66.9109L392.511 -77.4893C392 -77.7777 391.53 -77.7058 391.103 -77.2735C390.665 -76.8776 390.23 -76.2965 389.797 -75.5302L389.6 -75.1818L387.824 -76.1846L394.077 -87.2617C395.728 -90.1878 397.663 -92.0965 399.881 -92.988C402.099 -93.8795 404.334 -93.6895 406.587 -92.418C408.096 -91.566 409.204 -90.4357 409.909 -89.027C410.614 -87.6184 410.892 -86.0222 410.743 -84.2386C410.57 -82.4681 409.94 -80.6192 408.852 -78.6917L406.276 -74.1285L404.186 -75.3082L406.467 -79.3489C407.149 -80.5565 407.492 -81.6796 407.496 -82.7182C407.514 -83.7801 407.228 -84.7378 406.638 -85.5913C406.061 -86.4681 405.204 -87.2277 404.066 -87.87C402.928 -88.5123 401.876 -88.8458 400.91 -88.8705C399.921 -88.9083 399.006 -88.6438 398.165 -88.0771C397.315 -87.5467 396.562 -86.7009 395.906 -85.5398L394.117 -82.3699L414.53 -70.8477Z" fill="#575757" fill-opacity="0.5"/>
</svg>
