<svg width="35" height="35" viewBox="0 0 35 35" fill="none" xmlns="http://www.w3.org/2000/svg">
<path d="M14.4167 13.4671C14.4167 14.2186 14.7153 14.9392 15.2466 15.4706C15.778 16.0019 16.4986 16.3005 17.2501 16.3005C18.0015 16.3005 18.7222 16.0019 19.2535 15.4706C19.7849 14.9392 20.0834 14.2186 20.0834 13.4671C20.0834 12.7157 19.7849 11.995 19.2535 11.4637C18.7222 10.9323 18.0015 10.6338 17.2501 10.6338C16.4986 10.6338 15.778 10.9323 15.2466 11.4637C14.7153 11.995 14.4167 12.7157 14.4167 13.4671Z" stroke="#FF9D0A" stroke-width="2" stroke-linecap="round" stroke-linejoin="round"/>
<path d="M28.5834 17.7171C28.5834 29.0505 28.5834 29.0505 17.2501 29.0505C5.91675 29.0505 5.91675 29.0505 5.91675 17.7171C5.91675 6.38379 5.91675 6.38379 17.2501 6.38379C28.5834 6.38379 28.5834 6.38379 28.5834 17.7171Z" stroke="#FF9D0A" stroke-width="2" stroke-linecap="round" stroke-linejoin="round"/>
<path d="M13.7084 19.1338C15.5968 20.0787 18.9033 20.0787 20.7917 19.1338M13.7084 24.8005L17.25 20.5505M17.25 20.5505L20.7917 24.8005M17.25 20.5505V19.8421" stroke="#FF9D0A" stroke-width="2" stroke-linecap="round" stroke-linejoin="round"/>
</svg>
