<svg width="34" height="34" viewBox="0 0 34 34" fill="none" xmlns="http://www.w3.org/2000/svg">
<path d="M16.75 3.73535C9.16 3.73535 3 9.89535 3 17.4854C3 25.0753 9.16 31.2353 16.75 31.2353C24.34 31.2353 30.5 25.0753 30.5 17.4854C30.5 9.89535 24.34 3.73535 16.75 3.73535ZM23.13 13.0854C22.9237 15.2579 22.03 20.5378 21.5762 22.9716C21.3837 24.0028 20.9987 24.3466 20.6412 24.3878C19.8437 24.4566 19.2387 23.8654 18.4687 23.3566C17.2587 22.5591 16.5712 22.0641 15.4025 21.2941C14.0412 20.4004 14.9212 19.9053 15.705 19.1079C15.9112 18.9016 19.4312 15.6979 19.5 15.4091C19.5095 15.3654 19.5083 15.32 19.4963 15.2768C19.4843 15.2337 19.462 15.1941 19.4312 15.1616C19.3487 15.0929 19.2387 15.1204 19.1425 15.1341C19.0187 15.1616 17.0937 16.4404 13.34 18.9704C12.79 19.3416 12.295 19.5341 11.855 19.5203C11.36 19.5066 10.425 19.2453 9.72375 19.0116C8.8575 18.7366 8.18375 18.5854 8.23875 18.1041C8.26625 17.8566 8.61 17.6091 9.25625 17.3478C13.2712 15.6016 15.9387 14.4466 17.2725 13.8966C21.095 12.3016 21.8787 12.0266 22.4012 12.0266C22.5112 12.0266 22.7725 12.0541 22.9375 12.1916C23.075 12.3016 23.1162 12.4529 23.13 12.5629C23.1162 12.6454 23.1437 12.8929 23.13 13.0854Z" fill="#1691D0"/>
</svg>
