<svg width="145" height="131" viewBox="0 0 145 131" fill="none" xmlns="http://www.w3.org/2000/svg">
<g clip-path="url(#clip0_3010_1396)">
<path d="M65.5003 8.63907C61.7763 10.0865 54.4487 12.8909 49.232 14.8811C44.0152 16.8713 39.7182 18.5298 39.6881 18.5599C39.6579 18.5901 40.3665 20.4747 41.2561 22.7363L42.8995 26.8675L72.0589 26.9127L101.233 26.9429L102.877 22.7815C103.766 20.5049 104.475 18.6051 104.445 18.575C104.415 18.5448 100.962 17.203 96.7857 15.5897C92.5942 13.9764 87.3473 11.9259 85.1008 11.0364C80.9395 9.37785 74.803 6.98057 73.1897 6.3624L72.2851 6.01562L65.5003 8.63907ZM75.3156 10.7951C78.4366 12.0918 82.8844 13.9764 90.0763 17.0673C102.364 22.3443 103.163 22.7062 102.44 22.7212C102.063 22.7363 42.3869 22.7363 41.9949 22.7212C41.3466 22.7212 41.9346 22.4348 47.483 20.0827C49.1867 19.359 52.9561 17.7608 55.8509 16.5245C67.9429 11.3831 72.1494 9.61909 72.3002 9.60401C72.4057 9.60401 73.7627 10.1317 75.3156 10.7951Z" fill="#134283"/>
<path d="M68.8174 12.1067C66.9931 12.8907 62.8619 14.6548 59.6203 16.0419C50.2875 20.0072 46.5634 21.6054 45.5985 22.0728L44.6938 22.495L45.4477 22.5402C46.1262 22.5703 46.6539 22.3894 50.4986 20.746C52.8657 19.7358 56.635 18.1376 58.8664 17.1878C68.6214 13.0264 72.1344 11.5639 72.3757 11.5639C72.6169 11.5639 72.9184 11.6996 73.2803 11.8504C73.6422 12.0012 76.2204 13.1018 78.9946 14.2778C81.7688 15.4539 87.2871 17.8059 91.2373 19.5097C97.7356 22.2839 98.5046 22.5854 99.1529 22.5402L99.8766 22.495L98.972 22.0577C96.3636 20.8214 72.4511 10.6442 72.2249 10.6744C72.1797 10.6744 70.6418 11.3227 68.8174 12.1067Z" fill="#134283"/>
<path d="M43.1107 48.428V66.4302L44.2264 67.1841C49.0813 70.4559 56.635 74.7076 62.4096 77.3763C66.7971 79.4117 71.7877 81.5226 72.24 81.5226C72.6923 81.5226 73.6422 81.0853 74.984 80.5576C82.8996 77.4366 91.7801 72.8381 98.4443 68.4204L100.178 67.2746L95.6248 67.2293L91.0564 67.1992V64.3345H100.254V65.6914C100.254 66.4302 100.299 67.0484 100.374 67.0484C100.45 67.0484 100.691 66.8825 100.932 66.6865L101.384 66.3247L101.414 49.2271C101.43 39.8339 101.399 31.7525 101.354 31.27L101.264 30.4106H43.1107V48.428ZM52.7602 30.667C52.7602 30.7423 52.5189 30.9685 52.2475 31.1947L51.7198 31.6168H48.9004C46.1111 31.6168 46.0809 31.6168 45.5683 31.2248C45.2969 31.0137 45.0708 30.7876 45.0708 30.6971C45.0708 30.6067 46.5936 30.5614 48.9155 30.5614C51.2374 30.5614 52.7602 30.6066 52.7602 30.667ZM66.3297 30.667C66.3146 30.7423 66.0432 30.9685 65.7115 31.1947L65.1235 31.6168H62.3795C59.6656 31.6168 59.6354 31.6168 59.0625 31.2248C58.7458 30.9987 58.4895 30.7574 58.4895 30.6971C58.4895 30.6368 60.2536 30.5614 62.4096 30.5614C64.5657 30.5614 66.3297 30.6066 66.3297 30.667ZM85.7492 31.0891L85.1763 31.6168H79.5977L78.9946 31.1796C78.6629 30.9534 78.4518 30.7122 78.4971 30.6519C78.5423 30.6066 80.3214 30.5614 82.4473 30.5614H86.3071C86.3071 30.5765 85.7492 31.0891 85.7492 31.0891ZM99.6505 30.6971C99.6505 30.7574 99.3941 30.9987 99.0775 31.2248C98.5046 31.6168 98.4744 31.6168 95.7605 31.6168C93.0466 31.6168 93.0014 31.6168 92.4134 31.2248C92.0817 30.9987 91.8103 30.7574 91.8103 30.6971C91.8103 30.6368 93.5743 30.5614 95.7304 30.5614C97.8864 30.5614 99.6505 30.6217 99.6505 30.6971ZM51.2524 47.9907V63.7314H46.7293V32.235L48.8853 32.1898C50.0613 32.1596 51.0715 32.1596 51.1469 32.1898C51.2072 32.2199 51.2524 39.3213 51.2524 47.9907ZM64.5204 47.9003V63.7314H60.148V32.235L62.2287 32.1747C63.3595 32.1596 64.3395 32.1144 64.4149 32.0993C64.4752 32.0842 64.5204 39.1856 64.5204 47.9003ZM84.5732 47.9757V63.7314H80.2008V32.2199H84.5732V47.9757ZM97.992 47.9757V63.7314H93.6195V32.2199H97.992V47.9757ZM75.1047 43.5429C75.7379 43.6183 76.6124 43.8143 77.0647 43.95L77.8638 44.2063V63.8068H66.8574L66.8122 53.9613C66.7971 48.5637 66.7971 44.131 66.8273 44.131C66.8574 44.131 67.4153 43.9953 68.0787 43.8143C70.0689 43.2866 72.4662 43.1962 75.1047 43.5429ZM53.6346 65.8121L53.6799 67.1992L49.0361 67.169L44.3923 67.1238L44.3471 65.7216L44.3018 64.3345L48.9456 64.3646L53.5894 64.4099L53.6346 65.8121ZM66.9629 65.7065C66.9931 66.4604 66.978 67.1087 66.9479 67.1389C66.9177 67.169 64.822 67.1992 62.3041 67.1992H57.7357V64.3345H66.9177L66.9629 65.7065ZM86.9102 65.7668V67.1238H77.8638L77.8186 65.9327C77.7884 65.2693 77.8035 64.6511 77.8487 64.5305C77.9241 64.3646 78.7534 64.3345 82.4171 64.3646L86.9102 64.4099V65.7668Z" fill="#134283"/>
<path d="M69.3452 44.1309C68.9682 44.2062 68.4104 44.3419 68.1088 44.4324L67.5359 44.5983V62.6608L72.3305 62.6307L77.11 62.6005L77.1552 53.6145L77.1853 44.6133L76.1752 44.357C74.9991 44.0404 70.5061 43.9047 69.3452 44.1309ZM75.7832 44.5078C77.0195 44.7943 77.517 45.1561 76.4164 44.9752C74.5167 44.6586 73.793 44.5832 72.2098 44.5832C70.6267 44.5832 69.1944 44.7189 68.2294 44.9601C67.8977 45.0506 67.8073 45.0355 67.8676 44.8696C68.0937 44.1912 73.3256 43.9499 75.7832 44.5078ZM74.9841 45.0355C76.929 45.2767 76.8989 45.2466 76.8536 46.8146L76.8084 48.1263L74.8484 48.2017L72.8883 48.2922L74.8936 48.3223L76.8989 48.3525L76.8536 49.9658L76.8084 51.5941L74.8484 51.6695L72.8883 51.76L74.8785 51.7901L76.8687 51.8203V58.605H74.9237C73.7176 58.605 72.9637 58.6653 72.9637 58.7558C72.9637 58.8463 73.7176 58.9066 74.9237 58.9066H76.8838V62.3743H72.1948L72.2249 53.6597C72.2551 48.8802 72.2852 44.9149 72.3154 44.8546C72.3757 44.7339 72.6018 44.749 74.9841 45.0355ZM72.0289 46.498L71.9837 48.1113L69.9181 48.1716L67.8374 48.2168V45.3521L68.6365 45.2013C69.0587 45.126 69.5562 45.0204 69.7221 44.9903C69.8879 44.945 70.491 44.9149 71.0489 44.8998H72.0741C72.0741 44.8847 72.0289 46.498 72.0289 46.498ZM72.0591 49.5436C72.0591 50.1919 72.0138 50.9458 71.9686 51.2021L71.8781 51.6695H67.8374V48.3525H72.0591V49.5436ZM71.9988 54.9413C71.9535 56.6751 71.9234 58.213 71.9083 58.3789C71.9083 58.6653 71.8178 58.6804 69.8729 58.6352L67.8374 58.59V51.8203H72.0892L71.9988 54.9413ZM72.0289 60.6405L71.9837 62.3743H67.8374V58.9066H72.0591L72.0289 60.6405Z" fill="#134283"/>
<path d="M72.9638 46.5283V47.7496H76.4316V46.7696C76.4316 45.8348 76.4165 45.7745 76.0245 45.6237C75.7833 45.5332 75.0143 45.4277 74.2906 45.3825L72.9638 45.292V46.5283Z" fill="#134283"/>
<path d="M72.9638 49.9506V51.2171H76.4768L76.3713 50.7497C76.326 50.4934 76.2808 49.9204 76.2808 49.4983V48.7293H74.6223C74.6223 48.7142 72.9638 48.6841 72.9638 48.6841V49.9506Z" fill="#134283"/>
<path d="M72.9638 53.6294V54.9863H76.4165L76.3562 53.6595L76.2959 52.3478L74.6223 52.3026L72.9638 52.2573V53.6294Z" fill="#134283"/>
<path d="M73.0241 55.3936C73.1749 55.5595 76.4316 55.5746 76.5221 55.4087C76.5673 55.3484 75.7682 55.2881 74.758 55.2881C73.7478 55.2881 72.9638 55.3333 73.0241 55.3936Z" fill="#134283"/>
<path d="M72.9638 57.0219V58.1527H74.5469C75.4214 58.1527 76.1753 58.1376 76.2506 58.1075C76.3411 58.0773 76.3713 57.4441 76.311 56.2982L76.2808 55.8911H72.9638V57.0219Z" fill="#134283"/>
<path d="M72.9638 60.7158V62.0728H76.4316V59.3589H72.9638V60.7158Z" fill="#134283"/>
<path d="M70.5514 45.2921C70.1745 45.3222 69.5111 45.4127 69.0889 45.5031L68.2899 45.6539V47.7496H71.7727L71.7275 46.5133C71.6822 45.1413 71.7275 45.2016 70.5514 45.2921Z" fill="#134283"/>
<path d="M68.2899 50.0109V51.217H71.6069V48.8047H68.2899V50.0109Z" fill="#134283"/>
<path d="M68.2899 53.6294V54.9864H71.6069V52.2725H68.2899V53.6294Z" fill="#134283"/>
<path d="M68.2144 55.4389C68.2748 55.5293 69.0135 55.5896 69.9483 55.5896C70.8831 55.5896 71.6219 55.5293 71.6822 55.4389C71.7425 55.3484 71.1244 55.2881 69.9483 55.2881C68.7723 55.2881 68.1541 55.3484 68.2144 55.4389Z" fill="#134283"/>
<path d="M68.2899 57.0219V58.1527H71.6069V55.8911H68.2899V57.0219Z" fill="#134283"/>
<path d="M68.2899 60.7158V62.0728H71.6069V59.3589H68.2899V60.7158Z" fill="#134283"/>
<path d="M24.8824 11.92C23.9605 10.3106 23.1323 8.65433 22.1636 7.07617C25.4449 8.10744 28.82 10.7481 27.7262 14.8107C26.6637 14.0763 25.5386 13.0763 24.8824 11.92C25.1324 12.3575 24.6324 11.4825 24.8824 11.92Z" fill="url(#paint0_linear_3010_1396)"/>
<path d="M27.7416 16.6232C28.6635 17.9514 28.9448 19.6858 28.8823 21.2952C26.1166 20.7796 25.1166 17.7951 24.6478 15.2638C24.8509 15.0607 25.7259 15.2951 25.9291 15.3576C26.6322 15.5607 27.3197 15.9826 27.7416 16.6232C28.0385 17.0607 27.4447 16.1857 27.7416 16.6232Z" fill="url(#paint1_linear_3010_1396)"/>
<path d="M29.4607 21.217C29.0232 19.7794 28.7263 18.1544 28.7732 16.6388C28.8045 15.8575 28.9763 15.045 29.2888 14.3418C29.4138 14.0606 29.9764 12.8262 30.3201 12.8262C30.6639 12.8262 31.117 14.6543 31.1951 14.8575C31.4608 15.7012 31.6326 16.6856 31.6014 17.5763C31.5389 19.0763 30.8201 20.5763 29.4451 21.217H29.4607Z" fill="url(#paint2_linear_3010_1396)"/>
<path d="M28.8199 24.3111C29.5074 25.8111 29.5543 27.6862 29.2887 29.2956C26.3667 28.3893 25.8823 24.858 25.9761 22.1235C27.1949 22.2798 28.273 23.1861 28.8199 24.3111C29.2887 25.3267 27.8355 22.2954 28.8199 24.3111Z" fill="url(#paint3_linear_3010_1396)"/>
<path d="M29.8358 29.2956C29.742 29.2956 29.7108 27.1705 29.7108 26.983C29.7264 25.858 29.8514 24.7174 30.3045 23.6861C30.742 22.6861 31.5545 21.7798 32.5389 21.3423C33.039 23.1548 33.1171 25.5299 32.2421 27.2174C31.8514 27.9831 30.7889 29.28 29.8201 29.28L29.8358 29.2956Z" fill="url(#paint4_linear_3010_1396)"/>
<path d="M28.7885 32.1705C29.1947 33.2017 29.2572 34.3424 29.226 35.4362C29.226 35.5612 29.1166 37.3424 29.0228 37.3424C25.9603 36.3268 25.6947 32.4048 26.0697 29.6079C27.3041 29.936 28.3197 30.9361 28.7885 32.1705C29.6322 34.3268 28.3822 31.0923 28.7885 32.1705Z" fill="url(#paint5_linear_3010_1396)"/>
<path d="M29.5075 37.3581C29.3357 34.483 29.9451 30.4986 33.117 29.7017C33.3201 31.5142 33.1951 33.6549 32.3045 35.2487C31.8045 36.1549 30.6169 37.3581 29.5075 37.3581Z" fill="url(#paint6_linear_3010_1396)"/>
<path d="M28.2884 40.0455C28.8978 41.7018 28.8353 43.6705 28.5384 45.3893C25.2884 44.4362 25.054 40.2017 25.5228 37.3267C26.7884 37.686 27.8041 38.7954 28.2728 40.0455C27.4447 37.811 29.101 42.2799 28.2728 40.0455H28.2884Z" fill="url(#paint7_linear_3010_1396)"/>
<path d="M28.9763 45.4049C28.9138 43.8112 29.0857 42.0924 29.6951 40.6236C30.2107 39.4048 31.5701 37.811 33.0076 37.811C34.4452 37.811 32.9139 40.0611 32.8826 40.2173C32.742 41.2955 32.4607 42.4049 31.8982 43.3424C31.2576 44.3893 30.1638 45.2018 28.9763 45.3893V45.4049Z" fill="url(#paint8_linear_3010_1396)"/>
<path d="M27.7264 47.9517C28.4139 49.6236 28.4608 51.6549 28.2889 53.4518C24.7732 52.7487 24.3826 48.2173 24.8044 45.2329C26.117 45.5923 27.1951 46.6861 27.7107 47.9673C26.7889 45.7017 28.1795 49.108 27.7107 47.9673L27.7264 47.9517Z" fill="url(#paint9_linear_3010_1396)"/>
<path d="M28.664 53.4367C28.414 50.4366 29.2734 46.1553 32.7266 45.7334C32.8204 48.7335 31.9922 52.7804 28.664 53.4367Z" fill="url(#paint10_linear_3010_1396)"/>
<path d="M27.5231 55.9522C28.3825 57.6554 28.6481 59.6085 28.8669 61.4992C28.8669 61.6398 27.2262 61.1086 27.07 61.0304C26.2887 60.6086 25.6481 59.8898 25.2418 59.0773C24.3824 57.3897 24.1793 55.2803 24.3043 53.4053C25.6793 53.6553 26.8668 54.7178 27.5231 55.9678C26.9293 54.8428 27.8044 56.5303 27.5231 55.9678V55.9522Z" fill="url(#paint11_linear_3010_1396)"/>
<path d="M29.1792 61.4367C29.2573 61.3429 28.9292 59.7023 28.9292 59.5148C28.8667 58.4991 28.9761 57.421 29.2886 56.4522C29.8042 54.9053 31.1011 53.6397 32.6793 53.4053C32.9918 53.4053 32.3668 57.671 32.2574 58.0304C31.7887 59.5617 30.648 60.8898 29.1792 61.4367Z" fill="url(#paint12_linear_3010_1396)"/>
<path d="M28.4606 64.0303C28.7731 64.3897 31.7731 68.9054 31.6013 69.0304C29.8981 69.9992 27.9762 69.0304 26.8043 67.6554C25.5386 66.1554 24.898 63.9991 24.6636 62.0459C24.6636 61.9209 26.273 62.4053 26.398 62.4678C27.1793 62.8272 27.898 63.3741 28.4606 64.046C28.0387 63.5459 29.3043 65.046 28.4606 64.046V64.0303Z" fill="url(#paint13_linear_3010_1396)"/>
<path d="M31.8045 68.8742C29.8513 66.2648 29.7419 61.5928 33.3514 60.5459C34.0232 63.4366 33.992 66.6867 31.8045 68.8742Z" fill="url(#paint14_linear_3010_1396)"/>
<path d="M32.2104 71.4683C34.0386 72.0777 35.6948 73.359 37.148 74.6403C34.1948 77.7341 29.3197 74.484 27.6947 71.3902C29.0384 70.7496 30.851 70.9996 32.2104 71.4683C33.4448 71.8902 31.8979 71.3589 32.2104 71.4683Z" fill="url(#paint15_linear_3010_1396)"/>
<path d="M37.2891 74.468C36.0078 73.5148 34.8203 72.1554 34.1953 70.6241C33.4609 68.8585 33.9609 67.1553 35.3984 65.9834C35.5703 65.9834 35.9922 66.8428 36.1172 67.0303C36.6641 67.7959 37.1797 68.6241 37.5391 69.5147C38.1641 71.0773 38.1798 72.9835 37.3047 74.4523L37.2891 74.468Z" fill="url(#paint16_linear_3010_1396)"/>
<path d="M38.0236 76.8589C39.9611 77.1089 41.883 78.109 43.4924 79.2184C40.9924 82.7028 36.336 80.4059 33.8203 78.2027C34.8985 77.0933 36.5392 76.6871 38.0079 76.8589C36.6954 76.7027 39.3205 77.0308 38.0079 76.8589H38.0236Z" fill="url(#paint17_linear_3010_1396)"/>
<path d="M43.5859 79.0778C40.8045 77.3903 37.6951 73.7808 39.9452 70.3276C42.414 72.2652 45.1796 75.6559 43.5859 79.0778Z" fill="url(#paint18_linear_3010_1396)"/>
<path d="M44.4296 81.3438C46.4452 81.3438 48.4765 82.1719 50.2422 83.1407C48.0546 86.8439 43.2108 85.1876 40.3982 83.3282C41.3201 82.0313 42.9295 81.3594 44.4296 81.3438C45.7733 81.3438 43.0858 81.3594 44.4296 81.3438Z" fill="url(#paint19_linear_3010_1396)"/>
<path d="M50.2737 83.0466C47.3206 81.5153 43.8517 78.0777 45.758 74.3433C48.5081 76.0777 51.7894 79.359 50.2737 83.0466Z" fill="url(#paint20_linear_3010_1396)"/>
<path d="M51.102 85.2492C53.1332 85.0617 55.3052 85.7804 57.1333 86.7023C55.1489 90.5305 50.1488 89.3274 47.18 87.6711C47.9925 86.2648 49.555 85.4054 51.102 85.2648C49.7269 85.3898 53.8364 85.0148 51.102 85.2648V85.2492Z" fill="url(#paint21_linear_3010_1396)"/>
<path d="M57.1646 86.6559C56.8365 86.6559 56.2583 86.1559 55.9927 85.9841C55.0864 85.4215 54.227 84.7497 53.477 83.9684C51.9614 82.3746 51.1801 80.0308 52.1176 77.8745C52.1176 78.0464 53.9145 79.0464 54.0864 79.1714C55.0083 79.8902 55.899 80.7027 56.5552 81.7027C57.2115 82.7027 57.5396 83.8903 57.4771 85.0934C57.4771 85.2184 57.3365 86.6559 57.1646 86.6559Z" fill="url(#paint22_linear_3010_1396)"/>
<path d="M57.9145 88.8283C59.8208 88.5627 61.8365 89.1408 63.6022 89.9064C63.6022 89.8908 63.6022 89.8752 63.6178 89.8596C60.7271 88.172 57.1958 84.9845 58.8208 81.1094C60.5865 82.0313 62.399 83.3282 63.5397 85.0626C64.1959 86.0782 64.5553 87.2814 64.4772 88.5002C64.4616 88.8908 64.3834 89.2814 64.2897 89.6564C64.4928 89.7346 64.6803 89.8439 64.8834 89.9377C69.3523 92.1565 74.3055 94.3597 77.8368 98.0941C78.2118 98.4847 78.7744 99.2504 77.9618 99.5941C77.2431 99.9066 76.8212 99.0473 76.3837 98.6097C74.4618 96.6722 72.1023 95.1878 69.7898 93.8128C67.8679 92.6721 65.8991 91.6408 63.9303 90.6096C63.8678 90.5783 62.8365 91.719 62.6646 91.844C61.7115 92.5627 60.5552 92.8909 59.3833 92.8909C57.5708 92.8909 55.6957 92.3127 54.0551 91.5158C54.8051 90.0314 56.352 89.047 57.9145 88.8283C60.0396 88.5314 55.1332 89.2189 57.9145 88.8283Z" fill="url(#paint23_linear_3010_1396)"/>
<path d="M117.46 10.2481C118.507 8.43558 120.569 7.51368 122.413 6.93555C120.71 9.71686 119.585 12.7638 116.851 14.6701C116.444 13.1701 116.71 11.5763 117.46 10.2481C117.757 9.71685 117.163 10.7794 117.46 10.2481Z" fill="url(#paint24_linear_3010_1396)"/>
<path d="M115.804 16.17C115.975 17.7638 115.569 19.5607 115.116 21.0763C112.038 19.5919 112.835 15.0918 114.304 12.6699C114.554 12.6699 115.054 13.6387 115.147 13.8262C115.538 14.545 115.725 15.3419 115.819 16.17C115.757 15.6075 115.882 16.7325 115.819 16.17H115.804Z" fill="url(#paint25_linear_3010_1396)"/>
<path d="M115.71 21.1543C115.616 18.5292 116.788 14.6385 119.991 15.1698C119.538 17.6855 118.46 20.6699 115.71 21.1543Z" fill="url(#paint26_linear_3010_1396)"/>
<path d="M114.507 24.0923C115.038 25.6705 114.96 27.5299 114.757 29.1706C111.585 28.3112 111.335 23.9048 112.101 21.2017C113.257 21.7329 114.132 22.8736 114.507 24.0923C114.866 25.1861 113.835 21.9204 114.507 24.0923Z" fill="url(#paint27_linear_3010_1396)"/>
<path d="M115.288 29.1549C114.85 26.4518 115.46 22.4048 118.647 22.0142C118.726 24.7486 118.21 28.2799 115.288 29.1549Z" fill="url(#paint28_linear_3010_1396)"/>
<path d="M114.366 32.0767C115.069 33.6392 115.194 35.5299 115.085 37.2331C113.975 37.2331 112.804 35.9987 112.304 35.108C111.413 33.4986 111.304 31.3579 111.522 29.5454C112.772 29.8735 113.804 30.8892 114.366 32.0767C115.319 34.1861 113.882 31.0142 114.366 32.0767Z" fill="url(#paint29_linear_3010_1396)"/>
<path d="M115.569 37.1862C115.569 35.7955 115.256 34.5143 115.522 33.0924C115.85 31.4048 116.913 29.8892 118.569 29.4673C118.803 31.2642 118.835 33.3892 117.991 35.0299C117.647 35.7018 117.131 36.2799 116.522 36.6862C116.397 36.7643 115.741 37.2487 115.569 37.1706V37.1862Z" fill="url(#paint30_linear_3010_1396)"/>
<path d="M114.678 40.0142C115.491 41.5611 115.678 43.5299 115.6 45.2643C112.272 44.7331 111.475 40.608 111.6 37.6548C112.897 37.8735 114.038 38.8267 114.663 39.9986C113.553 37.9048 115.772 42.0924 114.663 39.9986L114.678 40.0142Z" fill="url(#paint31_linear_3010_1396)"/>
<path d="M116.038 45.2331C115.569 42.3424 115.835 38.1079 119.085 37.186C119.553 40.0611 119.288 44.2956 116.038 45.2331Z" fill="url(#paint32_linear_3010_1396)"/>
<path d="M115.069 47.9053C115.913 49.4835 116.085 51.5304 115.913 53.3117C112.585 52.6398 111.788 48.5928 111.882 45.5928C113.21 45.7647 114.413 46.7022 115.053 47.921C113.913 45.7803 115.616 48.9835 115.053 47.921L115.069 47.9053Z" fill="url(#paint33_linear_3010_1396)"/>
<path d="M116.288 53.2956C116.023 50.2955 116.444 45.9829 119.804 45.0923C120.21 48.0923 119.804 52.6237 116.288 53.2956Z" fill="url(#paint34_linear_3010_1396)"/>
<path d="M115.085 55.7335C115.866 57.3585 115.85 59.5773 115.397 61.2961C112.21 60.1085 111.757 56.296 111.944 53.249C113.304 53.4678 114.491 54.4522 115.085 55.7335C115.35 56.296 114.569 54.6084 115.085 55.7335Z" fill="url(#paint35_linear_3010_1396)"/>
<path d="M115.71 61.3586C116.069 58.3116 116.772 53.8897 120.304 53.2646C120.554 56.3585 119.522 61.4367 115.71 61.3586Z" fill="url(#paint36_linear_3010_1396)"/>
<path d="M114.038 63.3116C114.304 64.3272 114.179 65.4523 113.898 66.4523C113.851 66.6242 112.882 68.8273 112.773 68.7336C110.585 66.5304 110.569 63.2803 111.257 60.3896C112.601 60.7803 113.679 61.9053 114.054 63.3116C113.898 62.7022 114.382 64.5147 114.054 63.3116H114.038Z" fill="url(#paint37_linear_3010_1396)"/>
<path d="M112.991 68.89C114.585 66.218 116.351 61.8898 119.945 61.9211C119.71 63.843 119.085 65.7337 117.976 67.2962C117.257 68.2025 116.382 68.9525 115.257 69.2025C114.663 69.3275 113.46 69.4056 112.991 68.9056V68.89Z" fill="url(#paint38_linear_3010_1396)"/>
<path d="M110.679 69.6246C110.257 71.5153 108.788 73.2184 107.304 74.3122C106.491 72.9528 106.444 71.1559 106.96 69.6871C107.288 68.7652 107.788 67.9214 108.335 67.1245C108.475 66.9058 109.038 65.8433 109.21 65.8433C110.335 66.7652 111.007 68.1246 110.679 69.6246C110.741 69.3121 110.397 70.8902 110.679 69.6246Z" fill="url(#paint39_linear_3010_1396)"/>
<path d="M107.428 74.4996C109.788 72.4214 113.647 69.7182 116.882 71.2652C115.241 74.359 110.366 77.5934 107.428 74.4996Z" fill="url(#paint40_linear_3010_1396)"/>
<path d="M105.053 74.5934C104.319 76.4528 102.616 77.9372 100.991 78.9372C99.397 75.5309 102.163 72.1402 104.647 70.2026C105.475 71.4683 105.632 73.1871 105.053 74.609C104.569 75.859 105.553 73.3746 105.053 74.609V74.5934Z" fill="url(#paint41_linear_3010_1396)"/>
<path d="M101.084 79.0779C103.725 77.2653 108.069 75.2809 110.756 78.0779C108.241 80.2654 103.584 82.5623 101.084 79.0779Z" fill="url(#paint42_linear_3010_1396)"/>
<path d="M98.7873 78.7652C97.8654 80.5934 96.0373 81.9997 94.3028 82.9059C92.7872 79.2184 96.0841 75.937 98.8186 74.2026C99.5373 75.6089 99.4905 77.3746 98.7873 78.7652C99.4123 77.5464 98.1779 79.984 98.7873 78.7652Z" fill="url(#paint43_linear_3010_1396)"/>
<path d="M94.3502 82.9999C94.3502 82.7968 96.0846 82.1718 96.2565 82.0937C97.3033 81.6718 98.4127 81.328 99.5378 81.2343C101.257 81.078 103.132 81.703 104.194 83.2031C101.382 85.0625 96.5377 86.7188 94.3502 82.9999Z" fill="url(#paint44_linear_3010_1396)"/>
<path d="M92.1778 82.4215C91.1466 84.2497 89.2246 85.6091 87.4277 86.5153C86.8496 84.9997 87.0684 83.1871 87.8809 81.8277C88.4903 80.7965 89.3809 79.9527 90.2872 79.2183C90.5059 79.0464 92.4747 77.937 92.4747 77.7495C93.131 79.2339 92.9747 81.0465 92.1778 82.4371C90.7872 84.8903 92.881 81.2183 92.1778 82.4371V82.4215Z" fill="url(#paint45_linear_3010_1396)"/>
<path d="M87.4438 86.562C87.7876 86.562 88.3814 86.1401 88.7095 86.0151C89.7251 85.6245 90.7877 85.312 91.8658 85.1713C93.9596 84.9057 96.2565 85.5464 97.4128 87.5308C95.4753 88.6089 92.944 89.4996 90.7252 89.0152C89.8033 88.812 88.9439 88.3433 88.272 87.6558C88.1782 87.562 87.522 86.562 87.4595 86.562H87.4438Z" fill="url(#paint46_linear_3010_1396)"/>
<path d="M85.3654 85.7965C84.3498 87.5153 82.631 88.7497 80.9747 89.7184C80.9747 89.7184 80.9903 89.7497 80.9903 89.7653C84.0529 88.4372 88.6624 87.6871 90.5374 91.3747C88.6624 92.281 86.3811 92.9841 84.3029 92.6873C83.3029 92.5466 82.3654 92.1247 81.5997 91.4372C81.1935 91.0778 80.9278 90.3278 80.4278 90.5935C76.0684 92.906 71.1464 95.1873 67.7401 98.9686C67.3963 99.3593 66.8025 99.9687 66.3494 99.2499C65.8963 98.5311 66.8494 97.8592 67.2713 97.453C69.2245 95.5779 71.5526 94.156 73.8808 92.8435C75.9277 91.7029 78.0215 90.656 80.1153 89.6247C80.4591 89.4528 80.0997 88.3122 80.1153 87.8747C80.1622 86.4996 80.7247 85.2496 81.5841 84.2339C82.7248 82.8745 84.2404 81.7964 85.7717 80.9995C86.4123 82.5308 86.1936 84.4058 85.3654 85.8121C84.2404 87.7184 86.8342 83.3277 85.3654 85.8121V85.7965Z" fill="url(#paint47_linear_3010_1396)"/>
<path d="M28.7358 103.899L32.3073 112.06C32.4897 112.455 32.6366 112.759 32.7481 112.972C32.8696 113.185 32.9862 113.332 33.0976 113.413C33.2192 113.494 33.356 113.549 33.508 113.58C33.5485 113.711 33.5738 113.833 33.584 113.945C33.5941 114.046 33.5991 114.167 33.5991 114.309C33.4877 114.299 33.3155 114.289 33.0824 114.279C32.8595 114.279 32.6265 114.274 32.3833 114.264C32.1402 114.264 31.9375 114.264 31.7754 114.264C31.6538 114.264 31.5018 114.264 31.3195 114.264C31.1472 114.274 30.9648 114.279 30.7723 114.279C30.59 114.289 30.4228 114.294 30.2708 114.294C30.1188 114.304 29.9972 114.309 29.9061 114.309C29.9061 114.167 29.9111 114.036 29.9213 113.914C29.9415 113.782 29.9719 113.671 30.0124 113.58C30.4177 113.519 30.6558 113.418 30.7267 113.276C30.7977 113.134 30.7369 112.84 30.5444 112.394L28.599 107.835C28.4369 107.47 28.3002 107.146 28.1887 106.862C28.0773 106.568 27.9557 106.229 27.824 105.844H27.9759C27.8543 106.239 27.7378 106.594 27.6264 106.908C27.5251 107.212 27.4187 107.516 27.3072 107.82L25.6962 112.014C25.4936 112.551 25.4328 112.936 25.5139 113.169C25.5949 113.402 25.8381 113.539 26.2434 113.58C26.2839 113.681 26.3092 113.793 26.3194 113.914C26.3396 114.036 26.3498 114.167 26.3498 114.309C26.2383 114.299 26.0965 114.289 25.9242 114.279C25.752 114.279 25.5747 114.274 25.3923 114.264C25.2099 114.264 25.0326 114.264 24.8604 114.264C24.6071 114.264 24.3639 114.269 24.1309 114.279C23.8978 114.289 23.7104 114.299 23.5685 114.309C23.5685 114.188 23.5736 114.066 23.5837 113.945C23.604 113.813 23.6344 113.691 23.6749 113.58C23.8573 113.549 24.0093 113.484 24.1309 113.382C24.2525 113.281 24.369 113.119 24.4804 112.896C24.602 112.663 24.7388 112.349 24.8908 111.954L28.0519 103.96C28.1634 103.939 28.2698 103.924 28.3711 103.914C28.4724 103.904 28.594 103.899 28.7358 103.899ZM29.9365 110.312L30.1036 111.042C29.4248 111.042 28.7004 111.052 27.9303 111.072C27.1704 111.082 26.4663 111.103 25.8178 111.133L26.061 110.312H29.9365ZM41.9892 114.4C41.6853 114.178 41.4218 113.858 41.1989 113.443C40.976 113.028 40.7531 112.582 40.5302 112.106C40.3073 111.629 40.0641 111.179 39.8007 110.753C39.5474 110.327 39.2384 109.978 38.8736 109.704C38.5089 109.421 38.0631 109.279 37.5362 109.279V108.519C37.9212 108.519 38.2404 108.453 38.4937 108.321C38.7571 108.19 39.0003 107.972 39.2232 107.668C39.4562 107.364 39.7247 106.959 40.0287 106.452C40.3326 105.955 40.591 105.545 40.8038 105.221C41.0165 104.887 41.2141 104.623 41.3965 104.431C41.5789 104.228 41.7714 104.091 41.974 104.02C42.1868 103.939 42.4451 103.899 42.7491 103.899C42.8808 103.899 43.0328 103.909 43.205 103.929C43.3874 103.939 43.5343 103.96 43.6458 103.99C43.6356 104.223 43.6255 104.471 43.6154 104.735C43.6154 104.988 43.6204 105.246 43.6306 105.51C43.6508 105.773 43.6762 106.031 43.7066 106.285C43.5749 106.325 43.4279 106.361 43.2658 106.391C43.1037 106.411 42.9619 106.422 42.8403 106.422C42.7694 106.006 42.6782 105.722 42.5667 105.57C42.4654 105.408 42.3388 105.327 42.1868 105.327C41.9335 105.327 41.7156 105.454 41.5333 105.707C41.3509 105.961 41.1179 106.32 40.8342 106.786C40.5505 107.283 40.3073 107.668 40.1047 107.941C39.9122 108.205 39.7298 108.402 39.5575 108.534C39.3954 108.656 39.208 108.762 38.9952 108.853L38.8888 108.625C39.2435 108.635 39.5525 108.681 39.8159 108.762C40.0793 108.833 40.3174 108.96 40.5302 109.142C40.7531 109.314 40.9659 109.552 41.1685 109.856C41.3813 110.16 41.6143 110.55 41.8676 111.027C42.1513 111.584 42.3894 112.025 42.5819 112.349C42.7744 112.673 42.9467 112.916 43.0987 113.078C43.2506 113.24 43.4077 113.352 43.5698 113.413C43.742 113.463 43.9447 113.499 44.1777 113.519C44.1777 113.57 44.1726 113.641 44.1625 113.732C44.1625 113.823 44.1574 113.919 44.1473 114.021C44.1372 114.112 44.1169 114.193 44.0865 114.264C43.813 114.264 43.5647 114.264 43.3418 114.264C43.1291 114.274 42.9112 114.289 42.6883 114.309C42.4755 114.33 42.2425 114.36 41.9892 114.4ZM34.7398 114.309C34.7398 114.157 34.7449 114.021 34.755 113.899C34.7753 113.767 34.8006 113.661 34.831 113.58C35.1046 113.56 35.3123 113.509 35.4541 113.428C35.6061 113.347 35.7125 113.21 35.7733 113.017C35.8341 112.825 35.8645 112.551 35.8645 112.197V106.057C35.8645 105.692 35.8341 105.419 35.7733 105.236C35.7125 105.044 35.6061 104.907 35.4541 104.826C35.3123 104.745 35.1046 104.694 34.831 104.674C34.7905 104.583 34.7651 104.476 34.755 104.355C34.7449 104.223 34.7398 104.086 34.7398 103.944C34.9323 103.954 35.135 103.965 35.3477 103.975C35.5706 103.975 35.7986 103.98 36.0316 103.99C36.2748 103.99 36.5028 103.99 36.7155 103.99C36.9384 103.99 37.1563 103.99 37.3691 103.99C37.592 103.98 37.8098 103.975 38.0226 103.975C38.2455 103.965 38.4582 103.954 38.6609 103.944C38.6609 104.086 38.6558 104.223 38.6457 104.355C38.6355 104.476 38.6102 104.583 38.5697 104.674C38.3063 104.694 38.0986 104.745 37.9466 104.826C37.7946 104.907 37.6882 105.044 37.6274 105.236C37.5666 105.419 37.5362 105.692 37.5362 106.057V112.197C37.5362 112.551 37.5666 112.825 37.6274 113.017C37.6882 113.21 37.7946 113.347 37.9466 113.428C38.0986 113.509 38.3063 113.56 38.5697 113.58C38.6001 113.661 38.6203 113.767 38.6305 113.899C38.6507 114.021 38.6609 114.157 38.6609 114.309C38.367 114.289 38.053 114.274 37.7186 114.264C37.3944 114.264 37.0651 114.264 36.7307 114.264C36.4065 114.264 36.062 114.264 35.6973 114.264C35.3325 114.274 35.0134 114.289 34.7398 114.309ZM50.004 103.899L53.5755 112.06C53.7578 112.455 53.9047 112.759 54.0162 112.972C54.1378 113.185 54.2543 113.332 54.3657 113.413C54.4873 113.494 54.6241 113.549 54.7761 113.58C54.8166 113.711 54.8419 113.833 54.8521 113.945C54.8622 114.046 54.8673 114.167 54.8673 114.309C54.7558 114.299 54.5836 114.289 54.3505 114.279C54.1276 114.279 53.8946 114.274 53.6514 114.264C53.4083 114.264 53.2056 114.264 53.0435 114.264C52.9219 114.264 52.77 114.264 52.5876 114.264C52.4154 114.274 52.233 114.279 52.0405 114.279C51.8581 114.289 51.6909 114.294 51.5389 114.294C51.387 114.304 51.2654 114.309 51.1742 114.309C51.1742 114.167 51.1793 114.036 51.1894 113.914C51.2097 113.782 51.24 113.671 51.2806 113.58C51.6859 113.519 51.924 113.418 51.9949 113.276C52.0658 113.134 52.005 112.84 51.8125 112.394L49.8672 107.835C49.7051 107.47 49.5683 107.146 49.4568 106.862C49.3454 106.568 49.2238 106.229 49.0921 105.844H49.2441C49.1225 106.239 49.006 106.594 48.8945 106.908C48.7932 107.212 48.6868 107.516 48.5754 107.82L46.9644 112.014C46.7617 112.551 46.7009 112.936 46.782 113.169C46.8631 113.402 47.1062 113.539 47.5115 113.58C47.552 113.681 47.5774 113.793 47.5875 113.914C47.6078 114.036 47.6179 114.167 47.6179 114.309C47.5064 114.299 47.3646 114.289 47.1923 114.279C47.0201 114.279 46.8428 114.274 46.6604 114.264C46.478 114.264 46.3007 114.264 46.1285 114.264C45.8752 114.264 45.632 114.269 45.399 114.279C45.166 114.289 44.9785 114.299 44.8367 114.309C44.8367 114.188 44.8417 114.066 44.8519 113.945C44.8721 113.813 44.9025 113.691 44.9431 113.58C45.1254 113.549 45.2774 113.484 45.399 113.382C45.5206 113.281 45.6371 113.119 45.7485 112.896C45.8701 112.663 46.0069 112.349 46.1589 111.954L49.3201 103.96C49.4315 103.939 49.5379 103.924 49.6392 103.914C49.7405 103.904 49.8621 103.899 50.004 103.899ZM51.2046 110.312L51.3718 111.042C50.6929 111.042 49.9685 111.052 49.1985 111.072C48.4386 111.082 47.7344 111.103 47.086 111.133L47.3291 110.312H51.2046ZM56.0231 114.264V113.58C56.3879 113.58 56.7071 113.428 56.9806 113.124C57.2643 112.82 57.5075 112.41 57.7101 111.893C57.9229 111.376 58.0951 110.793 58.2268 110.145C58.3687 109.497 58.4751 108.823 58.546 108.124C58.6271 107.414 58.6878 106.736 58.7284 106.087C58.7486 105.702 58.7385 105.419 58.698 105.236C58.6676 105.044 58.5713 104.912 58.4092 104.841C58.2471 104.77 57.9887 104.714 57.6341 104.674C57.5936 104.583 57.5683 104.476 57.5581 104.355C57.548 104.223 57.5429 104.086 57.5429 103.944C57.8773 103.954 58.3484 103.965 58.9563 103.975C59.5643 103.985 60.3849 103.99 61.4184 103.99C62.1175 103.99 62.6849 103.99 63.1206 103.99C63.5562 103.98 63.9108 103.975 64.1844 103.975C64.458 103.965 64.691 103.954 64.8835 103.944C64.8835 104.086 64.8784 104.223 64.8683 104.355C64.8582 104.476 64.8329 104.583 64.7923 104.674C64.5289 104.694 64.3161 104.745 64.154 104.826C64.002 104.907 63.8956 105.044 63.8349 105.236C63.7842 105.419 63.7589 105.692 63.7589 106.057V112.197C63.7589 112.572 63.7842 112.86 63.8349 113.063C63.8956 113.266 64.002 113.402 64.154 113.473C64.3161 113.544 64.5289 113.58 64.7923 113.58V114.264H56.0231ZM57.9381 113.534H60.7345C61.0992 113.534 61.3779 113.504 61.5704 113.443C61.7629 113.372 61.8946 113.24 61.9655 113.048C62.0364 112.845 62.0719 112.546 62.0719 112.151V106.057C62.0719 105.722 62.0516 105.469 62.0111 105.297C61.9807 105.115 61.8946 104.978 61.7527 104.887C61.6818 104.836 61.5653 104.795 61.4032 104.765C61.2512 104.735 61.0638 104.719 60.8409 104.719C60.5572 104.719 60.3343 104.74 60.1722 104.78C60.0202 104.811 59.9138 104.851 59.853 104.902C59.7213 105.003 59.6402 105.155 59.6098 105.358C59.5896 105.56 59.5693 105.793 59.5491 106.057C59.4984 106.969 59.4275 107.82 59.3363 108.61C59.2552 109.39 59.1539 110.099 59.0323 110.738C58.9107 111.376 58.7588 111.933 58.5764 112.41C58.4041 112.876 58.1914 113.25 57.9381 113.534ZM55.7496 116.817C55.7496 116.27 55.7293 115.773 55.6888 115.328C55.6584 114.892 55.6128 114.522 55.552 114.218C55.552 113.945 55.628 113.732 55.78 113.58H56.859L57.163 113.853C57.0617 114.269 56.9857 114.735 56.935 115.252C56.8844 115.778 56.8641 116.3 56.8742 116.817C56.702 116.868 56.5095 116.893 56.2967 116.893C56.0941 116.893 55.9117 116.868 55.7496 116.817ZM64.3516 116.817C64.3617 116.3 64.3415 115.778 64.2908 115.252C64.2401 114.735 64.1641 114.269 64.0628 113.853L64.3668 113.58H65.4458C65.5978 113.732 65.6738 113.945 65.6738 114.218C65.613 114.522 65.5624 114.892 65.5218 115.328C65.4914 115.773 65.4762 116.27 65.4762 116.817C65.3243 116.868 65.1419 116.893 64.9291 116.893C64.7265 116.893 64.534 116.868 64.3516 116.817ZM67.1689 103.944C67.331 103.954 67.5336 103.965 67.7768 103.975C68.0301 103.975 68.2935 103.98 68.5671 103.99C68.8508 103.99 69.1142 103.99 69.3574 103.99C69.6107 103.99 69.8133 103.99 69.9653 103.99V112.045C69.9653 112.43 70.0008 112.729 70.0717 112.941C70.1426 113.154 70.2794 113.301 70.482 113.382C70.6847 113.463 70.9633 113.504 71.3179 113.504L71.2267 114.264C70.943 114.264 70.6087 114.264 70.2237 114.264C69.8488 114.264 69.4587 114.264 69.0534 114.264C68.6583 114.274 68.2935 114.279 67.9592 114.279C67.6248 114.289 67.3614 114.299 67.1689 114.309C67.1689 114.157 67.174 114.021 67.1841 113.899C67.1942 113.767 67.2145 113.661 67.2449 113.58C67.5184 113.56 67.7312 113.509 67.8832 113.428C68.0352 113.337 68.1416 113.185 68.2023 112.972C68.2631 112.759 68.2935 112.45 68.2935 112.045V106.057C68.2935 105.692 68.2631 105.419 68.2023 105.236C68.1416 105.044 68.0352 104.907 67.8832 104.826C67.7312 104.745 67.5184 104.694 67.2449 104.674C67.2145 104.583 67.1942 104.471 67.1841 104.339C67.174 104.208 67.1689 104.076 67.1689 103.944ZM74.2511 111.574C74.4335 111.614 74.5855 111.665 74.707 111.726C74.8388 111.786 74.9553 111.862 75.0566 111.954C74.9451 112.298 74.8489 112.683 74.7678 113.109C74.6969 113.524 74.6361 113.919 74.5855 114.294C74.3727 114.284 74.089 114.279 73.7344 114.279C73.3899 114.279 72.9998 114.274 72.5641 114.264C72.1386 114.264 71.6928 114.264 71.2267 114.264L71.3179 113.504H71.4395C72.1082 113.504 72.6148 113.433 72.9593 113.291C73.3139 113.139 73.5824 112.921 73.7648 112.637C73.9471 112.354 74.1093 111.999 74.2511 111.574ZM73.2176 107.409C73.2075 107.663 73.1974 107.936 73.1873 108.23C73.1873 108.514 73.1873 108.798 73.1873 109.081C73.1873 109.375 73.1873 109.679 73.1873 109.993C73.1974 110.307 73.2075 110.596 73.2176 110.859C73.0657 110.859 72.9238 110.854 72.7921 110.844C72.6705 110.824 72.5489 110.799 72.4274 110.768C72.3868 110.262 72.25 109.917 72.017 109.735C71.7941 109.552 71.3838 109.461 70.786 109.461H69.7221V108.732H70.786C71.3939 108.732 71.8093 108.651 72.0322 108.488C72.2652 108.326 72.3868 108.007 72.397 107.531C72.5388 107.48 72.6756 107.45 72.8073 107.44C72.939 107.42 73.0758 107.409 73.2176 107.409ZM74.2055 103.944C74.2258 104.167 74.2511 104.431 74.2815 104.735C74.3119 105.039 74.3474 105.337 74.3879 105.631C74.4284 105.915 74.474 106.168 74.5247 106.391C74.4335 106.462 74.317 106.513 74.1751 106.543C74.0434 106.574 73.8914 106.589 73.7192 106.589C73.6888 106.265 73.6027 105.961 73.4608 105.677C73.319 105.383 73.0758 105.145 72.7313 104.963C72.397 104.77 71.9157 104.674 71.2875 104.674H69.6006L69.9501 103.99C70.7404 103.99 71.4192 103.99 71.9866 103.99C72.554 103.98 73.0201 103.97 73.3848 103.96C73.7496 103.949 74.0231 103.944 74.2055 103.944ZM82.2057 114.4L78.5734 106.422H78.7557L78.2542 111.422C78.2035 111.989 78.1985 112.425 78.239 112.729C78.2795 113.023 78.3809 113.23 78.543 113.352C78.7051 113.473 78.933 113.549 79.2269 113.58C79.2573 113.691 79.2775 113.818 79.2877 113.96C79.3079 114.102 79.3181 114.218 79.3181 114.309C79.085 114.289 78.8115 114.274 78.4974 114.264C78.1934 114.264 77.9198 114.264 77.6767 114.264C77.5247 114.264 77.3474 114.264 77.1448 114.264C76.9523 114.274 76.7597 114.279 76.5672 114.279C76.3849 114.289 76.2278 114.299 76.0961 114.309C76.0961 114.218 76.1012 114.102 76.1113 113.96C76.1214 113.818 76.1468 113.691 76.1873 113.58C76.4507 113.549 76.6635 113.478 76.8256 113.367C76.9877 113.245 77.1144 113.033 77.2055 112.729C77.2967 112.415 77.3677 111.943 77.4183 111.315L77.8895 106.178C77.9198 105.793 77.9097 105.494 77.8591 105.282C77.8084 105.059 77.702 104.902 77.5399 104.811C77.3879 104.719 77.1701 104.674 76.8864 104.674C76.8459 104.562 76.8205 104.441 76.8104 104.309C76.8003 104.177 76.7952 104.056 76.7952 103.944C76.9067 103.954 77.0384 103.965 77.1904 103.975C77.3423 103.975 77.4994 103.98 77.6615 103.99C77.8236 103.99 77.9705 103.99 78.1022 103.99C78.2441 103.99 78.391 103.99 78.543 103.99C78.6949 103.98 78.8419 103.975 78.9837 103.975C79.1357 103.965 79.2725 103.954 79.394 103.944L83.2391 112.501H82.8744L86.2027 103.944C86.3344 103.954 86.4763 103.965 86.6282 103.975C86.7903 103.975 86.9474 103.98 87.0994 103.99C87.2615 103.99 87.4084 103.99 87.5401 103.99C87.682 103.99 87.8238 103.99 87.9656 103.99C88.1176 103.98 88.2645 103.975 88.4064 103.975C88.5584 103.965 88.7002 103.954 88.8319 103.944C88.8319 104.066 88.8269 104.193 88.8167 104.324C88.8066 104.446 88.7863 104.562 88.7559 104.674C88.3811 104.674 88.0974 104.785 87.9049 105.008C87.7225 105.221 87.6668 105.636 87.7377 106.254L88.2544 111.604C88.3152 112.121 88.3811 112.516 88.452 112.789C88.533 113.063 88.6445 113.256 88.7863 113.367C88.9383 113.468 89.1359 113.534 89.3791 113.565C89.4094 113.676 89.4297 113.798 89.4398 113.929C89.45 114.061 89.455 114.188 89.455 114.309C89.3436 114.299 89.2017 114.289 89.0295 114.279C88.8674 114.279 88.6901 114.274 88.4976 114.264C88.3051 114.264 88.1176 114.264 87.9353 114.264C87.763 114.264 87.606 114.264 87.4641 114.264C87.2716 114.264 87.0538 114.264 86.8106 114.264C86.5776 114.274 86.3445 114.279 86.1115 114.279C85.8886 114.289 85.6961 114.299 85.534 114.309C85.534 114.198 85.5391 114.076 85.5492 113.945C85.5695 113.813 85.5948 113.691 85.6252 113.58C85.9494 113.539 86.1824 113.473 86.3243 113.382C86.4763 113.281 86.5624 113.109 86.5826 112.865C86.613 112.612 86.6029 112.258 86.5522 111.802L85.9747 106.376H86.1723L82.92 114.294C82.8186 114.335 82.7072 114.36 82.5856 114.37C82.464 114.39 82.3374 114.4 82.2057 114.4ZM90.7226 114.309C90.7226 114.157 90.7277 114.021 90.7378 113.899C90.7581 113.767 90.7834 113.661 90.8138 113.58C91.0874 113.56 91.2951 113.509 91.4369 113.428C91.5889 113.347 91.6953 113.21 91.7561 113.017C91.8169 112.825 91.8473 112.551 91.8473 112.197V106.057C91.8473 105.682 91.8169 105.398 91.7561 105.206C91.6953 105.013 91.5889 104.882 91.4369 104.811C91.2951 104.73 91.0874 104.684 90.8138 104.674C90.7733 104.583 90.748 104.476 90.7378 104.355C90.7277 104.223 90.7226 104.086 90.7226 103.944C90.8645 103.954 91.0266 103.965 91.209 103.975C91.3913 103.975 91.6244 103.98 91.9081 103.99C92.2019 103.99 92.5768 103.99 93.0327 103.99C93.4887 103.99 94.056 103.99 94.7349 103.99H96.5586C97.2375 103.99 97.7998 103.99 98.2456 103.99C98.6914 103.99 99.0511 103.99 99.3246 103.99C99.6083 103.98 99.8414 103.975 100.024 103.975C100.216 103.965 100.388 103.954 100.54 103.944C100.54 104.086 100.535 104.223 100.525 104.355C100.515 104.476 100.495 104.583 100.464 104.674C100.191 104.684 99.9782 104.724 99.8262 104.795C99.6742 104.866 99.5678 105.003 99.507 105.206C99.4462 105.398 99.4158 105.682 99.4158 106.057V112.197C99.4158 112.551 99.4462 112.825 99.507 113.017C99.5678 113.21 99.6742 113.347 99.8262 113.428C99.9883 113.509 100.201 113.56 100.464 113.58C100.495 113.661 100.515 113.767 100.525 113.899C100.535 114.021 100.54 114.157 100.54 114.309C100.247 114.289 99.9326 114.274 99.5982 114.264C99.274 114.264 98.9447 114.264 98.6103 114.264C98.2861 114.264 97.9416 114.264 97.5769 114.264C97.2121 114.274 96.893 114.289 96.6194 114.309C96.6194 114.157 96.6245 114.021 96.6346 113.899C96.6447 113.767 96.665 113.661 96.6954 113.58C96.969 113.56 97.1817 113.509 97.3337 113.428C97.4857 113.347 97.5921 113.21 97.6529 113.017C97.7137 112.825 97.7441 112.551 97.7441 112.197V106.102C97.7441 105.788 97.7187 105.53 97.6681 105.327C97.6174 105.115 97.511 104.963 97.3489 104.871C97.2273 104.79 97.0399 104.745 96.7866 104.735C96.5434 104.714 96.1584 104.704 95.6316 104.704C95.1047 104.704 94.7146 104.714 94.4613 104.735C94.2182 104.745 94.0358 104.79 93.9142 104.871C93.7622 104.963 93.6558 105.115 93.595 105.327C93.5444 105.53 93.5191 105.788 93.5191 106.102V112.197C93.5191 112.551 93.5494 112.825 93.6102 113.017C93.671 113.21 93.7774 113.347 93.9294 113.428C94.0915 113.509 94.3043 113.56 94.5677 113.58C94.5981 113.661 94.6184 113.767 94.6285 113.899C94.6386 114.021 94.6437 114.157 94.6437 114.309C94.36 114.289 94.051 114.274 93.7166 114.264C93.3823 114.264 93.053 114.264 92.7288 114.264C92.3944 114.264 92.0449 114.264 91.6801 114.264C91.3154 114.274 90.9962 114.289 90.7226 114.309ZM102.121 114.309C102.121 114.147 102.126 114.005 102.136 113.884C102.146 113.762 102.167 113.661 102.197 113.58C102.471 113.56 102.683 113.509 102.835 113.428C102.987 113.347 103.094 113.21 103.155 113.017C103.215 112.825 103.246 112.551 103.246 112.197V106.057C103.246 105.692 103.215 105.419 103.155 105.236C103.094 105.044 102.987 104.907 102.835 104.826C102.694 104.745 102.486 104.694 102.212 104.674C102.172 104.583 102.146 104.476 102.136 104.355C102.126 104.233 102.121 104.096 102.121 103.944C102.526 103.965 102.916 103.98 103.291 103.99C103.676 103.99 103.995 103.99 104.249 103.99C104.421 103.99 104.644 103.99 104.917 103.99C105.201 103.98 105.475 103.975 105.738 103.975C106.012 103.965 106.214 103.96 106.346 103.96C107.217 103.96 107.911 104.096 108.428 104.37C108.955 104.643 109.33 105.008 109.553 105.464C109.776 105.91 109.887 106.401 109.887 106.938C109.887 107.546 109.755 108.124 109.492 108.671C109.229 109.218 108.839 109.664 108.322 110.008C107.805 110.343 107.157 110.51 106.376 110.51C105.951 110.51 105.601 110.454 105.328 110.343C105.297 110.211 105.282 110.089 105.282 109.978C105.292 109.866 105.318 109.755 105.358 109.644C105.48 109.674 105.601 109.699 105.723 109.72C105.845 109.73 105.966 109.735 106.088 109.735C106.442 109.735 106.772 109.669 107.076 109.537C107.38 109.395 107.623 109.157 107.805 108.823C107.998 108.488 108.094 108.007 108.094 107.379C108.094 106.589 107.901 105.945 107.516 105.449C107.141 104.952 106.528 104.704 105.677 104.704C105.556 104.704 105.424 104.714 105.282 104.735C105.14 104.755 104.948 104.795 104.705 104.856L104.917 104.613V111.908C104.917 112.344 104.963 112.678 105.054 112.911C105.156 113.144 105.308 113.306 105.51 113.397C105.723 113.489 105.997 113.549 106.331 113.58C106.361 113.671 106.382 113.777 106.392 113.899C106.402 114.021 106.407 114.157 106.407 114.309C106.255 114.299 106.062 114.289 105.829 114.279C105.606 114.279 105.363 114.274 105.1 114.264C104.847 114.264 104.593 114.264 104.34 114.264C104.087 114.264 103.813 114.264 103.519 114.264C103.236 114.274 102.967 114.279 102.714 114.279C102.471 114.289 102.273 114.299 102.121 114.309ZM115.991 114.4C114.978 114.4 114.092 114.172 113.332 113.717C112.582 113.25 111.994 112.617 111.569 111.817C111.154 111.016 110.946 110.11 110.946 109.096C110.946 108.306 111.072 107.592 111.326 106.953C111.589 106.315 111.949 105.768 112.405 105.312C112.861 104.846 113.393 104.486 114.001 104.233C114.619 103.98 115.282 103.853 115.991 103.853C116.984 103.853 117.861 104.071 118.621 104.507C119.381 104.942 119.978 105.55 120.414 106.33C120.85 107.111 121.068 108.022 121.068 109.066C121.068 109.826 120.946 110.53 120.703 111.179C120.46 111.827 120.11 112.394 119.654 112.881C119.198 113.357 118.661 113.732 118.043 114.005C117.425 114.269 116.741 114.4 115.991 114.4ZM116.28 113.58C116.908 113.58 117.44 113.402 117.876 113.048C118.322 112.683 118.661 112.187 118.894 111.558C119.137 110.93 119.259 110.226 119.259 109.446C119.259 108.554 119.102 107.744 118.788 107.014C118.484 106.285 118.063 105.707 117.526 105.282C117 104.856 116.392 104.643 115.703 104.643C115.135 104.643 114.629 104.811 114.183 105.145C113.737 105.479 113.388 105.95 113.134 106.558C112.881 107.166 112.754 107.875 112.754 108.686C112.754 109.324 112.83 109.937 112.982 110.525C113.134 111.113 113.357 111.64 113.651 112.106C113.955 112.562 114.325 112.921 114.76 113.185C115.196 113.448 115.703 113.58 116.28 113.58Z" fill="#1B4298"/>
<path d="M18.7111 120.317H3.92026V120.694H18.7111V120.317Z" fill="#C0AE00"/>
<path d="M141.003 120.016H126.212V120.393H141.003V120.016Z" fill="#C0AE00"/>
<path d="M25.8907 123.312C25.4104 123.312 24.9907 123.2 24.6317 122.977C24.2727 122.754 23.9913 122.45 23.7875 122.067C23.5886 121.684 23.4892 121.252 23.4892 120.772C23.4892 120.398 23.5498 120.059 23.6711 119.753C23.7972 119.447 23.9695 119.183 24.1878 118.96C24.4061 118.737 24.6608 118.564 24.9519 118.443C25.243 118.322 25.5559 118.261 25.8907 118.261C26.3564 118.261 26.7688 118.368 27.1278 118.581C27.4917 118.79 27.7779 119.083 27.9865 119.462C28.1952 119.835 28.2995 120.272 28.2995 120.772C28.2995 121.131 28.2412 121.466 28.1248 121.776C28.0084 122.082 27.841 122.351 27.6227 122.584C27.4092 122.812 27.1545 122.991 26.8586 123.122C26.5675 123.249 26.2448 123.312 25.8907 123.312ZM26.0362 122.955C26.3516 122.955 26.6208 122.868 26.844 122.693C27.072 122.514 27.2467 122.273 27.368 121.973C27.4893 121.667 27.5499 121.33 27.5499 120.961C27.5499 120.524 27.4699 120.129 27.3098 119.775C27.1545 119.416 26.941 119.132 26.6694 118.923C26.3977 118.715 26.0872 118.61 25.7379 118.61C25.4516 118.61 25.1945 118.693 24.9665 118.858C24.7433 119.018 24.5662 119.246 24.4352 119.542C24.3042 119.838 24.2387 120.182 24.2387 120.575C24.2387 120.881 24.2775 121.177 24.3552 121.463C24.4328 121.749 24.5468 122.004 24.6972 122.227C24.8525 122.45 25.0417 122.628 25.2648 122.759C25.488 122.89 25.7451 122.955 26.0362 122.955ZM28.9649 123.268C28.9649 123.2 28.9674 123.142 28.9722 123.093C28.9771 123.04 28.9868 122.994 29.0013 122.955C29.1323 122.945 29.2342 122.921 29.307 122.882C29.3797 122.843 29.4307 122.775 29.4598 122.678C29.4938 122.577 29.5107 122.431 29.5107 122.242V119.251C29.5107 119.086 29.4962 118.96 29.4671 118.872C29.438 118.785 29.387 118.722 29.3143 118.683C29.2415 118.644 29.1396 118.623 29.0086 118.618C28.9941 118.579 28.9843 118.533 28.9795 118.479C28.9746 118.421 28.9722 118.363 28.9722 118.305C29.0207 118.31 29.0765 118.315 29.1396 118.319C29.2075 118.319 29.2876 118.322 29.3797 118.327C29.4768 118.327 29.5908 118.327 29.7218 118.327C29.8576 118.327 30.0153 118.327 30.1948 118.327V122.242C30.1948 122.441 30.2118 122.591 30.2457 122.693C30.2846 122.79 30.3525 122.856 30.4495 122.89C30.5514 122.919 30.6921 122.933 30.8716 122.933C31.2112 122.933 31.4611 122.841 31.6212 122.657C31.7813 122.472 31.8613 122.232 31.8613 121.936C31.8613 121.703 31.8201 121.514 31.7376 121.369C31.6551 121.223 31.5508 121.111 31.4247 121.034C31.3034 120.951 31.1748 120.896 31.039 120.866C30.9031 120.832 30.7818 120.815 30.6751 120.815C30.6314 120.815 30.549 120.818 30.4277 120.823C30.3064 120.828 30.1997 120.835 30.1075 120.845V120.532C30.2191 120.517 30.3282 120.507 30.435 120.503C30.5417 120.493 30.6557 120.488 30.777 120.488C31.1603 120.488 31.4902 120.529 31.7667 120.612C32.0432 120.694 32.2567 120.83 32.4071 121.019C32.5624 121.208 32.64 121.468 32.64 121.798C32.64 122.07 32.5818 122.315 32.4653 122.533C32.3489 122.751 32.167 122.926 31.9195 123.057C31.6721 123.183 31.347 123.246 30.9444 123.246C30.8085 123.246 30.646 123.246 30.4568 123.246C30.2724 123.246 30.0832 123.246 29.8892 123.246C29.6951 123.251 29.5156 123.253 29.3506 123.253C29.1857 123.258 29.0571 123.263 28.9649 123.268ZM32.0432 119.542C32.0335 119.392 31.9947 119.246 31.9268 119.105C31.8589 118.965 31.74 118.848 31.5702 118.756C31.4053 118.664 31.1651 118.618 30.8498 118.618H30.0056L30.1657 118.327C30.5344 118.327 30.8546 118.327 31.1263 118.327C31.4028 118.322 31.6333 118.317 31.8176 118.312C32.002 118.307 32.1354 118.305 32.2179 118.305C32.2276 118.412 32.2397 118.535 32.2543 118.676C32.2688 118.817 32.2858 118.955 32.3052 119.091C32.3246 119.227 32.3465 119.348 32.3707 119.455C32.3319 119.489 32.2834 119.513 32.2252 119.527C32.1718 119.537 32.1112 119.542 32.0432 119.542ZM33.4493 123.268C33.4493 123.2 33.4517 123.142 33.4566 123.093C33.4614 123.04 33.4711 122.994 33.4857 122.955C33.6167 122.945 33.7186 122.923 33.7913 122.89C33.8641 122.851 33.915 122.788 33.9441 122.7C33.9733 122.608 33.9878 122.482 33.9878 122.322V119.251C33.9878 119.086 33.9733 118.96 33.9441 118.872C33.915 118.785 33.8641 118.722 33.7913 118.683C33.7186 118.644 33.6167 118.623 33.4857 118.618C33.4711 118.579 33.4614 118.533 33.4566 118.479C33.4517 118.426 33.4493 118.368 33.4493 118.305C33.6385 118.315 33.8204 118.322 33.9951 118.327C34.1746 118.327 34.3226 118.327 34.439 118.327C34.5069 118.327 34.6015 118.327 34.7228 118.327C34.849 118.322 34.9727 118.319 35.094 118.319C35.2152 118.315 35.305 118.312 35.3632 118.312C35.7659 118.312 36.0885 118.378 36.3311 118.509C36.5737 118.64 36.7483 118.812 36.8551 119.025C36.9618 119.239 37.0152 119.472 37.0152 119.724C37.0152 120 36.9521 120.267 36.826 120.524C36.7047 120.782 36.5227 120.993 36.2802 121.158C36.0376 121.322 35.7319 121.405 35.3632 121.405C35.1595 121.405 34.9897 121.378 34.8538 121.325C34.8441 121.272 34.8393 121.221 34.8393 121.172C34.8393 121.124 34.8465 121.075 34.8611 121.027C34.9242 121.041 34.9872 121.053 35.0503 121.063C35.1134 121.068 35.1789 121.07 35.2468 121.07C35.4263 121.07 35.5937 121.039 35.7489 120.976C35.9042 120.913 36.0303 120.801 36.1273 120.641C36.2244 120.476 36.2729 120.241 36.2729 119.935C36.2729 119.547 36.1759 119.234 35.9818 118.996C35.7926 118.754 35.4797 118.632 35.043 118.632C34.9897 118.632 34.9266 118.637 34.8538 118.647C34.7859 118.652 34.6889 118.669 34.5627 118.698L34.6719 118.589V122.176C34.6719 122.385 34.6937 122.545 34.7374 122.657C34.781 122.763 34.8514 122.839 34.9484 122.882C35.0454 122.921 35.1692 122.945 35.3196 122.955C35.3341 122.994 35.3438 123.04 35.3487 123.093C35.3535 123.142 35.3559 123.2 35.3559 123.268C35.2832 123.263 35.1958 123.258 35.094 123.253C34.9969 123.253 34.8926 123.251 34.781 123.246C34.6695 123.246 34.5554 123.246 34.439 123.246C34.3274 123.246 34.2061 123.246 34.0751 123.246C33.9441 123.251 33.8229 123.253 33.7113 123.253C33.5997 123.258 33.5124 123.263 33.4493 123.268ZM39.5131 118.283L41.2451 122.256C41.3276 122.436 41.3955 122.574 41.4489 122.671C41.5022 122.768 41.5556 122.836 41.609 122.875C41.6672 122.914 41.7327 122.94 41.8054 122.955C41.8249 123.018 41.837 123.071 41.8418 123.115C41.8467 123.159 41.8491 123.21 41.8491 123.268C41.8006 123.263 41.7254 123.258 41.6235 123.253C41.5216 123.253 41.4149 123.251 41.3033 123.246C41.1917 123.246 41.0971 123.246 41.0195 123.246C40.9613 123.246 40.8934 123.246 40.8157 123.246C40.7381 123.251 40.6581 123.253 40.5756 123.253C40.4931 123.258 40.4179 123.261 40.35 123.261C40.2869 123.265 40.236 123.268 40.1972 123.268C40.1972 123.21 40.1996 123.154 40.2044 123.101C40.2141 123.047 40.2287 122.999 40.2481 122.955C40.447 122.931 40.5635 122.887 40.5974 122.824C40.6362 122.756 40.6071 122.611 40.5101 122.387L39.4985 120.022C39.4355 119.872 39.3797 119.738 39.3312 119.622C39.2827 119.506 39.2244 119.358 39.1565 119.178H39.1929C39.1347 119.362 39.0813 119.52 39.0328 119.651C38.9891 119.777 38.9455 119.899 38.9018 120.015L38.0722 122.176C37.9655 122.463 37.9315 122.661 37.9703 122.773C38.014 122.88 38.1353 122.94 38.3342 122.955C38.3536 122.999 38.3657 123.047 38.3706 123.101C38.3803 123.154 38.3851 123.21 38.3851 123.268C38.3318 123.263 38.2663 123.258 38.1886 123.253C38.111 123.253 38.0285 123.251 37.9412 123.246C37.8587 123.246 37.7763 123.246 37.6938 123.246C37.5725 123.246 37.4585 123.249 37.3517 123.253C37.245 123.258 37.1577 123.263 37.0898 123.268C37.0898 123.219 37.0922 123.168 37.097 123.115C37.1067 123.057 37.1213 123.006 37.1407 122.962C37.228 122.943 37.3008 122.909 37.359 122.86C37.4172 122.812 37.473 122.734 37.5264 122.628C37.5846 122.516 37.6501 122.366 37.7229 122.176L39.2293 118.312C39.2778 118.302 39.3215 118.295 39.3603 118.29C39.4039 118.285 39.4549 118.283 39.5131 118.283ZM40.1753 121.318L40.2408 121.645C39.9158 121.645 39.5665 121.648 39.1929 121.652C38.8242 121.657 38.4894 121.664 38.1886 121.674L38.3051 121.318H40.1753ZM43.8545 123.312C43.544 123.312 43.2626 123.273 43.0104 123.195C42.7629 123.113 42.5543 122.996 42.3845 122.846C42.4136 122.676 42.433 122.511 42.4427 122.351C42.4524 122.186 42.4524 122.028 42.4427 121.878C42.5058 121.854 42.5689 121.837 42.6319 121.827C42.6999 121.817 42.7702 121.815 42.843 121.82C42.8769 122.218 42.9812 122.509 43.1559 122.693C43.3306 122.873 43.578 122.962 43.8982 122.962C44.2281 122.962 44.4755 122.875 44.6405 122.7C44.8054 122.521 44.8879 122.273 44.8879 121.958C44.8879 121.555 44.7618 121.259 44.5095 121.07C44.2572 120.881 43.8958 120.786 43.4252 120.786C43.4155 120.718 43.4106 120.653 43.4106 120.59C43.4155 120.522 43.4276 120.471 43.447 120.437C43.7575 120.437 44.0025 120.398 44.182 120.321C44.3615 120.238 44.4901 120.127 44.5677 119.986C44.6453 119.84 44.6841 119.678 44.6841 119.498C44.6841 119.222 44.6114 119.006 44.4658 118.851C44.3203 118.691 44.1189 118.61 43.8618 118.61C43.6289 118.61 43.4203 118.686 43.2359 118.836C43.0564 118.986 42.94 119.239 42.8866 119.593C42.809 119.598 42.7387 119.598 42.6756 119.593C42.6125 119.583 42.547 119.566 42.4791 119.542C42.5034 119.387 42.5179 119.231 42.5228 119.076C42.5276 118.921 42.5228 118.763 42.5082 118.603C42.7459 118.487 42.9812 118.402 43.2141 118.348C43.4518 118.29 43.692 118.261 43.9346 118.261C44.4343 118.261 44.8103 118.365 45.0626 118.574C45.3148 118.783 45.441 119.057 45.441 119.396C45.441 119.639 45.3779 119.85 45.2518 120.03C45.1305 120.209 44.9607 120.35 44.7423 120.452C44.524 120.549 44.2693 120.597 43.9782 120.597V120.546C44.3033 120.546 44.5895 120.59 44.837 120.677C45.0844 120.765 45.2784 120.905 45.4191 121.099C45.5647 121.289 45.6375 121.541 45.6375 121.856C45.6375 122.327 45.4774 122.688 45.1572 122.94C44.8418 123.188 44.4076 123.312 43.8545 123.312ZM48.6962 123.312C48.2159 123.312 47.7962 123.2 47.4372 122.977C47.0782 122.754 46.7968 122.45 46.5931 122.067C46.3941 121.684 46.2947 121.252 46.2947 120.772C46.2947 120.398 46.3553 120.059 46.4766 119.753C46.6028 119.447 46.775 119.183 46.9933 118.96C47.2116 118.737 47.4663 118.564 47.7574 118.443C48.0485 118.322 48.3614 118.261 48.6962 118.261C49.1619 118.261 49.5743 118.368 49.9333 118.581C50.2972 118.79 50.5834 119.083 50.7921 119.462C51.0007 119.835 51.105 120.272 51.105 120.772C51.105 121.131 51.0468 121.466 50.9303 121.776C50.8139 122.082 50.6465 122.351 50.4282 122.584C50.2147 122.812 49.96 122.991 49.6641 123.122C49.373 123.249 49.0504 123.312 48.6962 123.312ZM48.8417 122.955C49.1571 122.955 49.4264 122.868 49.6495 122.693C49.8775 122.514 50.0522 122.273 50.1735 121.973C50.2948 121.667 50.3554 121.33 50.3554 120.961C50.3554 120.524 50.2754 120.129 50.1153 119.775C49.96 119.416 49.7466 119.132 49.4749 118.923C49.2032 118.715 48.8927 118.61 48.5434 118.61C48.2571 118.61 48 118.693 47.772 118.858C47.5488 119.018 47.3717 119.246 47.2407 119.542C47.1097 119.838 47.0443 120.182 47.0443 120.575C47.0443 120.881 47.0831 121.177 47.1607 121.463C47.2383 121.749 47.3523 122.004 47.5027 122.227C47.658 122.45 47.8472 122.628 48.0703 122.759C48.2935 122.89 48.5507 122.955 48.8417 122.955ZM51.7777 118.305C51.8748 118.31 51.9912 118.315 52.127 118.319C52.2677 118.324 52.4036 118.327 52.5346 118.327C52.651 118.327 52.7674 118.327 52.8839 118.327C53.0003 118.322 53.1168 118.319 53.2332 118.319C53.3496 118.315 53.4636 118.312 53.5752 118.312C53.8566 118.312 54.1137 118.341 54.3466 118.399C54.5795 118.458 54.7663 118.564 54.907 118.72C55.0525 118.87 55.1253 119.088 55.1253 119.375C55.1253 119.685 55.0307 119.952 54.8415 120.175C54.6523 120.393 54.3951 120.527 54.0701 120.575C54.3272 120.59 54.5625 120.638 54.776 120.721C54.9943 120.798 55.169 120.925 55.2999 121.099C55.4309 121.274 55.4964 121.512 55.4964 121.812C55.4964 122.074 55.4358 122.315 55.3145 122.533C55.1981 122.751 55.0113 122.926 54.7541 123.057C54.497 123.183 54.1623 123.246 53.7499 123.246C53.614 123.246 53.4515 123.246 53.2623 123.246C53.0779 123.246 52.8887 123.246 52.6947 123.246C52.5006 123.251 52.3211 123.253 52.1562 123.253C51.9912 123.258 51.8626 123.263 51.7705 123.268C51.7705 123.2 51.7729 123.142 51.7777 123.093C51.7826 123.04 51.7923 122.994 51.8068 122.955C51.9378 122.945 52.0397 122.921 52.1125 122.882C52.1853 122.843 52.2362 122.775 52.2653 122.678C52.2993 122.577 52.3163 122.431 52.3163 122.242V119.251C52.3163 119.086 52.3017 118.96 52.2726 118.872C52.2435 118.785 52.1925 118.722 52.1198 118.683C52.047 118.644 51.9451 118.623 51.8141 118.618C51.7996 118.579 51.7899 118.533 51.785 118.479C51.7802 118.421 51.7777 118.363 51.7777 118.305ZM53.0003 118.581V122.242C53.0003 122.441 53.0173 122.591 53.0513 122.693C53.0901 122.79 53.158 122.856 53.255 122.89C53.3569 122.919 53.4976 122.933 53.6771 122.933C54.0361 122.933 54.2981 122.843 54.4631 122.664C54.6329 122.48 54.7178 122.23 54.7178 121.914C54.7178 121.686 54.6717 121.502 54.5795 121.361C54.4873 121.216 54.3636 121.107 54.2084 121.034C54.058 120.956 53.8906 120.903 53.7062 120.874C53.5267 120.845 53.3472 120.83 53.1677 120.83H52.913V120.517H53.2259C53.5413 120.517 53.7814 120.473 53.9464 120.386C54.1113 120.299 54.2253 120.185 54.2884 120.044C54.3515 119.899 54.383 119.748 54.383 119.593C54.383 119.341 54.3248 119.147 54.2084 119.011C54.0968 118.87 53.9561 118.773 53.7863 118.72C53.6213 118.661 53.4588 118.632 53.2987 118.632C53.2356 118.632 53.1725 118.637 53.1095 118.647C53.0513 118.652 52.9809 118.666 52.8984 118.691L53.0003 118.581ZM58.282 118.283L60.014 122.256C60.0965 122.436 60.1644 122.574 60.2178 122.671C60.2711 122.768 60.3245 122.836 60.3779 122.875C60.4361 122.914 60.5016 122.94 60.5743 122.955C60.5937 123.018 60.6059 123.071 60.6107 123.115C60.6156 123.159 60.618 123.21 60.618 123.268C60.5695 123.263 60.4943 123.258 60.3924 123.253C60.2905 123.253 60.1838 123.251 60.0722 123.246C59.9606 123.246 59.866 123.246 59.7884 123.246C59.7302 123.246 59.6623 123.246 59.5846 123.246C59.507 123.251 59.427 123.253 59.3445 123.253C59.262 123.258 59.1868 123.261 59.1189 123.261C59.0558 123.265 59.0049 123.268 58.9661 123.268C58.9661 123.21 58.9685 123.154 58.9733 123.101C58.983 123.047 58.9976 122.999 59.017 122.955C59.2159 122.931 59.3323 122.887 59.3663 122.824C59.4051 122.756 59.376 122.611 59.279 122.387L58.2674 120.022C58.2044 119.872 58.1486 119.738 58.1001 119.622C58.0515 119.506 57.9933 119.358 57.9254 119.178H57.9618C57.9036 119.362 57.8502 119.52 57.8017 119.651C57.758 119.777 57.7144 119.899 57.6707 120.015L56.8411 122.176C56.7344 122.463 56.7004 122.661 56.7392 122.773C56.7829 122.88 56.9042 122.94 57.1031 122.955C57.1225 122.999 57.1346 123.047 57.1395 123.101C57.1492 123.154 57.154 123.21 57.154 123.268C57.1006 123.263 57.0351 123.258 56.9575 123.253C56.8799 123.253 56.7974 123.251 56.7101 123.246C56.6276 123.246 56.5451 123.246 56.4627 123.246C56.3414 123.246 56.2274 123.249 56.1206 123.253C56.0139 123.258 55.9266 123.263 55.8587 123.268C55.8587 123.219 55.8611 123.168 55.8659 123.115C55.8756 123.057 55.8902 123.006 55.9096 122.962C55.9969 122.943 56.0697 122.909 56.1279 122.86C56.1861 122.812 56.2419 122.734 56.2953 122.628C56.3535 122.516 56.419 122.366 56.4918 122.176L57.9982 118.312C58.0467 118.302 58.0904 118.295 58.1292 118.29C58.1728 118.285 58.2238 118.283 58.282 118.283ZM58.9442 121.318L59.0097 121.645C58.6847 121.645 58.3354 121.648 57.9618 121.652C57.5931 121.657 57.2583 121.664 56.9575 121.674L57.074 121.318H58.9442ZM64.1118 123.268C64.1118 123.2 64.1143 123.142 64.1191 123.093C64.124 123.04 64.1337 122.994 64.1482 122.955C64.2792 122.945 64.3811 122.923 64.4539 122.89C64.5267 122.851 64.5776 122.788 64.6067 122.7C64.6358 122.608 64.6504 122.482 64.6504 122.322V119.251C64.6504 119.086 64.6358 118.96 64.6067 118.872C64.5776 118.785 64.5267 118.722 64.4539 118.683C64.3811 118.644 64.2792 118.623 64.1482 118.618C64.1337 118.579 64.124 118.533 64.1191 118.479C64.1143 118.426 64.1118 118.368 64.1118 118.305C64.204 118.31 64.2962 118.315 64.3884 118.319C64.4854 118.319 64.5849 118.322 64.6868 118.327C64.7886 118.327 64.8905 118.327 64.9924 118.327C65.0991 118.327 65.201 118.327 65.298 118.327C65.3951 118.322 65.4897 118.319 65.5819 118.319C65.6789 118.315 65.7759 118.31 65.873 118.305C65.873 118.368 65.8705 118.426 65.8657 118.479C65.8608 118.533 65.8511 118.579 65.8366 118.618C65.7104 118.623 65.6085 118.644 65.5309 118.683C65.4581 118.722 65.4072 118.785 65.3781 118.872C65.349 118.96 65.3344 119.086 65.3344 119.251V122.322C65.3344 122.482 65.349 122.608 65.3781 122.7C65.4072 122.788 65.4581 122.851 65.5309 122.89C65.6085 122.923 65.7104 122.945 65.8366 122.955C65.8511 122.994 65.8608 123.04 65.8657 123.093C65.8705 123.142 65.873 123.2 65.873 123.268C65.7274 123.258 65.5794 123.251 65.429 123.246C65.2786 123.246 65.1331 123.246 64.9924 123.246C64.8517 123.246 64.7013 123.246 64.5412 123.246C64.3811 123.251 64.238 123.258 64.1118 123.268ZM61.2082 123.268C61.2082 123.2 61.2106 123.142 61.2155 123.093C61.2203 123.04 61.23 122.994 61.2446 122.955C61.3756 122.945 61.4775 122.923 61.5502 122.89C61.623 122.851 61.674 122.788 61.7031 122.7C61.7322 122.608 61.7467 122.482 61.7467 122.322V119.251C61.7467 119.086 61.7322 118.96 61.7031 118.872C61.674 118.785 61.623 118.722 61.5502 118.683C61.4775 118.644 61.3756 118.623 61.2446 118.618C61.23 118.579 61.2203 118.533 61.2155 118.479C61.2106 118.426 61.2082 118.368 61.2082 118.305C61.3004 118.31 61.3926 118.315 61.4847 118.319C61.5818 118.319 61.6812 118.322 61.7831 118.327C61.885 118.327 61.9869 118.327 62.0888 118.327C62.1955 118.327 62.2974 118.327 62.3944 118.327C62.4914 118.322 62.586 118.319 62.6782 118.319C62.7752 118.315 62.8723 118.31 62.9693 118.305C62.9693 118.368 62.9669 118.426 62.962 118.479C62.9572 118.533 62.9475 118.579 62.9329 118.618C62.8068 118.623 62.7049 118.644 62.6273 118.683C62.5545 118.722 62.5036 118.785 62.4745 118.872C62.4453 118.96 62.4308 119.086 62.4308 119.251V122.322C62.4308 122.482 62.4453 122.608 62.4745 122.7C62.5036 122.788 62.5545 122.851 62.6273 122.89C62.7049 122.923 62.8068 122.945 62.9329 122.955C62.9475 122.994 62.9572 123.04 62.962 123.093C62.9669 123.142 62.9693 123.2 62.9693 123.268C62.8238 123.258 62.6758 123.251 62.5254 123.246C62.375 123.246 62.2295 123.246 62.0888 123.246C61.9481 123.246 61.7977 123.246 61.6376 123.246C61.4775 123.251 61.3343 123.258 61.2082 123.268ZM62.3944 120.925V120.568H64.6868V120.881C64.5509 120.881 64.3811 120.881 64.1773 120.881C63.9736 120.881 63.7601 120.883 63.5369 120.888C63.3186 120.888 63.1076 120.893 62.9038 120.903C62.7049 120.908 62.5351 120.915 62.3944 120.925ZM67.6263 122.737L67.5244 122.322L70.3116 118.952L70.4353 119.345L67.6263 122.737ZM66.6875 123.268C66.6875 123.2 66.6899 123.142 66.6948 123.093C66.6996 123.04 66.7093 122.994 66.7239 122.955C66.8549 122.945 66.9568 122.923 67.0295 122.89C67.1023 122.851 67.1532 122.788 67.1824 122.7C67.2115 122.608 67.226 122.482 67.226 122.322V119.251C67.226 119.086 67.2115 118.96 67.1824 118.872C67.1532 118.785 67.1023 118.722 67.0295 118.683C66.9568 118.644 66.8549 118.623 66.7239 118.618C66.7093 118.579 66.6996 118.533 66.6948 118.479C66.6899 118.426 66.6875 118.368 66.6875 118.305C66.7797 118.31 66.8719 118.315 66.964 118.319C67.0611 118.319 67.1605 118.322 67.2624 118.327C67.3643 118.327 67.4662 118.327 67.5681 118.327C67.6748 118.327 67.7767 118.327 67.8737 118.327C67.9707 118.322 68.0653 118.319 68.1575 118.319C68.2545 118.315 68.3516 118.31 68.4486 118.305C68.4486 118.368 68.4462 118.426 68.4413 118.479C68.4365 118.533 68.4268 118.579 68.4122 118.618C68.2861 118.623 68.1842 118.644 68.1066 118.683C68.0338 118.722 67.9829 118.785 67.9537 118.872C67.9246 118.96 67.9101 119.086 67.9101 119.251V122.322C67.9101 122.482 67.9246 122.608 67.9537 122.7C67.9829 122.788 68.0338 122.851 68.1066 122.89C68.1842 122.923 68.2861 122.945 68.4122 122.955C68.4268 122.994 68.4365 123.04 68.4413 123.093C68.4462 123.142 68.4486 123.2 68.4486 123.268C68.3031 123.258 68.1551 123.251 68.0047 123.246C67.8543 123.246 67.7087 123.246 67.5681 123.246C67.4274 123.246 67.277 123.246 67.1169 123.246C66.9568 123.251 66.8136 123.258 66.6875 123.268ZM69.5911 123.268C69.5911 123.2 69.5936 123.142 69.5984 123.093C69.6033 123.04 69.613 122.994 69.6275 122.955C69.7585 122.945 69.8604 122.923 69.9332 122.89C70.0059 122.851 70.0569 122.788 70.086 122.7C70.1151 122.608 70.1297 122.482 70.1297 122.322V119.251C70.1297 119.086 70.1151 118.96 70.086 118.872C70.0569 118.785 70.0059 118.722 69.9332 118.683C69.8604 118.644 69.7585 118.623 69.6275 118.618C69.613 118.579 69.6033 118.533 69.5984 118.479C69.5936 118.426 69.5911 118.368 69.5911 118.305C69.6833 118.31 69.7755 118.315 69.8677 118.319C69.9647 118.319 70.0642 118.322 70.166 118.327C70.2679 118.327 70.3698 118.327 70.4717 118.327C70.5784 118.327 70.6803 118.327 70.7773 118.327C70.8744 118.322 70.969 118.319 71.0612 118.319C71.1582 118.315 71.2552 118.31 71.3522 118.305C71.3522 118.368 71.3498 118.426 71.345 118.479C71.3401 118.533 71.3304 118.579 71.3159 118.618C71.1897 118.623 71.0878 118.644 71.0102 118.683C70.9374 118.722 70.8865 118.785 70.8574 118.872C70.8283 118.96 70.8137 119.086 70.8137 119.251V122.322C70.8137 122.482 70.8283 122.608 70.8574 122.7C70.8865 122.788 70.9374 122.851 71.0102 122.89C71.0878 122.923 71.1897 122.945 71.3159 122.955C71.3304 122.994 71.3401 123.04 71.345 123.093C71.3498 123.142 71.3522 123.2 71.3522 123.268C71.2067 123.258 71.0587 123.251 70.9083 123.246C70.7579 123.246 70.6124 123.246 70.4717 123.246C70.331 123.246 70.1806 123.246 70.0205 123.246C69.8604 123.251 69.7173 123.258 69.5911 123.268ZM72.1668 118.305C72.2396 118.31 72.3293 118.315 72.4361 118.319C72.5476 118.319 72.6641 118.322 72.7854 118.327C72.9066 118.327 73.0207 118.327 73.1274 118.327C73.239 118.327 73.3263 118.327 73.3894 118.327V122.242C73.3894 122.421 73.4064 122.56 73.4403 122.657C73.4743 122.754 73.5398 122.822 73.6368 122.86C73.7338 122.899 73.8721 122.919 74.0516 122.919V123.246C73.9158 123.246 73.7581 123.246 73.5786 123.246C73.4039 123.246 73.2244 123.246 73.0401 123.246C72.8606 123.251 72.6932 123.253 72.5379 123.253C72.3827 123.258 72.259 123.263 72.1668 123.268C72.1668 123.2 72.1692 123.142 72.1741 123.093C72.1789 123.04 72.1886 122.994 72.2032 122.955C72.3342 122.945 72.4361 122.921 72.5088 122.882C72.5816 122.843 72.6325 122.775 72.6616 122.678C72.6908 122.577 72.7053 122.431 72.7053 122.242V119.251C72.7053 119.086 72.6908 118.96 72.6616 118.872C72.6325 118.785 72.5816 118.722 72.5088 118.683C72.4361 118.644 72.3342 118.623 72.2032 118.618C72.1886 118.579 72.1789 118.533 72.1741 118.479C72.1692 118.421 72.1668 118.363 72.1668 118.305ZM75.5143 122.002C75.5871 122.021 75.6478 122.045 75.6963 122.074C75.7448 122.099 75.7909 122.133 75.8345 122.176C75.7812 122.341 75.7351 122.521 75.6963 122.715C75.6623 122.909 75.6332 123.091 75.609 123.261C75.5168 123.256 75.3906 123.253 75.2305 123.253C75.0753 123.253 74.8958 123.251 74.692 123.246C74.4931 123.246 74.2796 123.246 74.0516 123.246V122.919H74.0953C74.4446 122.919 74.7066 122.885 74.8812 122.817C75.0607 122.744 75.1941 122.64 75.2815 122.504C75.3688 122.368 75.4464 122.201 75.5143 122.002ZM75.0049 119.971C75.0001 120.093 74.9952 120.224 74.9904 120.364C74.9904 120.505 74.9904 120.638 74.9904 120.765C74.9904 120.891 74.9904 121.031 74.9904 121.187C74.9952 121.342 75.0001 121.483 75.0049 121.609C74.9419 121.609 74.8836 121.606 74.8303 121.601C74.7769 121.597 74.7235 121.587 74.6702 121.572C74.6508 121.32 74.5829 121.15 74.4664 121.063C74.3548 120.971 74.1486 120.925 73.8478 120.925H73.3239V120.612H73.8478C74.1486 120.612 74.3573 120.573 74.4737 120.495C74.5901 120.418 74.6508 120.26 74.6556 120.022C74.7187 120.003 74.7769 119.991 74.8303 119.986C74.8836 119.976 74.9419 119.971 75.0049 119.971ZM75.4343 118.305C75.444 118.412 75.4561 118.535 75.4707 118.676C75.4852 118.817 75.5022 118.955 75.5216 119.091C75.541 119.227 75.5629 119.348 75.5871 119.455C75.5483 119.489 75.4998 119.513 75.4416 119.527C75.3882 119.537 75.3276 119.542 75.2596 119.542C75.2499 119.392 75.2111 119.246 75.1432 119.105C75.0753 118.965 74.9564 118.848 74.7866 118.756C74.6217 118.664 74.3815 118.618 74.0662 118.618H73.2366L73.3894 118.327C73.7726 118.327 74.1001 118.327 74.3718 118.327C74.6483 118.322 74.8739 118.317 75.0486 118.312C75.2281 118.307 75.3567 118.305 75.4343 118.305ZM77.9943 123.268C77.9943 123.2 77.9967 123.142 78.0016 123.093C78.0064 123.04 78.0161 122.994 78.0307 122.955C78.1617 122.945 78.2636 122.921 78.3363 122.882C78.4091 122.843 78.4601 122.775 78.4892 122.678C78.5231 122.577 78.5401 122.431 78.5401 122.242V119.251C78.5401 119.086 78.5256 118.96 78.4964 118.872C78.4673 118.785 78.4164 118.722 78.3436 118.683C78.2709 118.644 78.169 118.623 78.038 118.618C78.0234 118.579 78.0137 118.533 78.0089 118.479C78.004 118.421 78.0016 118.363 78.0016 118.305C78.0501 118.31 78.1059 118.315 78.169 118.319C78.2369 118.319 78.3169 118.322 78.4091 118.327C78.5061 118.327 78.6202 118.327 78.7512 118.327C78.887 118.327 79.0447 118.327 79.2242 118.327V122.242C79.2242 122.441 79.2412 122.591 79.2751 122.693C79.3139 122.79 79.3819 122.856 79.4789 122.89C79.5808 122.919 79.7215 122.933 79.901 122.933C80.2406 122.933 80.4904 122.841 80.6505 122.657C80.8106 122.472 80.8907 122.232 80.8907 121.936C80.8907 121.703 80.8494 121.514 80.767 121.369C80.6845 121.223 80.5802 121.111 80.454 121.034C80.3328 120.951 80.2042 120.896 80.0683 120.866C79.9325 120.832 79.8112 120.815 79.7045 120.815C79.6608 120.815 79.5783 120.818 79.457 120.823C79.3358 120.828 79.229 120.835 79.1368 120.845V120.532C79.2484 120.517 79.3576 120.507 79.4643 120.503C79.5711 120.493 79.6851 120.488 79.8064 120.488C80.1896 120.488 80.5195 120.529 80.7961 120.612C81.0726 120.694 81.2861 120.83 81.4365 121.019C81.5917 121.208 81.6693 121.468 81.6693 121.798C81.6693 122.07 81.6111 122.315 81.4947 122.533C81.3783 122.751 81.1963 122.926 80.9489 123.057C80.7015 123.183 80.3764 123.246 79.9737 123.246C79.8379 123.246 79.6754 123.246 79.4862 123.246C79.3018 123.246 79.1126 123.246 78.9185 123.246C78.7245 123.251 78.545 123.253 78.38 123.253C78.2151 123.258 78.0865 123.263 77.9943 123.268ZM81.0726 119.542C81.0629 119.392 81.0241 119.246 80.9562 119.105C80.8883 118.965 80.7694 118.848 80.5996 118.756C80.4346 118.664 80.1945 118.618 79.8791 118.618H79.035L79.1951 118.327C79.5638 118.327 79.884 118.327 80.1557 118.327C80.4322 118.322 80.6627 118.317 80.847 118.312C81.0314 118.307 81.1648 118.305 81.2473 118.305C81.257 118.412 81.2691 118.535 81.2837 118.676C81.2982 118.817 81.3152 118.955 81.3346 119.091C81.354 119.227 81.3758 119.348 81.4001 119.455C81.3613 119.489 81.3128 119.513 81.2545 119.527C81.2012 119.537 81.1405 119.542 81.0726 119.542ZM82.4787 118.305C82.5514 118.31 82.6412 118.315 82.7479 118.319C82.8595 118.319 82.9759 118.322 83.0972 118.327C83.2185 118.327 83.3325 118.327 83.4393 118.327C83.5509 118.327 83.6382 118.327 83.7013 118.327V122.242C83.7013 122.421 83.7182 122.56 83.7522 122.657C83.7862 122.754 83.8516 122.822 83.9487 122.86C84.0457 122.899 84.184 122.919 84.3635 122.919V123.246C84.2276 123.246 84.07 123.246 83.8905 123.246C83.7158 123.246 83.5363 123.246 83.3519 123.246C83.1724 123.251 83.0051 123.253 82.8498 123.253C82.6946 123.258 82.5708 123.263 82.4787 123.268C82.4787 123.2 82.4811 123.142 82.4859 123.093C82.4908 123.04 82.5005 122.994 82.5151 122.955C82.646 122.945 82.7479 122.921 82.8207 122.882C82.8935 122.843 82.9444 122.775 82.9735 122.678C83.0026 122.577 83.0172 122.431 83.0172 122.242V119.251C83.0172 119.086 83.0026 118.96 82.9735 118.872C82.9444 118.785 82.8935 118.722 82.8207 118.683C82.7479 118.644 82.646 118.623 82.5151 118.618C82.5005 118.579 82.4908 118.533 82.4859 118.479C82.4811 118.421 82.4787 118.363 82.4787 118.305ZM85.8262 122.002C85.899 122.021 85.9596 122.045 86.0082 122.074C86.0567 122.099 86.1028 122.133 86.1464 122.176C86.0931 122.341 86.047 122.521 86.0082 122.715C85.9742 122.909 85.9451 123.091 85.9208 123.261C85.8286 123.256 85.7025 123.253 85.5424 123.253C85.3872 123.253 85.2077 123.251 85.0039 123.246C84.805 123.246 84.5915 123.246 84.3635 123.246V122.919H84.4071C84.7565 122.919 85.0184 122.885 85.1931 122.817C85.3726 122.744 85.506 122.64 85.5933 122.504C85.6807 122.368 85.7583 122.201 85.8262 122.002ZM85.3168 119.971C85.312 120.093 85.3071 120.224 85.3023 120.364C85.3023 120.505 85.3023 120.638 85.3023 120.765C85.3023 120.891 85.3023 121.031 85.3023 121.187C85.3071 121.342 85.312 121.483 85.3168 121.609C85.2537 121.609 85.1955 121.606 85.1422 121.601C85.0888 121.597 85.0354 121.587 84.9821 121.572C84.9626 121.32 84.8947 121.15 84.7783 121.063C84.6667 120.971 84.4605 120.925 84.1597 120.925H83.6358V120.612H84.1597C84.4605 120.612 84.6691 120.573 84.7856 120.495C84.902 120.418 84.9626 120.26 84.9675 120.022C85.0306 120.003 85.0888 119.991 85.1422 119.986C85.1955 119.976 85.2537 119.971 85.3168 119.971ZM85.7462 118.305C85.7559 118.412 85.768 118.535 85.7826 118.676C85.7971 118.817 85.8141 118.955 85.8335 119.091C85.8529 119.227 85.8747 119.348 85.899 119.455C85.8602 119.489 85.8117 119.513 85.7534 119.527C85.7001 119.537 85.6394 119.542 85.5715 119.542C85.5618 119.392 85.523 119.246 85.4551 119.105C85.3872 118.965 85.2683 118.848 85.0985 118.756C84.9335 118.664 84.6934 118.618 84.378 118.618H83.5484L83.7013 118.327C84.0845 118.327 84.412 118.327 84.6837 118.327C84.9602 118.322 85.1858 118.317 85.3605 118.312C85.54 118.307 85.6685 118.305 85.7462 118.305ZM88.4067 123.312C88.0962 123.312 87.8148 123.273 87.5625 123.195C87.3151 123.113 87.1064 122.996 86.9366 122.846C86.9657 122.676 86.9852 122.511 86.9949 122.351C87.0046 122.186 87.0046 122.028 86.9949 121.878C87.0579 121.854 87.121 121.837 87.1841 121.827C87.252 121.817 87.3223 121.815 87.3951 121.82C87.4291 122.218 87.5334 122.509 87.708 122.693C87.8827 122.873 88.1301 122.962 88.4503 122.962C88.7802 122.962 89.0276 122.875 89.1926 122.7C89.3576 122.521 89.44 122.273 89.44 121.958C89.44 121.555 89.3139 121.259 89.0616 121.07C88.8093 120.881 88.4479 120.786 87.9773 120.786C87.9676 120.718 87.9627 120.653 87.9627 120.59C87.9676 120.522 87.9797 120.471 87.9991 120.437C88.3096 120.437 88.5546 120.398 88.7341 120.321C88.9136 120.238 89.0422 120.127 89.1198 119.986C89.1975 119.84 89.2363 119.678 89.2363 119.498C89.2363 119.222 89.1635 119.006 89.0179 118.851C88.8724 118.691 88.6711 118.61 88.4139 118.61C88.1811 118.61 87.9724 118.686 87.7881 118.836C87.6086 118.986 87.4921 119.239 87.4388 119.593C87.3611 119.598 87.2908 119.598 87.2277 119.593C87.1647 119.583 87.0992 119.566 87.0312 119.542C87.0555 119.387 87.0701 119.231 87.0749 119.076C87.0798 118.921 87.0749 118.763 87.0604 118.603C87.2981 118.487 87.5334 118.402 87.7662 118.348C88.004 118.29 88.2441 118.261 88.4867 118.261C88.9864 118.261 89.3624 118.365 89.6147 118.574C89.867 118.783 89.9931 119.057 89.9931 119.396C89.9931 119.639 89.93 119.85 89.8039 120.03C89.6826 120.209 89.5128 120.35 89.2945 120.452C89.0762 120.549 88.8215 120.597 88.5304 120.597V120.546C88.8554 120.546 89.1417 120.59 89.3891 120.677C89.6365 120.765 89.8306 120.905 89.9713 121.099C90.1168 121.289 90.1896 121.541 90.1896 121.856C90.1896 122.327 90.0295 122.688 89.7093 122.94C89.3939 123.188 88.9597 123.312 88.4067 123.312ZM92.4565 123.268C92.4565 123.2 92.459 123.142 92.4638 123.093C92.4687 123.04 92.4784 122.994 92.4929 122.955C92.6239 122.945 92.7258 122.923 92.7986 122.89C92.8713 122.851 92.9223 122.788 92.9514 122.7C92.9805 122.608 92.995 122.482 92.995 122.322V119.251C92.995 119.086 92.9805 118.96 92.9514 118.872C92.9223 118.785 92.8713 118.722 92.7986 118.683C92.7258 118.644 92.6239 118.623 92.4929 118.618C92.4784 118.579 92.4687 118.533 92.4638 118.479C92.459 118.426 92.4565 118.368 92.4565 118.305C92.539 118.31 92.6312 118.315 92.7331 118.319C92.8349 118.319 92.9417 118.322 93.0533 118.327C93.1697 118.327 93.2813 118.327 93.388 118.327C93.4948 118.327 93.5918 118.327 93.6791 118.327V122.176C93.6791 122.385 93.7009 122.545 93.7446 122.657C93.7883 122.763 93.8586 122.839 93.9556 122.882C94.0527 122.921 94.1764 122.945 94.3268 122.955C94.3413 122.994 94.351 123.04 94.3559 123.093C94.3608 123.142 94.3632 123.2 94.3632 123.268C94.2904 123.263 94.2031 123.258 94.1012 123.253C94.0042 123.253 93.8999 123.251 93.7883 123.246C93.6767 123.246 93.5627 123.246 93.4462 123.246C93.2764 123.246 93.0921 123.246 92.8932 123.246C92.6991 123.251 92.5536 123.258 92.4565 123.268ZM95.5203 119.542C95.5106 119.392 95.4718 119.246 95.4038 119.105C95.3359 118.965 95.217 118.848 95.0472 118.756C94.8823 118.664 94.6421 118.618 94.3268 118.618H93.4972L93.6573 118.327C94.0405 118.327 94.368 118.327 94.6397 118.327C94.9163 118.322 95.1418 118.317 95.3165 118.312C95.4912 118.307 95.6173 118.305 95.6949 118.305C95.7046 118.412 95.7168 118.535 95.7313 118.676C95.7459 118.817 95.7628 118.955 95.7822 119.091C95.8017 119.227 95.8235 119.348 95.8477 119.455C95.8089 119.489 95.7604 119.513 95.7022 119.527C95.6488 119.537 95.5882 119.542 95.5203 119.542ZM96.3439 123.268C96.3439 123.2 96.3463 123.142 96.3512 123.093C96.356 123.04 96.3657 122.994 96.3803 122.955C96.5113 122.945 96.6132 122.923 96.6859 122.89C96.7587 122.851 96.8097 122.788 96.8388 122.7C96.8679 122.608 96.8824 122.482 96.8824 122.322V119.251C96.8824 119.086 96.8679 118.96 96.8388 118.872C96.8097 118.785 96.7587 118.722 96.6859 118.683C96.6132 118.644 96.5113 118.623 96.3803 118.618C96.3657 118.579 96.356 118.533 96.3512 118.479C96.3463 118.426 96.3439 118.368 96.3439 118.305C96.5331 118.315 96.715 118.322 96.8897 118.327C97.0692 118.327 97.2172 118.327 97.3336 118.327C97.4015 118.327 97.4961 118.327 97.6174 118.327C97.7436 118.322 97.8673 118.319 97.9886 118.319C98.1099 118.315 98.1996 118.312 98.2578 118.312C98.6605 118.312 98.9831 118.378 99.2257 118.509C99.4683 118.64 99.6429 118.812 99.7497 119.025C99.8564 119.239 99.9098 119.472 99.9098 119.724C99.9098 120 99.8467 120.267 99.7206 120.524C99.5993 120.782 99.4174 120.993 99.1748 121.158C98.9322 121.322 98.6266 121.405 98.2578 121.405C98.0541 121.405 97.8843 121.378 97.7484 121.325C97.7387 121.272 97.7339 121.221 97.7339 121.172C97.7339 121.124 97.7411 121.075 97.7557 121.027C97.8188 121.041 97.8818 121.053 97.9449 121.063C98.008 121.068 98.0735 121.07 98.1414 121.07C98.3209 121.07 98.4883 121.039 98.6435 120.976C98.7988 120.913 98.9249 120.801 99.022 120.641C99.119 120.476 99.1675 120.241 99.1675 119.935C99.1675 119.547 99.0705 119.234 98.8764 118.996C98.6872 118.754 98.3743 118.632 97.9376 118.632C97.8843 118.632 97.8212 118.637 97.7484 118.647C97.6805 118.652 97.5835 118.669 97.4573 118.698L97.5665 118.589V122.176C97.5665 122.385 97.5883 122.545 97.632 122.657C97.6757 122.763 97.746 122.839 97.843 122.882C97.9401 122.921 98.0638 122.945 98.2142 122.955C98.2287 122.994 98.2384 123.04 98.2433 123.093C98.2481 123.142 98.2506 123.2 98.2506 123.268C98.1778 123.263 98.0905 123.258 97.9886 123.253C97.8915 123.253 97.7872 123.251 97.6757 123.246C97.5641 123.246 97.4501 123.246 97.3336 123.246C97.222 123.246 97.1007 123.246 96.9698 123.246C96.8388 123.251 96.7175 123.253 96.6059 123.253C96.4943 123.258 96.407 123.263 96.3439 123.268ZM102.408 118.283L104.14 122.256C104.222 122.436 104.29 122.574 104.343 122.671C104.397 122.768 104.45 122.836 104.504 122.875C104.562 122.914 104.627 122.94 104.7 122.955C104.719 123.018 104.732 123.071 104.736 123.115C104.741 123.159 104.744 123.21 104.744 123.268C104.695 123.263 104.62 123.258 104.518 123.253C104.416 123.253 104.31 123.251 104.198 123.246C104.086 123.246 103.992 123.246 103.914 123.246C103.856 123.246 103.788 123.246 103.71 123.246C103.633 123.251 103.553 123.253 103.47 123.253C103.388 123.258 103.313 123.261 103.245 123.261C103.182 123.265 103.131 123.268 103.092 123.268C103.092 123.21 103.094 123.154 103.099 123.101C103.109 123.047 103.123 122.999 103.143 122.955C103.342 122.931 103.458 122.887 103.492 122.824C103.531 122.756 103.502 122.611 103.405 122.387L102.393 120.022C102.33 119.872 102.274 119.738 102.226 119.622C102.177 119.506 102.119 119.358 102.051 119.178H102.088C102.029 119.362 101.976 119.52 101.927 119.651C101.884 119.777 101.84 119.899 101.796 120.015L100.967 122.176C100.86 122.463 100.826 122.661 100.865 122.773C100.909 122.88 101.03 122.94 101.229 122.955C101.248 122.999 101.26 123.047 101.265 123.101C101.275 123.154 101.28 123.21 101.28 123.268C101.226 123.263 101.161 123.258 101.083 123.253C101.006 123.253 100.923 123.251 100.836 123.246C100.753 123.246 100.671 123.246 100.588 123.246C100.467 123.246 100.353 123.249 100.246 123.253C100.14 123.258 100.052 123.263 99.9844 123.268C99.9844 123.219 99.9868 123.168 99.9917 123.115C100.001 123.057 100.016 123.006 100.035 122.962C100.123 122.943 100.195 122.909 100.254 122.86C100.312 122.812 100.368 122.734 100.421 122.628C100.479 122.516 100.545 122.366 100.618 122.176L102.124 118.312C102.172 118.302 102.216 118.295 102.255 118.29C102.299 118.285 102.349 118.283 102.408 118.283ZM103.07 121.318L103.135 121.645C102.81 121.645 102.461 121.648 102.088 121.652C101.719 121.657 101.384 121.664 101.083 121.674L101.2 121.318H103.07ZM108.238 123.268C108.238 123.2 108.24 123.142 108.245 123.093C108.25 123.04 108.259 122.994 108.274 122.955C108.405 122.945 108.507 122.923 108.58 122.89C108.652 122.851 108.703 122.788 108.732 122.7C108.762 122.608 108.776 122.482 108.776 122.322V119.251C108.776 119.086 108.762 118.96 108.732 118.872C108.703 118.785 108.652 118.722 108.58 118.683C108.507 118.644 108.405 118.623 108.274 118.618C108.259 118.579 108.25 118.533 108.245 118.479C108.24 118.426 108.238 118.368 108.238 118.305C108.33 118.31 108.422 118.315 108.514 118.319C108.611 118.319 108.711 118.322 108.812 118.327C108.914 118.327 109.016 118.327 109.118 118.327C109.225 118.327 109.327 118.327 109.424 118.327C109.521 118.322 109.615 118.319 109.708 118.319C109.805 118.315 109.902 118.31 109.999 118.305C109.999 118.368 109.996 118.426 109.991 118.479C109.987 118.533 109.977 118.579 109.962 118.618C109.836 118.623 109.734 118.644 109.657 118.683C109.584 118.722 109.533 118.785 109.504 118.872C109.475 118.96 109.46 119.086 109.46 119.251V122.322C109.46 122.482 109.475 122.608 109.504 122.7C109.533 122.788 109.584 122.851 109.657 122.89C109.734 122.923 109.836 122.945 109.962 122.955C109.977 122.994 109.987 123.04 109.991 123.093C109.996 123.142 109.999 123.2 109.999 123.268C109.853 123.258 109.705 123.251 109.555 123.246C109.404 123.246 109.259 123.246 109.118 123.246C108.977 123.246 108.827 123.246 108.667 123.246C108.507 123.251 108.364 123.258 108.238 123.268ZM105.334 123.268C105.334 123.2 105.336 123.142 105.341 123.093C105.346 123.04 105.356 122.994 105.37 122.955C105.501 122.945 105.603 122.923 105.676 122.89C105.749 122.851 105.8 122.788 105.829 122.7C105.858 122.608 105.872 122.482 105.872 122.322V119.251C105.872 119.086 105.858 118.96 105.829 118.872C105.8 118.785 105.749 118.722 105.676 118.683C105.603 118.644 105.501 118.623 105.37 118.618C105.356 118.579 105.346 118.533 105.341 118.479C105.336 118.426 105.334 118.368 105.334 118.305C105.426 118.31 105.518 118.315 105.61 118.319C105.707 118.319 105.807 118.322 105.909 118.327C106.011 118.327 106.113 118.327 106.214 118.327C106.321 118.327 106.423 118.327 106.52 118.327C106.617 118.322 106.712 118.319 106.804 118.319C106.901 118.315 106.998 118.31 107.095 118.305C107.095 118.368 107.093 118.426 107.088 118.479C107.083 118.533 107.073 118.579 107.059 118.618C106.933 118.623 106.831 118.644 106.753 118.683C106.68 118.722 106.629 118.785 106.6 118.872C106.571 118.96 106.557 119.086 106.557 119.251V122.322C106.557 122.482 106.571 122.608 106.6 122.7C106.629 122.788 106.68 122.851 106.753 122.89C106.831 122.923 106.933 122.945 107.059 122.955C107.073 122.994 107.083 123.04 107.088 123.093C107.093 123.142 107.095 123.2 107.095 123.268C106.949 123.258 106.802 123.251 106.651 123.246C106.501 123.246 106.355 123.246 106.214 123.246C106.074 123.246 105.923 123.246 105.763 123.246C105.603 123.251 105.46 123.258 105.334 123.268ZM106.52 120.925V120.568H108.812V120.881C108.677 120.881 108.507 120.881 108.303 120.881C108.099 120.881 107.886 120.883 107.663 120.888C107.444 120.888 107.233 120.893 107.03 120.903C106.831 120.908 106.661 120.915 106.52 120.925ZM111.752 122.737L111.65 122.322L114.437 118.952L114.561 119.345L111.752 122.737ZM110.813 123.268C110.813 123.2 110.816 123.142 110.82 123.093C110.825 123.04 110.835 122.994 110.85 122.955C110.981 122.945 111.082 122.923 111.155 122.89C111.228 122.851 111.279 122.788 111.308 122.7C111.337 122.608 111.352 122.482 111.352 122.322V119.251C111.352 119.086 111.337 118.96 111.308 118.872C111.279 118.785 111.228 118.722 111.155 118.683C111.082 118.644 110.981 118.623 110.85 118.618C110.835 118.579 110.825 118.533 110.82 118.479C110.816 118.426 110.813 118.368 110.813 118.305C110.905 118.31 110.998 118.315 111.09 118.319C111.187 118.319 111.286 118.322 111.388 118.327C111.49 118.327 111.592 118.327 111.694 118.327C111.801 118.327 111.902 118.327 111.999 118.327C112.096 118.322 112.191 118.319 112.283 118.319C112.38 118.315 112.477 118.31 112.574 118.305C112.574 118.368 112.572 118.426 112.567 118.479C112.562 118.533 112.552 118.579 112.538 118.618C112.412 118.623 112.31 118.644 112.232 118.683C112.16 118.722 112.109 118.785 112.079 118.872C112.05 118.96 112.036 119.086 112.036 119.251V122.322C112.036 122.482 112.05 122.608 112.079 122.7C112.109 122.788 112.16 122.851 112.232 122.89C112.31 122.923 112.412 122.945 112.538 122.955C112.552 122.994 112.562 123.04 112.567 123.093C112.572 123.142 112.574 123.2 112.574 123.268C112.429 123.258 112.281 123.251 112.13 123.246C111.98 123.246 111.834 123.246 111.694 123.246C111.553 123.246 111.403 123.246 111.243 123.246C111.082 123.251 110.939 123.258 110.813 123.268ZM113.717 123.268C113.717 123.2 113.719 123.142 113.724 123.093C113.729 123.04 113.739 122.994 113.753 122.955C113.884 122.945 113.986 122.923 114.059 122.89C114.132 122.851 114.183 122.788 114.212 122.7C114.241 122.608 114.255 122.482 114.255 122.322V119.251C114.255 119.086 114.241 118.96 114.212 118.872C114.183 118.785 114.132 118.722 114.059 118.683C113.986 118.644 113.884 118.623 113.753 118.618C113.739 118.579 113.729 118.533 113.724 118.479C113.719 118.426 113.717 118.368 113.717 118.305C113.809 118.31 113.901 118.315 113.993 118.319C114.09 118.319 114.19 118.322 114.292 118.327C114.394 118.327 114.496 118.327 114.597 118.327C114.704 118.327 114.806 118.327 114.903 118.327C115 118.322 115.095 118.319 115.187 118.319C115.284 118.315 115.381 118.31 115.478 118.305C115.478 118.368 115.476 118.426 115.471 118.479C115.466 118.533 115.456 118.579 115.442 118.618C115.315 118.623 115.214 118.644 115.136 118.683C115.063 118.722 115.012 118.785 114.983 118.872C114.954 118.96 114.939 119.086 114.939 119.251V122.322C114.939 122.482 114.954 122.608 114.983 122.7C115.012 122.788 115.063 122.851 115.136 122.89C115.214 122.923 115.315 122.945 115.442 122.955C115.456 122.994 115.466 123.04 115.471 123.093C115.476 123.142 115.478 123.2 115.478 123.268C115.332 123.258 115.184 123.251 115.034 123.246C114.884 123.246 114.738 123.246 114.597 123.246C114.457 123.246 114.306 123.246 114.146 123.246C113.986 123.251 113.843 123.258 113.717 123.268ZM120.877 118.305C120.877 118.368 120.875 118.426 120.87 118.479C120.865 118.533 120.855 118.579 120.841 118.618C120.715 118.623 120.613 118.644 120.535 118.683C120.462 118.722 120.411 118.785 120.382 118.872C120.353 118.96 120.339 119.086 120.339 119.251V122.322C120.339 122.492 120.353 122.623 120.382 122.715C120.411 122.807 120.462 122.87 120.535 122.904C120.613 122.938 120.715 122.955 120.841 122.955C120.855 122.994 120.865 123.04 120.87 123.093C120.875 123.142 120.877 123.2 120.877 123.268C120.809 123.263 120.734 123.258 120.652 123.253C120.569 123.253 120.46 123.251 120.324 123.246C120.193 123.246 120.018 123.246 119.8 123.246C119.587 123.246 119.313 123.246 118.978 123.246H118.192C117.857 123.246 117.583 123.246 117.37 123.246C117.156 123.246 116.984 123.246 116.853 123.246C116.722 123.251 116.613 123.253 116.525 123.253C116.443 123.258 116.365 123.263 116.293 123.268C116.293 123.2 116.295 123.142 116.3 123.093C116.305 123.04 116.314 122.994 116.329 122.955C116.46 122.955 116.562 122.938 116.635 122.904C116.707 122.87 116.758 122.807 116.787 122.715C116.816 122.623 116.831 122.492 116.831 122.322V119.251C116.831 119.086 116.816 118.96 116.787 118.872C116.758 118.785 116.707 118.722 116.635 118.683C116.562 118.644 116.46 118.623 116.329 118.618C116.314 118.579 116.305 118.533 116.3 118.479C116.295 118.426 116.293 118.368 116.293 118.305C116.438 118.31 116.586 118.315 116.736 118.319C116.887 118.324 117.032 118.327 117.173 118.327C117.314 118.327 117.464 118.324 117.624 118.319C117.789 118.315 117.932 118.31 118.054 118.305C118.054 118.368 118.051 118.426 118.046 118.479C118.041 118.533 118.032 118.579 118.017 118.618C117.891 118.623 117.789 118.644 117.712 118.683C117.639 118.722 117.588 118.785 117.559 118.872C117.53 118.96 117.515 119.086 117.515 119.251V122.3C117.515 122.431 117.527 122.547 117.551 122.649C117.576 122.746 117.624 122.817 117.697 122.86C117.76 122.894 117.855 122.916 117.981 122.926C118.112 122.936 118.313 122.94 118.585 122.94C118.857 122.94 119.055 122.936 119.182 122.926C119.313 122.916 119.41 122.894 119.473 122.86C119.545 122.817 119.594 122.746 119.618 122.649C119.642 122.547 119.655 122.431 119.655 122.3V119.251C119.655 119.086 119.64 118.96 119.611 118.872C119.582 118.785 119.531 118.722 119.458 118.683C119.385 118.644 119.283 118.623 119.152 118.618C119.138 118.579 119.128 118.533 119.123 118.479C119.119 118.426 119.116 118.368 119.116 118.305C119.262 118.31 119.41 118.315 119.56 118.319C119.71 118.324 119.856 118.327 119.997 118.327C120.137 118.327 120.288 118.324 120.448 118.319C120.613 118.315 120.756 118.31 120.877 118.305ZM120.703 124.469C120.707 124.212 120.695 123.957 120.666 123.705C120.642 123.457 120.606 123.241 120.557 123.057L120.666 122.955H121.161C121.234 123.018 121.27 123.105 121.27 123.217C121.236 123.358 121.21 123.532 121.19 123.741C121.176 123.954 121.168 124.197 121.168 124.469C121.105 124.488 121.03 124.498 120.943 124.498C120.855 124.498 120.775 124.488 120.703 124.469Z" fill="#1B4298"/>
</g>
<defs>
<linearGradient id="paint0_linear_3010_1396" x1="22.1636" y1="10.9356" x2="27.9449" y2="10.9356" gradientUnits="userSpaceOnUse">
<stop stop-color="#2649AD"/>
<stop offset="1" stop-color="#1691D0"/>
</linearGradient>
<linearGradient id="paint1_linear_3010_1396" x1="24.6478" y1="18.2483" x2="28.8823" y2="18.2483" gradientUnits="userSpaceOnUse">
<stop stop-color="#2649AD"/>
<stop offset="1" stop-color="#1691D0"/>
</linearGradient>
<linearGradient id="paint2_linear_3010_1396" x1="28.7732" y1="17.0138" x2="31.617" y2="17.0138" gradientUnits="userSpaceOnUse">
<stop stop-color="#2649AD"/>
<stop offset="1" stop-color="#1691D0"/>
</linearGradient>
<linearGradient id="paint3_linear_3010_1396" x1="25.9761" y1="25.7174" x2="29.4449" y2="25.7174" gradientUnits="userSpaceOnUse">
<stop stop-color="#2649AD"/>
<stop offset="1" stop-color="#1691D0"/>
</linearGradient>
<linearGradient id="paint4_linear_3010_1396" x1="29.7108" y1="25.3267" x2="32.9139" y2="25.3267" gradientUnits="userSpaceOnUse">
<stop stop-color="#2649AD"/>
<stop offset="1" stop-color="#1691D0"/>
</linearGradient>
<linearGradient id="paint5_linear_3010_1396" x1="25.929" y1="33.4674" x2="29.226" y2="33.4674" gradientUnits="userSpaceOnUse">
<stop stop-color="#2649AD"/>
<stop offset="1" stop-color="#1691D0"/>
</linearGradient>
<linearGradient id="paint6_linear_3010_1396" x1="29.4763" y1="33.5299" x2="33.1951" y2="33.5299" gradientUnits="userSpaceOnUse">
<stop stop-color="#2649AD"/>
<stop offset="1" stop-color="#1691D0"/>
</linearGradient>
<linearGradient id="paint7_linear_3010_1396" x1="25.3352" y1="41.358" x2="28.7572" y2="41.358" gradientUnits="userSpaceOnUse">
<stop stop-color="#2649AD"/>
<stop offset="1" stop-color="#1691D0"/>
</linearGradient>
<linearGradient id="paint8_linear_3010_1396" x1="28.9607" y1="41.608" x2="33.0232" y2="41.608" gradientUnits="userSpaceOnUse">
<stop stop-color="#2649AD"/>
<stop offset="1" stop-color="#1691D0"/>
</linearGradient>
<linearGradient id="paint9_linear_3010_1396" x1="24.6794" y1="49.3267" x2="28.367" y2="49.3267" gradientUnits="userSpaceOnUse">
<stop stop-color="#2649AD"/>
<stop offset="1" stop-color="#1691D0"/>
</linearGradient>
<linearGradient id="paint10_linear_3010_1396" x1="28.6172" y1="49.5929" x2="32.7266" y2="49.5929" gradientUnits="userSpaceOnUse">
<stop stop-color="#2649AD"/>
<stop offset="1" stop-color="#1691D0"/>
</linearGradient>
<linearGradient id="paint11_linear_3010_1396" x1="24.273" y1="57.4522" x2="28.8669" y2="57.4522" gradientUnits="userSpaceOnUse">
<stop stop-color="#2649AD"/>
<stop offset="1" stop-color="#1691D0"/>
</linearGradient>
<linearGradient id="paint12_linear_3010_1396" x1="28.9136" y1="57.421" x2="32.7574" y2="57.421" gradientUnits="userSpaceOnUse">
<stop stop-color="#2649AD"/>
<stop offset="1" stop-color="#1691D0"/>
</linearGradient>
<linearGradient id="paint13_linear_3010_1396" x1="24.6636" y1="65.7335" x2="31.6013" y2="65.7335" gradientUnits="userSpaceOnUse">
<stop stop-color="#2649AD"/>
<stop offset="1" stop-color="#1691D0"/>
</linearGradient>
<linearGradient id="paint14_linear_3010_1396" x1="30.4607" y1="64.7022" x2="33.742" y2="64.7022" gradientUnits="userSpaceOnUse">
<stop stop-color="#2649AD"/>
<stop offset="1" stop-color="#1691D0"/>
</linearGradient>
<linearGradient id="paint15_linear_3010_1396" x1="27.7103" y1="73.4371" x2="37.148" y2="73.4371" gradientUnits="userSpaceOnUse">
<stop stop-color="#2649AD"/>
<stop offset="1" stop-color="#1691D0"/>
</linearGradient>
<linearGradient id="paint16_linear_3010_1396" x1="33.8515" y1="70.2179" x2="37.961" y2="70.2179" gradientUnits="userSpaceOnUse">
<stop stop-color="#2649AD"/>
<stop offset="1" stop-color="#1691D0"/>
</linearGradient>
<linearGradient id="paint17_linear_3010_1396" x1="33.836" y1="78.9059" x2="43.4924" y2="78.9059" gradientUnits="userSpaceOnUse">
<stop stop-color="#2649AD"/>
<stop offset="1" stop-color="#1691D0"/>
</linearGradient>
<linearGradient id="paint18_linear_3010_1396" x1="39.1639" y1="74.7027" x2="44.0546" y2="74.7027" gradientUnits="userSpaceOnUse">
<stop stop-color="#2649AD"/>
<stop offset="1" stop-color="#1691D0"/>
</linearGradient>
<linearGradient id="paint19_linear_3010_1396" x1="40.3826" y1="83.3594" x2="50.2266" y2="83.3594" gradientUnits="userSpaceOnUse">
<stop stop-color="#2649AD"/>
<stop offset="1" stop-color="#1691D0"/>
</linearGradient>
<linearGradient id="paint20_linear_3010_1396" x1="45.2111" y1="78.6871" x2="50.6644" y2="78.6871" gradientUnits="userSpaceOnUse">
<stop stop-color="#2649AD"/>
<stop offset="1" stop-color="#1691D0"/>
</linearGradient>
<linearGradient id="paint21_linear_3010_1396" x1="47.18" y1="87.2023" x2="57.149" y2="87.2023" gradientUnits="userSpaceOnUse">
<stop stop-color="#2649AD"/>
<stop offset="1" stop-color="#1691D0"/>
</linearGradient>
<linearGradient id="paint22_linear_3010_1396" x1="51.7114" y1="82.2652" x2="57.4927" y2="82.2652" gradientUnits="userSpaceOnUse">
<stop stop-color="#2649AD"/>
<stop offset="1" stop-color="#1691D0"/>
</linearGradient>
<linearGradient id="paint23_linear_3010_1396" x1="54.0395" y1="90.3908" x2="78.3681" y2="90.3908" gradientUnits="userSpaceOnUse">
<stop stop-color="#2649AD"/>
<stop offset="1" stop-color="#1691D0"/>
</linearGradient>
<linearGradient id="paint24_linear_3010_1396" x1="116.663" y1="10.795" x2="122.413" y2="10.795" gradientUnits="userSpaceOnUse">
<stop stop-color="#2649AD"/>
<stop offset="1" stop-color="#1691D0"/>
</linearGradient>
<linearGradient id="paint25_linear_3010_1396" x1="113.007" y1="16.8888" x2="115.85" y2="16.8888" gradientUnits="userSpaceOnUse">
<stop stop-color="#2649AD"/>
<stop offset="1" stop-color="#1691D0"/>
</linearGradient>
<linearGradient id="paint26_linear_3010_1396" x1="115.694" y1="18.1386" x2="119.991" y2="18.1386" gradientUnits="userSpaceOnUse">
<stop stop-color="#2649AD"/>
<stop offset="1" stop-color="#1691D0"/>
</linearGradient>
<linearGradient id="paint27_linear_3010_1396" x1="111.726" y1="25.1861" x2="114.913" y2="25.1861" gradientUnits="userSpaceOnUse">
<stop stop-color="#2649AD"/>
<stop offset="1" stop-color="#1691D0"/>
</linearGradient>
<linearGradient id="paint28_linear_3010_1396" x1="115.163" y1="25.5767" x2="118.663" y2="25.5767" gradientUnits="userSpaceOnUse">
<stop stop-color="#2649AD"/>
<stop offset="1" stop-color="#1691D0"/>
</linearGradient>
<linearGradient id="paint29_linear_3010_1396" x1="111.429" y1="33.3892" x2="115.116" y2="33.3892" gradientUnits="userSpaceOnUse">
<stop stop-color="#2649AD"/>
<stop offset="1" stop-color="#1691D0"/>
</linearGradient>
<linearGradient id="paint30_linear_3010_1396" x1="115.413" y1="33.3424" x2="118.71" y2="33.3424" gradientUnits="userSpaceOnUse">
<stop stop-color="#2649AD"/>
<stop offset="1" stop-color="#1691D0"/>
</linearGradient>
<linearGradient id="paint31_linear_3010_1396" x1="111.6" y1="41.4674" x2="115.632" y2="41.4674" gradientUnits="userSpaceOnUse">
<stop stop-color="#2649AD"/>
<stop offset="1" stop-color="#1691D0"/>
</linearGradient>
<linearGradient id="paint32_linear_3010_1396" x1="115.85" y1="41.2017" x2="119.272" y2="41.2017" gradientUnits="userSpaceOnUse">
<stop stop-color="#2649AD"/>
<stop offset="1" stop-color="#1691D0"/>
</linearGradient>
<linearGradient id="paint33_linear_3010_1396" x1="111.882" y1="49.4366" x2="115.975" y2="49.4366" gradientUnits="userSpaceOnUse">
<stop stop-color="#2649AD"/>
<stop offset="1" stop-color="#1691D0"/>
</linearGradient>
<linearGradient id="paint34_linear_3010_1396" x1="116.226" y1="49.1861" x2="119.945" y2="49.1861" gradientUnits="userSpaceOnUse">
<stop stop-color="#2649AD"/>
<stop offset="1" stop-color="#1691D0"/>
</linearGradient>
<linearGradient id="paint35_linear_3010_1396" x1="111.897" y1="57.2804" x2="115.71" y2="57.2804" gradientUnits="userSpaceOnUse">
<stop stop-color="#2649AD"/>
<stop offset="1" stop-color="#1691D0"/>
</linearGradient>
<linearGradient id="paint36_linear_3010_1396" x1="115.71" y1="57.3116" x2="120.335" y2="57.3116" gradientUnits="userSpaceOnUse">
<stop stop-color="#2649AD"/>
<stop offset="1" stop-color="#1691D0"/>
</linearGradient>
<linearGradient id="paint37_linear_3010_1396" x1="110.851" y1="64.5616" x2="114.194" y2="64.5616" gradientUnits="userSpaceOnUse">
<stop stop-color="#2649AD"/>
<stop offset="1" stop-color="#1691D0"/>
</linearGradient>
<linearGradient id="paint38_linear_3010_1396" x1="112.991" y1="65.593" x2="119.945" y2="65.593" gradientUnits="userSpaceOnUse">
<stop stop-color="#2649AD"/>
<stop offset="1" stop-color="#1691D0"/>
</linearGradient>
<linearGradient id="paint39_linear_3010_1396" x1="106.616" y1="70.0933" x2="110.757" y2="70.0933" gradientUnits="userSpaceOnUse">
<stop stop-color="#2649AD"/>
<stop offset="1" stop-color="#1691D0"/>
</linearGradient>
<linearGradient id="paint40_linear_3010_1396" x1="107.428" y1="73.2808" x2="116.897" y2="73.2808" gradientUnits="userSpaceOnUse">
<stop stop-color="#2649AD"/>
<stop offset="1" stop-color="#1691D0"/>
</linearGradient>
<linearGradient id="paint41_linear_3010_1396" x1="100.522" y1="74.5621" x2="105.397" y2="74.5621" gradientUnits="userSpaceOnUse">
<stop stop-color="#2649AD"/>
<stop offset="1" stop-color="#1691D0"/>
</linearGradient>
<linearGradient id="paint42_linear_3010_1396" x1="101.084" y1="78.781" x2="110.756" y2="78.781" gradientUnits="userSpaceOnUse">
<stop stop-color="#2649AD"/>
<stop offset="1" stop-color="#1691D0"/>
</linearGradient>
<linearGradient id="paint43_linear_3010_1396" x1="93.9278" y1="78.5621" x2="99.3498" y2="78.5621" gradientUnits="userSpaceOnUse">
<stop stop-color="#2649AD"/>
<stop offset="1" stop-color="#1691D0"/>
</linearGradient>
<linearGradient id="paint44_linear_3010_1396" x1="94.3502" y1="83.2187" x2="104.194" y2="83.2187" gradientUnits="userSpaceOnUse">
<stop stop-color="#2649AD"/>
<stop offset="1" stop-color="#1691D0"/>
</linearGradient>
<linearGradient id="paint45_linear_3010_1396" x1="87.084" y1="82.1246" x2="92.881" y2="82.1246" gradientUnits="userSpaceOnUse">
<stop stop-color="#2649AD"/>
<stop offset="1" stop-color="#1691D0"/>
</linearGradient>
<linearGradient id="paint46_linear_3010_1396" x1="87.4438" y1="87.1245" x2="97.3972" y2="87.1245" gradientUnits="userSpaceOnUse">
<stop stop-color="#2649AD"/>
<stop offset="1" stop-color="#1691D0"/>
</linearGradient>
<linearGradient id="paint47_linear_3010_1396" x1="66.24" y1="90.2653" x2="90.5374" y2="90.2653" gradientUnits="userSpaceOnUse">
<stop stop-color="#2649AD"/>
<stop offset="1" stop-color="#1691D0"/>
</linearGradient>
<clipPath id="clip0_3010_1396">
<rect width="144.892" height="130.569" fill="white"/>
</clipPath>
</defs>
</svg>
