<svg width="33" height="33" viewBox="0 0 33 33" fill="none" xmlns="http://www.w3.org/2000/svg">
<path d="M5.93 6.12922C4.25 7.82522 4.25 10.5372 4.25 15.9692V16.9292C4.25 22.3532 4.25 25.0652 5.93 26.7692C7.626 28.4492 10.338 28.4492 15.77 28.4492H16.73C22.154 28.4492 24.866 28.4492 26.57 26.7692C28.25 25.0732 28.25 22.3612 28.25 16.9292V15.9692C28.25 10.5452 28.25 7.83322 26.57 6.12922C24.874 4.44922 22.162 4.44922 16.73 4.44922H15.77C10.346 4.44922 7.634 4.44922 5.93 6.12922ZM8.298 11.7532H11.05C11.138 16.3292 13.154 18.2652 14.754 18.6652V11.7532H17.338V15.6972C18.914 15.5292 20.578 13.7292 21.138 11.7452H23.714C23.504 12.7723 23.0845 13.745 22.4816 14.6025C21.8787 15.4601 21.1054 16.1841 20.21 16.7292C21.2092 17.2264 22.0917 17.9298 22.7991 18.793C23.5066 19.6563 24.0229 20.6598 24.314 21.7372H21.474C20.866 19.8412 19.346 18.3692 17.338 18.1692V21.7372H17.018C11.546 21.7372 8.426 17.9932 8.298 11.7532Z" fill="#1691D0"/>
</svg>
